<?xml version="1.0" encoding="UTF-8" standalone="no"?>
<svg
   version="1.0"
   width="3000.000000pt"
   height="3000.000000pt"
   viewBox="0 0 3000.000000 3000.000000"
   preserveAspectRatio="xMidYMid meet"
   id="svg28"
   sodipodi:docname="back.svg"
   inkscape:version="1.2.2 (732a01da63, 2022-12-09)"
   xmlns:inkscape="http://www.inkscape.org/namespaces/inkscape"
   xmlns:sodipodi="http://sodipodi.sourceforge.net/DTD/sodipodi-0.dtd"
   xmlns="http://www.w3.org/2000/svg"
   xmlns:svg="http://www.w3.org/2000/svg">
  <defs
     id="defs32" />
  <sodipodi:namedview
     id="namedview30"
     pagecolor="#ffffff"
     bordercolor="#000000"
     borderopacity="0.25"
     inkscape:showpageshadow="2"
     inkscape:pageopacity="0.0"
     inkscape:pagecheckerboard="0"
     inkscape:deskcolor="#d1d1d1"
     inkscape:document-units="pt"
     showgrid="false"
     inkscape:zoom="0.14796209"
     inkscape:cx="1750.4483"
     inkscape:cy="2460.0895"
     inkscape:window-width="1920"
     inkscape:window-height="1017"
     inkscape:window-x="1912"
     inkscape:window-y="-8"
     inkscape:window-maximized="1"
     inkscape:current-layer="svg28" />
  <g
     transform="matrix(0.1,0,0,-0.1,81.101853,3228.099)"
     fill="#000000"
     stroke="none"
     id="g26">
    <path
       d="m 13590,26280 c -496,-31 -876,-87 -1295,-191 -66,-16 -147,-38 -180,-48 -33,-11 -94,-29 -135,-42 -41,-12 -127,-41 -190,-65 -597,-221 -1052,-514 -1368,-882 -194,-226 -300,-423 -410,-763 -93,-287 -144,-424 -246,-666 -113,-268 -146,-388 -176,-628 -33,-271 -42,-767 -21,-1155 45,-801 56,-888 138,-1059 40,-83 134,-186 197,-215 47,-22 127,-18 156,9 33,30 58,95 75,200 15,88 16,150 10,510 -7,448 0,591 40,806 40,209 114,446 200,634 68,148 161,389 188,485 27,99 37,151 87,464 51,320 109,512 221,739 69,141 179,297 269,382 l 42,40 -16,-32 c -9,-18 -29,-55 -45,-82 -81,-136 -209,-460 -275,-691 -64,-224 -77,-310 -86,-590 -10,-303 -2,-275 -158,-585 -168,-332 -235,-526 -278,-805 -25,-169 -23,-565 6,-905 35,-408 25,-527 -57,-680 -47,-89 -141,-173 -259,-233 -136,-69 -174,-115 -174,-213 0,-245 306,-692 560,-817 69,-34 80,-37 160,-36 89,1 118,10 490,143 177,64 272,86 375,86 102,0 144,-13 234,-75 150,-101 188,-183 266,-575 67,-338 170,-511 414,-695 l 34,-26 -76,-94 c -127,-158 -207,-310 -207,-393 0,-67 114,-137 223,-137 73,0 153,25 172,54 32,48 33,78 10,221 -13,77 -30,176 -39,220 -22,110 -23,107 25,90 22,-8 75,-19 117,-24 137,-18 172,-24 172,-28 0,-3 -20,-56 -45,-118 -77,-191 -105,-348 -74,-408 44,-85 128,-121 274,-119 177,4 261,30 303,96 21,34 27,56 30,127 5,105 -14,170 -88,303 l -50,89 106,-6 c 59,-4 147,-7 196,-7 h 90 l -30,-37 c -16,-21 -37,-50 -46,-64 -22,-35 -65,-256 -68,-357 -4,-101 8,-116 107,-137 104,-22 273,-15 385,15 74,20 88,79 54,245 -33,166 -54,228 -94,280 -21,27 -38,50 -37,51 1,1 106,4 232,7 l 230,6 -53,-46 c -29,-25 -59,-58 -67,-73 -21,-40 -56,-250 -58,-341 -2,-95 9,-111 102,-139 141,-44 383,-19 448,47 24,23 25,29 19,96 -18,182 -72,361 -125,418 l -38,39 h 31 c 57,0 350,21 411,29 33,5 61,7 63,6 2,-1 -6,-30 -17,-63 -28,-83 -52,-238 -54,-349 -2,-83 0,-93 22,-117 39,-42 82,-56 168,-56 95,0 240,38 289,75 50,38 65,75 66,159 0,75 -16,125 -84,260 -26,51 -56,154 -61,208 -1,11 88,105 233,244 286,275 361,370 385,485 72,360 144,475 343,557 136,55 280,51 482,-13 248,-80 375,-98 513,-76 101,16 158,40 232,94 268,199 434,691 311,927 -33,63 -85,99 -222,153 -194,76 -301,148 -362,242 -45,71 -52,120 -52,390 0,274 -14,558 -30,646 -6,31 -35,118 -66,194 -56,141 -68,201 -45,243 14,26 85,60 141,68 59,8 93,-18 109,-80 14,-58 18,-397 10,-911 -4,-270 2,-328 47,-416 59,-118 162,-157 259,-98 121,72 250,322 360,699 94,322 118,493 119,850 0,374 -29,530 -184,1000 -45,135 -96,297 -115,360 -100,338 -185,538 -336,791 -272,456 -588,811 -1044,1171 -422,333 -847,527 -1375,626 -335,63 -550,82 -970,87 -190,2 -401,0 -470,-5 z m -1588,-4050 c 308,-21 513,-61 703,-137 199,-80 332,-202 360,-331 29,-135 21,-392 -17,-542 -47,-188 -96,-259 -311,-447 -269,-236 -585,-442 -782,-509 -196,-66 -406,8 -617,219 -166,166 -240,338 -304,706 -24,136 -28,183 -28,371 -1,238 7,289 66,408 68,138 250,244 458,265 78,8 328,6 472,-3 z m 3735,-30 c 258,-29 465,-121 623,-279 78,-78 107,-133 125,-238 27,-148 15,-335 -46,-733 -47,-311 -62,-352 -150,-436 -109,-102 -236,-139 -479,-138 -164,0 -166,0 -270,37 -249,87 -564,293 -798,521 -163,158 -262,292 -308,411 -52,139 -51,362 1,466 63,124 213,228 440,304 163,56 324,84 524,94 163,8 187,8 338,-9 z m -1947,-1238 c 72,-74 120,-145 323,-482 208,-347 271,-470 329,-645 54,-165 72,-338 48,-466 -25,-133 -143,-299 -246,-349 -125,-61 -163,-32 -361,275 -172,267 -207,301 -274,272 -49,-21 -81,-60 -140,-172 -86,-164 -137,-215 -214,-215 -72,0 -118,60 -131,172 -11,99 30,278 142,618 33,100 47,153 109,425 55,242 158,483 245,576 66,70 95,69 170,-9 z"
       id="path2" />
    <path
       d="m 1290,23698 c -11,-18 -23,-49 -27,-68 -13,-60 -9,-586 5,-695 64,-495 270,-1007 715,-1780 83,-145 109,-189 235,-390 1064,-1703 2718,-3338 5047,-4989 154,-110 303,-215 330,-235 230,-169 903,-602 1327,-855 775,-462 1449,-815 2553,-1336 227,-108 993,-442 1295,-565 30,-13 116,-48 190,-80 246,-103 1003,-403 1170,-464 91,-32 255,-93 365,-134 282,-106 963,-337 1390,-472 116,-37 228,-73 250,-81 37,-12 521,-161 765,-234 101,-30 978,-283 1110,-320 36,-10 164,-45 285,-79 121,-33 235,-65 254,-70 19,-6 37,-9 39,-6 12,12 23,185 18,286 -19,356 -122,522 -409,660 -96,46 -605,220 -1197,409 -140,45 -309,99 -375,120 -191,61 -467,148 -505,158 -439,123 -1271,392 -1650,535 -36,14 -132,50 -215,80 -223,82 -795,314 -990,402 -16,8 -104,46 -195,86 -91,39 -212,94 -269,120 -57,27 -105,49 -107,49 -17,0 -757,355 -1209,580 -1001,499 -1700,886 -2415,1339 -756,478 -1360,948 -1688,1310 -101,113 -182,225 -182,253 0,36 2,35 290,-197 851,-684 1783,-1306 3005,-2007 1225,-703 2024,-1082 3315,-1573 36,-14 173,-63 305,-111 743,-267 1236,-428 2230,-729 176,-53 460,-141 630,-196 336,-109 384,-124 520,-164 50,-14 101,-30 115,-35 14,-5 102,-29 195,-53 510,-134 632,-134 967,-2 234,93 403,229 411,330 l 2,29 -130,33 c -681,172 -1315,350 -1895,533 -107,34 -220,69 -250,78 -289,84 -1525,518 -2040,715 -63,24 -182,70 -265,101 -82,32 -224,87 -315,123 -91,36 -228,90 -305,120 -251,98 -308,121 -470,188 -199,83 -284,118 -455,188 -108,44 -532,227 -675,292 -16,7 -59,25 -95,40 -36,15 -166,74 -290,132 -123,58 -258,121 -300,140 -238,110 -356,167 -745,363 -840,423 -1287,677 -2128,1209 -343,217 -1141,746 -1273,844 -23,18 -85,61 -136,97 -596,414 -1442,1075 -2048,1599 -524,453 -1107,1008 -1524,1451 -214,227 -658,712 -801,875 -38,44 -106,121 -151,170 -125,139 -443,511 -609,710 -361,433 -593,738 -725,951 -100,161 -182,254 -223,254 -20,0 -33,-9 -47,-32 z"
       id="path4" />
    <path
       d="m 26586,23678 c -28,-29 -74,-88 -101,-131 -180,-280 -280,-415 -554,-752 -292,-359 -571,-683 -1020,-1185 -858,-959 -1519,-1613 -2341,-2316 -1021,-874 -2185,-1721 -3490,-2539 -539,-339 -1135,-684 -1590,-920 -41,-21 -133,-70 -205,-107 -71,-38 -267,-136 -435,-219 -278,-138 -379,-187 -570,-277 -36,-17 -119,-56 -185,-87 -66,-31 -224,-103 -351,-160 -127,-57 -260,-117 -297,-134 -77,-35 -413,-180 -642,-276 -145,-61 -284,-119 -537,-222 -78,-31 -109,-53 -77,-53 6,0 122,-49 258,-109 235,-105 714,-301 734,-301 11,0 381,163 536,236 62,30 115,54 117,54 7,0 594,293 664,332 36,19 101,55 145,78 475,253 1319,735 1715,980 47,29 126,78 175,108 85,52 192,119 405,256 531,340 1137,775 1575,1129 116,94 216,175 223,180 29,22 23,-6 -13,-60 -125,-191 -468,-519 -850,-814 -246,-190 -775,-559 -965,-673 -25,-15 -88,-54 -140,-88 -186,-119 -680,-409 -1025,-601 -514,-285 -1588,-828 -2075,-1049 -182,-83 -292,-140 -284,-147 5,-4 63,-27 129,-49 66,-22 206,-70 310,-107 105,-36 253,-85 330,-109 77,-25 204,-65 283,-89 l 143,-45 132,63 c 73,34 166,78 207,98 310,145 1014,502 1255,637 17,9 75,41 130,70 314,168 908,518 1305,768 600,380 1384,928 2015,1410 1733,1325 3043,2653 3957,4014 481,715 847,1398 1012,1888 126,375 160,598 154,1014 -3,244 -4,252 -28,301 -20,40 -31,51 -54,53 -23,3 -37,-6 -80,-50 z m -776,-2051 c 0,-21 -28,-103 -68,-197 -167,-400 -646,-1094 -1201,-1740 -706,-822 -1501,-1597 -2011,-1962 -109,-78 -212,-141 -249,-153 -68,-21 9,59 374,390 366,332 537,496 896,854 922,922 1576,1733 2117,2626 46,77 93,152 104,168 21,29 38,35 38,14 z"
       id="path6" />
    <path
       d="m 16658,19060 c -67,-12 -147,-51 -187,-91 -52,-51 -188,-224 -244,-309 -58,-88 -145,-268 -175,-360 -57,-174 -87,-323 -142,-708 -54,-376 -75,-463 -143,-597 -51,-98 -137,-187 -258,-268 -86,-57 -249,-140 -303,-153 -25,-6 -27,-5 -18,12 53,100 93,352 61,390 -23,28 -95,53 -184,64 -124,15 -197,-4 -301,-81 -143,-105 -157,-195 -63,-398 22,-46 37,-87 34,-90 -6,-6 -327,-19 -335,-13 -2,1 2,17 9,35 48,118 73,218 78,309 7,112 -2,135 -65,167 -60,31 -118,42 -215,43 -168,0 -289,-35 -304,-90 -21,-75 1,-283 44,-415 9,-26 14,-49 12,-51 -4,-4 -326,-10 -341,-7 -4,0 14,45 39,98 58,122 83,216 83,318 0,138 -23,150 -275,149 -222,-1 -280,-9 -313,-41 -24,-24 -25,-27 -18,-125 9,-138 36,-240 97,-360 l 19,-38 h -52 c -68,0 -331,20 -337,25 -2,3 13,42 34,87 21,46 44,116 51,158 16,88 18,228 4,264 -22,59 -132,91 -290,82 -129,-6 -204,-28 -242,-68 -28,-30 -28,-32 -28,-152 0,-89 5,-140 19,-191 11,-38 18,-72 15,-74 -7,-8 -185,49 -259,82 -91,41 -146,82 -223,168 -124,139 -149,216 -192,591 -22,200 -26,218 -73,378 -42,142 -248,712 -290,800 -50,106 -104,185 -170,246 -67,62 -101,80 -183,95 -146,27 -321,-71 -353,-196 -25,-98 -9,-166 85,-368 134,-285 190,-507 200,-786 4,-88 1,-213 -5,-286 -23,-258 -25,-384 -7,-475 39,-209 128,-306 526,-575 251,-169 334,-239 620,-520 140,-137 295,-280 344,-317 197,-146 310,-160 871,-107 271,25 626,35 770,20 61,-6 205,-22 320,-36 318,-37 509,-31 632,20 47,20 134,77 197,129 26,23 134,138 239,256 233,263 292,317 520,478 306,216 401,303 452,414 20,43 25,76 30,178 17,343 74,641 200,1045 58,186 113,376 134,465 53,228 63,272 81,365 29,144 44,303 33,344 -6,25 -19,40 -43,52 -41,22 -155,31 -222,19 z"
       id="path8" />
    <path
       d="m 6370,13900 c -179,-14 -360,-76 -485,-164 -199,-143 -298,-351 -297,-627 1,-158 27,-277 89,-408 38,-79 58,-107 127,-175 139,-138 310,-206 520,-206 230,0 361,76 447,260 67,142 70,147 96,159 30,14 66,6 118,-27 103,-64 181,-156 335,-397 334,-524 534,-961 705,-1540 15,-49 35,-117 45,-150 10,-33 28,-94 40,-135 12,-41 28,-95 35,-120 7,-25 34,-121 60,-215 25,-93 55,-197 65,-230 10,-33 39,-132 65,-220 64,-220 80,-264 141,-390 138,-284 372,-493 671,-600 257,-92 629,-100 940,-19 252,65 404,201 458,409 22,88 20,298 -5,418 -32,159 -81,257 -166,338 -106,100 -202,133 -389,134 -113,0 -136,-3 -178,-22 -77,-36 -148,-116 -201,-226 -26,-53 -50,-99 -55,-102 -22,-13 -72,23 -161,113 -255,259 -334,459 -374,942 -28,347 -30,501 -7,620 34,174 116,313 275,470 42,41 76,80 76,87 0,17 -54,30 -180,43 -282,31 -490,116 -607,251 -62,71 -86,109 -238,384 -244,441 -415,666 -685,899 -338,292 -677,434 -1075,449 -60,3 -153,1 -205,-3 z"
       id="path10" />
    <path
       d="m 21205,13900 c -393,-30 -741,-198 -1079,-522 -213,-203 -343,-374 -521,-683 -230,-401 -282,-468 -455,-583 -75,-50 -227,-122 -420,-199 -87,-35 -120,-59 -120,-88 0,-15 25,-55 63,-102 159,-197 200,-301 216,-542 26,-381 -50,-867 -173,-1109 -95,-188 -346,-458 -396,-427 -5,3 -29,48 -54,100 -53,113 -123,192 -199,226 -46,21 -67,24 -177,24 -101,-1 -139,-5 -197,-23 -195,-61 -308,-208 -358,-466 -14,-70 -16,-123 -13,-245 5,-145 7,-161 35,-227 42,-100 84,-154 170,-220 101,-77 228,-120 457,-155 180,-27 428,-23 574,10 361,80 635,286 811,606 52,95 84,177 132,340 53,181 167,577 209,730 23,83 49,177 60,210 10,33 39,132 65,220 168,574 360,999 678,1505 172,274 231,347 337,419 102,70 147,64 186,-26 98,-227 166,-296 334,-339 79,-20 273,-14 364,11 251,70 422,251 493,522 33,128 37,337 9,453 -99,406 -482,621 -1031,580 z"
       id="path12" />
    <path
       d="m 11045,13218 c -121,-39 -247,-78 -280,-88 -33,-10 -161,-50 -285,-89 -242,-75 -1039,-312 -1285,-381 -371,-105 -460,-131 -467,-138 -23,-23 55,-165 128,-234 56,-52 175,-113 273,-138 103,-27 282,-38 458,-28 175,9 369,46 701,132 179,47 917,259 1042,299 137,45 796,254 880,279 19,6 38,13 42,17 4,3 -36,24 -90,45 -192,76 -401,171 -624,282 -124,63 -237,113 -250,113 -13,-1 -122,-33 -243,-71 z"
       id="path14" />
    <path
       d="m 12540,12729 c -14,-6 -104,-35 -200,-66 -96,-30 -229,-72 -295,-93 -66,-21 -205,-65 -310,-98 -104,-33 -284,-90 -400,-126 -459,-146 -943,-299 -1255,-398 -166,-52 -373,-136 -466,-189 -95,-55 -197,-142 -239,-206 -34,-51 -75,-159 -96,-258 -16,-70 -18,-430 -3,-444 19,-19 1520,408 2289,651 105,33 276,87 380,119 311,97 945,312 1330,451 462,166 445,160 450,168 3,4 -73,38 -168,76 -231,91 -572,233 -677,282 -107,50 -311,142 -313,141 -1,0 -13,-5 -27,-10 z"
       id="path16" />
    <path
       d="m 5965,12000 c -79,-11 -120,-24 -166,-55 -59,-38 -73,-74 -66,-169 10,-149 102,-355 237,-535 50,-66 90,-123 90,-126 0,-14 -76,7 -120,32 -139,81 -222,195 -295,408 -114,329 -215,406 -534,407 -213,0 -300,-33 -353,-135 -46,-92 -14,-330 89,-652 97,-303 252,-511 494,-662 97,-61 167,-76 439,-93 433,-28 1740,0 1892,41 46,12 110,82 127,141 39,128 -2,395 -96,623 -71,174 -273,500 -387,624 -72,77 -166,131 -258,146 -49,8 -161,-11 -209,-36 -74,-37 -95,-124 -64,-257 28,-117 80,-208 269,-466 26,-37 46,-69 43,-72 -9,-10 -84,34 -158,94 -152,121 -260,272 -329,462 -60,163 -122,222 -276,259 -91,22 -281,33 -369,21 z"
       id="path18" />
    <path
       d="m 21670,12004 c -157,-13 -259,-46 -327,-107 -42,-39 -69,-85 -106,-187 -52,-141 -110,-232 -217,-339 -68,-67 -228,-196 -236,-189 -2,3 19,35 46,72 149,196 236,383 247,527 6,86 -10,136 -56,168 -72,51 -231,60 -325,17 -80,-35 -204,-161 -288,-291 -222,-341 -303,-523 -348,-784 -24,-137 -25,-188 -5,-266 21,-82 57,-133 108,-155 143,-62 1773,-85 2127,-29 113,17 143,29 242,95 256,170 399,396 502,790 135,517 75,638 -315,636 -294,-1 -401,-76 -500,-351 -58,-162 -83,-214 -133,-285 -59,-83 -159,-163 -249,-201 -44,-18 -43,-15 8,50 84,105 175,282 233,451 38,110 49,188 32,237 -16,50 -79,101 -148,121 -58,16 -212,27 -292,20 z"
       id="path20" />
    <path
       d="m 3815,11954 c -16,-2 -70,-9 -120,-15 -237,-29 -450,-143 -587,-314 -226,-279 -275,-810 -109,-1169 94,-204 258,-380 461,-495 170,-97 319,-140 510,-148 111,-5 136,-2 227,20 250,62 525,244 714,473 119,146 143,239 59,236 -36,-1 -74,-24 -199,-121 -176,-138 -228,-156 -446,-155 -170,0 -222,10 -292,57 -38,26 -67,79 -58,107 7,23 56,50 154,87 251,94 378,193 457,357 53,110 67,194 61,360 -7,180 -35,275 -123,408 -101,152 -278,265 -464,296 -78,13 -204,22 -245,16 z"
       id="path22" />
    <path
       d="m 23880,11954 c -14,-2 -59,-9 -100,-15 -218,-32 -417,-176 -514,-373 -50,-103 -75,-195 -82,-305 -18,-264 72,-487 250,-619 66,-49 195,-112 318,-156 42,-15 83,-35 92,-45 14,-15 14,-20 -2,-51 -22,-44 -99,-84 -204,-105 -88,-17 -290,-20 -358,-4 -77,18 -163,66 -244,136 -129,112 -148,124 -181,121 -97,-10 -52,-203 86,-367 147,-174 376,-293 657,-342 402,-68 753,44 1023,328 200,210 298,461 299,762 0,218 -40,412 -115,563 -127,252 -364,415 -665,457 -94,13 -227,20 -260,15 z"
       id="path24" />
  </g>
</svg>
