<?xml version="1.0" encoding="UTF-8" standalone="no"?>
<!-- Uploaded to: SVG Repo, www.svgrepo.com, Generator: SVG Repo Mixer Tools -->

<svg
   fill="#000000"
   height="800px"
   width="800px"
   version="1.1"
   id="Capa_1"
   viewBox="0 0 511 511"
   xml:space="preserve"
   sodipodi:docname="back.svg"
   inkscape:version="1.2.2 (732a01da63, 2022-12-09)"
   xmlns:inkscape="http://www.inkscape.org/namespaces/inkscape"
   xmlns:sodipodi="http://sodipodi.sourceforge.net/DTD/sodipodi-0.dtd"
   xmlns="http://www.w3.org/2000/svg"
   xmlns:svg="http://www.w3.org/2000/svg"><defs
   id="defs31" /><sodipodi:namedview
   id="namedview29"
   pagecolor="#ffffff"
   bordercolor="#000000"
   borderopacity="0.25"
   inkscape:showpageshadow="2"
   inkscape:pageopacity="0.0"
   inkscape:pagecheckerboard="0"
   inkscape:deskcolor="#d1d1d1"
   showgrid="false"
   inkscape:zoom="0.73981047"
   inkscape:cx="343.33118"
   inkscape:cy="450.11528"
   inkscape:window-width="1920"
   inkscape:window-height="1017"
   inkscape:window-x="1912"
   inkscape:window-y="-8"
   inkscape:window-maximized="1"
   inkscape:current-layer="Capa_1" />
<g
   id="g26"
   transform="matrix(0.83546438,0,0,0.83546438,44.896634,34.004868)">
	<path
   d="m 343.5,292 h -176 c -21.78,0 -39.5,17.72 -39.5,39.5 v 96 c 0,21.78 17.72,39.5 39.5,39.5 h 176 c 21.78,0 39.5,-17.72 39.5,-39.5 v -96 C 383,309.72 365.28,292 343.5,292 Z M 368,427.5 c 0,13.509 -10.991,24.5 -24.5,24.5 h -176 C 153.991,452 143,441.009 143,427.5 v -96 c 0,-13.509 10.991,-24.5 24.5,-24.5 h 176 c 13.509,0 24.5,10.991 24.5,24.5 z"
   id="path2" />
	<path
   d="m 220.803,334.197 c -2.929,-2.929 -7.678,-2.929 -10.606,0 l -40,40 c -2.929,2.929 -2.929,7.678 0,10.606 l 40,40 c 1.464,1.464 3.384,2.197 5.303,2.197 1.919,0 3.839,-0.732 5.303,-2.197 2.929,-2.929 2.929,-7.678 0,-10.606 L 186.106,379.5 220.803,344.803 c 2.929,-2.928 2.929,-7.678 0,-10.606 z"
   id="path4" />
	<path
   d="m 300.803,334.197 c -2.929,-2.929 -7.678,-2.929 -10.606,0 -2.929,2.929 -2.929,7.678 0,10.606 l 34.697,34.697 -34.697,34.697 c -2.929,2.929 -2.929,7.678 0,10.606 1.464,1.464 3.384,2.197 5.303,2.197 1.919,0 3.839,-0.732 5.303,-2.197 l 40,-40 c 2.929,-2.929 2.929,-7.678 0,-10.606 z"
   id="path6" />
	<path
   d="m 255.5,388 c -1.97,0 -3.91,0.8 -5.3,2.2 -1.4,1.39 -2.2,3.33 -2.2,5.3 0,1.97 0.8,3.91 2.2,5.3 1.39,1.4 3.33,2.2 5.3,2.2 1.97,0 3.91,-0.8 5.3,-2.2 1.4,-1.39 2.2,-3.33 2.2,-5.3 0,-1.98 -0.8,-3.91 -2.2,-5.3 -1.39,-1.4 -3.33,-2.2 -5.3,-2.2 z"
   id="path8" />
	<path
   d="m 279.5,388 c -1.97,0 -3.91,0.8 -5.3,2.2 -1.4,1.39 -2.2,3.33 -2.2,5.3 0,1.97 0.8,3.91 2.2,5.3 1.39,1.4 3.33,2.2 5.3,2.2 1.97,0 3.91,-0.8 5.3,-2.2 1.4,-1.39 2.2,-3.33 2.2,-5.3 0,-1.97 -0.8,-3.91 -2.2,-5.3 -1.39,-1.4 -3.33,-2.2 -5.3,-2.2 z"
   id="path10" />
	<path
   d="m 231.5,388 c -1.97,0 -3.91,0.8 -5.3,2.2 -1.4,1.39 -2.2,3.33 -2.2,5.3 0,1.97 0.8,3.91 2.2,5.3 1.39,1.4 3.33,2.2 5.3,2.2 1.97,0 3.91,-0.8 5.3,-2.2 1.4,-1.39 2.2,-3.33 2.2,-5.3 0,-1.97 -0.8,-3.91 -2.2,-5.3 -1.39,-1.4 -3.32,-2.2 -5.3,-2.2 z"
   id="path12" />
	<path
   d="M 493.609,207.138 C 483.66,193.837 469.891,183.499 454.437,177.634 452.083,150.805 440.22,125.934 420.701,107.13 399.864,87.055 372.447,76 343.5,76 333.88,76 324.332,77.238 315.053,79.684 289.97,56.639 257.631,44 223.5,44 195.928,44 169.398,52.246 146.781,67.846 125.997,82.181 109.766,101.786 99.617,124.753 43.39,130.734 0,178.501 0,235.5 c 0,28.288 10.609,55.263 29.874,75.957 19.163,20.585 45.109,33.092 73.059,35.218 4.13,0.312 7.733,-2.779 8.047,-6.91 0.314,-4.13 -2.779,-7.733 -6.91,-8.047 C 79.891,329.879 57.44,319.053 40.853,301.236 24.181,283.328 15,259.982 15,235.5 c 0,-50.68 39.642,-92.925 90.248,-96.176 2.882,-0.185 5.402,-2.008 6.479,-4.688 8.871,-22.075 23.938,-40.9 43.571,-54.443 C 175.399,66.329 198.983,59 223.5,59 c 31.649,0 61.569,12.227 84.248,34.427 1.962,1.921 4.818,2.614 7.444,1.812 C 324.369,92.426 333.894,91 343.5,91 c 51.814,0 94.107,40.591 96.284,92.409 0.133,3.166 2.242,5.906 5.267,6.847 30.474,9.473 50.949,37.3 50.949,69.244 0,18.1 -6.707,35.429 -18.885,48.797 -12.099,13.281 -28.562,21.568 -46.356,23.335 -0.587,0.059 -1.153,0.184 -1.69,0.367 h -21.571 c -4.142,0 -7.5,3.358 -7.5,7.5 0,4.142 3.358,7.5 7.5,7.5 H 431.5 c 1.15,0 2.24,-0.259 3.214,-0.722 20.538,-2.631 39.452,-12.47 53.49,-27.879 C 502.904,302.262 511,281.345 511,259.5 c 0,-19.045 -6.014,-37.151 -17.391,-52.362 z"
   id="path14" />
	<path
   d="m 62.985,181.923 c -3.08,-2.77 -7.822,-2.52 -10.592,0.559 C 39.243,197.099 32,215.927 32,235.5 c 0,15.741 4.665,31.01 13.49,44.154 1.447,2.156 3.818,3.32 6.233,3.32 1.438,0 2.891,-0.413 4.174,-1.274 3.439,-2.309 4.355,-6.968 2.046,-10.407 C 50.784,260.63 47,248.252 47,235.5 c 0,-15.862 5.875,-31.127 16.544,-42.985 2.77,-3.079 2.52,-7.822 -0.559,-10.592 z"
   id="path16" />
	<path
   d="m 275.105,107.646 c 1.328,0.959 2.864,1.42 4.385,1.42 2.327,0 4.62,-1.079 6.086,-3.109 2.425,-3.358 1.669,-8.046 -1.688,-10.472 C 266.24,82.738 245.357,76 223.5,76 c -4.142,0 -7.5,3.358 -7.5,7.5 0,4.142 3.358,7.5 7.5,7.5 18.684,0 36.529,5.756 51.605,16.646 z"
   id="path18" />
	<path
   d="m 102.677,156.609 c -6.03,0.667 -11.979,2.028 -17.68,4.046 -3.905,1.382 -5.95,5.668 -4.568,9.573 1.089,3.078 3.982,5 7.07,5 0.83,0 1.675,-0.139 2.502,-0.432 4.617,-1.634 9.436,-2.737 14.324,-3.277 4.117,-0.456 7.085,-4.162 6.63,-8.279 -0.454,-4.118 -4.153,-7.082 -8.278,-6.631 z"
   id="path20" />
	<path
   d="m 357.848,124.593 c 0.557,0.126 1.114,0.186 1.662,0.186 3.427,0 6.521,-2.364 7.309,-5.847 0.914,-4.04 -1.621,-8.056 -5.661,-8.97 C 355.401,108.66 349.46,108 343.5,108 c -4.142,0 -7.5,3.358 -7.5,7.5 0,4.142 3.358,7.5 7.5,7.5 4.849,0 9.676,0.536 14.348,1.593 z"
   id="path22" />
	<path
   d="m 427.793,217.456 c 1.168,0.662 2.438,0.977 3.691,0.977 2.613,0 5.151,-1.368 6.532,-3.803 2.042,-3.603 0.777,-8.18 -2.827,-10.223 -7.401,-4.195 -12.034,-11.778 -12.391,-20.284 -0.958,-22.817 -11.629,-44.116 -29.277,-58.436 -3.216,-2.61 -7.94,-2.119 -10.549,1.098 -2.61,3.216 -2.119,7.939 1.098,10.549 14.31,11.612 22.963,28.895 23.742,47.418 0.576,13.712 8.045,25.938 19.981,32.704 z"
   id="path24" />
</g>
</svg>
