<?xml version="1.0" encoding="UTF-8" standalone="no"?>
<!-- Created with Inkscape (http://www.inkscape.org/) -->

<svg
   width="340"
   height="340"
   viewBox="0 0 89.958331 89.958333"
   version="1.1"
   id="svg76533"
   inkscape:version="1.2.2 (732a01da63, 2022-12-09)"
   sodipodi:docname="fruit_02.svg"
   xmlns:inkscape="http://www.inkscape.org/namespaces/inkscape"
   xmlns:sodipodi="http://sodipodi.sourceforge.net/DTD/sodipodi-0.dtd"
   xmlns="http://www.w3.org/2000/svg"
   xmlns:svg="http://www.w3.org/2000/svg">
  <sodipodi:namedview
     id="namedview76535"
     pagecolor="#ffffff"
     bordercolor="#000000"
     borderopacity="0.25"
     inkscape:showpageshadow="2"
     inkscape:pageopacity="0.0"
     inkscape:pagecheckerboard="0"
     inkscape:deskcolor="#d1d1d1"
     inkscape:document-units="mm"
     showgrid="false"
     inkscape:zoom="1.4912879"
     inkscape:cx="272.2479"
     inkscape:cy="267.88926"
     inkscape:window-width="1346"
     inkscape:window-height="1040"
     inkscape:window-x="84"
     inkscape:window-y="16"
     inkscape:window-maximized="0"
     inkscape:current-layer="layer1" />
  <defs
     id="defs76530">
    <clipPath
       clipPathUnits="userSpaceOnUse"
       id="clipPath20">
      <path
         d="m 2578.7,4156.57 c 3.86,-0.95 18.76,-22.43 20.55,-25.98 13.7,-27.05 23.93,-47.07 7.03,-72.24 -9.69,-14.46 -38.87,-19.4 -56.29,-19.7 -160.57,-2.77 -242.89,-63.69 -270.19,-161.84 -10.82,-38.92 -26.73,-135.1 17.24,-229.61 10.14,-21.81 24.97,-41.3 41.17,-59.06 60,-65.76 155.63,-84.12 244.54,-88.77 65.92,-3.44 117.82,4.52 186.78,53.77 37.5,26.78 77.4,72.71 92.88,129.47 21.36,78.35 37.99,170.28 -40.81,274.42 -65.03,85.92 -106.66,39.75 -98.51,87.24 6.9,40.24 47.8,56.96 85.84,71.78 -6.46,3 -10.05,3.46 -16.91,5.37 -6.41,1.78 -13.05,3.08 -19.7,2.63 -10.91,-0.73 -5.36,0.73 -14.98,-4.49 -0.23,20.41 -3.53,38.7 -8.28,58.56 -21.08,-14.68 -55.55,-46.15 -56.3,-43.13 -5.98,23.97 -18.98,46.14 -36.97,63.06 -3.46,-15.19 -6.76,-32.3 -10.24,-47.5 -1.76,-7.71 -7.08,-19.14 -8.28,-17.46 -7.38,10.46 -16.3,20.39 -27.99,25.62 -11.69,5.22 -34.45,-1.19 -30.58,-2.14"
         id="path18" />
    </clipPath>
    <clipPath
       clipPathUnits="userSpaceOnUse"
       id="clipPath66">
      <path
         d="m 2183.42,4196.03 c -4.32,-1.07 -20.97,-25.09 -22.98,-29.06 -15.32,-30.24 -26.75,-52.63 -7.87,-80.78 10.85,-16.16 43.48,-21.69 62.95,-22.03 179.55,-3.09 271.61,-71.21 302.13,-180.96 12.11,-43.53 29.9,-151.07 -19.27,-256.77 -11.33,-24.38 -27.92,-46.17 -46.04,-66.04 -67.09,-73.53 -174.03,-94.07 -273.44,-99.26 -73.72,-3.85 -131.76,5.06 -208.87,60.13 -41.93,29.95 -86.55,81.3 -103.86,144.78 -23.89,87.61 -42.48,190.41 45.64,306.85 72.71,96.09 119.27,44.46 110.15,97.56 -7.72,45 -53.45,63.69 -95.99,80.26 7.22,3.37 11.23,3.88 18.91,6.01 7.17,1.99 14.6,3.45 22.03,2.94 12.2,-0.82 5.99,0.82 16.75,-5.02 0.25,22.82 3.95,43.28 9.27,65.48 23.56,-16.41 62.1,-51.6 62.95,-48.23 6.68,26.81 21.21,51.6 41.33,70.52 3.88,-16.99 7.56,-36.12 11.45,-53.11 1.97,-8.63 7.93,-21.41 9.26,-19.52 8.26,11.68 18.23,22.79 31.3,28.63 13.07,5.84 38.52,-1.32 34.2,-2.38"
         id="path64" />
    </clipPath>
    <clipPath
       clipPathUnits="userSpaceOnUse"
       id="clipPath80">
      <path
         d="m 2476.92,3532.09 c 41.57,58.08 99.46,104.34 165.27,132.08 74.88,31.57 139.95,63.9 217.95,86.73 25.58,7.49 68.63,24.35 80.79,0.64 6.62,-12.92 -5.55,-42.41 -10.07,-56.21 -40.93,-124.85 -152.83,-223.67 -281.78,-248.85 -54.02,-10.54 -109.56,-8.96 -164.56,-7.34 -26.65,0.78 -61.2,8.41 -63.94,34.93 23.44,22.41 37.47,31.66 56.34,58.02"
         id="path78" />
    </clipPath>
    <clipPath
       clipPathUnits="userSpaceOnUse"
       id="clipPath92">
      <path
         d="m 2263.81,3573.12 c -33.26,-30.23 -90.52,-38.83 -134.99,-32.35 -44.48,6.48 -85.46,29.89 -117.61,61.3 -76.18,74.45 -86.08,207.64 -45.19,305.98 15.53,37.34 42.85,73.47 81.45,88.54 27.09,10.57 65.71,25.61 90.63,6.06 13.37,-10.49 13.56,-27.62 11.09,-44.44 -2.47,-16.82 -7.37,-33.1 -16.17,-47.64 -22.97,-37.94 -9.4,-52.61 -8.68,-66.23 1.49,-28.34 12.17,-48.38 20.64,-75.48 3,-0.06 -2.53,42.27 5.01,55.85 14.97,26.95 20.17,24.86 23.96,39.94 4.93,19.56 1.97,23.16 7.91,42.44 5.21,16.88 23.8,26.66 29.93,43.24 3.24,8.77 3.2,50.18 9.14,57.41 6.22,7.58 17.11,8.98 26.9,9.66 47.96,3.35 103.67,-17 144.77,-41.93 37.79,-22.93 62.62,-65.36 74.88,-107.83 12.26,-42.47 26.01,-66.41 4.99,-155.75 -23.96,-101.84 -38.94,-111.82 -95.85,-143.77 -34.05,-19.12 -99.83,-20.96 -112.81,5"
         id="path90" />
    </clipPath>
    <clipPath
       clipPathUnits="userSpaceOnUse"
       id="clipPath1218">
      <path
         d="m 2183.42,4196.03 c -4.32,-1.07 -20.97,-25.09 -22.98,-29.06 -15.32,-30.24 -26.75,-52.63 -7.87,-80.78 10.85,-16.16 43.48,-21.69 62.95,-22.03 179.55,-3.09 271.61,-71.21 302.13,-180.96 12.11,-43.53 29.9,-151.07 -19.27,-256.77 -11.33,-24.38 -27.92,-46.17 -46.04,-66.04 -67.09,-73.53 -174.03,-94.07 -273.44,-99.26 -73.72,-3.85 -131.76,5.06 -208.87,60.13 -41.93,29.95 -86.55,81.3 -103.86,144.78 -23.89,87.61 -42.48,190.41 45.64,306.85 72.71,96.09 119.27,44.46 110.15,97.56 -7.72,45 -53.45,63.69 -95.99,80.26 7.22,3.37 11.23,3.88 18.91,6.01 7.17,1.99 14.6,3.45 22.03,2.94 12.2,-0.82 5.99,0.82 16.75,-5.02 0.25,22.82 3.95,43.28 9.27,65.48 23.56,-16.41 62.1,-51.6 62.95,-48.23 6.68,26.81 21.21,51.6 41.33,70.52 3.88,-16.99 7.56,-36.12 11.45,-53.11 1.97,-8.63 7.93,-21.41 9.26,-19.52 8.26,11.68 18.23,22.79 31.3,28.63 13.07,5.84 38.52,-1.32 34.2,-2.38"
         id="path1216" />
    </clipPath>
    <clipPath
       clipPathUnits="userSpaceOnUse"
       id="clipPath1242">
      <path
         d="m 2578.7,4156.57 c 3.86,-0.95 18.76,-22.43 20.55,-25.98 13.7,-27.05 23.93,-47.07 7.03,-72.24 -9.69,-14.46 -38.87,-19.4 -56.29,-19.7 -160.57,-2.77 -242.89,-63.69 -270.19,-161.84 -10.82,-38.92 -26.73,-135.1 17.24,-229.61 10.14,-21.81 24.97,-41.3 41.17,-59.06 60,-65.76 155.63,-84.12 244.54,-88.77 65.92,-3.44 117.82,4.52 186.78,53.77 37.5,26.78 77.4,72.71 92.88,129.47 21.36,78.35 37.99,170.28 -40.81,274.42 -65.03,85.92 -106.66,39.75 -98.51,87.24 6.9,40.24 47.8,56.96 85.84,71.78 -6.46,3 -10.05,3.46 -16.91,5.37 -6.41,1.78 -13.05,3.08 -19.7,2.63 -10.91,-0.73 -5.36,0.73 -14.98,-4.49 -0.23,20.41 -3.53,38.7 -8.28,58.56 -21.08,-14.68 -55.55,-46.15 -56.3,-43.13 -5.98,23.97 -18.98,46.14 -36.97,63.06 -3.46,-15.19 -6.76,-32.3 -10.24,-47.5 -1.76,-7.71 -7.08,-19.14 -8.28,-17.46 -7.38,10.46 -16.3,20.39 -27.99,25.62 -11.69,5.22 -34.45,-1.19 -30.58,-2.14"
         id="path1240" />
    </clipPath>
    <clipPath
       clipPathUnits="userSpaceOnUse"
       id="clipPath1570">
      <path
         d="m 4309.88,2179.31 c 7.03,30.16 48.75,103.94 71.81,124.6 29.32,26.27 64.18,46.23 88.91,76.87 6.2,7.69 11.24,16.49 18.87,22.77 11.98,9.88 29.87,11.93 43.78,5.01 16.63,-8.28 25.48,-26.61 39.4,-38.92 18.34,-16.22 43.81,-20.8 66.97,-28.77 20.22,-6.95 39.4,-16.9 56.73,-29.42 13.12,-9.47 25.16,-20.4 36.27,-32.15 48.21,-50.99 78.76,-118.27 85.93,-188.08 7.16,-69.8 -9.02,-141.73 -44.94,-202.01 -11.19,-18.79 -24.41,-36.64 -41.21,-50.63 -36.95,-30.77 -92.23,-68.16 -179.83,-51.27 -47.21,9.11 -120.1,31 -155.3,63.75 -92.89,86.4 -117.98,196.92 -87.39,328.25"
         id="path1568" />
    </clipPath>
    <clipPath
       clipPathUnits="userSpaceOnUse"
       id="clipPath1618">
      <path
         d="m 4157.57,1943.63 c 0,0 -15.44,-92.59 16.27,-161.93 23.63,-51.69 103.66,-128.17 170.58,-137.74 66.92,-9.58 145.31,-16.27 215.24,37.39 69.93,53.65 140.91,229.43 105.47,256.24 -35.45,26.79 -507.56,6.04 -507.56,6.04"
         id="path1616" />
    </clipPath>
    <clipPath
       clipPathUnits="userSpaceOnUse"
       id="clipPath1660">
      <path
         d="m 4421.57,1970.37 c 1.83,24.18 3.68,48.36 5.51,72.55 0.11,1.37 0.14,2.89 -1.25,3.88 -1.16,0.82 -3.03,1.03 -4.78,1.18 -45.19,3.91 -94.21,-7.03 -128.15,-28.6 -4.75,-3.01 -9.58,-6.89 -8.66,-11 0.59,-2.63 3.43,-4.69 6.22,-6.53 25.5,-16.92 57.04,-29.94 79.62,-48.55 7.42,-6.12 29.67,-27.33 46.52,-18.42 9.05,4.79 4.47,28.96 4.97,35.49"
         id="path1658" />
    </clipPath>
    <clipPath
       clipPathUnits="userSpaceOnUse"
       id="clipPath1670">
      <path
         d="m 4357.59,1949.55 c -28.33,16.08 -56.66,32.15 -84.99,48.22 -1.61,0.92 -3.45,1.89 -5.56,1.84 -1.77,-0.04 -3.27,-0.8 -4.6,-1.54 -34.58,-19.21 -53.53,-49.59 -49.57,-79.41 0.56,-4.18 2.11,-8.92 7.74,-11.06 3.59,-1.37 7.99,-1.3 12.09,-1.13 37.48,1.61 74.18,8.54 111.81,7.67 12.38,-0.28 52.96,-2.95 53.18,10.72 0.12,7.37 -32.43,20.34 -40.1,24.69"
         id="path1668" />
    </clipPath>
    <clipPath
       clipPathUnits="userSpaceOnUse"
       id="clipPath1680">
      <path
         d="m 4331.05,1902.97 c -36.6,-1.58 -73.2,-3.18 -109.81,-4.76 -2.08,-0.09 -4.37,-0.24 -5.63,-1.27 -1.08,-0.86 -1.11,-2.1 -1.08,-3.26 0.87,-30.01 24.61,-60.82 62.07,-80.54 5.24,-2.76 11.78,-5.46 17.83,-4.39 3.86,0.68 6.52,2.78 8.88,4.82 21.62,18.64 36.47,40.77 61.07,57.69 8.09,5.57 36.64,22.56 20.73,32.55 -8.54,5.37 -44.17,-0.41 -54.06,-0.84"
         id="path1678" />
    </clipPath>
    <clipPath
       clipPathUnits="userSpaceOnUse"
       id="clipPath1690">
      <path
         d="m 4512.2,1912.85 c 35.57,0.51 71.13,1.03 106.7,1.54 2.02,0.02 4.24,0.12 5.37,1.13 0.95,0.85 0.85,2.13 0.69,3.32 -4.03,30.87 -27.82,66.13 -66.48,87.53 -5.42,2.99 -12.14,7.22 -17.92,6.31 -3.69,-0.6 -11.74,-7.94 -13.84,-9.96 -19.11,-18.49 -28.21,-39.63 -50.43,-56.27 -7.3,-5.47 -33.38,-22.07 -16.78,-32.82 8.91,-5.78 43.07,-0.92 52.69,-0.78"
         id="path1688" />
    </clipPath>
    <clipPath
       clipPathUnits="userSpaceOnUse"
       id="clipPath1700">
      <path
         d="m 4488.62,1868.88 c 27.88,-16.41 55.76,-32.82 83.63,-49.22 1.59,-0.93 3.4,-1.93 5.52,-1.9 1.77,0.02 3.29,0.76 4.65,1.49 35.12,18.78 54.96,48.9 51.84,78.76 -0.43,4.18 -1.85,8.94 -7.42,11.15 -3.55,1.41 -7.95,1.4 -12.06,1.27 -37.53,-1.15 -74.44,-7.65 -112.06,-6.33 -12.37,0.44 -52.89,3.6 -53.5,-10.07 -0.32,-7.35 31.87,-20.72 39.4,-25.15"
         id="path1698" />
    </clipPath>
    <clipPath
       clipPathUnits="userSpaceOnUse"
       id="clipPath1710">
      <path
         d="m 4423.68,1846.03 c -3.78,-24.53 -7.56,-49.05 -11.33,-73.57 -0.22,-1.4 -0.37,-2.94 0.92,-3.91 1.09,-0.81 2.92,-0.99 4.63,-1.11 44.38,-3.08 93.74,8.96 129.05,31.45 4.95,3.15 10.03,7.17 9.46,11.31 -0.37,2.65 -3.02,4.68 -5.64,6.51 -23.84,16.63 -53.98,29.2 -74.81,47.62 -6.85,6.05 -27.13,27.11 -44.5,17.75 -9.35,-5.04 -6.77,-29.41 -7.78,-36.05"
         id="path1708" />
    </clipPath>
    <clipPath
       clipPathUnits="userSpaceOnUse"
       id="clipPath1720">
      <path
         d="m 4525.92,2020.82 c -3.64,8.5 -79.96,28.66 -83.31,24.23 -3.35,-4.43 -17.29,-101.65 -14.51,-106.19 4.33,-7.06 8.59,-16.38 26.39,-3.3 17.8,13.08 75.54,75.69 71.43,85.26"
         id="path1718" />
    </clipPath>
    <clipPath
       clipPathUnits="userSpaceOnUse"
       id="clipPath1730">
      <path
         d="m 4400.21,1768.44 c 6.16,2.04 21.7,109.23 16.61,111.95 -5.1,2.71 -17.03,15.31 -27.75,0.75 -10.74,-14.57 -27.08,-21.87 -43.68,-38.22 -16.6,-16.34 -41.75,-38.91 -36.12,-45.52 5.64,-6.62 78.8,-32.98 90.94,-28.96"
         id="path1728" />
    </clipPath>
    <clipPath
       clipPathUnits="userSpaceOnUse"
       id="clipPath2990">
      <path
         d="M 0,0 H 4943 V 4359 H 0 Z"
         id="path2988" />
    </clipPath>
    <clipPath
       clipPathUnits="userSpaceOnUse"
       id="clipPath2996">
      <path
         d="m 1789.25,4062.13 c -34.41,62.46 -116.1,64.33 -174.43,44.37 -32.95,-11.27 -64.45,-27.01 -95.21,-43.2 -9.21,-4.85 -19.39,-10.14 -29.27,-16.21 2.09,3.32 4.22,6.61 6.41,9.86 14.47,21.43 32.03,40.57 50.55,58.55 19.69,19.1 40.32,37.14 61.16,54.95 10.4,8.89 20.72,17.8 32.26,25.17 5.35,3.41 4.88,4.6 10.2,8.06 5.98,3.89 11.58,10.29 23.16,19.95 5.48,4.57 24.4,11.95 18.01,16.08 -11.84,7.65 -53.39,0.41 -66.29,-3.3 -16.22,-4.68 -32.47,-11.88 -46.85,-20.65 -27.62,-16.84 -53.52,-38.63 -76.92,-60.91 -12.24,-11.65 -24.01,-23.95 -34.99,-36.9 -4.15,30.69 -11.46,60.52 -22.64,89.51 -11.88,30.78 -27.48,60.13 -46.91,86.85 -9.34,12.86 -19.76,24.89 -31.08,36.04 -5.33,5.25 -10.85,10.31 -16.89,14.73 -6.79,4.96 -16.61,8.2 -22.75,13.56 -2.44,2.13 -5.9,-1.23 -3.59,-3.58 4.83,-4.87 7.88,-13.58 11.5,-19.45 3.8,-6.15 7.83,-12.09 11.91,-18.06 8.6,-12.6 16.53,-25.66 24.25,-38.82 15.49,-26.41 28.02,-54.18 37.67,-83.24 7.6,-22.88 13.39,-46.69 16.91,-70.66 -8.22,13.05 -17.59,25.38 -28.16,36.94 -18.82,20.59 -41.2,37.8 -66.24,49.93 -25.13,12.17 -113.11,22.86 -122.12,11.28 -4.76,-6.12 32.59,-13.11 40.54,-16.73 22.7,-10.35 39.26,-25.66 59.19,-40.95 18.26,-14.01 35.75,-30.13 49.93,-48.33 9.32,-11.95 17.6,-25.18 24.49,-38.95 -13.67,0.38 -26.98,-0.38 -37.31,-0.6 -38.71,-0.8 -78.15,-2.82 -115.45,-14.04 -30.04,-9.04 -58.89,-29.57 -79.93,-53.36 -8.81,-9.97 -29.05,-44.67 -25.74,-59.2 1.57,-6.86 40.58,25.84 45.09,29.16 9.34,6.9 19.62,12.77 29.96,18.02 21.46,10.88 45.98,17.14 69.85,19.47 29.5,2.89 58.97,1.73 88.55,1.08 6.21,-0.13 12.39,-0.29 18.58,-0.5 -16.17,-12.01 -27.27,-25.96 -39.08,-40.82 -11.53,-14.51 -18.46,-26.14 -23.92,-43.98 -4.38,-14.31 -4.37,-30.68 -2.44,-55.77 0.95,-12.41 3.47,-25.47 10.93,-15.45 4,5.37 16.36,25.89 19.83,31.59 3.55,5.85 7.9,11.4 11.76,17.09 7.28,10.72 16.14,20.99 25.27,30.17 12.82,12.91 40.33,30.81 55.1,40.18 5.39,-3.03 30.3,-17.27 39.24,-13.51 13.86,5.83 25.84,9.88 37.8,18.84 11.17,8.36 23.48,15.3 35.76,21.88 25.16,13.49 50.83,26.91 77.64,36.77 25.98,9.56 51.95,15.61 79.63,15.98 25.02,0.33 51.73,-3.61 76.05,-9.07 9.97,-2.23 14.08,1.01 9.03,10.18"
         id="path2994" />
    </clipPath>
    <clipPath
       clipPathUnits="userSpaceOnUse"
       id="clipPath3588">
      <path
         d="m 4815.73,3659.38 c -15.14,-0.79 -22.26,-10.01 -33.52,-19.42 -11.81,-9.87 -24.35,-18.87 -36.23,-28.66 -24.69,-20.34 -46.41,-41.75 -66.22,-66.87 -20.59,-26.11 -39.28,-52.84 -52.83,-83.33 -15.19,-34.18 -39.28,-84.28 -5.46,-114.61 15.99,-14.35 39.16,-16.53 57.93,-5.55 19.63,11.48 26.31,34.92 32.96,55.11 9.9,30.04 20.9,59.84 31.75,89.55 10.94,29.91 23.97,59.77 38.2,88.23 6.73,13.46 10.51,32.34 18.96,44.8 8.64,12.72 10.83,22.43 19.34,35.57 2.7,4.2 -0.04,5.43 -4.88,5.18"
         id="path3586" />
    </clipPath>
    <clipPath
       clipPathUnits="userSpaceOnUse"
       id="clipPath3600">
      <path
         d="m 4664.45,3672.4 c 5.86,-19.04 -2.82,-50.57 -10.09,-68.2 -9.47,-22.97 -31.02,-38.52 -37.89,-62.09 -5.75,-19.73 14.85,-44.69 36.12,-36.13 33.14,13.35 51.32,52.97 57.41,86.95 3.09,17.24 -1.87,22.01 -6.94,38.85 -4.68,15.53 -17.95,38.35 -26.3,51.04 -6.9,10.49 -16.32,2.62 -12.31,-10.42"
         id="path3598" />
    </clipPath>
    <clipPath
       clipPathUnits="userSpaceOnUse"
       id="clipPath3612">
      <path
         d="m 4473.26,3672.16 c 5.73,-16.48 5.16,-37.02 3.21,-53.53 -1.96,-16.62 2.32,-42.56 6.18,-58.77 8.96,-37.64 11.75,-75.58 48.52,-95.64 21.28,-11.62 55.95,-2.67 60.58,24.65 4.95,29.17 -4.94,50.25 -21.41,73.85 -11.68,16.72 -24.25,32.84 -36.61,49.06 -15.47,20.31 -31.53,55.38 -56.73,64.12 -2.13,0.74 -4.49,-1.61 -3.74,-3.74"
         id="path3610" />
    </clipPath>
    <clipPath
       clipPathUnits="userSpaceOnUse"
       id="clipPath3624">
      <path
         d="m 4942.8,3467.83 c -2.69,9.38 -79.84,-0.38 -89.49,-2.04 -20.47,-3.52 -39.63,-8.28 -58.94,-16.08 -38.08,-15.35 -78.7,-36.32 -107.44,-65.94 -45.16,-46.55 32.76,-110.45 71.74,-55.36 20.33,28.73 37.64,52.79 68.01,72.21 14.33,9.16 29.48,18.36 45.37,24.47 7.17,2.76 72.29,37.33 70.75,42.74"
         id="path3622" />
    </clipPath>
    <clipPath
       clipPathUnits="userSpaceOnUse"
       id="clipPath3692">
      <path
         d="m 4361.45,2921.91 -0.06,-0.11 -0.08,0.18 0.14,-0.07 m 149.36,139.44 -0.51,0.12 0.51,2.1 v -2.22 m 84.76,-523.35 0.63,2.5 c 1.27,-0.93 2.52,-1.87 3.71,-2.86 -1.47,0.09 -2.91,0.21 -4.34,0.36 m -156.97,480.01 -0.26,1.19 0.93,0.1 -0.67,-1.29 m -10.16,-225.36 -0.61,-2.07 -0.41,2.15 1.02,-0.08 m 71.06,109.07 -0.01,0.06 0.02,0.01 -0.01,-0.07 m 254.65,-54.18 0.04,1.31 0.38,-1.01 -0.42,-0.3 m -42.52,-132.38 0.54,-1.19 -0.67,-0.03 0.13,1.22 m 152.87,140.63 c 3.96,11.66 8.52,19.64 13.96,27.73 5.18,7.7 2.01,40.59 2.09,44.63 0.18,8.08 -0.7,15.75 -2.9,22.29 -1.88,5.6 -11.11,28.64 -13,35.96 -2.79,10.86 -10.77,12.98 -14.34,3.18 -3.14,-4.25 -5.96,-10.67 -8.76,-16.34 2.19,5.15 4.71,10.01 7.54,14.95 5.78,10.14 -8.2,43.17 -9.19,47.42 -1.98,8.49 -5.45,16.15 -10.64,22.08 -4.43,5.07 -24.96,25.34 -29.87,32.21 -1.8,2.51 -3.92,4.32 -6.14,5.48 -2.91,11.62 -8.01,23.44 -8.57,25.88 -1.93,8.51 -5.64,16.1 -11.42,21.87 -4.95,4.94 -27.95,24.55 -33.37,31.29 -8.04,9.98 -22.99,8.39 -26.71,-3.55 -6.39,-8.5 -10.39,-21.39 -15.9,-29.96 -1.9,-2.97 -3.32,-5.68 -4.47,-8.31 -7.61,8.68 -17.34,19.78 -20.32,24.57 -6.76,10.88 -21.8,11.1 -26.93,-0.3 -7.36,-7.67 -12.9,-19.98 -19.39,-27.83 -4.57,-5.52 -7.33,-10.29 -8.8,-15.42 -5.24,11.09 -11.98,25.38 -13.5,31.03 -3.46,12.79 -20.14,18.87 -30.15,10.27 -11.1,-4.26 -21.9,-13.54 -32.09,-18.3 -8.33,-3.89 -13.66,-7.72 -17.33,-12.96 -0.17,0.92 -0.37,1.93 -0.65,3.13 -3.09,12.75 -50.84,40.12 -63.08,34.19 -13.18,-1.62 -26.38,-8.03 -38.55,-10.31 -19.99,-3.75 -25.95,-9.88 -31.17,-27.34 -4.13,-13.85 -14.14,-33.84 -8.19,-48.91 0.5,-1.26 1.14,-2.42 1.85,-3.55 -5.73,-3.26 -11.36,-6.7 -16.67,-8.86 -16.16,-6.57 -21.29,-13.75 -26.55,-32.63 -4.16,-14.98 -13.4,-37.14 -9.61,-52.05 0.35,-1.33 0.82,-2.54 1.36,-3.69 -3.29,-0.11 -6.49,-2.47 -8.6,-7.42 -6.2,-7.21 -11.53,-19.74 -17.1,-27.29 -9.16,-12.38 -10.98,-21.63 -10.35,-43.11 0.49,-17.04 -0.77,-43.31 4.92,-57.55 2.76,-6.93 7.03,-9.48 10.74,-14.1 2.96,-3.7 5.61,-8.19 8.06,-13.04 -4.06,-7.72 -4.91,-16.54 -4.3,-30.01 0.81,-17.66 -1.25,-44.87 7.97,-59.62 4.49,-7.18 11.4,-9.82 17.42,-14.61 5.58,-4.44 10.51,-9.95 14.98,-15.92 -4.37,-6 -5.04,-12.67 -3.82,-22.65 1.64,-13.37 0.14,-34.18 11.95,-44.85 1.14,-1.03 2.42,-1.89 3.76,-2.68 -0.11,-0.88 -0.1,-1.81 0.05,-2.78 -1.25,-6.76 0.15,-15.46 -0.56,-22.01 -1.17,-10.77 1.25,-16.01 10.02,-25.48 6.96,-7.52 16.36,-20.24 25.63,-23.59 3.13,-1.13 5.9,-0.89 8.71,-0.66 1.25,0.11 2.51,0.21 3.81,0.19 2.63,-0.03 5.32,-0.37 8.04,-0.92 0.13,-2.24 1.12,-4.71 3.17,-7.41 2.95,-3.86 18.13,-21.02 20.78,-25.6 3.95,-6.8 20,-14.24 29,-13.12 5.71,-0.65 11.24,-0.56 16.65,-0.48 4.3,0.08 8.51,0.15 12.66,-0.16 2.97,-0.22 5.52,-0.3 7.72,-0.25 1.06,-2.13 3.33,-3.94 7.02,-5.29 4.47,-1.64 26.12,-7.88 30.7,-10.22 6.79,-3.47 24.4,-1.65 31.62,3.53 9.46,3.97 17.25,9.56 25.7,13.5 3.79,1.77 6.7,3.31 8.92,4.78 7.48,-3.74 16.99,-8.49 19.67,-10.47 6.14,-4.52 23.8,-5.58 31.77,-1.64 9.98,2.4 18.57,6.65 27.55,9.17 14.73,4.14 17.68,7.32 16.75,14.77 -0.3,2.41 -0.15,5.34 -0.45,8.31 2.81,-0.84 5.63,-1.77 8.51,-2.8 10.22,-3.67 32.45,15.9 35.58,17.64 6.26,3.48 11.33,8.24 14.41,14.33 2.08,4.09 8.46,19.44 13.01,28.76 6.66,-3.35 15.62,-0.02 20.8,5.62 8.89,9.67 18.36,15.79 29.48,21.76 10.56,5.69 9.26,36.91 9.97,40.61 1.43,7.41 0.87,14.73 -2.27,21.37 l -1.15,2.26 c 4.78,-1.41 10.08,4.31 12.9,11.94 5.31,14.32 11.42,24.11 18.71,34.04 6.93,9.44 2.68,49.81 2.8,54.77 0.23,9.91 -0.95,19.33 -3.89,27.36 -2.52,6.87 -14.89,35.14 -17.41,44.12 l -0.03,0.08 c 3.93,0.65 7.84,4.17 9.48,8.97"
         id="path3690" />
    </clipPath>
    <clipPath
       clipPathUnits="userSpaceOnUse"
       id="clipPath3778">
      <path
         d="m 4792,3172.41 c -9.67,11.34 -16.54,21.87 -30.17,27.84 -17.85,7.83 -34.37,8.44 -51.82,16.24 -25.08,11.22 -64.73,1.67 -72.67,-27.17 -6.95,-25.21 13.28,-57.39 41.69,-54.72 42,3.95 118.77,-29.05 151.63,-58.86 4.03,-3.66 1.54,49.5 -38.66,96.67"
         id="path3776" />
    </clipPath>
    <clipPath
       clipPathUnits="userSpaceOnUse"
       id="clipPath3788">
      <path
         d="m 4878.07,3577.7 c -22.24,-0.14 -40.3,-19.29 -58.97,-29.65 -21.05,-11.69 -39.62,-27.99 -58.25,-43.3 -18.13,-14.89 -34.17,-32.62 -49.68,-50.19 -17.69,-20.01 -37.25,-40.84 -50.83,-63.88 -29.11,-49.37 43.51,-89.4 75.6,-44.19 12.89,18.18 22.01,39.39 33.07,58.76 11.08,19.41 23.21,38.01 35.33,56.77 11.47,17.74 19.01,35.5 31.73,52.21 13.63,17.9 34.62,32 45.63,51.04 5.34,9.25 7.17,12.5 -3.63,12.43"
         id="path3786" />
    </clipPath>
    <clipPath
       clipPathUnits="userSpaceOnUse"
       id="clipPath3800">
      <path
         d="m 4333.04,3442.48 c 5.95,-10.68 19.03,-14.85 29.22,-20.88 13.64,-8.08 27.59,-16.66 40.11,-26.37 25.94,-20.15 46.16,-46.04 60.11,-75.62 23.63,-50.05 101.6,10.48 58.76,45.34 -30.3,24.66 -61.74,45.89 -97.51,61.8 -22.13,9.84 -66.98,32.14 -90.3,17.22 l -0.39,-1.49"
         id="path3798" />
    </clipPath>
    <clipPath
       clipPathUnits="userSpaceOnUse"
       id="clipPath3810">
      <path
         d="m 4353.22,3350.72 c 21.61,-21.71 49.72,-26.08 76.52,-38.88 15.99,-7.64 27.73,-18.15 38.57,-32.13 10.38,-13.39 19.19,-29.19 34.9,-36.58 14.12,-6.64 37.98,4.9 30.35,23.33 -12.16,29.38 -51.89,57.55 -80.59,71.12 -30.16,14.25 -63.67,20.77 -96.83,20.2 -3.56,-0.06 -5.48,-4.49 -2.92,-7.06"
         id="path3808" />
    </clipPath>
    <clipPath
       clipPathUnits="userSpaceOnUse"
       id="clipPath3820">
      <path
         d="m 4614.64,3701.22 c -9.87,-17.14 -13.44,-38.34 -20.48,-56.87 -7.79,-20.52 -15.06,-40.98 -22.01,-61.81 -7.08,-21.22 -15.34,-41.7 -19.66,-63.77 -5.15,-26.27 -2.95,-46.09 8.64,-69.99 8.68,-17.92 32.43,-17.08 45.42,-5.85 39.79,34.36 36.11,90.02 40.71,138.3 3.5,36.66 3.44,109.36 -23.09,139.48 -4.83,5.5 -6.08,-13.5 -9.53,-19.49"
         id="path3818" />
    </clipPath>
    <clipPath
       clipPathUnits="userSpaceOnUse"
       id="clipPath3830">
      <path
         d="m 4842.39,3359.29 c -30.59,6.87 -59.09,-10.11 -84.47,-25.59 -27.84,-16.98 -61.33,-36.88 -69.11,-70.83 -10.37,-45.34 59.52,-56.16 63.59,-8.61 0.62,7.33 14.81,18.14 19.89,23.24 9.03,9.08 18.48,17.72 28.38,25.84 17.32,14.24 35.34,25.84 45.61,46.37 1.79,3.57 0.45,8.61 -3.89,9.58"
         id="path3828" />
    </clipPath>
    <clipPath
       clipPathUnits="userSpaceOnUse"
       id="clipPath3844">
      <path
         d="m 4315.75,3585.03 c 11.43,-6.32 25.27,-12.16 35.08,-20.39 9.29,-7.78 17.24,-15.64 27.35,-22.45 20.53,-13.83 40.61,-28.17 59.89,-43.73 19.13,-15.43 37.96,-31.37 56.67,-47.31 17.3,-14.73 33.07,-36.54 53.99,-45.64 26.94,-11.72 53.76,2.09 56.32,32.31 2.86,33.84 -24.91,57.04 -50.02,74.66 -24.11,16.91 -49.92,31.87 -76.01,45.5 -25.39,13.27 -52.52,25.82 -80.49,32.48 -25.29,6.04 -57.35,3.1 -82.41,-2.65 -1.28,-0.29 -1.5,-2.17 -0.37,-2.78"
         id="path3842" />
    </clipPath>
    <clipPath
       clipPathUnits="userSpaceOnUse"
       id="clipPath3856">
      <path
         d="m 4671.3,3579.38 c -5.42,-8.44 -9.12,-8.04 -13.65,-16.9 -4.47,-8.76 -8.46,-17.7 -13.24,-26.32 -8.93,-16.09 -20.04,-30.04 -31.26,-44.55 -23.64,-30.56 -37.71,-63.95 -47.39,-101.27 -12,-46.19 58.69,-65.7 71.45,-19.71 5.95,21.44 2.22,42.54 4.88,64.23 2.06,16.78 6.75,33.5 11.17,49.77 4.57,16.8 11.18,32.3 17.03,48.64 3.08,8.62 7.75,19.14 7.89,28.43 0.1,6.71 -3.22,9.69 -4.04,16.91 -0.17,1.46 -1.97,2.13 -2.84,0.77"
         id="path3854" />
    </clipPath>
    <clipPath
       clipPathUnits="userSpaceOnUse"
       id="clipPath3868">
      <path
         d="m 4362.46,3489.65 c 13.81,-7.64 27.43,-18.95 40.93,-27.49 14.2,-8.98 29.61,-18.89 41.82,-30.57 23.59,-22.59 40.58,-45.16 46.38,-77.34 10.48,-58.39 109.55,-31.69 88.92,24.52 -15.72,42.84 -55.82,72.48 -96.18,91.19 -18.11,8.4 -36.64,16.94 -55.96,22.11 -23.81,6.38 -40.4,5.21 -64.16,4.07 -3.31,-0.16 -4.91,-4.74 -1.75,-6.49"
         id="path3866" />
    </clipPath>
    <clipPath
       clipPathUnits="userSpaceOnUse"
       id="clipPath3884">
      <path
         d="m 4853.86,3269.85 c 16.9,14.49 -59.61,0.44 -75.02,-4.64 -18.14,-5.98 -48.27,-20.49 -65.22,-29.55 -32.25,-17.24 -27.32,-67.03 5.39,-80.19 32.64,-13.13 72.35,16.85 60.88,53.23 0.05,-4 0.09,-8.01 0.14,-12.01 -0.91,-2.5 -0.7,-2.66 0.62,-0.47 l 4.05,4.29 c 5.58,5.67 25.21,30.51 32.04,34.54 12.65,7.46 31.7,30.16 37.12,34.8"
         id="path3882" />
    </clipPath>
    <clipPath
       clipPathUnits="userSpaceOnUse"
       id="clipPath3894">
      <path
         d="m 4714.28,3375.22 c -7.69,-6.47 -17.41,-11.08 -25.22,-17.71 -8.24,-6.97 -15.36,-16.3 -21.75,-24.99 -14.35,-19.5 -22.21,-40.25 -24.04,-64.39 -3.85,-50.6 78.19,-51.53 79.48,0 0.42,16.72 5.56,32.08 10.22,48.03 4.51,15.41 2.85,29.94 4.94,45.31 1.9,13.95 -12.16,23.39 -23.63,13.75"
         id="path3892" />
    </clipPath>
    <clipPath
       clipPathUnits="userSpaceOnUse"
       id="clipPath3904">
      <path
         d="m 4639.74,3394.98 c -25.61,-8.03 -42.92,-15.6 -62.19,-35.68 -19.57,-20.42 -32.58,-44.93 -40.75,-71.83 -14.12,-46.49 63.82,-66.01 71.44,-19.69 3.4,20.68 8.19,41.24 15.06,61.04 6.5,18.72 13.55,40.66 22.57,58.17 2.07,4.01 -1.37,9.47 -6.13,7.99"
         id="path3902" />
    </clipPath>
    <clipPath
       clipPathUnits="userSpaceOnUse"
       id="clipPath3916">
      <path
         d="m 4504.51,3356.9 c -3.53,-10.95 -0.19,-22.64 0.74,-33.76 0.99,-11.9 -0.7,-22.25 -4.72,-33.48 -7.57,-21.1 10.32,-43.25 30.65,-45.99 22.49,-3.05 40.74,13.95 41.75,36.2 1.36,29.73 -14.36,90.39 -54.32,87.76 -6.72,-0.44 -12.02,-4.27 -14.1,-10.73"
         id="path3914" />
    </clipPath>
    <clipPath
       clipPathUnits="userSpaceOnUse"
       id="clipPath3928">
      <path
         d="m 4614.12,3334.81 c 6.52,-12.53 -3.49,-25.03 -4.91,-39.02 -1.55,-15.4 -9.63,-28.14 -10.08,-43.77 -0.81,-28.8 41.17,-49.88 60.9,-25.22 18.94,23.65 17.83,51.94 5.7,78.89 -10.01,22.22 -25.93,34.5 -44.5,48.98 -10.35,8.07 -19.17,4.53 -12.53,-8.25 l 5.42,-11.61"
         id="path3926" />
    </clipPath>
    <clipPath
       clipPathUnits="userSpaceOnUse"
       id="clipPath3942">
      <path
         d="m 4684.01,3271.95 c -20.12,-17.17 -36.06,-34.11 -43.04,-60.39 -5.3,-20 8.14,-40.06 28.53,-42.81 18.97,-2.57 40.45,12.77 38.86,33.69 -2.23,29.41 17.99,58.26 34.92,79.79 5.8,7.38 4.07,11.41 -7.2,13.65 0,0 -36.33,-10.48 -52.07,-23.93"
         id="path3940" />
    </clipPath>
    <clipPath
       clipPathUnits="userSpaceOnUse"
       id="clipPath3954">
      <path
         d="m 4435.48,3243.56 c 56.46,-17.01 49.21,-67.78 65.96,-62.36 34.79,11.27 39.74,60.47 4.78,75.22 -3.12,1.81 -6.49,2.72 -10.1,2.74 -5.98,0.96 -7.08,1.04 -3.31,0.25 -2.15,0.51 -4.3,1.28 -6.41,1.92 -6.54,1.98 -13.74,4.16 -20.63,4.01 -7.12,-0.15 -15.38,-1.89 -22.25,-3.75 -6.32,-1.71 -9.92,-6.39 -15.7,-8.53 -4.01,-1.48 -5.43,-7.19 -1.25,-9.54 l 8.91,0.04"
         id="path3952" />
    </clipPath>
    <clipPath
       clipPathUnits="userSpaceOnUse"
       id="clipPath3966">
      <path
         d="m 4559.37,3304.95 c -10.9,-6.16 -18.45,-13.51 -26.52,-23.13 -6.64,-7.91 -12.17,-19.82 -16.44,-24.95 -21.39,-25.7 -11.93,-66.93 24.41,-71.82 35.02,-4.7 58.54,32.77 42.37,63.22 -2.16,4.05 -2.35,2.23 -1.93,0.41 0.49,-2.05 1.76,-4.09 1.94,2.16 0.13,4.56 -0.27,9.39 -0.3,13.98 -0.05,8.88 0.43,17.56 0.37,26.42 -0.11,12.14 -13.38,19.65 -23.9,13.71"
         id="path3964" />
    </clipPath>
    <clipPath
       clipPathUnits="userSpaceOnUse"
       id="clipPath3978">
      <path
         d="m 4474.71,3157.68 c 17.19,1.79 31.41,-2.13 48.14,-3.61 22.71,-2.02 31.47,28.11 17.68,42.7 -17.59,18.61 -46.63,12.53 -68.79,5.94 -18.39,-5.47 -56.61,-25.92 -61.39,-46.54 -0.61,-2.6 4.72,-1.62 10.12,-0.63 3.91,0.71 7.86,1.42 9.63,0.78 0,0 30.12,-0.15 44.61,1.36"
         id="path3976" />
    </clipPath>
    <clipPath
       clipPathUnits="userSpaceOnUse"
       id="clipPath3990">
      <path
         d="m 4576.2,3167.6 c 2.75,2.23 5.04,4.88 6.9,7.94 1.3,3.01 2.57,6.03 3.8,9.07 6.26,15.32 -9.5,32.73 -24.56,32.25 -22.8,-0.74 -36.75,-21.41 -38.4,-42.86 -1.42,-18.24 18.86,-44.99 32.19,-57.27 6.62,-6.1 3.81,4.37 8.63,12.07 0,0 10.83,37.5 11.44,38.8"
         id="path3988" />
    </clipPath>
    <clipPath
       clipPathUnits="userSpaceOnUse"
       id="clipPath4000">
      <path
         d="m 4586.93,3289.32 c -5.9,-8.49 -2.93,-19.55 -2.62,-29.02 0.39,-12.06 -3.16,-22.66 -4.81,-34.36 -2.93,-20.8 6.22,-40.73 29.2,-43.85 21.15,-2.85 39.21,13.26 39.8,34.51 0.63,22.92 -10.92,45.13 -26.03,61.71 -6.21,6.82 -26.77,23.61 -35.54,11.01"
         id="path3998" />
    </clipPath>
    <clipPath
       clipPathUnits="userSpaceOnUse"
       id="clipPath4012">
      <path
         d="m 4690.52,3130.81 c -0.13,10.94 -4.96,22 -10.71,31.08 -12.97,20.49 -31.6,32.3 -52.37,43.76 -16.67,9.19 -37.58,2.53 -45.05,-15.19 -7.7,-18.26 2.57,-36.57 20.57,-42.85 13.46,-4.7 27.85,-9.45 39.99,-17.01 5.25,-3.27 9.31,-7.52 13.68,-11.87 3.65,-3.63 29.18,-20.07 30.96,-22.88 2.73,-4.28 3.04,25.31 2.93,34.96"
         id="path4010" />
    </clipPath>
    <clipPath
       clipPathUnits="userSpaceOnUse"
       id="clipPath4026">
      <path
         d="m 4091.92,2780.2 c 22.23,15.36 616.01,-109.52 616.01,-109.52 0,0 -133.28,-252.17 -381.52,-189.53 -241.14,60.85 -253.17,286.14 -234.49,299.05"
         id="path4024" />
    </clipPath>
    <clipPath
       clipPathUnits="userSpaceOnUse"
       id="clipPath11262">
      <path
         d="m 4376.07,2472.47 c 14.13,11.52 26.28,27.09 36.54,39.15 6.3,7.47 12.24,15.21 17.73,23.13 -1.26,1.53 -2.25,2.7 -2.79,3.42 -1.44,1.89 -2.43,3.69 -2.88,5.4 -0.18,0.63 -0.27,1.26 -0.27,1.98 -2.7,0.54 -5.49,0.81 -8.1,0.9 -1.35,0.09 -2.7,0 -3.96,-0.18 -2.79,-0.18 -5.49,-0.45 -8.55,0.63 -9.27,3.42 -18.63,16.11 -25.65,23.58 -7.38,8.01 -10.26,13.05 -10.26,20.88 0,1.44 0.09,2.97 0.27,4.68 0.18,1.62 0.18,3.42 0.18,5.22 0,3.24 -0.18,6.66 -0.18,9.99 0,2.34 0.18,4.68 0.54,6.75 -0.18,0.99 -0.18,1.89 -0.09,2.79 -0.9,0.54 -1.8,1.17 -2.7,1.89 -0.36,0.18 -0.63,0.54 -0.99,0.81 -11.79,10.62 -10.35,31.5 -11.97,44.82 -1.26,9.99 -0.63,16.65 3.87,22.68 -1.08,1.44 -2.16,2.79 -3.33,4.14 -3.6,4.41 -7.47,8.37 -11.7,11.79 -6.03,4.77 -12.87,7.38 -17.37,14.58 -9.27,14.76 -7.2,41.94 -8.01,59.58 -0.18,4.77 -0.27,8.91 0,12.6 0.36,7.02 1.62,12.51 4.32,17.55 -0.09,0.09 -0.18,0.27 -0.27,0.36 0,0.09 0,0.09 0,0.18 -2.43,4.59 -4.95,8.82 -7.83,12.42 -3.69,4.59 -7.92,7.11 -10.71,14.04 -5.67,14.31 -4.41,40.59 -4.95,57.6 -0.09,2.7 -0.09,5.22 -0.09,7.56 0,16.29 2.52,24.66 10.44,35.55 5.58,7.56 10.89,20.07 17.1,27.27 1.53,3.69 3.78,5.94 6.12,6.93 0.09,0 0.09,0 0.09,0 0.09,0.09 0.27,0.09 0.36,0.09 0.09,0.09 0.27,0.09 0.36,0.18 h 0.09 c 0.18,0 0.36,0.09 0.45,0.09 0.36,0.09 0.72,0.09 1.17,0.18 -0.54,1.08 -0.99,2.34 -1.35,3.69 -0.63,2.34 -0.9,4.86 -0.9,7.47 -0.09,14.13 6.93,31.86 10.53,44.55 5.22,18.9 10.35,26.01 26.55,32.58 9.81,4.05 20.7,12.42 31.32,15.93 10.08,7.74 24.57,0.63 26.19,-12.33 1.17,-8.64 10.98,-38.07 12.6,-45 0.18,-0.72 0.36,-1.62 0.54,-2.61 3.24,6.57 8.82,11.52 18.63,16.83 10.8,5.94 21.51,16.38 33.48,21.87 9.9,9.72 29.7,5.58 35.64,-6.75 4.05,-8.28 24.93,-35.19 29.07,-41.67 0.54,-0.81 0.99,-1.62 1.44,-2.52 2.34,5.76 6.84,11.07 14.31,17.46 9.9,8.46 18.72,21.42 29.88,29.79 8.1,11.88 30.15,12.96 39.51,2.52 6.3,-7.02 35.1,-27.72 41.13,-32.94 1.62,-1.35 2.97,-2.79 4.23,-4.32 0.63,1.17 1.35,2.34 2.16,3.6 5.49,8.55 9.54,21.42 15.93,29.97 3.69,11.88 18.63,13.5 26.64,3.51 4.41,-5.58 20.7,-19.71 29.16,-27.36 -2.61,11.97 -1.44,19.62 4.23,30.33 4.41,8.28 7.38,20.88 12.6,29.07 2.7,11.7 15.57,12.78 22.86,2.52 4.86,-6.84 25.38,-27.09 29.79,-32.22 5.22,-5.85 8.73,-13.59 10.71,-22.05 0.99,-4.23 14.94,-37.26 9.18,-47.43 -2.97,-5.13 -5.58,-10.17 -7.92,-15.57 2.97,5.76 5.85,12.6 9.09,17.01 3.6,9.81 11.61,7.65 14.4,-3.24 1.89,-7.29 11.07,-30.33 12.96,-35.91 2.25,-6.57 3.06,-14.22 2.88,-22.32 -0.09,-4.05 3.15,-36.9 -2.07,-44.64 -5.4,-8.1 -9.99,-16.02 -13.95,-27.72 -1.62,-4.77 -5.49,-8.37 -9.45,-9 2.52,-9 14.85,-37.26 17.37,-44.19 2.79,-7.47 3.96,-16.29 3.96,-25.47 0,-0.63 0,-1.26 0,-1.89 0,-0.09 0,-0.18 0,-0.27 0,-0.09 0,-0.18 0,-0.27 0.09,-6.93 3.96,-45 -2.79,-54.18 -7.29,-9.99 -13.41,-19.71 -18.72,-34.02 -2.07,-5.49 -5.4,-10.08 -8.91,-11.61 -1.35,-0.63 -2.7,-0.72 -4.05,-0.36 0.54,-0.9 0.9,-1.71 1.17,-2.25 1.98,-4.14 2.88,-8.55 2.97,-13.14 0.09,-2.7 -0.18,-5.49 -0.72,-8.28 -0.72,-3.69 0.63,-34.92 -9.99,-40.59 -11.07,-5.94 -20.52,-12.06 -29.43,-21.78 -5.22,-5.58 -14.13,-8.91 -20.79,-5.58 -0.36,-0.72 -0.72,-1.53 -1.08,-2.25 -4.41,-9.45 -9.99,-22.77 -11.97,-26.55 -3.06,-6.03 -8.1,-10.8 -14.4,-14.31 -3.15,-1.71 -25.38,-21.33 -35.55,-17.64 -1.62,0.54 -3.24,1.17 -4.77,1.62 -1.26,0.45 -2.52,0.81 -3.69,1.17 0.09,-1.08 0.09,-2.07 0.09,-3.15 0.09,-1.8 0.09,-3.6 0.27,-5.13 0.09,-0.9 0.18,-1.8 0.18,-2.61 -0.09,-5.67 -4.05,-8.55 -16.92,-12.15 -9,-2.52 -17.55,-6.75 -27.54,-9.18 -7.92,-3.96 -25.65,-2.88 -31.77,1.62 -0.9,0.63 -2.43,1.53 -4.32,2.61 -1.89,0.99 -4.14,2.16 -6.48,3.42 -2.88,1.44 -6.03,2.97 -8.91,4.41 -1.35,-0.9 -2.97,-1.8 -4.86,-2.79 -0.09,0 -0.09,-0.09 -0.09,-0.09 -0.27,-0.09 -0.45,-0.18 -0.63,-0.27 -0.18,-0.09 -0.45,-0.27 -0.63,-0.36 -0.18,-0.09 -0.36,-0.18 -0.54,-0.18 -0.27,-0.18 -0.54,-0.27 -0.81,-0.45 -0.09,0 -0.18,-0.09 -0.27,-0.18 -0.36,-0.09 -0.72,-0.27 -1.08,-0.45 -8.37,-3.87 -16.2,-9.54 -25.65,-13.5 -7.2,-5.13 -24.84,-6.93 -31.59,-3.51 -4.59,2.34 -26.28,8.55 -30.78,10.26 -0.27,0.09 -0.54,0.18 -0.72,0.27 -0.18,0.09 -0.36,0.18 -0.54,0.27 h -0.09 c -0.54,0.27 -1.08,0.45 -1.53,0.72 -33.66,-14.31 -71.73,-23.4 -114.03,-23.4 -9.27,0 -18.72,0.45 -28.35,1.35 m 220.05,67.59 c -0.18,-0.63 -0.36,-1.26 -0.54,-1.89 v -0.18 c 1.44,-0.09 2.88,-0.27 4.32,-0.36 -1.17,0.99 -2.43,1.98 -3.69,2.88 l -0.09,-0.45 m 115.38,173.88 h 0.18 c 0.18,0 0.27,0 0.45,0 l -0.45,1.08 c -0.09,-0.36 -0.09,-0.72 -0.18,-1.08 m -283.68,76.68 c 0.18,0.72 0.36,1.35 0.54,1.98 -0.27,0 -0.63,0.09 -0.9,0.09 0.09,-0.63 0.27,-1.35 0.36,-2.07 m 326.34,56.97 c 0.18,0.09 0.27,0.18 0.36,0.27 -0.09,0.27 -0.18,0.54 -0.27,0.81 -0.09,-0.36 -0.09,-0.72 -0.09,-1.08 m -392.76,74.25 c 0,0 0,0 0.09,0.09 -0.09,0 -0.09,0 -0.18,0 0.09,0 0.09,-0.09 0.09,-0.09 m 198.18,135.72 -0.36,-0.27 0.36,0.27 m 105.84,2.97 -0.27,-0.36 0.27,0.36 m -94.23,1.71 -2.61,1.17 -2.61,1.98 -1.17,1.35 -2.16,0.9 -0.27,-0.18 -1.62,-0.9 c -1.08,-0.63 -2.16,-1.44 -3.51,-1.44 -1.62,0.09 -2.97,0.9 -3.51,2.52 -0.72,2.34 0.63,5.49 2.25,7.38 l -0.45,0.81 c -0.81,1.35 -1.8,3.33 -2.16,4.95 -0.36,1.35 -0.99,3.33 -0.54,4.68 1.44,3.96 6.48,1.26 8.46,-0.27 l 1.53,-1.26 c 1.08,2.25 2.34,4.5 4.05,6.21 0.9,0.9 2.07,0.72 2.79,-0.27 1.17,-1.53 1.8,-4.32 1.8,-7.2 3.87,0.18 7.56,-0.99 9.36,-4.5 1.44,-2.79 -1.71,-5.85 -3.78,-7.2 -0.99,-0.63 -2.25,-1.35 -3.42,-1.98 0.18,-1.26 0.27,-2.7 0.81,-3.87 0.63,-1.62 -0.9,-3.15 -2.34,-3.15 -0.27,0 -0.63,0.09 -0.9,0.27 m 86.4,5.94 c -1.26,1.98 -1.26,5.31 -0.54,7.65 l -0.63,0.54 c -1.08,1.08 -2.52,2.61 -3.33,4.05 -0.72,1.17 -1.8,2.7 -1.8,4.23 -0.18,4.14 4.59,3.33 6.66,2.52 l 1.62,-0.72 c 0.09,2.43 0.36,5.04 1.17,7.2 0.45,1.17 1.44,1.44 2.34,0.72 1.35,-1.08 2.79,-3.51 3.69,-6.21 2.97,1.44 6.21,1.53 8.82,-1.17 1.98,-2.16 0.45,-6.03 -0.72,-8.01 -0.63,-0.99 -1.35,-1.98 -2.07,-2.97 0.54,-1.17 1.08,-2.43 1.8,-3.42 1.35,-1.53 -0.09,-4.14 -1.62,-3.78 l -2.43,0.27 -2.61,0.99 -1.35,0.9 -1.98,0.09 -0.18,-0.27 -0.99,-1.35 c -0.63,-0.99 -1.26,-2.07 -2.34,-2.52 -0.36,-0.09 -0.72,-0.18 -1.08,-0.18 -0.9,0 -1.71,0.45 -2.43,1.44 m -220.5,4.32 -0.45,-0.18 0.45,0.18 m 307.35,5.13 -0.09,-0.36 0.09,0.36 m -303.3,3.6 -0.18,-0.09 0.18,0.09 m 301.14,6.48 v -0.09 0.09"
         clip-rule="evenodd"
         id="path11260" />
    </clipPath>
    <clipPath
       clipPathUnits="userSpaceOnUse"
       id="clipPath8914">
      <path
         d="m 1766.87,2182.21 c -21.07,7.14 -44.26,4.75 -65.78,-0.92 -28.15,-7.41 -57.67,-23.53 -65.43,-51.59 -4.85,-17.54 -4.32,-40.73 4.79,-56.48 6.01,-10.37 13.96,-19.82 24.11,-26.2 22.84,-14.34 47.5,-9.31 84.2,3.74 22.94,8.16 59.8,35.74 59.54,70.28 -0.22,28.63 -15.41,52.34 -41.43,61.17"
         id="path8912" />
    </clipPath>
    <clipPath
       clipPathUnits="userSpaceOnUse"
       id="clipPath8990">
      <path
         d="m 1644.03,2118.99 c -21.07,7.15 -44.26,4.76 -65.77,-0.91 -28.15,-7.42 -57.68,-23.54 -65.44,-51.6 -4.85,-17.54 -4.31,-40.72 4.8,-56.47 6,-10.38 13.96,-19.82 24.11,-26.2 22.84,-14.35 47.5,-9.31 84.19,3.74 22.95,8.15 59.81,35.74 59.54,70.28 -0.21,28.63 -15.4,52.35 -41.43,61.16"
         id="path8988" />
    </clipPath>
    <clipPath
       clipPathUnits="userSpaceOnUse"
       id="clipPath9068">
      <path
         d="m 1369.12,2043.15 c -7.56,21.58 -24.19,38.84 -42.41,52.66 -23.84,18.1 -55.59,31.78 -83.21,20.28 -17.27,-7.17 -35.7,-22.3 -42.68,-39.65 -4.6,-11.43 -7.2,-23.85 -5.93,-36.11 2.85,-27.58 22.55,-44.34 56.35,-65.79 21.14,-13.4 66.83,-25.76 94.62,-3.67 23.03,18.31 32.6,45.62 23.26,72.28"
         id="path9066" />
    </clipPath>
    <clipPath
       clipPathUnits="userSpaceOnUse"
       id="clipPath9128">
      <path
         d="m 1771.39,2536.83 c -22.44,4.44 -45.75,-1.12 -66.91,-9.8 -27.68,-11.35 -55.59,-31.76 -59.72,-61.39 -2.57,-18.53 1.09,-42.09 12.51,-56.91 7.51,-9.76 16.89,-18.31 28.09,-23.44 25.21,-11.54 49.65,-3.08 85.29,15.15 22.28,11.41 56.12,44.49 51.2,79.65 -4.08,29.14 -22.75,51.26 -50.46,56.74"
         id="path9126" />
    </clipPath>
    <clipPath
       clipPathUnits="userSpaceOnUse"
       id="clipPath9170">
      <path
         d="m 1848.35,2430.37 c -21.66,7.34 -45.5,4.88 -67.61,-0.94 -28.94,-7.62 -59.29,-24.19 -67.26,-53.03 -4.98,-18.03 -4.44,-41.86 4.93,-58.06 6.17,-10.65 14.35,-20.37 24.78,-26.92 23.48,-14.75 48.82,-9.56 86.54,3.84 23.58,8.38 61.47,36.74 61.2,72.24 -0.22,29.42 -15.83,53.8 -42.58,62.87"
         id="path9168" />
    </clipPath>
    <clipPath
       clipPathUnits="userSpaceOnUse"
       id="clipPath9242">
      <path
         d="m 1826.38,2296.44 c -21.07,7.15 -44.26,4.76 -65.78,-0.91 -28.14,-7.42 -57.67,-23.54 -65.43,-51.6 -4.85,-17.53 -4.32,-40.72 4.79,-56.47 6.01,-10.37 13.97,-19.82 24.12,-26.2 22.83,-14.34 47.49,-9.31 84.19,3.74 22.94,8.15 59.81,35.75 59.54,70.29 -0.21,28.62 -15.4,52.33 -41.43,61.15"
         id="path9240" />
    </clipPath>
    <clipPath
       clipPathUnits="userSpaceOnUse"
       id="clipPath9322">
      <path
         d="m 1724.94,2459.06 c -21.66,7.34 -45.49,4.89 -67.61,-0.94 -28.93,-7.63 -59.28,-24.19 -67.25,-53.03 -4.99,-18.03 -4.44,-41.86 4.93,-58.05 6.17,-10.66 14.34,-20.37 24.78,-26.93 23.48,-14.74 48.82,-9.56 86.54,3.84 23.58,8.38 61.47,36.74 61.2,72.25 -0.23,29.42 -15.84,53.79 -42.59,62.86"
         id="path9320" />
    </clipPath>
    <clipPath
       clipPathUnits="userSpaceOnUse"
       id="clipPath9356">
      <path
         d="m 1336.39,2575.09 c -2.26,-22.76 5.52,-45.43 16.19,-65.65 13.96,-26.47 36.96,-52.29 66.85,-53.54 18.69,-0.78 41.78,5.13 55.44,17.92 8.99,8.42 16.6,18.58 20.63,30.22 9.06,26.2 -1.71,49.72 -23.29,83.44 -13.49,21.07 -49.68,51.57 -84.2,43.29 -28.61,-6.86 -48.83,-27.57 -51.62,-55.68"
         id="path9354" />
    </clipPath>
    <clipPath
       clipPathUnits="userSpaceOnUse"
       id="clipPath9388">
      <path
         d="m 1396.13,2512.31 c -19.71,-11.58 -33.44,-31.23 -43.49,-51.77 -13.14,-26.88 -20.45,-60.68 -3.84,-85.57 10.38,-15.55 28.78,-30.72 47.15,-34.21 12.11,-2.31 24.8,-2.46 36.58,1.14 26.5,8.13 39.15,30.69 53.67,68 9.07,23.32 12.38,70.53 -14.66,93.54 -22.41,19.06 -51.06,23.19 -75.41,8.87"
         id="path9386" />
    </clipPath>
    <clipPath
       clipPathUnits="userSpaceOnUse"
       id="clipPath9412">
      <path
         d="m 1209.01,2517.09 c -4.09,-22.5 1.84,-45.72 10.84,-66.74 11.79,-27.5 32.63,-55.09 62.33,-58.75 18.56,-2.28 42.06,1.75 56.7,13.39 9.64,7.67 18.04,17.18 22.99,28.46 11.15,25.39 2.31,49.7 -16.49,85.05 -11.75,22.09 -45.36,55.41 -80.43,49.94 -29.07,-4.54 -50.9,-23.56 -55.94,-51.35"
         id="path9410" />
    </clipPath>
    <clipPath
       clipPathUnits="userSpaceOnUse"
       id="clipPath9496">
      <path
         d="m 1102.54,2404.53 c 7.15,-21.72 23.45,-39.3 41.4,-53.46 23.49,-18.54 54.98,-32.82 82.82,-21.85 17.4,6.85 36.12,21.62 43.41,38.84 4.81,11.34 7.66,23.72 6.62,35.99 -2.33,27.62 -21.71,44.76 -55.1,66.84 -20.88,13.8 -66.32,27.03 -94.53,5.46 -23.37,-17.86 -33.46,-45 -24.62,-71.82"
         id="path9494" />
    </clipPath>
    <clipPath
       clipPathUnits="userSpaceOnUse"
       id="clipPath9574">
      <path
         d="m 1317.75,2424.96 c -22.14,-5.74 -40.72,-20.87 -56.01,-37.88 -20.01,-22.25 -36.3,-52.74 -27.14,-81.23 5.72,-17.81 19.26,-37.44 35.97,-45.84 11.01,-5.52 23.17,-9.16 35.49,-8.91 27.71,0.55 46.06,18.78 70.24,50.69 15.12,19.94 31.24,64.43 11.54,93.97 -16.33,24.48 -42.75,36.29 -70.09,29.2"
         id="path9572" />
    </clipPath>
    <clipPath
       clipPathUnits="userSpaceOnUse"
       id="clipPath9598">
      <path
         d="m 1751.33,2327.18 c -20.65,9.83 -44.61,10.17 -67.25,6.97 -29.63,-4.19 -61.71,-17.1 -73,-44.8 -7.06,-17.32 -9.3,-41.06 -1.89,-58.23 4.88,-11.32 11.87,-21.91 21.46,-29.64 21.6,-17.39 47.37,-15.21 86.4,-6.3 24.4,5.57 65.34,29.3 69.22,64.59 3.23,29.24 -9.43,55.28 -34.94,67.41"
         id="path9596" />
    </clipPath>
    <clipPath
       clipPathUnits="userSpaceOnUse"
       id="clipPath9644">
      <path
         d="m 1647.02,2229.73 c -22.83,1.41 -45.2,-7.21 -65,-18.63 -25.93,-14.94 -50.87,-38.88 -51.01,-68.8 -0.09,-18.71 6.69,-41.57 19.97,-54.73 8.75,-8.67 19.18,-15.9 30.97,-19.49 26.52,-8.08 49.62,3.56 82.51,26.38 20.56,14.27 49.69,51.57 40.12,85.76 -7.92,28.33 -29.38,47.77 -57.56,49.51"
         id="path9642" />
    </clipPath>
    <clipPath
       clipPathUnits="userSpaceOnUse"
       id="clipPath9712">
      <path
         d="m 1507.16,2157.63 c -22.82,1.41 -45.18,-7.21 -65,-18.63 -25.92,-14.94 -50.87,-38.88 -51,-68.8 -0.09,-18.71 6.69,-41.57 19.97,-54.73 8.75,-8.67 19.19,-15.9 30.97,-19.49 26.52,-8.08 49.62,3.56 82.51,26.38 20.56,14.28 49.69,51.57 40.13,85.76 -7.93,28.33 -29.38,47.77 -57.58,49.51"
         id="path9710" />
    </clipPath>
    <clipPath
       clipPathUnits="userSpaceOnUse"
       id="clipPath9790">
      <path
         d="m 1476.73,2249.22 c -22.76,2.2 -45.41,-5.64 -65.61,-16.36 -26.42,-14.04 -52.18,-37.1 -53.36,-67 -0.73,-18.68 5.25,-41.77 18.06,-55.38 8.45,-8.98 18.63,-16.56 30.28,-20.56 26.23,-8.99 49.72,1.85 83.38,23.52 21.04,13.54 51.45,49.81 43.07,84.31 -6.94,28.59 -27.7,48.75 -55.82,51.47"
         id="path9788" />
    </clipPath>
    <clipPath
       clipPathUnits="userSpaceOnUse"
       id="clipPath9814">
      <path
         d="m 1441.2,2108.72 c -7.57,21.58 -24.2,38.84 -42.42,52.66 -23.83,18.09 -55.58,31.78 -83.2,20.28 -17.28,-7.18 -35.71,-22.3 -42.69,-39.65 -4.59,-11.43 -7.19,-23.86 -5.92,-36.11 2.85,-27.58 22.55,-44.35 56.35,-65.78 21.14,-13.41 66.82,-25.77 94.61,-3.68 23.03,18.31 32.61,45.62 23.27,72.28"
         id="path9812" />
    </clipPath>
    <clipPath
       clipPathUnits="userSpaceOnUse"
       id="clipPath9894">
      <path
         d="m 1010.57,2279.72 c 14.59,-17.61 36.17,-28.02 58.05,-34.66 28.64,-8.69 63.16,-10.5 85.08,9.87 13.7,12.73 25.74,33.31 26.26,52.01 0.33,12.31 -1.53,24.87 -6.98,35.92 -12.25,24.86 -36.55,33.75 -75.69,42.12 -24.48,5.24 -71.61,0.97 -90,-29.4 -15.243,-25.16 -14.743,-54.11 3.28,-75.86"
         id="path9892" />
    </clipPath>
    <clipPath
       clipPathUnits="userSpaceOnUse"
       id="clipPath9942">
      <path
         d="m 931.305,2207.69 c 14.582,-17.62 36.172,-28.03 58.054,-34.67 28.631,-8.68 63.161,-10.5 85.071,9.87 13.7,12.74 25.74,33.32 26.26,52.01 0.34,12.31 -1.53,24.87 -6.98,35.92 -12.25,24.87 -36.54,33.76 -75.69,42.13 -24.469,5.23 -71.602,0.96 -89.997,-29.41 -15.242,-25.16 -14.738,-54.1 3.282,-75.85"
         id="path9940" />
    </clipPath>
    <clipPath
       clipPathUnits="userSpaceOnUse"
       id="clipPath10020">
      <path
         d="m 880.613,2019.86 c 20.5,-10.13 44.453,-10.85 67.145,-8 29.687,3.75 61.952,16.16 73.662,43.7 7.32,17.2 9.93,40.91 2.78,58.19 -4.7,11.39 -11.53,22.09 -21.01,29.96 -21.323,17.72 -47.127,15.93 -86.288,7.62 -24.48,-5.2 -65.781,-28.3 -70.199,-63.54 -3.668,-29.19 8.594,-55.41 33.91,-67.93"
         id="path10018" />
    </clipPath>
    <clipPath
       clipPathUnits="userSpaceOnUse"
       id="clipPath10084">
      <path
         d="m 966.59,2092.41 c 20.5,-10.14 44.45,-10.85 67.14,-8 29.69,3.74 61.96,16.16 73.67,43.7 7.32,17.2 9.93,40.9 2.78,58.18 -4.71,11.39 -11.53,22.09 -21.01,29.96 -21.32,17.72 -47.13,15.93 -86.29,7.63 -24.482,-5.2 -65.782,-28.31 -70.2,-63.54 -3.668,-29.19 8.593,-55.41 33.91,-67.93"
         id="path10082" />
    </clipPath>
    <clipPath
       clipPathUnits="userSpaceOnUse"
       id="clipPath10150">
      <path
         d="m 1076.83,1957.79 c 22.27,5.22 41.21,19.89 56.9,36.53 20.54,21.76 37.55,51.86 29.08,80.56 -5.3,17.94 -18.35,37.88 -34.86,46.68 -10.87,5.79 -22.95,9.72 -35.27,9.77 -27.72,0.11 -46.5,-17.68 -71.44,-49 -15.59,-19.57 -32.775,-63.67 -13.78,-93.67 15.73,-24.85 41.87,-37.3 69.37,-30.87"
         id="path10148" />
    </clipPath>
    <clipPath
       clipPathUnits="userSpaceOnUse"
       id="clipPath10232">
      <path
         d="m 1227.62,1999.91 c 18.68,13.2 30.71,33.93 39.01,55.24 10.85,27.88 15.31,62.16 -3.32,85.58 -11.65,14.63 -31.25,28.21 -49.85,30.16 -12.26,1.28 -24.92,0.38 -36.35,-4.2 -25.73,-10.31 -36.46,-33.86 -47.8,-72.25 -7.09,-24 -6.45,-71.32 22.42,-91.99 23.92,-17.12 52.82,-18.84 75.89,-2.54"
         id="path10230" />
    </clipPath>
    <clipPath
       clipPathUnits="userSpaceOnUse"
       id="clipPath11274">
      <path
         d="m 1388.7,2118.56 v 9.31 c 3.89,22.3 36.45,29.03 54.45,36.26 9.45,3.78 18.9,8.28 27.36,14.13 -2.61,4.14 -4.86,8.46 -6.75,12.87 -3.24,7.56 -4.68,16.29 -4.59,25.2 0,0.81 0,1.53 0,2.25 -6.48,-7.38 -13.41,-13.59 -19.71,-17.91 -0.54,-0.45 -1.17,-0.81 -1.71,-1.17 -18.75,-12.05 -34.39,-20.8 -49.05,-24.6 v 219.5 c 2.67,-4.29 4.56,-8.84 5.94,-13.55 3.6,15.48 17.01,31.23 24.3,42.84 6.39,10.08 12.06,20.88 15.39,32.4 1.71,5.85 2.61,11.88 4.32,17.73 0.54,1.98 1.17,4.05 2.16,5.94 0.72,7.11 4.23,13.77 9.99,16.92 -2.88,9.54 -4.14,19.89 -4.14,30.15 0,0.72 0,1.44 0,2.07 -7.29,4.05 -12.78,10.8 -17.55,17.46 -5.76,8.19 -12.33,19.17 -12.69,29.43 -0.18,4.41 0.9,8.46 2.97,11.88 3.78,11.07 16.2,16.29 27.09,12.33 3.87,-1.35 7.2,-3.78 10.08,-6.75 1.17,-0.9 2.34,-1.89 3.51,-2.88 3.51,7.38 7.92,14.31 13.41,20.52 18.81,21.15 47.34,26.01 74.52,14.85 20.7,-8.55 32.94,-29.97 38.7,-50.85 4.14,5.94 8.82,11.43 14.31,16.2 21.24,18.63 50.13,19.89 75.69,5.4 24.57,-13.95 33.12,-46.62 33.3,-71.82 0,-5.58 -0.36,-10.71 -1.08,-15.3 -0.09,-0.72 -0.27,-1.35 -0.36,-2.07 -6.75,-36.45 -14.31,-60.21 -34.74,-73.71 11.88,-22.5 30.33,-40.23 43.74,-53.01 -2.25,-0.27 -4.41,-0.45 -6.57,-0.54 2.88,-1.08 5.4,-2.61 7.47,-4.68 9.9,-6.21 12.24,-19.44 5.94,-29.16 -2.25,-3.51 -5.4,-6.21 -8.91,-8.28 -9.36,-8.19 -23.85,-11.88 -35.91,-12.33 -3.69,-11.88 -9.18,-22.59 -14.58,-30.24 -0.45,-0.63 -0.81,-1.17 -1.26,-1.71 -10.62,-13.95 -20.07,-25.29 -29.7,-33.66 4.59,-9 7.11,-19.17 7.2,-30.06 1.98,0 3.87,-0.09 5.76,-0.18 5.49,-0.36 10.71,-1.35 15.57,-2.97 0.81,3.06 2.34,6.03 4.59,8.73 6.48,7.83 16.29,11.43 25.74,14.13 9.63,2.7 22.23,5.13 32.04,2.07 4.23,-1.35 7.65,-3.78 10.17,-6.93 9.18,-7.29 9.81,-20.7 2.43,-29.61 -2.61,-3.15 -6.03,-5.49 -9.81,-7.2 -11.52,-7.83 -28.8,-9.45 -41.49,-7.47 -0.99,0.18 -1.98,0.36 -2.97,0.63 -2.7,0.36 -5.22,0.9 -7.65,1.8 -2.52,0.9 -4.68,2.16 -6.3,3.69 -6.3,0.99 -12.69,1.8 -18.81,1.53 -0.45,0 -0.9,-0.09 -1.26,-0.09 3.96,-7.02 7.92,-13.41 11.43,-19.08 -9.9,1.26 -18.63,4.32 -26.82,10.08 -13.05,-22.95 -41.04,-38.34 -60.3,-43.38 -0.63,-0.09 -1.35,-0.27 -1.98,-0.45 -5.31,-1.26 -10.44,-2.34 -15.3,-3.24 -2.88,-3.96 -5.13,-8.1 -6.21,-13.05 -2.16,-9.72 -3.51,-18.72 -10.17,-26.64 -0.81,-0.9 -1.8,-1.71 -2.88,-2.25 -4.05,10.44 -6.12,21.96 -6.03,32.22 0,2.16 0.18,4.32 0.45,6.39 -7.65,-0.45 -14.58,-0.09 -21.06,1.17 -2.52,-3.06 -5.22,-6.03 -7.92,-8.91 -0.18,-0.54 -0.36,-1.17 -0.54,-1.71 -1.35,-3.87 -3.78,-7.2 -6.75,-10.08 -7.56,-10.62 -21.78,-17.73 -33.93,-20.61 -0.81,-0.36 -1.62,-0.72 -2.43,-1.08 -12.87,-5.4 -27.18,-8.01 -41.04,-9 -0.9,-0.09 -1.8,-0.09 -2.79,-0.09 -12.78,0 -24.16,6.48 -26.28,20.22 m 286.56,269.13 c 2.25,-3.42 4.05,-6.93 5.4,-10.71 5.22,1.98 11.07,3.69 16.74,4.23 -4.05,0.9 -8.01,2.25 -12.06,4.05 -6.3,2.88 -12.06,6.93 -17.19,11.61 2.52,-2.79 4.95,-5.85 7.11,-9.18 m -34.74,35.1 c -0.63,-2.25 -1.17,-4.5 -1.62,-6.66 8.64,-2.79 16.65,-7.47 23.76,-13.77 -1.89,1.98 -3.69,4.14 -5.4,6.39 -3.42,4.41 -6.12,9.54 -8.19,15.21 -2.79,-0.54 -5.67,-0.9 -8.55,-1.17 m 22.77,-305.64 c -6.12,1.44 -10.62,3.24 -15.03,7.83 -3.51,3.6 -6.75,7.47 -10.08,11.16 -12.78,14.31 9.36,34.2 22.14,19.89 3.42,-3.69 6.84,-7.38 10.08,-11.16 4.23,-4.95 5.4,-9.54 6.12,-15.84 0.9,-7.02 -3.78,-12.24 -10.26,-12.24 -0.9,0 -1.89,0.09 -2.97,0.36 m 15.3,21.06 c -3.51,3.24 -4.86,8.46 -7.02,12.69 -1.98,4.05 -4.5,8.19 -3.51,12.78 0.36,1.71 1.89,3.24 3.6,3.69 11.34,2.79 26.37,-13.95 22.41,-24.84 -1.53,-4.23 -5.31,-6.84 -9.18,-6.84 -2.16,0 -4.41,0.81 -6.3,2.52 M 1403.1,2593.7 c -1.62,0.36 -3.15,1.98 -3.51,3.69 -2.34,11.52 15.03,25.83 25.65,21.42 6.48,-2.61 9,-10.26 3.78,-15.57 -3.33,-3.42 -8.64,-4.5 -12.96,-6.57 -3.24,-1.53 -6.66,-3.33 -10.35,-3.33 -0.81,0 -1.71,0.18 -2.61,0.36"
         clip-rule="evenodd"
         id="path11272" />
    </clipPath>
    <clipPath
       clipPathUnits="userSpaceOnUse"
       id="clipPath11286">
      <path
         d="m 1068.84,2126.06 c -15.03,7.47 -25.38,19.71 -30.6,34.47 -1.08,2.97 -1.89,5.94 -2.52,9 -0.9,4.5 -1.35,9.18 -1.44,13.95 0,0.36 0,0.72 0,1.08 0,3.15 0.27,6.3 0.63,9.45 4.41,35.28 45.72,58.41 70.2,63.54 3.96,0.81 7.83,1.62 11.52,2.34 -1.62,5.4 -2.43,10.89 -2.43,16.47 -0.27,19.35 7.92,39.33 18.54,56.34 -1.89,-2.16 -4.32,-3.96 -7.2,-5.31 -9.18,-4.32 -19.62,-3.51 -29.34,-1.98 -9.9,1.62 -22.32,4.68 -29.88,11.7 -3.24,2.97 -5.4,6.66 -6.3,10.53 -5.22,10.44 -0.27,22.86 10.26,27.9 3.69,1.71 7.74,2.43 11.88,2.34 13.77,2.25 30.15,-3.6 40.77,-10.71 l 2.52,-1.8 c 2.25,-1.44 4.32,-3.06 6.12,-4.86 1.98,-1.98 3.33,-4.05 4.32,-6.21 2.7,-5.13 2.7,-10.98 0.45,-16.2 4.68,7.02 9.9,13.77 15.75,19.98 -0.36,3.06 -0.72,6.03 -1.08,8.82 1.98,-1.26 3.96,-2.61 5.76,-4.05 8.19,7.74 17.28,14.31 27.63,18.72 26.01,11.07 53.91,3.33 73.71,-18.45 10.8,-11.88 14.85,-27.9 14.85,-43.92 0,-8.91 -1.17,-17.73 -3.06,-25.83 2.16,-1.8 4.41,-3.51 6.66,-5.13 2.52,18.81 26.1,33.84 38.88,45.27 8.91,7.92 17.28,16.83 23.58,26.91 0.9,1.44 1.71,2.88 2.52,4.32 -6.84,10.53 3.15,22.95 13.68,22.77 5.4,7.11 14.22,10.71 23.67,4.86 1.53,-0.99 2.88,-2.07 3.96,-3.24 -0.45,3.96 -1.35,7.92 -1.62,11.97 -0.09,0.9 0.09,1.98 0.18,3.06 2.25,-2.61 4.41,-5.4 6.39,-8.37 0.31,-0.46 0.61,-0.93 0.9,-1.39 v -219.5 c -2.09,-0.54 -4.16,-0.98 -6.21,-1.32 -2.61,-3.51 -4.68,-7.29 -5.76,-11.7 -2.52,-9.72 -4.23,-18.63 -11.16,-26.28 -0.81,-0.9 -1.8,-1.62 -2.88,-2.16 -3.69,10.62 -5.31,22.14 -4.95,32.4 0.09,2.97 0.45,5.94 1.08,8.82 -0.45,0.18 -0.99,0.27 -1.44,0.45 -8.46,-12.78 -19.35,-23.31 -28.71,-29.7 -0.54,-0.45 -1.17,-0.81 -1.71,-1.17 -33.66,-21.69 -57.15,-32.49 -83.34,-23.49 -11.7,3.96 -21.87,11.52 -30.24,20.52 -3.24,3.42 -6.03,7.38 -8.37,11.79 -14.22,-21.51 -42.66,-31.68 -69.03,-34.92 -7.23,-0.92 -14.59,-1.47 -21.92,-1.47 -15.67,0 -31.24,2.52 -45.22,9.39 m 319.77,-6.93 c -0.43,3.16 -0.38,6.06 0.09,8.74 v -9.31 c -0.03,0.19 -0.06,0.38 -0.09,0.57 m -349.38,221.22 c -9.9,6.39 -7.83,28.8 2.7,33.3 6.48,2.79 13.68,-0.9 13.77,-8.28 0.09,-4.77 -2.88,-9.36 -4.5,-13.77 -1.53,-4.23 -2.79,-8.91 -6.93,-11.34 -0.72,-0.45 -1.53,-0.63 -2.43,-0.63 -0.9,0 -1.89,0.27 -2.61,0.72"
         clip-rule="evenodd"
         id="path11284" />
    </clipPath>
    <clipPath
       clipPathUnits="userSpaceOnUse"
       id="clipPath6598">
      <path
         d="m 3786.34,3495.07 c -29.8,6.88 -61,9.29 -89.39,20.65 -59.85,23.94 -144.54,-12.3 -161.55,-25.49 -30.95,-24.01 -47.22,-51.39 -67.22,-85.08 -20.18,-34 -27.12,-74.15 -30.58,-113.53 -5.11,-58.23 -3.11,-118.44 18.39,-172.8 16.74,-42.3 44.51,-79.22 65.45,-119.6 11.95,-23.06 21.88,-47.59 38.61,-67.46 37.03,-44 98.95,-56.36 156.14,-62.5 32.64,-3.5 65.41,-5.87 98.23,-7.11 20.78,-0.78 41.89,-1.07 62.03,4.18 53.91,14.05 89.86,64.12 116.61,112.99 22.2,40.56 41.37,82.77 57.31,126.17 23.35,63.64 39.87,131.82 30.57,198.97 -9.3,67.16 -48.56,133.17 -110.97,159.67 -30.51,12.96 -64.2,15.87 -97.24,18.62 -20.26,1.69 -40.5,3.38 -60.75,5.06 -9.92,0.83 -15.95,5.02 -25.64,7.26"
         id="path6596" />
    </clipPath>
    <clipPath
       clipPathUnits="userSpaceOnUse"
       id="clipPath6630">
      <path
         d="m 3534.4,3184.06 c -33.58,34.38 -86.2,45.64 -133.45,36.84 -47.24,-8.81 -89.58,-35.35 -125.52,-67.25 -15.01,-13.33 -29.19,-27.74 -40.87,-44.06 -44.48,-62.18 -48.06,-144.68 -39.24,-220.63 7.29,-62.84 24.28,-129.01 71.35,-171.29 13.2,-11.85 28.29,-21.36 43.73,-30.09 69.38,-39.21 147.18,-63.42 226.56,-70.52 16.94,-1.51 42.23,-2.53 58.85,1.11 20.73,4.54 46.24,9.47 64.84,19.69 45.91,25.22 69.98,32.82 112.3,63.67 42.33,30.86 74.61,90.98 84.52,142.41 7.7,39.98 12.46,83.77 1.93,123.1 -5.22,19.51 -10.9,39.13 -20.81,56.72 -23.24,41.29 -68.8,67.52 -115.86,72.95 -24.76,2.85 -49.92,0.34 -73.93,-6.16 -11.66,-3.16 -23.05,-7.27 -34.1,-12.17 -7.18,-3.18 -20.48,-14.2 -28.47,-10.11 -10.28,5.25 -14.2,48.51 -18.4,60 -7.51,20.5 -18.08,40.07 -33.43,55.79"
         id="path6628" />
    </clipPath>
    <clipPath
       clipPathUnits="userSpaceOnUse"
       id="clipPath6664">
      <path
         d="m 3528.23,3216.48 c -33.59,34.38 -86.21,45.63 -133.45,36.83 -47.25,-8.79 -89.58,-35.34 -125.52,-67.25 -15.02,-13.32 -29.19,-27.73 -40.87,-44.05 -44.49,-62.18 -48.06,-144.68 -39.25,-220.62 7.3,-62.85 24.29,-129.02 71.36,-171.3 13.19,-11.85 28.29,-21.36 43.73,-30.09 69.38,-39.2 147.18,-63.42 226.55,-70.52 16.95,-1.51 42.24,-2.53 58.86,1.11 20.72,4.55 46.24,9.47 64.84,19.68 45.9,25.22 69.98,32.83 112.3,63.68 42.33,30.86 74.61,90.98 84.52,142.41 7.7,39.98 12.45,83.77 1.93,123.09 -5.23,19.51 -10.91,39.13 -20.81,56.73 -23.25,41.29 -68.8,67.52 -115.86,72.95 -24.77,2.85 -49.92,0.34 -73.94,-6.17 -11.66,-3.16 -23.06,-7.27 -34.09,-12.16 -7.18,-3.19 -20.48,-14.19 -28.47,-10.12 -10.28,5.25 -14.21,48.52 -18.41,60 -7.51,20.51 -18.07,40.08 -33.42,55.8"
         id="path6662" />
    </clipPath>
    <clipPath
       clipPathUnits="userSpaceOnUse"
       id="clipPath2990-2">
      <path
         d="M 0,0 H 4943 V 4359 H 0 Z"
         id="path2988-2" />
    </clipPath>
    <clipPath
       clipPathUnits="userSpaceOnUse"
       id="clipPath2996-3">
      <path
         d="m 1789.25,4062.13 c -34.41,62.46 -116.1,64.33 -174.43,44.37 -32.95,-11.27 -64.45,-27.01 -95.21,-43.2 -9.21,-4.85 -19.39,-10.14 -29.27,-16.21 2.09,3.32 4.22,6.61 6.41,9.86 14.47,21.43 32.03,40.57 50.55,58.55 19.69,19.1 40.32,37.14 61.16,54.95 10.4,8.89 20.72,17.8 32.26,25.17 5.35,3.41 4.88,4.6 10.2,8.06 5.98,3.89 11.58,10.29 23.16,19.95 5.48,4.57 24.4,11.95 18.01,16.08 -11.84,7.65 -53.39,0.41 -66.29,-3.3 -16.22,-4.68 -32.47,-11.88 -46.85,-20.65 -27.62,-16.84 -53.52,-38.63 -76.92,-60.91 -12.24,-11.65 -24.01,-23.95 -34.99,-36.9 -4.15,30.69 -11.46,60.52 -22.64,89.51 -11.88,30.78 -27.48,60.13 -46.91,86.85 -9.34,12.86 -19.76,24.89 -31.08,36.04 -5.33,5.25 -10.85,10.31 -16.89,14.73 -6.79,4.96 -16.61,8.2 -22.75,13.56 -2.44,2.13 -5.9,-1.23 -3.59,-3.58 4.83,-4.87 7.88,-13.58 11.5,-19.45 3.8,-6.15 7.83,-12.09 11.91,-18.06 8.6,-12.6 16.53,-25.66 24.25,-38.82 15.49,-26.41 28.02,-54.18 37.67,-83.24 7.6,-22.88 13.39,-46.69 16.91,-70.66 -8.22,13.05 -17.59,25.38 -28.16,36.94 -18.82,20.59 -41.2,37.8 -66.24,49.93 -25.13,12.17 -113.11,22.86 -122.12,11.28 -4.76,-6.12 32.59,-13.11 40.54,-16.73 22.7,-10.35 39.26,-25.66 59.19,-40.95 18.26,-14.01 35.75,-30.13 49.93,-48.33 9.32,-11.95 17.6,-25.18 24.49,-38.95 -13.67,0.38 -26.98,-0.38 -37.31,-0.6 -38.71,-0.8 -78.15,-2.82 -115.45,-14.04 -30.04,-9.04 -58.89,-29.57 -79.93,-53.36 -8.81,-9.97 -29.05,-44.67 -25.74,-59.2 1.57,-6.86 40.58,25.84 45.09,29.16 9.34,6.9 19.62,12.77 29.96,18.02 21.46,10.88 45.98,17.14 69.85,19.47 29.5,2.89 58.97,1.73 88.55,1.08 6.21,-0.13 12.39,-0.29 18.58,-0.5 -16.17,-12.01 -27.27,-25.96 -39.08,-40.82 -11.53,-14.51 -18.46,-26.14 -23.92,-43.98 -4.38,-14.31 -4.37,-30.68 -2.44,-55.77 0.95,-12.41 3.47,-25.47 10.93,-15.45 4,5.37 16.36,25.89 19.83,31.59 3.55,5.85 7.9,11.4 11.76,17.09 7.28,10.72 16.14,20.99 25.27,30.17 12.82,12.91 40.33,30.81 55.1,40.18 5.39,-3.03 30.3,-17.27 39.24,-13.51 13.86,5.83 25.84,9.88 37.8,18.84 11.17,8.36 23.48,15.3 35.76,21.88 25.16,13.49 50.83,26.91 77.64,36.77 25.98,9.56 51.95,15.61 79.63,15.98 25.02,0.33 51.73,-3.61 76.05,-9.07 9.97,-2.23 14.08,1.01 9.03,10.18"
         id="path2994-7" />
    </clipPath>
    <clipPath
       clipPathUnits="userSpaceOnUse"
       id="clipPath2402">
      <path
         d="m 4246.45,312.859 c -38.01,-22.918 -60.66,-66.058 -67.29,-109.949 -9.93,-65.699 14.03,-135.6209 62.18,-181.41 5.66,-5.3789 11.75,-10.5195 18.93,-13.57812 6.69,-2.85157 14.01,-3.78125 21.23,-4.64063 17.54,-2.07031 35.22,-3.921875 52.81,-2.410156 36.06,3.097656 70,20.488306 96.71,44.890606 26.71,24.4102 46.61,55.5273 61.79,88.3673 13.06,28.273 22.85,61 11.89,90.16 -10.87,28.922 -40.18,47.461 -70.18,54.883 -19.02,4.699 -36.56,8.258 -53.85,17.988 -12.13,6.809 -23.08,15.731 -35.68,21.711 -30.91,14.668 -69.44,11.539 -98.54,-6.012"
         id="path2400" />
    </clipPath>
    <clipPath
       clipPathUnits="userSpaceOnUse"
       id="clipPath2434">
      <path
         d="m 4536.87,217.73 c -9.98,-16.808 -9.88,-37.73 -7.05,-57.078 6.82,-46.621 28.76,-91.6911 64.53,-122.3512 35.77,-30.64846 85.79,-45.51955 131.69,-34.87111 18.1,4.19922 35.59,12.37891 48.81,25.47261 15.87,15.7071 37.74,36.5274 45.4,57.5196 14.68,40.2581 14.32,83.3281 9.82,125.9491 -5.2,49.289 -39.35,98.348 -92.17,101.461 -47.76,2.809 -80.86,-22.352 -120.49,-43.16 -26.84,-14.09 -64.17,-25.352 -80.54,-52.942"
         id="path2432" />
    </clipPath>
    <clipPath
       clipPathUnits="userSpaceOnUse"
       id="clipPath2500">
      <path
         d="m 4671.59,697.012 c -51.45,22.789 -105.4,46.07 -161.58,42.758 -19.01,-1.129 -37.7,-5.309 -56.26,-9.641 -32.9,-7.688 -66.39,-16.227 -94.6,-34.848 -20.05,-13.23 -36.67,-31.101 -51.43,-50.07 -35.8,-45.981 -61.86,-99.539 -75.95,-156.09 -5.49,-22.07 -9.24,-44.742 -17.94,-65.75 -10.83,-26.129 -29.31,-49.051 -52.58,-65.16 3.98,-3.102 9.38,-2.16 14.8,-1.211 2.89,0.5 5.79,1 8.49,0.891 91.05,-3.789 182.98,16.25 264.2,57.589 22.27,11.329 43.86,24.309 62.67,40.762 33.76,29.52 57.18,68.867 79.16,107.957 15.88,28.242 31.32,56.731 46.31,85.449 8.7,16.684 19.21,36.711 34.71,47.364"
         id="path2498" />
    </clipPath>
    <clipPath
       clipPathUnits="userSpaceOnUse"
       id="clipPath2516">
      <path
         d="m 4671.59,697.012 c -51.45,22.789 -105.4,46.07 -161.58,42.758 -19.01,-1.129 -37.7,-5.309 -56.26,-9.641 -32.9,-7.688 -66.39,-16.227 -94.6,-34.848 -20.05,-13.23 -36.67,-31.101 -51.43,-50.07 -35.8,-45.981 -61.86,-99.539 -75.95,-156.09 -5.49,-22.07 -9.24,-44.742 -17.94,-65.75 -10.83,-26.129 -29.31,-49.051 -52.58,-65.16 3.98,-3.102 9.38,-2.16 14.8,-1.211 2.89,0.5 5.79,1 8.49,0.891 91.05,-3.789 182.98,16.25 264.2,57.589 22.27,11.329 43.86,24.309 62.67,40.762 33.76,29.52 57.18,68.867 79.16,107.957 15.88,28.242 31.32,56.731 46.31,85.449 8.7,16.684 19.21,36.711 34.71,47.364"
         id="path2514" />
    </clipPath>
  </defs>
  <g
     inkscape:label="Ebene 1"
     inkscape:groupmode="layer"
     id="layer1">
    <g
       id="g14817"
       transform="matrix(0.1132277,0,0,-0.1132277,-464.92718,88.538233)">
      <path
         d="m 4400.86,227.742 c -2.67,24.488 0.32,49.149 3.62,72.297 3.71,25.973 8.33,53.621 16.99,79.742 13.67,41.219 37,78.231 59.57,114.02 13.07,20.719 26.57,42.148 41.42,62.262 39.03,52.859 90.36,101.648 161.55,153.609 l 25.54,18.629 -19.03,-25.25 c -76.79,-101.961 -99.4,-240.5 -59.01,-361.582 4.3,-12.906 9.38,-25.848 14.29,-38.379 7.47,-19.07 15.2,-38.781 20.51,-59.051 l -9.08,-2.379 c -5.17,19.742 -12.8,39.192 -20.18,58.012 -4.95,12.617 -10.06,25.687 -14.45,38.828 -38.27,114.699 -21.3,244.742 43.75,346.23 -58.54,-44.98 -102.25,-88.089 -136.34,-134.238 -14.63,-19.84 -28.05,-41.121 -41.03,-61.703 -22.27,-35.309 -45.3,-71.84 -58.59,-111.957 -8.44,-25.422 -12.97,-52.57 -16.62,-78.121 -3.21,-22.559 -6.13,-46.539 -3.57,-69.941 l -9.34,-1.028"
         style="fill:#416b2a;fill-opacity:1;fill-rule:nonzero;stroke:none"
         id="path2388" />
      <path
         d="m 4671.59,697.012 c -51.45,22.789 -105.4,46.07 -161.58,42.758 -19.01,-1.129 -37.7,-5.309 -56.26,-9.641 -32.9,-7.688 -66.39,-16.227 -94.6,-34.848 -20.05,-13.23 -36.67,-31.101 -51.43,-50.07 -35.8,-45.981 -61.86,-99.539 -75.95,-156.09 -5.49,-22.07 -9.24,-44.742 -17.94,-65.75 -10.83,-26.129 -29.31,-49.051 -52.58,-65.16 3.98,-3.102 9.38,-2.16 14.8,-1.211 2.89,0.5 5.79,1 8.49,0.891 91.05,-3.789 182.98,16.25 264.2,57.589 22.27,11.329 43.86,24.309 62.67,40.762 33.76,29.52 57.18,68.867 79.16,107.957 15.88,28.242 31.32,56.731 46.31,85.449 8.7,16.684 19.21,36.711 34.71,47.364"
         style="fill:#79a43f;fill-opacity:1;fill-rule:nonzero;stroke:none"
         id="path2390" />
      <path
         d="m 4246.45,312.859 c -38.01,-22.918 -60.66,-66.058 -67.29,-109.949 -9.93,-65.699 14.03,-135.6209 62.18,-181.41 5.66,-5.3789 11.75,-10.5195 18.93,-13.57812 6.69,-2.85157 14.01,-3.78125 21.23,-4.64063 17.54,-2.07031 35.22,-3.921875 52.81,-2.410156 36.06,3.097656 70,20.488306 96.71,44.890606 26.71,24.4102 46.61,55.5273 61.79,88.3673 13.06,28.273 22.85,61 11.89,90.16 -10.87,28.922 -40.18,47.461 -70.18,54.883 -19.02,4.699 -36.56,8.258 -53.85,17.988 -12.13,6.809 -23.08,15.731 -35.68,21.711 -30.91,14.668 -69.44,11.539 -98.54,-6.012"
         style="fill:#a31833;fill-opacity:1;fill-rule:nonzero;stroke:none"
         id="path2392" />
      <path
         d="m 4536.87,217.73 c -9.98,-16.808 -9.88,-37.73 -7.05,-57.078 6.82,-46.621 28.76,-91.6911 64.53,-122.3512 35.77,-30.64846 85.79,-45.51955 131.69,-34.87111 18.1,4.19922 35.59,12.37891 48.81,25.47261 15.87,15.7071 37.74,36.5274 45.4,57.5196 14.68,40.2581 14.32,83.3281 9.82,125.9491 -5.2,49.289 -39.35,98.348 -92.17,101.461 -47.76,2.809 -80.86,-22.352 -120.49,-43.16 -26.84,-14.09 -64.17,-25.352 -80.54,-52.942"
         style="fill:#af1939;fill-opacity:1;fill-rule:nonzero;stroke:none"
         id="path2394" />
      <g
         id="g2396">
        <g
           id="g2398"
           clip-path="url(#clipPath2402)">
          <path
             d="m 4402.7,316.129 c -21.18,17.84 -42.64,27.91 -70.53,29.961 -24.59,1.82 -50.02,-4.418 -72.23,-14.719 -41.84,-19.402 -74.21,-59.621 -85.27,-104.289 -12.61,-51 0.84,-111 15.54,-160.4101 7.16,-24.0821 17.6,-46.7696 33.39,-66.39065 14.21,-17.66015 40.91,-32.71875 63.85,-28.67965 12.9,2.2773 18.05,19.14059 11.97,29.41793 -4.33,7.30078 -10.48,11.44927 -16.11,17.60157 -5.47,6 -10.17,12.8984 -15.11,19.3398 -10.84,14.1094 -17.43,30.211 -22.27,47.1993 -10.37,36.3708 -22.46,81.1528 -16.4,119.1208 4.81,30.121 24.09,57.239 50.68,72 30.01,16.649 70.91,14.969 103.3,6.879 17.86,-4.449 35.01,19.629 19.19,32.969"
             style="fill:#971735;fill-opacity:1;fill-rule:nonzero;stroke:none"
             id="path2404" />
          <path
             d="m 4429.37,260.711 c 23.38,-3.461 37.15,-24.371 42.87,-46.172 7.91,-30.137 -6.27,-63.59 -17.32,-91.098 C 4443.86,95.9102 4431.76,66.8398 4412.45,43.9609 4403.66,33.5391 4393.58,24.7305 4381.7,18 c -13.42,-7.6211 -26.01,-7.3281 -40.24,-11.23828 -14.22,-3.90234 -26.31,-17.94922 -23.03,-33.10152 4.12,-19.0313 24.33,-24.7305 41.11,-22.8907 31.73,3.4805 60.29,18.3399 83.85,39.56253 22.93,20.64847 40.05,48.14847 53.02,75.91017 14.3,30.5898 28.54,63.5978 34.54,96.9568 6.53,36.34 4.07,75.66 -20.31,105.223 -19.96,24.207 -50.68,35.047 -81.27,30.328 -18.78,-2.898 -18.89,-35.23 0,-38.039"
             style="fill:#ad1740;fill-opacity:1;fill-rule:nonzero;stroke:none"
             id="path2406" />
          <path
             d="m 4437.68,116.191 c 3.92,7.508 7.13,14.918 9.51,21.93 0.42,1.219 0.82,2.449 1.2,3.699 7.92,5.09 14.86,11.539 20.29,18.922 -3.88,-13.031 -9.1,-25.703 -13.76,-37.301 -0.62,-1.539 -1.24,-3.082 -1.86,-4.621 -4.74,-0.98 -9.87,-1.871 -15.38,-2.629 m -101.97,2.098 c -25.73,4.762 -50.27,13.703 -67.88,28.152 -10.57,8.661 -26.84,28.34 -39.01,52.688 0.2,1.73 0.43,3.453 0.71,5.152 4.81,30.121 24.09,57.239 50.68,72 9,4.989 18.98,8.34 29.41,10.348 -6.52,-26.199 1.5,-47.629 11.99,-64.059 -0.59,-1.351 -1.12,-2.738 -1.6,-4.148 -4.48,-13.352 -3.62,-26.801 1.13,-38.66 1.42,-16.211 9.86,-31.5 25.66,-41.52 2.67,-1.691 5.46,-3.191 8.34,-4.492 -5.88,-5.937 -12.55,-10.84 -19.43,-15.461"
             style="fill:#98182c;fill-opacity:1;fill-rule:nonzero;stroke:none"
             id="path2408" />
          <path
             d="m 4228.82,199.129 c -13.26,26.551 -21.65,58.672 -12.45,88.133 8.63,10.008 18.66,18.718 30.08,25.597 16.6,10.012 36.26,15.332 55.83,15.332 8.82,0 17.62,-1.082 26.1,-3.3 -9.94,-13.7 -15.82,-26.461 -18.76,-38.262 -10.43,-2.008 -20.41,-5.359 -29.41,-10.348 -26.59,-14.761 -45.87,-41.879 -50.68,-72 -0.28,-1.699 -0.51,-3.422 -0.71,-5.152"
             style="fill:#8d162d;fill-opacity:1;fill-rule:nonzero;stroke:none"
             id="path2410" />
          <path
             d="m 4453.06,118.82 c 0.62,1.539 1.24,3.082 1.86,4.621 4.66,11.598 9.88,24.27 13.76,37.301 3.31,4.477 6.05,9.297 8.12,14.367 19.63,6.711 28.63,16.211 29.01,18.973 0.73,5.328 1.77,9.68 3.03,13.098 0.4,-3.36 0.59,-6.739 0.59,-10.129 0,-21.328 -7.51,-43.211 -16.62,-62.922 -0.29,-0.617 -0.58,-1.238 -0.87,-1.859 -7.56,-4.34 -20.3,-9.598 -38.88,-13.45"
             style="fill:#a01836;fill-opacity:1;fill-rule:nonzero;stroke:none"
             id="path2412" />
          <path
             d="m 4395.34,61.4414 c 17.55,15.5391 32.29,35.4883 42.34,54.7496 5.51,0.758 10.64,1.649 15.38,2.629 -7.25,-17.91 -15.07,-36.2887 -25.15,-53.0387 -9.49,-1.8711 -20.33,-3.3907 -32.57,-4.3399 m -107.3,7.3086 c -15.02,3.7305 -29.34,8.9023 -41.92,15.7422 -0.06,0.2187 -0.13,0.4375 -0.19,0.668 -9.9,34.7418 -21.38,77.1528 -17.11,113.9688 12.17,-24.348 28.44,-44.027 39.01,-52.688 17.61,-14.449 42.15,-23.39 67.88,-28.152 -14.13,-9.5 -29.13,-17.859 -39.96,-31.8281 -4.3,-5.5312 -6.87,-11.6484 -7.71,-17.7109"
             style="fill:#8e1726;fill-opacity:1;fill-rule:nonzero;stroke:none"
             id="path2414" />
          <path
             d="m 4246.12,84.4922 c -6.44,3.5078 -12.42,7.4492 -17.81,11.8672 -14.36,11.7816 -38.38,42.2106 -51.36,77.9216 0.05,9.571 0.78,19.149 2.21,28.629 4.64,30.699 17.12,61.039 37.21,84.352 -9.2,-29.461 -0.81,-61.582 12.45,-88.133 -4.27,-36.816 7.21,-79.227 17.11,-113.9688 0.06,-0.2305 0.13,-0.4493 0.19,-0.668"
             style="fill:#821527;fill-opacity:1;fill-rule:nonzero;stroke:none"
             id="path2416" />
          <path
             d="m 4427.91,65.7813 c 10.08,16.75 17.9,35.1287 25.15,53.0387 18.58,3.852 31.32,9.11 38.88,13.45 -9.69,-20.688 -21.28,-40.6489 -35.29,-58.6411 -7.7,-2.8281 -17.23,-5.5898 -28.74,-7.8476"
             style="fill:#95172f;fill-opacity:1;fill-rule:nonzero;stroke:none"
             id="path2418" />
          <path
             d="m 4208.3,62.5195 c -2.68,4.3828 -5.19,8.8399 -7.54,13.4102 2.53,-3.8789 4.83,-7.8086 6.76,-11.8203 0.26,-0.5274 0.52,-1.0586 0.78,-1.5899"
             style="fill:#821527;fill-opacity:1;fill-rule:nonzero;stroke:none"
             id="path2420" />
          <path
             d="m 4320.84,0.320313 c -7.21,0 -14.43,0.429687 -21.64,1.070317 -4.31,7.07031 -10.35,11.17967 -15.89,17.23047 -5.47,6 -10.17,12.8984 -15.11,19.3398 -10.7,13.9297 -17.25,29.8008 -22.08,46.5313 12.58,-6.8399 26.9,-12.0117 41.92,-15.7422 -1.86,-13.5312 5,-26.6992 20.85,-32.0703 7.39,-2.5 14.77,-3.6602 22.06,-3.6602 23.16,0 45.41,11.6328 64.39,28.4219 12.24,0.9492 23.08,2.4688 32.57,4.3399 -4.62,-7.6797 -9.72,-15.0196 -15.46,-21.8204 C 4403.66,33.5391 4393.58,24.7305 4381.7,18 c -13.42,-7.6211 -26.01,-7.3281 -40.24,-11.23828 -4.38,-1.20313 -8.56,-3.37109 -12.15,-6.23047 -2.83,-0.152344 -5.65,-0.210937 -8.47,-0.210937"
             style="fill:#831622;fill-opacity:1;fill-rule:nonzero;stroke:none"
             id="path2422" />
          <path
             d="m 4299.2,1.39063 c -5.91,0.53125 -11.82,1.19921 -17.7,1.89062 -7.22,0.85938 -14.54,1.78906 -21.23,4.64063 -7.18,3.05862 -13.27,8.19922 -18.93,13.57812 -12.77,12.1523 -23.85,26 -33.04,41.0195 -0.26,0.5313 -0.52,1.0625 -0.78,1.5899 -1.93,4.0117 -4.23,7.9414 -6.76,11.8203 -15.43,29.9023 -23.79,63.5193 -23.81,97.1523 0,0.398 0,0.797 0,1.199 12.98,-35.711 37,-66.14 51.36,-77.9216 5.39,-4.418 11.37,-8.3594 17.81,-11.8672 4.83,-16.7305 11.38,-32.6016 22.08,-46.5313 4.94,-6.4414 9.64,-13.3398 15.11,-19.3398 5.54,-6.0508 11.58,-10.16016 15.89,-17.23047 v 0"
             style="fill:#791423;fill-opacity:1;fill-rule:nonzero;stroke:none"
             id="path2424" />
          <path
             d="m 4329.31,0.53125 v 0 c 3.59,2.85938 7.77,5.02734 12.15,6.23047 14.23,3.91018 26.82,3.61718 40.24,11.23828 11.88,6.7305 21.96,15.5391 30.75,25.9609 5.74,6.8008 10.84,14.1407 15.46,21.8204 11.51,2.2578 21.04,5.0195 28.74,7.8476 -7.77,-9.9687 -16.28,-19.3281 -25.63,-27.8672 -26.71,-24.4023 -60.65,-41.79295 -96.71,-44.890606 -1.67,-0.140625 -3.33,-0.261719 -5,-0.339844"
             style="fill:#8b1629;fill-opacity:1;fill-rule:nonzero;stroke:none"
             id="path2426" />
        </g>
      </g>
      <g
         id="g2428">
        <g
           id="g2430"
           clip-path="url(#clipPath2434)">
          <path
             d="m 4631.11,295.52 c -49.17,8.539 -93.13,-20.641 -109.21,-67.5 -17.5,-50.989 -1.67,-109.75 24.64,-154.8286 24.03,-41.1719 60.65,-74.78124 105.99,-90.6211 45.41,-15.8594 105.74,-13.3594 140.36,23.15236 15.12,15.94924 0.32,48.05864 -22.96,39.45704 -31.48,-11.6406 -61.61,-19.8203 -94.75,-9.7109 -30.59,9.332 -55.58,32.371 -72.34,59.0507 -17.88,28.4495 -31.45,64.5435 -26.64,98.6015 4.07,28.891 25.39,58.199 54.91,64.359 18.46,3.86 19.17,34.7 0,38.04"
             style="fill:#9a1733;fill-opacity:1;fill-rule:nonzero;stroke:none"
             id="path2436" />
          <path
             d="m 4675.07,274.621 c 22.78,9.18 54.47,12.559 77.96,4.231 25.37,-9 41.03,-32.762 49.82,-57.122 10.55,-29.289 17.37,-61.859 18.88,-92.949 0.81,-16.75 -0.08,-33.3708 -5.54,-49.3396 -5.57,-16.2695 -16.59,-28.5117 -20.48,-45.4922 -3.79,-16.4883 10.38,-31.29686 27.12,-27.12889 45.72,11.37889 57.14,75.55859 56.35,115.76169 -0.86,43.16 -10.08,89.668 -27.08,129.449 -16.19,37.93 -43.98,68.891 -83.81,82.18 -41.16,13.738 -82.66,5.168 -112.41,-26.629 -12.27,-13.133 -0.28,-40.812 19.19,-32.961"
             style="fill:#b5204b;fill-opacity:1;fill-rule:nonzero;stroke:none"
             id="path2438" />
          <path
             d="m 4641.36,104.582 c -16.44,0 -31.41,2.547 -49.26,9.148 -12.1,24.59 -19.68,52.622 -15.9,79.391 1.61,11.43 5.91,22.918 12.36,33.008 -0.64,-19.977 2.94,-39.758 19.94,-51.098 18.72,-12.48 38.23,-17.531 59.16,-17.531 7.42,0 15.02,0.629 22.83,1.801 15.87,2.359 27.73,4.539 39.91,8.84 0.25,-17.911 -7.29,-35.25 -8.12,-52.899 -11.18,-2.512 -22.91,-4.582 -35.93,-6.461 -17.48,-2.539 -31.72,-4.199 -44.99,-4.199 m 154.57,37.59 c 2.79,22.32 -0.17,46.391 -6.37,64.297 5.48,4.801 10.46,9.371 14.11,12.941 7.05,-20.058 12.36,-41.578 15.41,-63.058 -7.97,-5.122 -16.06,-10.102 -23.15,-14.18"
             style="fill:#a21931;fill-opacity:1;fill-rule:nonzero;stroke:none"
             id="path2440" />
          <path
             d="m 4592.1,113.73 c -2.74,1.012 -5.55,2.122 -8.44,3.329 -43.43,18.14 -39.25,69.843 -35.96,97.382 0.64,5.34 -0.34,10.09 -2.56,14.239 12.26,13.14 29.76,21.949 46.84,29.89 -1.38,-9.898 -3.06,-21.199 -3.42,-32.441 -6.45,-10.09 -10.75,-21.578 -12.36,-33.008 -3.78,-26.769 3.8,-54.801 15.9,-79.391"
             style="fill:#8f172d;fill-opacity:1;fill-rule:nonzero;stroke:none"
             id="path2442" />
          <path
             d="m 4819.08,156.352 c -3.05,21.48 -8.36,43 -15.41,63.058 1.42,1.379 2.63,2.621 3.6,3.66 6.49,6.981 11.84,12.75 16.63,17.481 3.09,-9.16 5.17,-18.672 6.17,-28.18 1.66,-15.652 2.75,-31.359 2.74,-46.969 0,-0.011 0,-0.011 0,-0.023 -4.38,-2.949 -9.03,-6.008 -13.73,-9.027"
             style="fill:#a91b3e;fill-opacity:1;fill-rule:nonzero;stroke:none"
             id="path2444" />
          <path
             d="m 4675.03,35.5195 c -30.52,9.3594 -55.45,32.3711 -72.19,59 -3.83,6.0895 -7.45,12.5195 -10.74,19.2105 17.85,-6.601 32.82,-9.148 49.26,-9.148 13.27,0 27.51,1.66 44.99,4.199 13.02,1.879 24.75,3.949 35.93,6.461 -0.35,-7.601 0.53,-15.2615 3.83,-23.0428 2.6,-6.1484 11.51,-11.4492 18.4,-11.4492 0.49,0 0.96,0.0313 1.42,0.082 31.65,3.6602 46.19,30.859 50,61.34 7.09,4.078 15.18,9.058 23.15,14.18 1.31,-9.243 2.21,-18.473 2.65,-27.571 0.16,-3.191 0.25,-6.371 0.26,-9.539 -14.55,-16.101 -32.92,-35.8826 -43.7,-41.9412 -30.2,-16.9492 -54.93,-29.7617 -90.28,-38.9219 -4.39,-1.1367 -8.72,-2.0898 -12.98,-2.8594"
             style="fill:#9a182c;fill-opacity:1;fill-rule:nonzero;stroke:none"
             id="path2446" />
          <path
             d="m 4644.53,32.7617 c -17.52,0 -34.43,2.6485 -51.67,6.8281 -34.89,30.629 -56.31,75.0902 -63.04,121.0622 -1,6.809 -1.66,13.797 -1.66,20.739 0,12.808 2.24,25.441 8.71,36.339 2.35,3.969 5.14,7.602 8.27,10.95 2.22,-4.149 3.2,-8.899 2.56,-14.239 -3.29,-27.539 -7.47,-79.242 35.96,-97.382 2.89,-1.207 5.7,-2.317 8.44,-3.329 3.29,-6.691 6.91,-13.121 10.74,-19.2105 16.74,-26.6289 41.67,-49.6406 72.19,-59 -10.47,-1.9101 -20.59,-2.7578 -30.5,-2.7578"
             style="fill:#871628;fill-opacity:1;fill-rule:nonzero;stroke:none"
             id="path2448" />
          <path
             d="m 4821.99,119.242 c -0.01,3.168 -0.1,6.348 -0.26,9.539 -0.44,9.098 -1.34,18.328 -2.65,27.571 4.7,3.019 9.35,6.078 13.73,9.027 0,-12.328 -0.69,-24.59 -2.33,-36.719 -2.6,-2.879 -5.46,-6.07 -8.49,-9.418"
             style="fill:#a01938;fill-opacity:1;fill-rule:nonzero;stroke:none"
             id="path2450" />
          <path
             d="m 4705.94,30.9023 c -10.04,0 -20.25,1.3594 -30.76,4.5665 -0.05,0.0117 -0.1,0.0312 -0.15,0.0507 4.26,0.7696 8.59,1.7227 12.98,2.8594 35.35,9.1602 60.08,21.9727 90.28,38.9219 10.78,6.0586 29.15,25.8402 43.7,41.9412 0.05,-13.512 -1.38,-26.8709 -5.8,-39.8006 -0.71,-2.0625 -1.51,-4.0703 -2.36,-6.0195 -6.58,-10.7305 -15.84,-21.1406 -24.98,-30.543 -3.19,2.332 -7.01,3.7305 -11.27,3.7305 -2.42,0 -4.98,-0.4492 -7.65,-1.4297 -21.5,-7.9492 -42.36,-14.2774 -63.99,-14.2774"
             style="fill:#921827;fill-opacity:1;fill-rule:nonzero;stroke:none"
             id="path2452" />
          <path
             d="m 4695.67,0 c -36.63,0 -73.34,14.3203 -101.32,38.3008 -0.5,0.4297 -1,0.8594 -1.49,1.289 17.24,-4.1796 34.15,-6.8281 51.67,-6.8281 9.91,0 20.03,0.8477 30.5,2.7578 0.05,-0.0195 0.1,-0.039 0.15,-0.0507 10.51,-3.2071 20.72,-4.5665 30.76,-4.5665 21.63,0 42.49,6.3282 63.99,14.2774 2.67,0.9805 5.23,1.4297 7.65,1.4297 4.26,0 8.08,-1.3985 11.27,-3.7305 v 0 c -4.84,-4.9766 -9.65,-9.668 -14,-13.9766 C 4761.63,15.8086 4744.14,7.62891 4726.04,3.42969 4716.05,1.10938 4705.86,0 4695.67,0"
             style="fill:#811526;fill-opacity:1;fill-rule:nonzero;stroke:none"
             id="path2454" />
          <path
             d="m 4813.83,73.4219 v 0 c 0.85,1.9492 1.65,3.957 2.36,6.0195 4.42,12.9297 5.85,26.2886 5.8,39.8006 3.03,3.348 5.89,6.539 8.49,9.418 -1.94,-14.32 -5.2,-28.449 -10.23,-42.2381 -1.59,-4.3633 -3.79,-8.711 -6.42,-13"
             style="fill:#971832;fill-opacity:1;fill-rule:nonzero;stroke:none"
             id="path2456" />
        </g>
      </g>
      <path
         d="m 4395.31,113.461 c -10.18,0 -21.16,0.41 -32.99,1.352 -8.86,0.707 -17.8,1.847 -26.61,3.476 6.88,4.621 13.55,9.524 19.43,15.461 11.12,-5.031 23.62,-7.219 36.22,-7.219 14.57,0 29.26,2.93 42.09,7.758 5.25,1.973 10.26,4.512 14.94,7.531 -0.38,-1.25 -0.78,-2.48 -1.2,-3.699 -2.38,-7.012 -5.59,-14.422 -9.51,-21.93 -12.17,-1.691 -26.25,-2.73 -42.37,-2.73"
         style="fill:#a01737;fill-opacity:1;fill-rule:nonzero;stroke:none"
         id="path2458" />
      <path
         d="m 4367.31,60.4023 c -11.1,0 -23.07,0.4571 -35.97,1.4883 -14.49,1.1485 -29.2,3.3711 -43.3,6.8594 0.84,6.0625 3.41,12.1797 7.71,17.7109 10.83,13.9691 25.83,22.3281 39.96,31.8281 8.81,-1.629 17.75,-2.769 26.61,-3.476 11.83,-0.942 22.81,-1.352 32.99,-1.352 16.12,0 30.2,1.039 42.37,2.73 -10.05,-19.2613 -24.79,-39.2105 -42.34,-54.7496 -8.64,-0.6601 -17.97,-1.0391 -28.03,-1.0391"
         style="fill:#961732;fill-opacity:1;fill-rule:nonzero;stroke:none"
         id="path2460" />
      <path
         d="m 4330.95,33.0195 c -7.29,0 -14.67,1.1602 -22.06,3.6602 -15.85,5.3711 -22.71,18.5391 -20.85,32.0703 14.1,-3.4883 28.81,-5.7109 43.3,-6.8594 12.9,-1.0312 24.87,-1.4883 35.97,-1.4883 10.06,0 19.39,0.379 28.03,1.0391 -18.98,-16.7891 -41.23,-28.4219 -64.39,-28.4219"
         style="fill:#8d172c;fill-opacity:1;fill-rule:nonzero;stroke:none"
         id="path2462" />
      <path
         d="m 4730.4,168.141 c -0.03,2.172 -0.17,4.359 -0.46,6.55 9.14,0.809 18.15,3.27 26.31,7.469 14.07,7.231 24.26,19.11 29.98,32.68 0.28,-0.641 0.57,-1.289 0.84,-1.93 0.88,-2.039 1.71,-4.191 2.49,-6.441 -12.78,-11.188 -28.28,-23.668 -35.93,-27.817 -8.49,-4.589 -15.92,-7.929 -23.23,-10.511"
         style="fill:#b42246;fill-opacity:1;fill-rule:nonzero;stroke:none"
         id="path2464" />
      <path
         d="m 4722.28,115.242 c 0.83,17.649 8.37,34.988 8.12,52.899 7.31,2.582 14.74,5.922 23.23,10.511 7.65,4.149 23.15,16.629 35.93,27.817 6.2,-17.906 9.16,-41.977 6.37,-64.297 -6.06,-3.481 -11.4,-6.293 -15.3,-7.953 -20.39,-8.668 -38.49,-14.52 -58.35,-18.977"
         style="fill:#a91d3d;fill-opacity:1;fill-rule:nonzero;stroke:none"
         id="path2466" />
      <path
         d="m 4744.51,80.75 c -6.89,0 -15.8,5.3008 -18.4,11.4492 -3.3,7.7813 -4.18,15.4418 -3.83,23.0428 19.86,4.457 37.96,10.309 58.35,18.977 3.9,1.66 9.24,4.472 15.3,7.953 -3.81,-30.481 -18.35,-57.6798 -50,-61.34 -0.46,-0.0507 -0.93,-0.082 -1.42,-0.082"
         style="fill:#a11d37;fill-opacity:1;fill-rule:nonzero;stroke:none"
         id="path2468" />
      <path
         d="m 4723.1,174.379 c -32.69,0 -64.71,20.711 -63.21,57.953 0.51,12.918 5.81,24.949 14.56,33.898 1.44,3.583 3.29,7.02 5.54,10.231 12.8,4.461 27.81,7.141 42.42,7.141 10.78,0 21.34,-1.461 30.62,-4.75 16.73,-5.93 29.24,-18.293 38.34,-33 0.79,-10.473 -1,-21.18 -5.14,-31.012 -9.98,22.09 -27.52,42.14 -51.19,49.84 -5.93,1.922 -12.59,3.05 -19.17,3.05 -15.16,0 -29.94,-5.968 -34.72,-21.828 -2.79,-9.242 4.68,-16.332 13.13,-17.242 -2.5,0.27 -3.99,0.41 -4.74,0.41 -2.08,0 1.5,-1.039 4.88,-3.121 2.8,-1.73 6.06,-2.847 8.68,-4.867 4.71,-3.59 9.42,-8.883 13.01,-13.582 6.85,-8.98 11.62,-19.609 13.52,-30.738 0.12,-0.692 0.22,-1.383 0.31,-2.071 -2.27,-0.211 -4.56,-0.312 -6.84,-0.312"
         style="fill:#b92951;fill-opacity:1;fill-rule:nonzero;stroke:none"
         id="path2470" />
      <path
         d="m 4791.37,245.852 c -9.1,14.707 -21.61,27.07 -38.34,33 -9.28,3.289 -19.84,4.75 -30.62,4.75 -14.61,0 -29.62,-2.68 -42.42,-7.141 3.78,5.418 8.69,10.191 14.64,13.879 10.81,6.719 23.62,10.312 36.37,10.312 11.15,0 22.27,-2.75 31.95,-8.562 17.97,-10.77 27.05,-28.141 28.42,-46.238"
         style="fill:#c03162;fill-opacity:1;fill-rule:nonzero;stroke:none"
         id="path2472" />
      <path
         d="m 4729.94,174.691 c -0.09,0.688 -0.19,1.379 -0.31,2.071 -1.9,11.129 -6.67,21.758 -13.52,30.738 -3.59,4.699 -8.3,9.992 -13.01,13.582 -2.62,2.02 -5.88,3.137 -8.68,4.867 -3.38,2.082 -6.96,3.121 -4.88,3.121 0.75,0 2.24,-0.14 4.74,-0.41 -8.45,0.91 -15.92,8 -13.13,17.242 4.78,15.86 19.56,21.828 34.72,21.828 6.58,0 13.24,-1.128 19.17,-3.05 23.67,-7.7 41.21,-27.75 51.19,-49.84 -5.72,-13.57 -15.91,-25.449 -29.98,-32.68 -8.16,-4.199 -17.17,-6.66 -26.31,-7.469"
         style="fill:#c0335e;fill-opacity:1;fill-rule:nonzero;stroke:none"
         id="path2474" />
      <path
         d="m 4454.16,169.77 c 2.22,21.281 -0.44,43.41 -11.03,61.261 -7.27,12.239 -28.67,24.848 -45.41,24.848 -11.49,0 -20.78,-5.938 -21.8,-22.02 0.07,1.121 0.09,1.582 0.08,1.582 -0.03,0 -0.63,-7.929 -0.69,-9 -0.21,-3.652 -0.53,-7.722 -0.45,-11.351 0.16,-8.758 1.57,-17.36 1.54,-26.16 -0.01,-4.231 -0.26,-8.371 -0.79,-12.418 -14.21,5.199 -27.35,13.168 -37.37,24.578 -5.09,5.801 -11.19,12.961 -16.63,21.48 12.21,27.969 48.1,41.77 76.97,42.891 0.98,0.039 1.96,0.059 2.94,0.059 7.76,0 15.61,-1.168 23.21,-3.379 1.32,-0.649 2.77,-1.121 4.36,-1.379 10.36,-3.602 20.11,-9.133 28.34,-16.262 7.08,-8.391 11.95,-19.059 14.81,-29.961 3.48,-13.269 2.68,-27.18 -0.25,-40.949 -5.27,-1.539 -11.21,-2.86 -17.83,-3.82"
         style="fill:#ad1d44;fill-opacity:1;fill-rule:nonzero;stroke:none"
         id="path2476" />
      <path
         d="m 4471.99,173.59 c 2.93,13.769 3.73,27.68 0.25,40.949 -2.86,10.902 -7.73,21.57 -14.81,29.961 7.3,-6.328 13.41,-13.93 17.66,-22.539 7.95,-16.082 7.58,-32.449 1.71,-46.852 -1.54,-0.527 -3.14,-1.039 -4.81,-1.519 m -42.9,87.172 c -1.59,0.258 -3.04,0.73 -4.36,1.379 1.46,-0.422 2.92,-0.879 4.36,-1.379"
         style="fill:#b42053;fill-opacity:1;fill-rule:nonzero;stroke:none"
         id="path2478" />
      <path
         d="m 4355.14,133.75 c -2.88,1.301 -5.67,2.801 -8.34,4.492 -15.8,10.02 -24.24,25.309 -25.66,41.52 -4.75,11.859 -5.61,25.308 -1.13,38.66 0.48,1.41 1.01,2.797 1.6,4.148 5.44,-8.519 11.54,-15.679 16.63,-21.48 10.02,-11.41 23.16,-19.379 37.37,-24.578 -1.27,-9.801 -4.15,-19.121 -9.27,-28.121 -3.19,-5.61 -6.99,-10.391 -11.2,-14.641 m 93.25,8.07 c 2.74,8.821 4.76,18.301 5.77,27.95 6.62,0.96 12.56,2.281 17.83,3.82 -0.91,-4.309 -2.04,-8.598 -3.31,-12.848 -5.43,-7.383 -12.37,-13.832 -20.29,-18.922"
         style="fill:#a41a3d;fill-opacity:1;fill-rule:nonzero;stroke:none"
         id="path2480" />
      <path
         d="m 4468.68,160.742 c 1.27,4.25 2.4,8.539 3.31,12.848 1.67,0.48 3.27,0.992 4.81,1.519 -2.07,-5.07 -4.81,-9.89 -8.12,-14.367"
         style="fill:#ab1e48;fill-opacity:1;fill-rule:nonzero;stroke:none"
         id="path2482" />
      <path
         d="m 4430.04,168.109 c -7.33,0 -15.24,0.422 -23.76,1.364 -10.28,1.136 -20.74,3.406 -30.67,7.039 0.53,4.047 0.78,8.187 0.79,12.418 0.03,8.8 -1.38,17.402 -1.54,26.16 -0.08,3.629 0.24,7.699 0.45,11.351 0.06,1.071 0.66,9 0.69,9 0.01,0 -0.01,-0.461 -0.08,-1.582 1.02,16.082 10.31,22.02 21.8,22.02 16.74,0 38.14,-12.609 45.41,-24.848 10.59,-17.851 13.25,-39.98 11.03,-61.261 -7.21,-1.04 -15.24,-1.649 -24.12,-1.661"
         style="fill:#b42550;fill-opacity:1;fill-rule:nonzero;stroke:none"
         id="path2484" />
      <path
         d="m 4391.36,126.531 c -12.6,0 -25.1,2.188 -36.22,7.219 4.21,4.25 8.01,9.031 11.2,14.641 5.12,9 8,18.32 9.27,28.121 9.93,-3.633 20.39,-5.903 30.67,-7.039 8.52,-0.942 16.43,-1.364 23.76,-1.364 8.88,0.012 16.91,0.621 24.12,1.661 -1.01,-9.649 -3.03,-19.129 -5.77,-27.95 -4.68,-3.019 -9.69,-5.558 -14.94,-7.531 -12.83,-4.828 -27.52,-7.758 -42.09,-7.758"
         style="fill:#aa2449;fill-opacity:1;fill-rule:nonzero;stroke:none"
         id="path2486" />
      <path
         d="m 4720.64,256.809 c 7.76,-7.688 17.49,-11.11 26.25,-17.418 9.47,-6.828 15.14,-14.93 20.26,-25.282 3.78,-7.629 11.03,-30.257 22.25,-16.207 11.85,14.84 0.61,38.227 -9.63,50.258 -12.81,15.039 -35.15,28.86 -55.34,23 -6.16,-1.789 -8.45,-9.75 -3.79,-14.351"
         style="fill:#ffffff;fill-opacity:1;fill-rule:nonzero;stroke:none"
         id="path2488" />
      <path
         d="m 4441.62,221.789 c 0.73,-5.008 -1.34,-11.57 -2.28,-16.527 -1.19,-6.27 -3.27,-12.16 -3.97,-18.512 -0.79,-7.008 5.63,-14.02 11.99,-15.758 7.32,-2.023 14.32,1.488 18.45,7.508 5.88,8.551 6.2,23.172 1.91,32.492 -3.95,8.598 -9.24,13.047 -17.21,17.637 -5.01,2.871 -9.63,-1.848 -8.89,-6.84"
         style="fill:#ffffff;fill-opacity:1;fill-rule:nonzero;stroke:none"
         id="path2490" />
      <path
         d="m 4428.78,243.469 c 13.19,0 13.22,20.492 0,20.492 -13.19,0 -13.21,-20.492 0,-20.492"
         style="fill:#ffffff;fill-opacity:1;fill-rule:nonzero;stroke:none"
         id="path2492" />
      <g
         id="g2494">
        <g
           id="g2496"
           clip-path="url(#clipPath2500)">
          <path
             d="m 4668.46,745.289 c -31.91,7.781 -64.79,11.051 -97.51,9.941 -18.92,61.579 -93.7,21.829 -130.37,1.989 -40.49,-21.91 -78.25,-49.539 -112.06,-80.77 -68.1,-62.879 -119.07,-142.488 -149.21,-230 -3.89,-11.269 -0.2,-23.719 7.35,-32.629 -16.56,-13.461 -35.06,-23.789 -53.91,-34.289 -13.82,-7.691 -7.35,-29.039 7.92,-29.23 114.08,-1.379 166.86,120.75 234.09,193.008 36.5,39.23 80.5,63.093 127.91,86.902 49.01,24.59 100.11,47.379 156.13,43.711 41.02,-2.703 49.19,61.73 9.66,71.367"
             style="fill:#6c982c;fill-opacity:1;fill-rule:nonzero;stroke:none"
             id="path2502" />
        </g>
      </g>
      <path
         d="m 4665.31,705.152 c 16.47,20.868 33.24,42.028 54.82,57.559 1.39,1.008 2.92,2.031 4.63,2.051 1.77,0.008 3.36,-1.043 4.78,-2.082 7.51,-5.539 14.08,-12.34 19.36,-20.008 -1.65,2.398 -45.83,-36.813 -49.59,-40.66 -5.56,-5.68 -13.28,-18.41 -22.5,-17.43 -9.47,1.008 -17.7,12.699 -11.5,20.57"
         style="fill:#9d411e;fill-opacity:1;fill-rule:nonzero;stroke:none"
         id="path2504" />
      <path
         d="m 4674.42,696.031 c 16.47,20.871 33.24,42.039 54.82,57.571 1.39,1.007 2.91,2.019 4.63,2.039 1.77,0.019 3.36,-1.032 4.79,-2.078 7.5,-5.532 14.07,-12.321 19.35,-20.012 -1.65,2.41 -45.83,-36.801 -49.59,-40.641 -5.55,-5.691 -13.28,-18.418 -22.5,-17.441 -9.47,1 -17.7,12.703 -11.5,20.562"
         style="fill:#bb4e1f;fill-opacity:1;fill-rule:nonzero;stroke:none"
         id="path2506" />
      <path
         d="m 4699.99,717.289 c 10.67,9.742 21.52,19.613 33.11,25.582 l 2.23,0.539 1.45,-1.859 c 1.83,-4.211 3.03,-9.02 3.56,-14.172 -0.17,1.613 -25.39,-14.859 -27.64,-16.559 -3.33,-2.511 -8.93,-8.769 -12.34,-6.941 -3.51,1.883 -4.38,9.742 -0.37,13.41"
         style="fill:#c6571e;fill-opacity:1;fill-rule:nonzero;stroke:none"
         id="path2508" />
      <g
         id="g2510">
        <g
           id="g2512"
           clip-path="url(#clipPath2516)">
          <path
             d="m 4137.51,357.27 c 37.73,-20.469 77.5,15.269 99.42,43.449 28.98,37.261 36.22,78.043 42.61,123.672 5.94,42.359 16.94,84.918 38.49,122.168 20.93,36.191 51.78,64.582 87.24,86.3 16.51,10.133 33.87,18.821 51.26,27.352 16.59,8.16 39.33,16.23 47.99,34.449 6.27,13.231 -4.74,19.301 -16.36,21.301 -23.35,4 -46.06,-7.141 -66.95,-16.25 -79.44,-34.66 -141.55,-96.66 -171.25,-178.34 -17.28,-47.57 -17.77,-97.199 -29.5,-145.801 -10.77,-44.621 -43.62,-80.949 -82.95,-103.289 -5.56,-3.152 -5.74,-11.902 0,-15.011"
             style="fill:#5d822b;fill-opacity:1;fill-rule:nonzero;stroke:none"
             id="path2518" />
          <path
             d="m 4180.6,338.742 c 10.74,-16.742 102.65,-8.07 119.61,-6.633 27.18,2.301 54.53,8.161 80.38,16.77 49.69,16.523 98,40.75 139.9,72.211 46.09,34.601 82.6,77.211 118.1,122.262 18.96,24.058 37.04,48.019 48.81,76.519 4.64,11.289 9.02,22.699 13.4,34.09 2.42,6.289 4.92,12.609 6.57,19.148 1.54,6.18 1.46,13.02 3.53,19 4.04,11.672 -9.73,19.262 -19.17,14.743 -12.59,-6.063 -22.26,-9.993 -31.74,-21.153 -8.7,-10.25 -15.05,-22.097 -21.46,-33.82 -12.84,-23.5 -24.99,-45.707 -41.6,-66.867 -33.62,-42.813 -68.21,-85.723 -112.54,-118.012 -41.33,-30.098 -103.64,-61.891 -151.41,-79.668 -12,-4.473 -165.51,-34.902 -154.6,-51.902 l 2.22,3.312"
             style="fill:#87b846;fill-opacity:1;fill-rule:nonzero;stroke:none"
             id="path2520" />
        </g>
      </g>
      <path
         d="m 4247.02,391.602 c 20.26,17.179 38.33,38.23 55.52,60.199 -16.09,-22.832 -30.74,-45.86 -55.52,-60.199 m 73.68,83.988 c 17.98,23.941 35.47,47.742 54.06,67.719 13.21,14.191 27.39,26.371 42.36,37.261 -4.07,-3.269 -7.85,-6.59 -11.26,-9.941 -31.3,-30.727 -51.72,-58.57 -81.16,-90.539 -1.36,-1.481 -2.7,-2.981 -4,-4.5"
         style="fill:#6b9935;fill-opacity:1;fill-rule:nonzero;stroke:none"
         id="path2522" />
      <path
         d="m 4650.55,673.871 c 0.09,0.129 0.17,0.258 0.26,0.391 v 0 c 4.29,6.558 9.08,12.718 14.54,17.75 0.03,-0.032 0.05,-0.063 0.07,-0.102 -0.56,-1.949 -13.17,-17.988 -14.4,-18.019 -0.16,-0.012 -0.31,-0.012 -0.47,-0.02"
         style="fill:#3b6328;fill-opacity:1;fill-rule:nonzero;stroke:none"
         id="path2524" />
      <path
         d="m 4549.55,652.082 c 31.07,12.91 63.28,22.227 97.26,22.227 1.33,0 2.66,-0.02 4,-0.047 -0.09,-0.133 -0.17,-0.262 -0.26,-0.391 -22.18,-0.641 -61.53,-8.691 -72.97,-12.68 -12.74,-4.449 -20.03,-6.339 -28.03,-9.109"
         style="fill:#6b9935;fill-opacity:1;fill-rule:nonzero;stroke:none"
         id="path2526" />
      <path
         d="m 4243.6,389.902 c -1.1,0 -1.79,1.399 -0.97,2.387 15.47,18.711 27.72,40.973 39,62.371 10.6,20.102 18.12,42.059 30.12,61.32 23.16,37.102 50.51,73.192 82.94,102.68 34.06,30.969 72.61,51.762 117.04,63.653 22.39,5.996 45.24,10.117 68.19,13.289 9.04,1.25 17.59,2.457 26.4,2.457 3.14,0 6.31,-0.149 9.54,-0.508 12.37,-1.371 36.93,-4.801 49.43,-5.442 0.02,-0.027 0.04,-0.058 0.06,-0.097 -5.46,-5.032 -10.25,-11.192 -14.54,-17.75 v 0 c -1.34,0.027 -2.67,0.047 -4,0.047 -33.98,0 -66.19,-9.317 -97.26,-22.227 -5.73,-1.98 -11.83,-4.41 -20.55,-8.562 -28.93,-13.731 -79.57,-36.969 -111.88,-62.95 -14.97,-10.89 -29.15,-23.07 -42.36,-37.261 -18.59,-19.977 -36.08,-43.778 -54.06,-67.719 -6.58,-7.649 -12.46,-15.699 -18.16,-23.789 -17.19,-21.969 -35.26,-43.02 -55.52,-60.199 -0.89,-0.512 -1.79,-1.012 -2.7,-1.5 -0.25,-0.141 -0.5,-0.2 -0.72,-0.2"
         style="fill:#618d2c;fill-opacity:1;fill-rule:nonzero;stroke:none"
         id="path2528" />
      <path
         d="m 4665.42,691.91 c -0.02,0.039 -0.04,0.07 -0.07,0.102 -0.02,0.039 -0.04,0.07 -0.06,0.097 0.03,0 0.06,0 0.08,0 0.07,0 0.08,-0.07 0.05,-0.199"
         style="fill:#8e3d1c;fill-opacity:1;fill-rule:nonzero;stroke:none"
         id="path2530" />
      <path
         d="m 4256.1,399.09 c 35.09,17.199 55.33,54.812 78.42,85.082 25.03,32.848 53.58,62.578 86.1,88.109 31.36,24.629 66,45.168 102.4,61.391 18.05,8.047 36.59,14.969 55.47,20.82 9.22,2.86 18.53,5.321 27.91,7.567 10.31,2.472 19.82,7.461 29.86,9.98 1.73,0.441 1.43,3.441 -0.43,3.203 -9.37,-1.222 -17.55,0.11 -27.03,-2.121 -9.37,-2.199 -18.63,-4.992 -27.85,-7.762 -18.05,-5.418 -35.78,-11.828 -53.13,-19.179 -36.33,-15.379 -70.89,-34.899 -102.56,-58.438 -30.55,-22.703 -58.19,-48.902 -81.98,-78.64 -13.28,-16.59 -25.42,-34.043 -37.91,-51.231 -14.31,-19.68 -29.36,-43.969 -49.58,-58.242 l 0.31,-0.539"
         style="fill:#87b846;fill-opacity:1;fill-rule:nonzero;stroke:none"
         id="path2532" />
    </g>
  </g>
</svg>
