<?xml version="1.0" encoding="UTF-8" standalone="no"?>
<!-- Created with Inkscape (http://www.inkscape.org/) -->

<svg
   width="340"
   height="340"
   viewBox="0 0 89.958331 89.958333"
   version="1.1"
   id="svg76533"
   inkscape:version="1.2.2 (732a01da63, 2022-12-09)"
   sodipodi:docname="apple.svg"
   xmlns:inkscape="http://www.inkscape.org/namespaces/inkscape"
   xmlns:sodipodi="http://sodipodi.sourceforge.net/DTD/sodipodi-0.dtd"
   xmlns="http://www.w3.org/2000/svg"
   xmlns:svg="http://www.w3.org/2000/svg">
  <sodipodi:namedview
     id="namedview76535"
     pagecolor="#ffffff"
     bordercolor="#000000"
     borderopacity="0.25"
     inkscape:showpageshadow="2"
     inkscape:pageopacity="0.0"
     inkscape:pagecheckerboard="0"
     inkscape:deskcolor="#d1d1d1"
     inkscape:document-units="mm"
     showgrid="false"
     inkscape:zoom="1.4912879"
     inkscape:cx="272.2479"
     inkscape:cy="267.88926"
     inkscape:window-width="1346"
     inkscape:window-height="1040"
     inkscape:window-x="84"
     inkscape:window-y="16"
     inkscape:window-maximized="0"
     inkscape:current-layer="layer1" />
  <defs
     id="defs76530">
    <clipPath
       clipPathUnits="userSpaceOnUse"
       id="clipPath20">
      <path
         d="m 2578.7,4156.57 c 3.86,-0.95 18.76,-22.43 20.55,-25.98 13.7,-27.05 23.93,-47.07 7.03,-72.24 -9.69,-14.46 -38.87,-19.4 -56.29,-19.7 -160.57,-2.77 -242.89,-63.69 -270.19,-161.84 -10.82,-38.92 -26.73,-135.1 17.24,-229.61 10.14,-21.81 24.97,-41.3 41.17,-59.06 60,-65.76 155.63,-84.12 244.54,-88.77 65.92,-3.44 117.82,4.52 186.78,53.77 37.5,26.78 77.4,72.71 92.88,129.47 21.36,78.35 37.99,170.28 -40.81,274.42 -65.03,85.92 -106.66,39.75 -98.51,87.24 6.9,40.24 47.8,56.96 85.84,71.78 -6.46,3 -10.05,3.46 -16.91,5.37 -6.41,1.78 -13.05,3.08 -19.7,2.63 -10.91,-0.73 -5.36,0.73 -14.98,-4.49 -0.23,20.41 -3.53,38.7 -8.28,58.56 -21.08,-14.68 -55.55,-46.15 -56.3,-43.13 -5.98,23.97 -18.98,46.14 -36.97,63.06 -3.46,-15.19 -6.76,-32.3 -10.24,-47.5 -1.76,-7.71 -7.08,-19.14 -8.28,-17.46 -7.38,10.46 -16.3,20.39 -27.99,25.62 -11.69,5.22 -34.45,-1.19 -30.58,-2.14"
         id="path18" />
    </clipPath>
    <clipPath
       clipPathUnits="userSpaceOnUse"
       id="clipPath66">
      <path
         d="m 2183.42,4196.03 c -4.32,-1.07 -20.97,-25.09 -22.98,-29.06 -15.32,-30.24 -26.75,-52.63 -7.87,-80.78 10.85,-16.16 43.48,-21.69 62.95,-22.03 179.55,-3.09 271.61,-71.21 302.13,-180.96 12.11,-43.53 29.9,-151.07 -19.27,-256.77 -11.33,-24.38 -27.92,-46.17 -46.04,-66.04 -67.09,-73.53 -174.03,-94.07 -273.44,-99.26 -73.72,-3.85 -131.76,5.06 -208.87,60.13 -41.93,29.95 -86.55,81.3 -103.86,144.78 -23.89,87.61 -42.48,190.41 45.64,306.85 72.71,96.09 119.27,44.46 110.15,97.56 -7.72,45 -53.45,63.69 -95.99,80.26 7.22,3.37 11.23,3.88 18.91,6.01 7.17,1.99 14.6,3.45 22.03,2.94 12.2,-0.82 5.99,0.82 16.75,-5.02 0.25,22.82 3.95,43.28 9.27,65.48 23.56,-16.41 62.1,-51.6 62.95,-48.23 6.68,26.81 21.21,51.6 41.33,70.52 3.88,-16.99 7.56,-36.12 11.45,-53.11 1.97,-8.63 7.93,-21.41 9.26,-19.52 8.26,11.68 18.23,22.79 31.3,28.63 13.07,5.84 38.52,-1.32 34.2,-2.38"
         id="path64" />
    </clipPath>
    <clipPath
       clipPathUnits="userSpaceOnUse"
       id="clipPath80">
      <path
         d="m 2476.92,3532.09 c 41.57,58.08 99.46,104.34 165.27,132.08 74.88,31.57 139.95,63.9 217.95,86.73 25.58,7.49 68.63,24.35 80.79,0.64 6.62,-12.92 -5.55,-42.41 -10.07,-56.21 -40.93,-124.85 -152.83,-223.67 -281.78,-248.85 -54.02,-10.54 -109.56,-8.96 -164.56,-7.34 -26.65,0.78 -61.2,8.41 -63.94,34.93 23.44,22.41 37.47,31.66 56.34,58.02"
         id="path78" />
    </clipPath>
    <clipPath
       clipPathUnits="userSpaceOnUse"
       id="clipPath92">
      <path
         d="m 2263.81,3573.12 c -33.26,-30.23 -90.52,-38.83 -134.99,-32.35 -44.48,6.48 -85.46,29.89 -117.61,61.3 -76.18,74.45 -86.08,207.64 -45.19,305.98 15.53,37.34 42.85,73.47 81.45,88.54 27.09,10.57 65.71,25.61 90.63,6.06 13.37,-10.49 13.56,-27.62 11.09,-44.44 -2.47,-16.82 -7.37,-33.1 -16.17,-47.64 -22.97,-37.94 -9.4,-52.61 -8.68,-66.23 1.49,-28.34 12.17,-48.38 20.64,-75.48 3,-0.06 -2.53,42.27 5.01,55.85 14.97,26.95 20.17,24.86 23.96,39.94 4.93,19.56 1.97,23.16 7.91,42.44 5.21,16.88 23.8,26.66 29.93,43.24 3.24,8.77 3.2,50.18 9.14,57.41 6.22,7.58 17.11,8.98 26.9,9.66 47.96,3.35 103.67,-17 144.77,-41.93 37.79,-22.93 62.62,-65.36 74.88,-107.83 12.26,-42.47 26.01,-66.41 4.99,-155.75 -23.96,-101.84 -38.94,-111.82 -95.85,-143.77 -34.05,-19.12 -99.83,-20.96 -112.81,5"
         id="path90" />
    </clipPath>
    <clipPath
       clipPathUnits="userSpaceOnUse"
       id="clipPath1218">
      <path
         d="m 2183.42,4196.03 c -4.32,-1.07 -20.97,-25.09 -22.98,-29.06 -15.32,-30.24 -26.75,-52.63 -7.87,-80.78 10.85,-16.16 43.48,-21.69 62.95,-22.03 179.55,-3.09 271.61,-71.21 302.13,-180.96 12.11,-43.53 29.9,-151.07 -19.27,-256.77 -11.33,-24.38 -27.92,-46.17 -46.04,-66.04 -67.09,-73.53 -174.03,-94.07 -273.44,-99.26 -73.72,-3.85 -131.76,5.06 -208.87,60.13 -41.93,29.95 -86.55,81.3 -103.86,144.78 -23.89,87.61 -42.48,190.41 45.64,306.85 72.71,96.09 119.27,44.46 110.15,97.56 -7.72,45 -53.45,63.69 -95.99,80.26 7.22,3.37 11.23,3.88 18.91,6.01 7.17,1.99 14.6,3.45 22.03,2.94 12.2,-0.82 5.99,0.82 16.75,-5.02 0.25,22.82 3.95,43.28 9.27,65.48 23.56,-16.41 62.1,-51.6 62.95,-48.23 6.68,26.81 21.21,51.6 41.33,70.52 3.88,-16.99 7.56,-36.12 11.45,-53.11 1.97,-8.63 7.93,-21.41 9.26,-19.52 8.26,11.68 18.23,22.79 31.3,28.63 13.07,5.84 38.52,-1.32 34.2,-2.38"
         id="path1216" />
    </clipPath>
    <clipPath
       clipPathUnits="userSpaceOnUse"
       id="clipPath1242">
      <path
         d="m 2578.7,4156.57 c 3.86,-0.95 18.76,-22.43 20.55,-25.98 13.7,-27.05 23.93,-47.07 7.03,-72.24 -9.69,-14.46 -38.87,-19.4 -56.29,-19.7 -160.57,-2.77 -242.89,-63.69 -270.19,-161.84 -10.82,-38.92 -26.73,-135.1 17.24,-229.61 10.14,-21.81 24.97,-41.3 41.17,-59.06 60,-65.76 155.63,-84.12 244.54,-88.77 65.92,-3.44 117.82,4.52 186.78,53.77 37.5,26.78 77.4,72.71 92.88,129.47 21.36,78.35 37.99,170.28 -40.81,274.42 -65.03,85.92 -106.66,39.75 -98.51,87.24 6.9,40.24 47.8,56.96 85.84,71.78 -6.46,3 -10.05,3.46 -16.91,5.37 -6.41,1.78 -13.05,3.08 -19.7,2.63 -10.91,-0.73 -5.36,0.73 -14.98,-4.49 -0.23,20.41 -3.53,38.7 -8.28,58.56 -21.08,-14.68 -55.55,-46.15 -56.3,-43.13 -5.98,23.97 -18.98,46.14 -36.97,63.06 -3.46,-15.19 -6.76,-32.3 -10.24,-47.5 -1.76,-7.71 -7.08,-19.14 -8.28,-17.46 -7.38,10.46 -16.3,20.39 -27.99,25.62 -11.69,5.22 -34.45,-1.19 -30.58,-2.14"
         id="path1240" />
    </clipPath>
    <clipPath
       clipPathUnits="userSpaceOnUse"
       id="clipPath1570">
      <path
         d="m 4309.88,2179.31 c 7.03,30.16 48.75,103.94 71.81,124.6 29.32,26.27 64.18,46.23 88.91,76.87 6.2,7.69 11.24,16.49 18.87,22.77 11.98,9.88 29.87,11.93 43.78,5.01 16.63,-8.28 25.48,-26.61 39.4,-38.92 18.34,-16.22 43.81,-20.8 66.97,-28.77 20.22,-6.95 39.4,-16.9 56.73,-29.42 13.12,-9.47 25.16,-20.4 36.27,-32.15 48.21,-50.99 78.76,-118.27 85.93,-188.08 7.16,-69.8 -9.02,-141.73 -44.94,-202.01 -11.19,-18.79 -24.41,-36.64 -41.21,-50.63 -36.95,-30.77 -92.23,-68.16 -179.83,-51.27 -47.21,9.11 -120.1,31 -155.3,63.75 -92.89,86.4 -117.98,196.92 -87.39,328.25"
         id="path1568" />
    </clipPath>
    <clipPath
       clipPathUnits="userSpaceOnUse"
       id="clipPath1618">
      <path
         d="m 4157.57,1943.63 c 0,0 -15.44,-92.59 16.27,-161.93 23.63,-51.69 103.66,-128.17 170.58,-137.74 66.92,-9.58 145.31,-16.27 215.24,37.39 69.93,53.65 140.91,229.43 105.47,256.24 -35.45,26.79 -507.56,6.04 -507.56,6.04"
         id="path1616" />
    </clipPath>
    <clipPath
       clipPathUnits="userSpaceOnUse"
       id="clipPath1660">
      <path
         d="m 4421.57,1970.37 c 1.83,24.18 3.68,48.36 5.51,72.55 0.11,1.37 0.14,2.89 -1.25,3.88 -1.16,0.82 -3.03,1.03 -4.78,1.18 -45.19,3.91 -94.21,-7.03 -128.15,-28.6 -4.75,-3.01 -9.58,-6.89 -8.66,-11 0.59,-2.63 3.43,-4.69 6.22,-6.53 25.5,-16.92 57.04,-29.94 79.62,-48.55 7.42,-6.12 29.67,-27.33 46.52,-18.42 9.05,4.79 4.47,28.96 4.97,35.49"
         id="path1658" />
    </clipPath>
    <clipPath
       clipPathUnits="userSpaceOnUse"
       id="clipPath1670">
      <path
         d="m 4357.59,1949.55 c -28.33,16.08 -56.66,32.15 -84.99,48.22 -1.61,0.92 -3.45,1.89 -5.56,1.84 -1.77,-0.04 -3.27,-0.8 -4.6,-1.54 -34.58,-19.21 -53.53,-49.59 -49.57,-79.41 0.56,-4.18 2.11,-8.92 7.74,-11.06 3.59,-1.37 7.99,-1.3 12.09,-1.13 37.48,1.61 74.18,8.54 111.81,7.67 12.38,-0.28 52.96,-2.95 53.18,10.72 0.12,7.37 -32.43,20.34 -40.1,24.69"
         id="path1668" />
    </clipPath>
    <clipPath
       clipPathUnits="userSpaceOnUse"
       id="clipPath1680">
      <path
         d="m 4331.05,1902.97 c -36.6,-1.58 -73.2,-3.18 -109.81,-4.76 -2.08,-0.09 -4.37,-0.24 -5.63,-1.27 -1.08,-0.86 -1.11,-2.1 -1.08,-3.26 0.87,-30.01 24.61,-60.82 62.07,-80.54 5.24,-2.76 11.78,-5.46 17.83,-4.39 3.86,0.68 6.52,2.78 8.88,4.82 21.62,18.64 36.47,40.77 61.07,57.69 8.09,5.57 36.64,22.56 20.73,32.55 -8.54,5.37 -44.17,-0.41 -54.06,-0.84"
         id="path1678" />
    </clipPath>
    <clipPath
       clipPathUnits="userSpaceOnUse"
       id="clipPath1690">
      <path
         d="m 4512.2,1912.85 c 35.57,0.51 71.13,1.03 106.7,1.54 2.02,0.02 4.24,0.12 5.37,1.13 0.95,0.85 0.85,2.13 0.69,3.32 -4.03,30.87 -27.82,66.13 -66.48,87.53 -5.42,2.99 -12.14,7.22 -17.92,6.31 -3.69,-0.6 -11.74,-7.94 -13.84,-9.96 -19.11,-18.49 -28.21,-39.63 -50.43,-56.27 -7.3,-5.47 -33.38,-22.07 -16.78,-32.82 8.91,-5.78 43.07,-0.92 52.69,-0.78"
         id="path1688" />
    </clipPath>
    <clipPath
       clipPathUnits="userSpaceOnUse"
       id="clipPath1700">
      <path
         d="m 4488.62,1868.88 c 27.88,-16.41 55.76,-32.82 83.63,-49.22 1.59,-0.93 3.4,-1.93 5.52,-1.9 1.77,0.02 3.29,0.76 4.65,1.49 35.12,18.78 54.96,48.9 51.84,78.76 -0.43,4.18 -1.85,8.94 -7.42,11.15 -3.55,1.41 -7.95,1.4 -12.06,1.27 -37.53,-1.15 -74.44,-7.65 -112.06,-6.33 -12.37,0.44 -52.89,3.6 -53.5,-10.07 -0.32,-7.35 31.87,-20.72 39.4,-25.15"
         id="path1698" />
    </clipPath>
    <clipPath
       clipPathUnits="userSpaceOnUse"
       id="clipPath1710">
      <path
         d="m 4423.68,1846.03 c -3.78,-24.53 -7.56,-49.05 -11.33,-73.57 -0.22,-1.4 -0.37,-2.94 0.92,-3.91 1.09,-0.81 2.92,-0.99 4.63,-1.11 44.38,-3.08 93.74,8.96 129.05,31.45 4.95,3.15 10.03,7.17 9.46,11.31 -0.37,2.65 -3.02,4.68 -5.64,6.51 -23.84,16.63 -53.98,29.2 -74.81,47.62 -6.85,6.05 -27.13,27.11 -44.5,17.75 -9.35,-5.04 -6.77,-29.41 -7.78,-36.05"
         id="path1708" />
    </clipPath>
    <clipPath
       clipPathUnits="userSpaceOnUse"
       id="clipPath1720">
      <path
         d="m 4525.92,2020.82 c -3.64,8.5 -79.96,28.66 -83.31,24.23 -3.35,-4.43 -17.29,-101.65 -14.51,-106.19 4.33,-7.06 8.59,-16.38 26.39,-3.3 17.8,13.08 75.54,75.69 71.43,85.26"
         id="path1718" />
    </clipPath>
    <clipPath
       clipPathUnits="userSpaceOnUse"
       id="clipPath1730">
      <path
         d="m 4400.21,1768.44 c 6.16,2.04 21.7,109.23 16.61,111.95 -5.1,2.71 -17.03,15.31 -27.75,0.75 -10.74,-14.57 -27.08,-21.87 -43.68,-38.22 -16.6,-16.34 -41.75,-38.91 -36.12,-45.52 5.64,-6.62 78.8,-32.98 90.94,-28.96"
         id="path1728" />
    </clipPath>
    <clipPath
       clipPathUnits="userSpaceOnUse"
       id="clipPath2990">
      <path
         d="M 0,0 H 4943 V 4359 H 0 Z"
         id="path2988" />
    </clipPath>
    <clipPath
       clipPathUnits="userSpaceOnUse"
       id="clipPath2996">
      <path
         d="m 1789.25,4062.13 c -34.41,62.46 -116.1,64.33 -174.43,44.37 -32.95,-11.27 -64.45,-27.01 -95.21,-43.2 -9.21,-4.85 -19.39,-10.14 -29.27,-16.21 2.09,3.32 4.22,6.61 6.41,9.86 14.47,21.43 32.03,40.57 50.55,58.55 19.69,19.1 40.32,37.14 61.16,54.95 10.4,8.89 20.72,17.8 32.26,25.17 5.35,3.41 4.88,4.6 10.2,8.06 5.98,3.89 11.58,10.29 23.16,19.95 5.48,4.57 24.4,11.95 18.01,16.08 -11.84,7.65 -53.39,0.41 -66.29,-3.3 -16.22,-4.68 -32.47,-11.88 -46.85,-20.65 -27.62,-16.84 -53.52,-38.63 -76.92,-60.91 -12.24,-11.65 -24.01,-23.95 -34.99,-36.9 -4.15,30.69 -11.46,60.52 -22.64,89.51 -11.88,30.78 -27.48,60.13 -46.91,86.85 -9.34,12.86 -19.76,24.89 -31.08,36.04 -5.33,5.25 -10.85,10.31 -16.89,14.73 -6.79,4.96 -16.61,8.2 -22.75,13.56 -2.44,2.13 -5.9,-1.23 -3.59,-3.58 4.83,-4.87 7.88,-13.58 11.5,-19.45 3.8,-6.15 7.83,-12.09 11.91,-18.06 8.6,-12.6 16.53,-25.66 24.25,-38.82 15.49,-26.41 28.02,-54.18 37.67,-83.24 7.6,-22.88 13.39,-46.69 16.91,-70.66 -8.22,13.05 -17.59,25.38 -28.16,36.94 -18.82,20.59 -41.2,37.8 -66.24,49.93 -25.13,12.17 -113.11,22.86 -122.12,11.28 -4.76,-6.12 32.59,-13.11 40.54,-16.73 22.7,-10.35 39.26,-25.66 59.19,-40.95 18.26,-14.01 35.75,-30.13 49.93,-48.33 9.32,-11.95 17.6,-25.18 24.49,-38.95 -13.67,0.38 -26.98,-0.38 -37.31,-0.6 -38.71,-0.8 -78.15,-2.82 -115.45,-14.04 -30.04,-9.04 -58.89,-29.57 -79.93,-53.36 -8.81,-9.97 -29.05,-44.67 -25.74,-59.2 1.57,-6.86 40.58,25.84 45.09,29.16 9.34,6.9 19.62,12.77 29.96,18.02 21.46,10.88 45.98,17.14 69.85,19.47 29.5,2.89 58.97,1.73 88.55,1.08 6.21,-0.13 12.39,-0.29 18.58,-0.5 -16.17,-12.01 -27.27,-25.96 -39.08,-40.82 -11.53,-14.51 -18.46,-26.14 -23.92,-43.98 -4.38,-14.31 -4.37,-30.68 -2.44,-55.77 0.95,-12.41 3.47,-25.47 10.93,-15.45 4,5.37 16.36,25.89 19.83,31.59 3.55,5.85 7.9,11.4 11.76,17.09 7.28,10.72 16.14,20.99 25.27,30.17 12.82,12.91 40.33,30.81 55.1,40.18 5.39,-3.03 30.3,-17.27 39.24,-13.51 13.86,5.83 25.84,9.88 37.8,18.84 11.17,8.36 23.48,15.3 35.76,21.88 25.16,13.49 50.83,26.91 77.64,36.77 25.98,9.56 51.95,15.61 79.63,15.98 25.02,0.33 51.73,-3.61 76.05,-9.07 9.97,-2.23 14.08,1.01 9.03,10.18"
         id="path2994" />
    </clipPath>
    <clipPath
       clipPathUnits="userSpaceOnUse"
       id="clipPath3588">
      <path
         d="m 4815.73,3659.38 c -15.14,-0.79 -22.26,-10.01 -33.52,-19.42 -11.81,-9.87 -24.35,-18.87 -36.23,-28.66 -24.69,-20.34 -46.41,-41.75 -66.22,-66.87 -20.59,-26.11 -39.28,-52.84 -52.83,-83.33 -15.19,-34.18 -39.28,-84.28 -5.46,-114.61 15.99,-14.35 39.16,-16.53 57.93,-5.55 19.63,11.48 26.31,34.92 32.96,55.11 9.9,30.04 20.9,59.84 31.75,89.55 10.94,29.91 23.97,59.77 38.2,88.23 6.73,13.46 10.51,32.34 18.96,44.8 8.64,12.72 10.83,22.43 19.34,35.57 2.7,4.2 -0.04,5.43 -4.88,5.18"
         id="path3586" />
    </clipPath>
    <clipPath
       clipPathUnits="userSpaceOnUse"
       id="clipPath3600">
      <path
         d="m 4664.45,3672.4 c 5.86,-19.04 -2.82,-50.57 -10.09,-68.2 -9.47,-22.97 -31.02,-38.52 -37.89,-62.09 -5.75,-19.73 14.85,-44.69 36.12,-36.13 33.14,13.35 51.32,52.97 57.41,86.95 3.09,17.24 -1.87,22.01 -6.94,38.85 -4.68,15.53 -17.95,38.35 -26.3,51.04 -6.9,10.49 -16.32,2.62 -12.31,-10.42"
         id="path3598" />
    </clipPath>
    <clipPath
       clipPathUnits="userSpaceOnUse"
       id="clipPath3612">
      <path
         d="m 4473.26,3672.16 c 5.73,-16.48 5.16,-37.02 3.21,-53.53 -1.96,-16.62 2.32,-42.56 6.18,-58.77 8.96,-37.64 11.75,-75.58 48.52,-95.64 21.28,-11.62 55.95,-2.67 60.58,24.65 4.95,29.17 -4.94,50.25 -21.41,73.85 -11.68,16.72 -24.25,32.84 -36.61,49.06 -15.47,20.31 -31.53,55.38 -56.73,64.12 -2.13,0.74 -4.49,-1.61 -3.74,-3.74"
         id="path3610" />
    </clipPath>
    <clipPath
       clipPathUnits="userSpaceOnUse"
       id="clipPath3624">
      <path
         d="m 4942.8,3467.83 c -2.69,9.38 -79.84,-0.38 -89.49,-2.04 -20.47,-3.52 -39.63,-8.28 -58.94,-16.08 -38.08,-15.35 -78.7,-36.32 -107.44,-65.94 -45.16,-46.55 32.76,-110.45 71.74,-55.36 20.33,28.73 37.64,52.79 68.01,72.21 14.33,9.16 29.48,18.36 45.37,24.47 7.17,2.76 72.29,37.33 70.75,42.74"
         id="path3622" />
    </clipPath>
    <clipPath
       clipPathUnits="userSpaceOnUse"
       id="clipPath3692">
      <path
         d="m 4361.45,2921.91 -0.06,-0.11 -0.08,0.18 0.14,-0.07 m 149.36,139.44 -0.51,0.12 0.51,2.1 v -2.22 m 84.76,-523.35 0.63,2.5 c 1.27,-0.93 2.52,-1.87 3.71,-2.86 -1.47,0.09 -2.91,0.21 -4.34,0.36 m -156.97,480.01 -0.26,1.19 0.93,0.1 -0.67,-1.29 m -10.16,-225.36 -0.61,-2.07 -0.41,2.15 1.02,-0.08 m 71.06,109.07 -0.01,0.06 0.02,0.01 -0.01,-0.07 m 254.65,-54.18 0.04,1.31 0.38,-1.01 -0.42,-0.3 m -42.52,-132.38 0.54,-1.19 -0.67,-0.03 0.13,1.22 m 152.87,140.63 c 3.96,11.66 8.52,19.64 13.96,27.73 5.18,7.7 2.01,40.59 2.09,44.63 0.18,8.08 -0.7,15.75 -2.9,22.29 -1.88,5.6 -11.11,28.64 -13,35.96 -2.79,10.86 -10.77,12.98 -14.34,3.18 -3.14,-4.25 -5.96,-10.67 -8.76,-16.34 2.19,5.15 4.71,10.01 7.54,14.95 5.78,10.14 -8.2,43.17 -9.19,47.42 -1.98,8.49 -5.45,16.15 -10.64,22.08 -4.43,5.07 -24.96,25.34 -29.87,32.21 -1.8,2.51 -3.92,4.32 -6.14,5.48 -2.91,11.62 -8.01,23.44 -8.57,25.88 -1.93,8.51 -5.64,16.1 -11.42,21.87 -4.95,4.94 -27.95,24.55 -33.37,31.29 -8.04,9.98 -22.99,8.39 -26.71,-3.55 -6.39,-8.5 -10.39,-21.39 -15.9,-29.96 -1.9,-2.97 -3.32,-5.68 -4.47,-8.31 -7.61,8.68 -17.34,19.78 -20.32,24.57 -6.76,10.88 -21.8,11.1 -26.93,-0.3 -7.36,-7.67 -12.9,-19.98 -19.39,-27.83 -4.57,-5.52 -7.33,-10.29 -8.8,-15.42 -5.24,11.09 -11.98,25.38 -13.5,31.03 -3.46,12.79 -20.14,18.87 -30.15,10.27 -11.1,-4.26 -21.9,-13.54 -32.09,-18.3 -8.33,-3.89 -13.66,-7.72 -17.33,-12.96 -0.17,0.92 -0.37,1.93 -0.65,3.13 -3.09,12.75 -50.84,40.12 -63.08,34.19 -13.18,-1.62 -26.38,-8.03 -38.55,-10.31 -19.99,-3.75 -25.95,-9.88 -31.17,-27.34 -4.13,-13.85 -14.14,-33.84 -8.19,-48.91 0.5,-1.26 1.14,-2.42 1.85,-3.55 -5.73,-3.26 -11.36,-6.7 -16.67,-8.86 -16.16,-6.57 -21.29,-13.75 -26.55,-32.63 -4.16,-14.98 -13.4,-37.14 -9.61,-52.05 0.35,-1.33 0.82,-2.54 1.36,-3.69 -3.29,-0.11 -6.49,-2.47 -8.6,-7.42 -6.2,-7.21 -11.53,-19.74 -17.1,-27.29 -9.16,-12.38 -10.98,-21.63 -10.35,-43.11 0.49,-17.04 -0.77,-43.31 4.92,-57.55 2.76,-6.93 7.03,-9.48 10.74,-14.1 2.96,-3.7 5.61,-8.19 8.06,-13.04 -4.06,-7.72 -4.91,-16.54 -4.3,-30.01 0.81,-17.66 -1.25,-44.87 7.97,-59.62 4.49,-7.18 11.4,-9.82 17.42,-14.61 5.58,-4.44 10.51,-9.95 14.98,-15.92 -4.37,-6 -5.04,-12.67 -3.82,-22.65 1.64,-13.37 0.14,-34.18 11.95,-44.85 1.14,-1.03 2.42,-1.89 3.76,-2.68 -0.11,-0.88 -0.1,-1.81 0.05,-2.78 -1.25,-6.76 0.15,-15.46 -0.56,-22.01 -1.17,-10.77 1.25,-16.01 10.02,-25.48 6.96,-7.52 16.36,-20.24 25.63,-23.59 3.13,-1.13 5.9,-0.89 8.71,-0.66 1.25,0.11 2.51,0.21 3.81,0.19 2.63,-0.03 5.32,-0.37 8.04,-0.92 0.13,-2.24 1.12,-4.71 3.17,-7.41 2.95,-3.86 18.13,-21.02 20.78,-25.6 3.95,-6.8 20,-14.24 29,-13.12 5.71,-0.65 11.24,-0.56 16.65,-0.48 4.3,0.08 8.51,0.15 12.66,-0.16 2.97,-0.22 5.52,-0.3 7.72,-0.25 1.06,-2.13 3.33,-3.94 7.02,-5.29 4.47,-1.64 26.12,-7.88 30.7,-10.22 6.79,-3.47 24.4,-1.65 31.62,3.53 9.46,3.97 17.25,9.56 25.7,13.5 3.79,1.77 6.7,3.31 8.92,4.78 7.48,-3.74 16.99,-8.49 19.67,-10.47 6.14,-4.52 23.8,-5.58 31.77,-1.64 9.98,2.4 18.57,6.65 27.55,9.17 14.73,4.14 17.68,7.32 16.75,14.77 -0.3,2.41 -0.15,5.34 -0.45,8.31 2.81,-0.84 5.63,-1.77 8.51,-2.8 10.22,-3.67 32.45,15.9 35.58,17.64 6.26,3.48 11.33,8.24 14.41,14.33 2.08,4.09 8.46,19.44 13.01,28.76 6.66,-3.35 15.62,-0.02 20.8,5.62 8.89,9.67 18.36,15.79 29.48,21.76 10.56,5.69 9.26,36.91 9.97,40.61 1.43,7.41 0.87,14.73 -2.27,21.37 l -1.15,2.26 c 4.78,-1.41 10.08,4.31 12.9,11.94 5.31,14.32 11.42,24.11 18.71,34.04 6.93,9.44 2.68,49.81 2.8,54.77 0.23,9.91 -0.95,19.33 -3.89,27.36 -2.52,6.87 -14.89,35.14 -17.41,44.12 l -0.03,0.08 c 3.93,0.65 7.84,4.17 9.48,8.97"
         id="path3690" />
    </clipPath>
    <clipPath
       clipPathUnits="userSpaceOnUse"
       id="clipPath3778">
      <path
         d="m 4792,3172.41 c -9.67,11.34 -16.54,21.87 -30.17,27.84 -17.85,7.83 -34.37,8.44 -51.82,16.24 -25.08,11.22 -64.73,1.67 -72.67,-27.17 -6.95,-25.21 13.28,-57.39 41.69,-54.72 42,3.95 118.77,-29.05 151.63,-58.86 4.03,-3.66 1.54,49.5 -38.66,96.67"
         id="path3776" />
    </clipPath>
    <clipPath
       clipPathUnits="userSpaceOnUse"
       id="clipPath3788">
      <path
         d="m 4878.07,3577.7 c -22.24,-0.14 -40.3,-19.29 -58.97,-29.65 -21.05,-11.69 -39.62,-27.99 -58.25,-43.3 -18.13,-14.89 -34.17,-32.62 -49.68,-50.19 -17.69,-20.01 -37.25,-40.84 -50.83,-63.88 -29.11,-49.37 43.51,-89.4 75.6,-44.19 12.89,18.18 22.01,39.39 33.07,58.76 11.08,19.41 23.21,38.01 35.33,56.77 11.47,17.74 19.01,35.5 31.73,52.21 13.63,17.9 34.62,32 45.63,51.04 5.34,9.25 7.17,12.5 -3.63,12.43"
         id="path3786" />
    </clipPath>
    <clipPath
       clipPathUnits="userSpaceOnUse"
       id="clipPath3800">
      <path
         d="m 4333.04,3442.48 c 5.95,-10.68 19.03,-14.85 29.22,-20.88 13.64,-8.08 27.59,-16.66 40.11,-26.37 25.94,-20.15 46.16,-46.04 60.11,-75.62 23.63,-50.05 101.6,10.48 58.76,45.34 -30.3,24.66 -61.74,45.89 -97.51,61.8 -22.13,9.84 -66.98,32.14 -90.3,17.22 l -0.39,-1.49"
         id="path3798" />
    </clipPath>
    <clipPath
       clipPathUnits="userSpaceOnUse"
       id="clipPath3810">
      <path
         d="m 4353.22,3350.72 c 21.61,-21.71 49.72,-26.08 76.52,-38.88 15.99,-7.64 27.73,-18.15 38.57,-32.13 10.38,-13.39 19.19,-29.19 34.9,-36.58 14.12,-6.64 37.98,4.9 30.35,23.33 -12.16,29.38 -51.89,57.55 -80.59,71.12 -30.16,14.25 -63.67,20.77 -96.83,20.2 -3.56,-0.06 -5.48,-4.49 -2.92,-7.06"
         id="path3808" />
    </clipPath>
    <clipPath
       clipPathUnits="userSpaceOnUse"
       id="clipPath3820">
      <path
         d="m 4614.64,3701.22 c -9.87,-17.14 -13.44,-38.34 -20.48,-56.87 -7.79,-20.52 -15.06,-40.98 -22.01,-61.81 -7.08,-21.22 -15.34,-41.7 -19.66,-63.77 -5.15,-26.27 -2.95,-46.09 8.64,-69.99 8.68,-17.92 32.43,-17.08 45.42,-5.85 39.79,34.36 36.11,90.02 40.71,138.3 3.5,36.66 3.44,109.36 -23.09,139.48 -4.83,5.5 -6.08,-13.5 -9.53,-19.49"
         id="path3818" />
    </clipPath>
    <clipPath
       clipPathUnits="userSpaceOnUse"
       id="clipPath3830">
      <path
         d="m 4842.39,3359.29 c -30.59,6.87 -59.09,-10.11 -84.47,-25.59 -27.84,-16.98 -61.33,-36.88 -69.11,-70.83 -10.37,-45.34 59.52,-56.16 63.59,-8.61 0.62,7.33 14.81,18.14 19.89,23.24 9.03,9.08 18.48,17.72 28.38,25.84 17.32,14.24 35.34,25.84 45.61,46.37 1.79,3.57 0.45,8.61 -3.89,9.58"
         id="path3828" />
    </clipPath>
    <clipPath
       clipPathUnits="userSpaceOnUse"
       id="clipPath3844">
      <path
         d="m 4315.75,3585.03 c 11.43,-6.32 25.27,-12.16 35.08,-20.39 9.29,-7.78 17.24,-15.64 27.35,-22.45 20.53,-13.83 40.61,-28.17 59.89,-43.73 19.13,-15.43 37.96,-31.37 56.67,-47.31 17.3,-14.73 33.07,-36.54 53.99,-45.64 26.94,-11.72 53.76,2.09 56.32,32.31 2.86,33.84 -24.91,57.04 -50.02,74.66 -24.11,16.91 -49.92,31.87 -76.01,45.5 -25.39,13.27 -52.52,25.82 -80.49,32.48 -25.29,6.04 -57.35,3.1 -82.41,-2.65 -1.28,-0.29 -1.5,-2.17 -0.37,-2.78"
         id="path3842" />
    </clipPath>
    <clipPath
       clipPathUnits="userSpaceOnUse"
       id="clipPath3856">
      <path
         d="m 4671.3,3579.38 c -5.42,-8.44 -9.12,-8.04 -13.65,-16.9 -4.47,-8.76 -8.46,-17.7 -13.24,-26.32 -8.93,-16.09 -20.04,-30.04 -31.26,-44.55 -23.64,-30.56 -37.71,-63.95 -47.39,-101.27 -12,-46.19 58.69,-65.7 71.45,-19.71 5.95,21.44 2.22,42.54 4.88,64.23 2.06,16.78 6.75,33.5 11.17,49.77 4.57,16.8 11.18,32.3 17.03,48.64 3.08,8.62 7.75,19.14 7.89,28.43 0.1,6.71 -3.22,9.69 -4.04,16.91 -0.17,1.46 -1.97,2.13 -2.84,0.77"
         id="path3854" />
    </clipPath>
    <clipPath
       clipPathUnits="userSpaceOnUse"
       id="clipPath3868">
      <path
         d="m 4362.46,3489.65 c 13.81,-7.64 27.43,-18.95 40.93,-27.49 14.2,-8.98 29.61,-18.89 41.82,-30.57 23.59,-22.59 40.58,-45.16 46.38,-77.34 10.48,-58.39 109.55,-31.69 88.92,24.52 -15.72,42.84 -55.82,72.48 -96.18,91.19 -18.11,8.4 -36.64,16.94 -55.96,22.11 -23.81,6.38 -40.4,5.21 -64.16,4.07 -3.31,-0.16 -4.91,-4.74 -1.75,-6.49"
         id="path3866" />
    </clipPath>
    <clipPath
       clipPathUnits="userSpaceOnUse"
       id="clipPath3884">
      <path
         d="m 4853.86,3269.85 c 16.9,14.49 -59.61,0.44 -75.02,-4.64 -18.14,-5.98 -48.27,-20.49 -65.22,-29.55 -32.25,-17.24 -27.32,-67.03 5.39,-80.19 32.64,-13.13 72.35,16.85 60.88,53.23 0.05,-4 0.09,-8.01 0.14,-12.01 -0.91,-2.5 -0.7,-2.66 0.62,-0.47 l 4.05,4.29 c 5.58,5.67 25.21,30.51 32.04,34.54 12.65,7.46 31.7,30.16 37.12,34.8"
         id="path3882" />
    </clipPath>
    <clipPath
       clipPathUnits="userSpaceOnUse"
       id="clipPath3894">
      <path
         d="m 4714.28,3375.22 c -7.69,-6.47 -17.41,-11.08 -25.22,-17.71 -8.24,-6.97 -15.36,-16.3 -21.75,-24.99 -14.35,-19.5 -22.21,-40.25 -24.04,-64.39 -3.85,-50.6 78.19,-51.53 79.48,0 0.42,16.72 5.56,32.08 10.22,48.03 4.51,15.41 2.85,29.94 4.94,45.31 1.9,13.95 -12.16,23.39 -23.63,13.75"
         id="path3892" />
    </clipPath>
    <clipPath
       clipPathUnits="userSpaceOnUse"
       id="clipPath3904">
      <path
         d="m 4639.74,3394.98 c -25.61,-8.03 -42.92,-15.6 -62.19,-35.68 -19.57,-20.42 -32.58,-44.93 -40.75,-71.83 -14.12,-46.49 63.82,-66.01 71.44,-19.69 3.4,20.68 8.19,41.24 15.06,61.04 6.5,18.72 13.55,40.66 22.57,58.17 2.07,4.01 -1.37,9.47 -6.13,7.99"
         id="path3902" />
    </clipPath>
    <clipPath
       clipPathUnits="userSpaceOnUse"
       id="clipPath3916">
      <path
         d="m 4504.51,3356.9 c -3.53,-10.95 -0.19,-22.64 0.74,-33.76 0.99,-11.9 -0.7,-22.25 -4.72,-33.48 -7.57,-21.1 10.32,-43.25 30.65,-45.99 22.49,-3.05 40.74,13.95 41.75,36.2 1.36,29.73 -14.36,90.39 -54.32,87.76 -6.72,-0.44 -12.02,-4.27 -14.1,-10.73"
         id="path3914" />
    </clipPath>
    <clipPath
       clipPathUnits="userSpaceOnUse"
       id="clipPath3928">
      <path
         d="m 4614.12,3334.81 c 6.52,-12.53 -3.49,-25.03 -4.91,-39.02 -1.55,-15.4 -9.63,-28.14 -10.08,-43.77 -0.81,-28.8 41.17,-49.88 60.9,-25.22 18.94,23.65 17.83,51.94 5.7,78.89 -10.01,22.22 -25.93,34.5 -44.5,48.98 -10.35,8.07 -19.17,4.53 -12.53,-8.25 l 5.42,-11.61"
         id="path3926" />
    </clipPath>
    <clipPath
       clipPathUnits="userSpaceOnUse"
       id="clipPath3942">
      <path
         d="m 4684.01,3271.95 c -20.12,-17.17 -36.06,-34.11 -43.04,-60.39 -5.3,-20 8.14,-40.06 28.53,-42.81 18.97,-2.57 40.45,12.77 38.86,33.69 -2.23,29.41 17.99,58.26 34.92,79.79 5.8,7.38 4.07,11.41 -7.2,13.65 0,0 -36.33,-10.48 -52.07,-23.93"
         id="path3940" />
    </clipPath>
    <clipPath
       clipPathUnits="userSpaceOnUse"
       id="clipPath3954">
      <path
         d="m 4435.48,3243.56 c 56.46,-17.01 49.21,-67.78 65.96,-62.36 34.79,11.27 39.74,60.47 4.78,75.22 -3.12,1.81 -6.49,2.72 -10.1,2.74 -5.98,0.96 -7.08,1.04 -3.31,0.25 -2.15,0.51 -4.3,1.28 -6.41,1.92 -6.54,1.98 -13.74,4.16 -20.63,4.01 -7.12,-0.15 -15.38,-1.89 -22.25,-3.75 -6.32,-1.71 -9.92,-6.39 -15.7,-8.53 -4.01,-1.48 -5.43,-7.19 -1.25,-9.54 l 8.91,0.04"
         id="path3952" />
    </clipPath>
    <clipPath
       clipPathUnits="userSpaceOnUse"
       id="clipPath3966">
      <path
         d="m 4559.37,3304.95 c -10.9,-6.16 -18.45,-13.51 -26.52,-23.13 -6.64,-7.91 -12.17,-19.82 -16.44,-24.95 -21.39,-25.7 -11.93,-66.93 24.41,-71.82 35.02,-4.7 58.54,32.77 42.37,63.22 -2.16,4.05 -2.35,2.23 -1.93,0.41 0.49,-2.05 1.76,-4.09 1.94,2.16 0.13,4.56 -0.27,9.39 -0.3,13.98 -0.05,8.88 0.43,17.56 0.37,26.42 -0.11,12.14 -13.38,19.65 -23.9,13.71"
         id="path3964" />
    </clipPath>
    <clipPath
       clipPathUnits="userSpaceOnUse"
       id="clipPath3978">
      <path
         d="m 4474.71,3157.68 c 17.19,1.79 31.41,-2.13 48.14,-3.61 22.71,-2.02 31.47,28.11 17.68,42.7 -17.59,18.61 -46.63,12.53 -68.79,5.94 -18.39,-5.47 -56.61,-25.92 -61.39,-46.54 -0.61,-2.6 4.72,-1.62 10.12,-0.63 3.91,0.71 7.86,1.42 9.63,0.78 0,0 30.12,-0.15 44.61,1.36"
         id="path3976" />
    </clipPath>
    <clipPath
       clipPathUnits="userSpaceOnUse"
       id="clipPath3990">
      <path
         d="m 4576.2,3167.6 c 2.75,2.23 5.04,4.88 6.9,7.94 1.3,3.01 2.57,6.03 3.8,9.07 6.26,15.32 -9.5,32.73 -24.56,32.25 -22.8,-0.74 -36.75,-21.41 -38.4,-42.86 -1.42,-18.24 18.86,-44.99 32.19,-57.27 6.62,-6.1 3.81,4.37 8.63,12.07 0,0 10.83,37.5 11.44,38.8"
         id="path3988" />
    </clipPath>
    <clipPath
       clipPathUnits="userSpaceOnUse"
       id="clipPath4000">
      <path
         d="m 4586.93,3289.32 c -5.9,-8.49 -2.93,-19.55 -2.62,-29.02 0.39,-12.06 -3.16,-22.66 -4.81,-34.36 -2.93,-20.8 6.22,-40.73 29.2,-43.85 21.15,-2.85 39.21,13.26 39.8,34.51 0.63,22.92 -10.92,45.13 -26.03,61.71 -6.21,6.82 -26.77,23.61 -35.54,11.01"
         id="path3998" />
    </clipPath>
    <clipPath
       clipPathUnits="userSpaceOnUse"
       id="clipPath4012">
      <path
         d="m 4690.52,3130.81 c -0.13,10.94 -4.96,22 -10.71,31.08 -12.97,20.49 -31.6,32.3 -52.37,43.76 -16.67,9.19 -37.58,2.53 -45.05,-15.19 -7.7,-18.26 2.57,-36.57 20.57,-42.85 13.46,-4.7 27.85,-9.45 39.99,-17.01 5.25,-3.27 9.31,-7.52 13.68,-11.87 3.65,-3.63 29.18,-20.07 30.96,-22.88 2.73,-4.28 3.04,25.31 2.93,34.96"
         id="path4010" />
    </clipPath>
    <clipPath
       clipPathUnits="userSpaceOnUse"
       id="clipPath4026">
      <path
         d="m 4091.92,2780.2 c 22.23,15.36 616.01,-109.52 616.01,-109.52 0,0 -133.28,-252.17 -381.52,-189.53 -241.14,60.85 -253.17,286.14 -234.49,299.05"
         id="path4024" />
    </clipPath>
    <clipPath
       clipPathUnits="userSpaceOnUse"
       id="clipPath11262">
      <path
         d="m 4376.07,2472.47 c 14.13,11.52 26.28,27.09 36.54,39.15 6.3,7.47 12.24,15.21 17.73,23.13 -1.26,1.53 -2.25,2.7 -2.79,3.42 -1.44,1.89 -2.43,3.69 -2.88,5.4 -0.18,0.63 -0.27,1.26 -0.27,1.98 -2.7,0.54 -5.49,0.81 -8.1,0.9 -1.35,0.09 -2.7,0 -3.96,-0.18 -2.79,-0.18 -5.49,-0.45 -8.55,0.63 -9.27,3.42 -18.63,16.11 -25.65,23.58 -7.38,8.01 -10.26,13.05 -10.26,20.88 0,1.44 0.09,2.97 0.27,4.68 0.18,1.62 0.18,3.42 0.18,5.22 0,3.24 -0.18,6.66 -0.18,9.99 0,2.34 0.18,4.68 0.54,6.75 -0.18,0.99 -0.18,1.89 -0.09,2.79 -0.9,0.54 -1.8,1.17 -2.7,1.89 -0.36,0.18 -0.63,0.54 -0.99,0.81 -11.79,10.62 -10.35,31.5 -11.97,44.82 -1.26,9.99 -0.63,16.65 3.87,22.68 -1.08,1.44 -2.16,2.79 -3.33,4.14 -3.6,4.41 -7.47,8.37 -11.7,11.79 -6.03,4.77 -12.87,7.38 -17.37,14.58 -9.27,14.76 -7.2,41.94 -8.01,59.58 -0.18,4.77 -0.27,8.91 0,12.6 0.36,7.02 1.62,12.51 4.32,17.55 -0.09,0.09 -0.18,0.27 -0.27,0.36 0,0.09 0,0.09 0,0.18 -2.43,4.59 -4.95,8.82 -7.83,12.42 -3.69,4.59 -7.92,7.11 -10.71,14.04 -5.67,14.31 -4.41,40.59 -4.95,57.6 -0.09,2.7 -0.09,5.22 -0.09,7.56 0,16.29 2.52,24.66 10.44,35.55 5.58,7.56 10.89,20.07 17.1,27.27 1.53,3.69 3.78,5.94 6.12,6.93 0.09,0 0.09,0 0.09,0 0.09,0.09 0.27,0.09 0.36,0.09 0.09,0.09 0.27,0.09 0.36,0.18 h 0.09 c 0.18,0 0.36,0.09 0.45,0.09 0.36,0.09 0.72,0.09 1.17,0.18 -0.54,1.08 -0.99,2.34 -1.35,3.69 -0.63,2.34 -0.9,4.86 -0.9,7.47 -0.09,14.13 6.93,31.86 10.53,44.55 5.22,18.9 10.35,26.01 26.55,32.58 9.81,4.05 20.7,12.42 31.32,15.93 10.08,7.74 24.57,0.63 26.19,-12.33 1.17,-8.64 10.98,-38.07 12.6,-45 0.18,-0.72 0.36,-1.62 0.54,-2.61 3.24,6.57 8.82,11.52 18.63,16.83 10.8,5.94 21.51,16.38 33.48,21.87 9.9,9.72 29.7,5.58 35.64,-6.75 4.05,-8.28 24.93,-35.19 29.07,-41.67 0.54,-0.81 0.99,-1.62 1.44,-2.52 2.34,5.76 6.84,11.07 14.31,17.46 9.9,8.46 18.72,21.42 29.88,29.79 8.1,11.88 30.15,12.96 39.51,2.52 6.3,-7.02 35.1,-27.72 41.13,-32.94 1.62,-1.35 2.97,-2.79 4.23,-4.32 0.63,1.17 1.35,2.34 2.16,3.6 5.49,8.55 9.54,21.42 15.93,29.97 3.69,11.88 18.63,13.5 26.64,3.51 4.41,-5.58 20.7,-19.71 29.16,-27.36 -2.61,11.97 -1.44,19.62 4.23,30.33 4.41,8.28 7.38,20.88 12.6,29.07 2.7,11.7 15.57,12.78 22.86,2.52 4.86,-6.84 25.38,-27.09 29.79,-32.22 5.22,-5.85 8.73,-13.59 10.71,-22.05 0.99,-4.23 14.94,-37.26 9.18,-47.43 -2.97,-5.13 -5.58,-10.17 -7.92,-15.57 2.97,5.76 5.85,12.6 9.09,17.01 3.6,9.81 11.61,7.65 14.4,-3.24 1.89,-7.29 11.07,-30.33 12.96,-35.91 2.25,-6.57 3.06,-14.22 2.88,-22.32 -0.09,-4.05 3.15,-36.9 -2.07,-44.64 -5.4,-8.1 -9.99,-16.02 -13.95,-27.72 -1.62,-4.77 -5.49,-8.37 -9.45,-9 2.52,-9 14.85,-37.26 17.37,-44.19 2.79,-7.47 3.96,-16.29 3.96,-25.47 0,-0.63 0,-1.26 0,-1.89 0,-0.09 0,-0.18 0,-0.27 0,-0.09 0,-0.18 0,-0.27 0.09,-6.93 3.96,-45 -2.79,-54.18 -7.29,-9.99 -13.41,-19.71 -18.72,-34.02 -2.07,-5.49 -5.4,-10.08 -8.91,-11.61 -1.35,-0.63 -2.7,-0.72 -4.05,-0.36 0.54,-0.9 0.9,-1.71 1.17,-2.25 1.98,-4.14 2.88,-8.55 2.97,-13.14 0.09,-2.7 -0.18,-5.49 -0.72,-8.28 -0.72,-3.69 0.63,-34.92 -9.99,-40.59 -11.07,-5.94 -20.52,-12.06 -29.43,-21.78 -5.22,-5.58 -14.13,-8.91 -20.79,-5.58 -0.36,-0.72 -0.72,-1.53 -1.08,-2.25 -4.41,-9.45 -9.99,-22.77 -11.97,-26.55 -3.06,-6.03 -8.1,-10.8 -14.4,-14.31 -3.15,-1.71 -25.38,-21.33 -35.55,-17.64 -1.62,0.54 -3.24,1.17 -4.77,1.62 -1.26,0.45 -2.52,0.81 -3.69,1.17 0.09,-1.08 0.09,-2.07 0.09,-3.15 0.09,-1.8 0.09,-3.6 0.27,-5.13 0.09,-0.9 0.18,-1.8 0.18,-2.61 -0.09,-5.67 -4.05,-8.55 -16.92,-12.15 -9,-2.52 -17.55,-6.75 -27.54,-9.18 -7.92,-3.96 -25.65,-2.88 -31.77,1.62 -0.9,0.63 -2.43,1.53 -4.32,2.61 -1.89,0.99 -4.14,2.16 -6.48,3.42 -2.88,1.44 -6.03,2.97 -8.91,4.41 -1.35,-0.9 -2.97,-1.8 -4.86,-2.79 -0.09,0 -0.09,-0.09 -0.09,-0.09 -0.27,-0.09 -0.45,-0.18 -0.63,-0.27 -0.18,-0.09 -0.45,-0.27 -0.63,-0.36 -0.18,-0.09 -0.36,-0.18 -0.54,-0.18 -0.27,-0.18 -0.54,-0.27 -0.81,-0.45 -0.09,0 -0.18,-0.09 -0.27,-0.18 -0.36,-0.09 -0.72,-0.27 -1.08,-0.45 -8.37,-3.87 -16.2,-9.54 -25.65,-13.5 -7.2,-5.13 -24.84,-6.93 -31.59,-3.51 -4.59,2.34 -26.28,8.55 -30.78,10.26 -0.27,0.09 -0.54,0.18 -0.72,0.27 -0.18,0.09 -0.36,0.18 -0.54,0.27 h -0.09 c -0.54,0.27 -1.08,0.45 -1.53,0.72 -33.66,-14.31 -71.73,-23.4 -114.03,-23.4 -9.27,0 -18.72,0.45 -28.35,1.35 m 220.05,67.59 c -0.18,-0.63 -0.36,-1.26 -0.54,-1.89 v -0.18 c 1.44,-0.09 2.88,-0.27 4.32,-0.36 -1.17,0.99 -2.43,1.98 -3.69,2.88 l -0.09,-0.45 m 115.38,173.88 h 0.18 c 0.18,0 0.27,0 0.45,0 l -0.45,1.08 c -0.09,-0.36 -0.09,-0.72 -0.18,-1.08 m -283.68,76.68 c 0.18,0.72 0.36,1.35 0.54,1.98 -0.27,0 -0.63,0.09 -0.9,0.09 0.09,-0.63 0.27,-1.35 0.36,-2.07 m 326.34,56.97 c 0.18,0.09 0.27,0.18 0.36,0.27 -0.09,0.27 -0.18,0.54 -0.27,0.81 -0.09,-0.36 -0.09,-0.72 -0.09,-1.08 m -392.76,74.25 c 0,0 0,0 0.09,0.09 -0.09,0 -0.09,0 -0.18,0 0.09,0 0.09,-0.09 0.09,-0.09 m 198.18,135.72 -0.36,-0.27 0.36,0.27 m 105.84,2.97 -0.27,-0.36 0.27,0.36 m -94.23,1.71 -2.61,1.17 -2.61,1.98 -1.17,1.35 -2.16,0.9 -0.27,-0.18 -1.62,-0.9 c -1.08,-0.63 -2.16,-1.44 -3.51,-1.44 -1.62,0.09 -2.97,0.9 -3.51,2.52 -0.72,2.34 0.63,5.49 2.25,7.38 l -0.45,0.81 c -0.81,1.35 -1.8,3.33 -2.16,4.95 -0.36,1.35 -0.99,3.33 -0.54,4.68 1.44,3.96 6.48,1.26 8.46,-0.27 l 1.53,-1.26 c 1.08,2.25 2.34,4.5 4.05,6.21 0.9,0.9 2.07,0.72 2.79,-0.27 1.17,-1.53 1.8,-4.32 1.8,-7.2 3.87,0.18 7.56,-0.99 9.36,-4.5 1.44,-2.79 -1.71,-5.85 -3.78,-7.2 -0.99,-0.63 -2.25,-1.35 -3.42,-1.98 0.18,-1.26 0.27,-2.7 0.81,-3.87 0.63,-1.62 -0.9,-3.15 -2.34,-3.15 -0.27,0 -0.63,0.09 -0.9,0.27 m 86.4,5.94 c -1.26,1.98 -1.26,5.31 -0.54,7.65 l -0.63,0.54 c -1.08,1.08 -2.52,2.61 -3.33,4.05 -0.72,1.17 -1.8,2.7 -1.8,4.23 -0.18,4.14 4.59,3.33 6.66,2.52 l 1.62,-0.72 c 0.09,2.43 0.36,5.04 1.17,7.2 0.45,1.17 1.44,1.44 2.34,0.72 1.35,-1.08 2.79,-3.51 3.69,-6.21 2.97,1.44 6.21,1.53 8.82,-1.17 1.98,-2.16 0.45,-6.03 -0.72,-8.01 -0.63,-0.99 -1.35,-1.98 -2.07,-2.97 0.54,-1.17 1.08,-2.43 1.8,-3.42 1.35,-1.53 -0.09,-4.14 -1.62,-3.78 l -2.43,0.27 -2.61,0.99 -1.35,0.9 -1.98,0.09 -0.18,-0.27 -0.99,-1.35 c -0.63,-0.99 -1.26,-2.07 -2.34,-2.52 -0.36,-0.09 -0.72,-0.18 -1.08,-0.18 -0.9,0 -1.71,0.45 -2.43,1.44 m -220.5,4.32 -0.45,-0.18 0.45,0.18 m 307.35,5.13 -0.09,-0.36 0.09,0.36 m -303.3,3.6 -0.18,-0.09 0.18,0.09 m 301.14,6.48 v -0.09 0.09"
         clip-rule="evenodd"
         id="path11260" />
    </clipPath>
    <clipPath
       clipPathUnits="userSpaceOnUse"
       id="clipPath8914">
      <path
         d="m 1766.87,2182.21 c -21.07,7.14 -44.26,4.75 -65.78,-0.92 -28.15,-7.41 -57.67,-23.53 -65.43,-51.59 -4.85,-17.54 -4.32,-40.73 4.79,-56.48 6.01,-10.37 13.96,-19.82 24.11,-26.2 22.84,-14.34 47.5,-9.31 84.2,3.74 22.94,8.16 59.8,35.74 59.54,70.28 -0.22,28.63 -15.41,52.34 -41.43,61.17"
         id="path8912" />
    </clipPath>
    <clipPath
       clipPathUnits="userSpaceOnUse"
       id="clipPath8990">
      <path
         d="m 1644.03,2118.99 c -21.07,7.15 -44.26,4.76 -65.77,-0.91 -28.15,-7.42 -57.68,-23.54 -65.44,-51.6 -4.85,-17.54 -4.31,-40.72 4.8,-56.47 6,-10.38 13.96,-19.82 24.11,-26.2 22.84,-14.35 47.5,-9.31 84.19,3.74 22.95,8.15 59.81,35.74 59.54,70.28 -0.21,28.63 -15.4,52.35 -41.43,61.16"
         id="path8988" />
    </clipPath>
    <clipPath
       clipPathUnits="userSpaceOnUse"
       id="clipPath9068">
      <path
         d="m 1369.12,2043.15 c -7.56,21.58 -24.19,38.84 -42.41,52.66 -23.84,18.1 -55.59,31.78 -83.21,20.28 -17.27,-7.17 -35.7,-22.3 -42.68,-39.65 -4.6,-11.43 -7.2,-23.85 -5.93,-36.11 2.85,-27.58 22.55,-44.34 56.35,-65.79 21.14,-13.4 66.83,-25.76 94.62,-3.67 23.03,18.31 32.6,45.62 23.26,72.28"
         id="path9066" />
    </clipPath>
    <clipPath
       clipPathUnits="userSpaceOnUse"
       id="clipPath9128">
      <path
         d="m 1771.39,2536.83 c -22.44,4.44 -45.75,-1.12 -66.91,-9.8 -27.68,-11.35 -55.59,-31.76 -59.72,-61.39 -2.57,-18.53 1.09,-42.09 12.51,-56.91 7.51,-9.76 16.89,-18.31 28.09,-23.44 25.21,-11.54 49.65,-3.08 85.29,15.15 22.28,11.41 56.12,44.49 51.2,79.65 -4.08,29.14 -22.75,51.26 -50.46,56.74"
         id="path9126" />
    </clipPath>
    <clipPath
       clipPathUnits="userSpaceOnUse"
       id="clipPath9170">
      <path
         d="m 1848.35,2430.37 c -21.66,7.34 -45.5,4.88 -67.61,-0.94 -28.94,-7.62 -59.29,-24.19 -67.26,-53.03 -4.98,-18.03 -4.44,-41.86 4.93,-58.06 6.17,-10.65 14.35,-20.37 24.78,-26.92 23.48,-14.75 48.82,-9.56 86.54,3.84 23.58,8.38 61.47,36.74 61.2,72.24 -0.22,29.42 -15.83,53.8 -42.58,62.87"
         id="path9168" />
    </clipPath>
    <clipPath
       clipPathUnits="userSpaceOnUse"
       id="clipPath9242">
      <path
         d="m 1826.38,2296.44 c -21.07,7.15 -44.26,4.76 -65.78,-0.91 -28.14,-7.42 -57.67,-23.54 -65.43,-51.6 -4.85,-17.53 -4.32,-40.72 4.79,-56.47 6.01,-10.37 13.97,-19.82 24.12,-26.2 22.83,-14.34 47.49,-9.31 84.19,3.74 22.94,8.15 59.81,35.75 59.54,70.29 -0.21,28.62 -15.4,52.33 -41.43,61.15"
         id="path9240" />
    </clipPath>
    <clipPath
       clipPathUnits="userSpaceOnUse"
       id="clipPath9322">
      <path
         d="m 1724.94,2459.06 c -21.66,7.34 -45.49,4.89 -67.61,-0.94 -28.93,-7.63 -59.28,-24.19 -67.25,-53.03 -4.99,-18.03 -4.44,-41.86 4.93,-58.05 6.17,-10.66 14.34,-20.37 24.78,-26.93 23.48,-14.74 48.82,-9.56 86.54,3.84 23.58,8.38 61.47,36.74 61.2,72.25 -0.23,29.42 -15.84,53.79 -42.59,62.86"
         id="path9320" />
    </clipPath>
    <clipPath
       clipPathUnits="userSpaceOnUse"
       id="clipPath9356">
      <path
         d="m 1336.39,2575.09 c -2.26,-22.76 5.52,-45.43 16.19,-65.65 13.96,-26.47 36.96,-52.29 66.85,-53.54 18.69,-0.78 41.78,5.13 55.44,17.92 8.99,8.42 16.6,18.58 20.63,30.22 9.06,26.2 -1.71,49.72 -23.29,83.44 -13.49,21.07 -49.68,51.57 -84.2,43.29 -28.61,-6.86 -48.83,-27.57 -51.62,-55.68"
         id="path9354" />
    </clipPath>
    <clipPath
       clipPathUnits="userSpaceOnUse"
       id="clipPath9388">
      <path
         d="m 1396.13,2512.31 c -19.71,-11.58 -33.44,-31.23 -43.49,-51.77 -13.14,-26.88 -20.45,-60.68 -3.84,-85.57 10.38,-15.55 28.78,-30.72 47.15,-34.21 12.11,-2.31 24.8,-2.46 36.58,1.14 26.5,8.13 39.15,30.69 53.67,68 9.07,23.32 12.38,70.53 -14.66,93.54 -22.41,19.06 -51.06,23.19 -75.41,8.87"
         id="path9386" />
    </clipPath>
    <clipPath
       clipPathUnits="userSpaceOnUse"
       id="clipPath9412">
      <path
         d="m 1209.01,2517.09 c -4.09,-22.5 1.84,-45.72 10.84,-66.74 11.79,-27.5 32.63,-55.09 62.33,-58.75 18.56,-2.28 42.06,1.75 56.7,13.39 9.64,7.67 18.04,17.18 22.99,28.46 11.15,25.39 2.31,49.7 -16.49,85.05 -11.75,22.09 -45.36,55.41 -80.43,49.94 -29.07,-4.54 -50.9,-23.56 -55.94,-51.35"
         id="path9410" />
    </clipPath>
    <clipPath
       clipPathUnits="userSpaceOnUse"
       id="clipPath9496">
      <path
         d="m 1102.54,2404.53 c 7.15,-21.72 23.45,-39.3 41.4,-53.46 23.49,-18.54 54.98,-32.82 82.82,-21.85 17.4,6.85 36.12,21.62 43.41,38.84 4.81,11.34 7.66,23.72 6.62,35.99 -2.33,27.62 -21.71,44.76 -55.1,66.84 -20.88,13.8 -66.32,27.03 -94.53,5.46 -23.37,-17.86 -33.46,-45 -24.62,-71.82"
         id="path9494" />
    </clipPath>
    <clipPath
       clipPathUnits="userSpaceOnUse"
       id="clipPath9574">
      <path
         d="m 1317.75,2424.96 c -22.14,-5.74 -40.72,-20.87 -56.01,-37.88 -20.01,-22.25 -36.3,-52.74 -27.14,-81.23 5.72,-17.81 19.26,-37.44 35.97,-45.84 11.01,-5.52 23.17,-9.16 35.49,-8.91 27.71,0.55 46.06,18.78 70.24,50.69 15.12,19.94 31.24,64.43 11.54,93.97 -16.33,24.48 -42.75,36.29 -70.09,29.2"
         id="path9572" />
    </clipPath>
    <clipPath
       clipPathUnits="userSpaceOnUse"
       id="clipPath9598">
      <path
         d="m 1751.33,2327.18 c -20.65,9.83 -44.61,10.17 -67.25,6.97 -29.63,-4.19 -61.71,-17.1 -73,-44.8 -7.06,-17.32 -9.3,-41.06 -1.89,-58.23 4.88,-11.32 11.87,-21.91 21.46,-29.64 21.6,-17.39 47.37,-15.21 86.4,-6.3 24.4,5.57 65.34,29.3 69.22,64.59 3.23,29.24 -9.43,55.28 -34.94,67.41"
         id="path9596" />
    </clipPath>
    <clipPath
       clipPathUnits="userSpaceOnUse"
       id="clipPath9644">
      <path
         d="m 1647.02,2229.73 c -22.83,1.41 -45.2,-7.21 -65,-18.63 -25.93,-14.94 -50.87,-38.88 -51.01,-68.8 -0.09,-18.71 6.69,-41.57 19.97,-54.73 8.75,-8.67 19.18,-15.9 30.97,-19.49 26.52,-8.08 49.62,3.56 82.51,26.38 20.56,14.27 49.69,51.57 40.12,85.76 -7.92,28.33 -29.38,47.77 -57.56,49.51"
         id="path9642" />
    </clipPath>
    <clipPath
       clipPathUnits="userSpaceOnUse"
       id="clipPath9712">
      <path
         d="m 1507.16,2157.63 c -22.82,1.41 -45.18,-7.21 -65,-18.63 -25.92,-14.94 -50.87,-38.88 -51,-68.8 -0.09,-18.71 6.69,-41.57 19.97,-54.73 8.75,-8.67 19.19,-15.9 30.97,-19.49 26.52,-8.08 49.62,3.56 82.51,26.38 20.56,14.28 49.69,51.57 40.13,85.76 -7.93,28.33 -29.38,47.77 -57.58,49.51"
         id="path9710" />
    </clipPath>
    <clipPath
       clipPathUnits="userSpaceOnUse"
       id="clipPath9790">
      <path
         d="m 1476.73,2249.22 c -22.76,2.2 -45.41,-5.64 -65.61,-16.36 -26.42,-14.04 -52.18,-37.1 -53.36,-67 -0.73,-18.68 5.25,-41.77 18.06,-55.38 8.45,-8.98 18.63,-16.56 30.28,-20.56 26.23,-8.99 49.72,1.85 83.38,23.52 21.04,13.54 51.45,49.81 43.07,84.31 -6.94,28.59 -27.7,48.75 -55.82,51.47"
         id="path9788" />
    </clipPath>
    <clipPath
       clipPathUnits="userSpaceOnUse"
       id="clipPath9814">
      <path
         d="m 1441.2,2108.72 c -7.57,21.58 -24.2,38.84 -42.42,52.66 -23.83,18.09 -55.58,31.78 -83.2,20.28 -17.28,-7.18 -35.71,-22.3 -42.69,-39.65 -4.59,-11.43 -7.19,-23.86 -5.92,-36.11 2.85,-27.58 22.55,-44.35 56.35,-65.78 21.14,-13.41 66.82,-25.77 94.61,-3.68 23.03,18.31 32.61,45.62 23.27,72.28"
         id="path9812" />
    </clipPath>
    <clipPath
       clipPathUnits="userSpaceOnUse"
       id="clipPath9894">
      <path
         d="m 1010.57,2279.72 c 14.59,-17.61 36.17,-28.02 58.05,-34.66 28.64,-8.69 63.16,-10.5 85.08,9.87 13.7,12.73 25.74,33.31 26.26,52.01 0.33,12.31 -1.53,24.87 -6.98,35.92 -12.25,24.86 -36.55,33.75 -75.69,42.12 -24.48,5.24 -71.61,0.97 -90,-29.4 -15.243,-25.16 -14.743,-54.11 3.28,-75.86"
         id="path9892" />
    </clipPath>
    <clipPath
       clipPathUnits="userSpaceOnUse"
       id="clipPath9942">
      <path
         d="m 931.305,2207.69 c 14.582,-17.62 36.172,-28.03 58.054,-34.67 28.631,-8.68 63.161,-10.5 85.071,9.87 13.7,12.74 25.74,33.32 26.26,52.01 0.34,12.31 -1.53,24.87 -6.98,35.92 -12.25,24.87 -36.54,33.76 -75.69,42.13 -24.469,5.23 -71.602,0.96 -89.997,-29.41 -15.242,-25.16 -14.738,-54.1 3.282,-75.85"
         id="path9940" />
    </clipPath>
    <clipPath
       clipPathUnits="userSpaceOnUse"
       id="clipPath10020">
      <path
         d="m 880.613,2019.86 c 20.5,-10.13 44.453,-10.85 67.145,-8 29.687,3.75 61.952,16.16 73.662,43.7 7.32,17.2 9.93,40.91 2.78,58.19 -4.7,11.39 -11.53,22.09 -21.01,29.96 -21.323,17.72 -47.127,15.93 -86.288,7.62 -24.48,-5.2 -65.781,-28.3 -70.199,-63.54 -3.668,-29.19 8.594,-55.41 33.91,-67.93"
         id="path10018" />
    </clipPath>
    <clipPath
       clipPathUnits="userSpaceOnUse"
       id="clipPath10084">
      <path
         d="m 966.59,2092.41 c 20.5,-10.14 44.45,-10.85 67.14,-8 29.69,3.74 61.96,16.16 73.67,43.7 7.32,17.2 9.93,40.9 2.78,58.18 -4.71,11.39 -11.53,22.09 -21.01,29.96 -21.32,17.72 -47.13,15.93 -86.29,7.63 -24.482,-5.2 -65.782,-28.31 -70.2,-63.54 -3.668,-29.19 8.593,-55.41 33.91,-67.93"
         id="path10082" />
    </clipPath>
    <clipPath
       clipPathUnits="userSpaceOnUse"
       id="clipPath10150">
      <path
         d="m 1076.83,1957.79 c 22.27,5.22 41.21,19.89 56.9,36.53 20.54,21.76 37.55,51.86 29.08,80.56 -5.3,17.94 -18.35,37.88 -34.86,46.68 -10.87,5.79 -22.95,9.72 -35.27,9.77 -27.72,0.11 -46.5,-17.68 -71.44,-49 -15.59,-19.57 -32.775,-63.67 -13.78,-93.67 15.73,-24.85 41.87,-37.3 69.37,-30.87"
         id="path10148" />
    </clipPath>
    <clipPath
       clipPathUnits="userSpaceOnUse"
       id="clipPath10232">
      <path
         d="m 1227.62,1999.91 c 18.68,13.2 30.71,33.93 39.01,55.24 10.85,27.88 15.31,62.16 -3.32,85.58 -11.65,14.63 -31.25,28.21 -49.85,30.16 -12.26,1.28 -24.92,0.38 -36.35,-4.2 -25.73,-10.31 -36.46,-33.86 -47.8,-72.25 -7.09,-24 -6.45,-71.32 22.42,-91.99 23.92,-17.12 52.82,-18.84 75.89,-2.54"
         id="path10230" />
    </clipPath>
    <clipPath
       clipPathUnits="userSpaceOnUse"
       id="clipPath11274">
      <path
         d="m 1388.7,2118.56 v 9.31 c 3.89,22.3 36.45,29.03 54.45,36.26 9.45,3.78 18.9,8.28 27.36,14.13 -2.61,4.14 -4.86,8.46 -6.75,12.87 -3.24,7.56 -4.68,16.29 -4.59,25.2 0,0.81 0,1.53 0,2.25 -6.48,-7.38 -13.41,-13.59 -19.71,-17.91 -0.54,-0.45 -1.17,-0.81 -1.71,-1.17 -18.75,-12.05 -34.39,-20.8 -49.05,-24.6 v 219.5 c 2.67,-4.29 4.56,-8.84 5.94,-13.55 3.6,15.48 17.01,31.23 24.3,42.84 6.39,10.08 12.06,20.88 15.39,32.4 1.71,5.85 2.61,11.88 4.32,17.73 0.54,1.98 1.17,4.05 2.16,5.94 0.72,7.11 4.23,13.77 9.99,16.92 -2.88,9.54 -4.14,19.89 -4.14,30.15 0,0.72 0,1.44 0,2.07 -7.29,4.05 -12.78,10.8 -17.55,17.46 -5.76,8.19 -12.33,19.17 -12.69,29.43 -0.18,4.41 0.9,8.46 2.97,11.88 3.78,11.07 16.2,16.29 27.09,12.33 3.87,-1.35 7.2,-3.78 10.08,-6.75 1.17,-0.9 2.34,-1.89 3.51,-2.88 3.51,7.38 7.92,14.31 13.41,20.52 18.81,21.15 47.34,26.01 74.52,14.85 20.7,-8.55 32.94,-29.97 38.7,-50.85 4.14,5.94 8.82,11.43 14.31,16.2 21.24,18.63 50.13,19.89 75.69,5.4 24.57,-13.95 33.12,-46.62 33.3,-71.82 0,-5.58 -0.36,-10.71 -1.08,-15.3 -0.09,-0.72 -0.27,-1.35 -0.36,-2.07 -6.75,-36.45 -14.31,-60.21 -34.74,-73.71 11.88,-22.5 30.33,-40.23 43.74,-53.01 -2.25,-0.27 -4.41,-0.45 -6.57,-0.54 2.88,-1.08 5.4,-2.61 7.47,-4.68 9.9,-6.21 12.24,-19.44 5.94,-29.16 -2.25,-3.51 -5.4,-6.21 -8.91,-8.28 -9.36,-8.19 -23.85,-11.88 -35.91,-12.33 -3.69,-11.88 -9.18,-22.59 -14.58,-30.24 -0.45,-0.63 -0.81,-1.17 -1.26,-1.71 -10.62,-13.95 -20.07,-25.29 -29.7,-33.66 4.59,-9 7.11,-19.17 7.2,-30.06 1.98,0 3.87,-0.09 5.76,-0.18 5.49,-0.36 10.71,-1.35 15.57,-2.97 0.81,3.06 2.34,6.03 4.59,8.73 6.48,7.83 16.29,11.43 25.74,14.13 9.63,2.7 22.23,5.13 32.04,2.07 4.23,-1.35 7.65,-3.78 10.17,-6.93 9.18,-7.29 9.81,-20.7 2.43,-29.61 -2.61,-3.15 -6.03,-5.49 -9.81,-7.2 -11.52,-7.83 -28.8,-9.45 -41.49,-7.47 -0.99,0.18 -1.98,0.36 -2.97,0.63 -2.7,0.36 -5.22,0.9 -7.65,1.8 -2.52,0.9 -4.68,2.16 -6.3,3.69 -6.3,0.99 -12.69,1.8 -18.81,1.53 -0.45,0 -0.9,-0.09 -1.26,-0.09 3.96,-7.02 7.92,-13.41 11.43,-19.08 -9.9,1.26 -18.63,4.32 -26.82,10.08 -13.05,-22.95 -41.04,-38.34 -60.3,-43.38 -0.63,-0.09 -1.35,-0.27 -1.98,-0.45 -5.31,-1.26 -10.44,-2.34 -15.3,-3.24 -2.88,-3.96 -5.13,-8.1 -6.21,-13.05 -2.16,-9.72 -3.51,-18.72 -10.17,-26.64 -0.81,-0.9 -1.8,-1.71 -2.88,-2.25 -4.05,10.44 -6.12,21.96 -6.03,32.22 0,2.16 0.18,4.32 0.45,6.39 -7.65,-0.45 -14.58,-0.09 -21.06,1.17 -2.52,-3.06 -5.22,-6.03 -7.92,-8.91 -0.18,-0.54 -0.36,-1.17 -0.54,-1.71 -1.35,-3.87 -3.78,-7.2 -6.75,-10.08 -7.56,-10.62 -21.78,-17.73 -33.93,-20.61 -0.81,-0.36 -1.62,-0.72 -2.43,-1.08 -12.87,-5.4 -27.18,-8.01 -41.04,-9 -0.9,-0.09 -1.8,-0.09 -2.79,-0.09 -12.78,0 -24.16,6.48 -26.28,20.22 m 286.56,269.13 c 2.25,-3.42 4.05,-6.93 5.4,-10.71 5.22,1.98 11.07,3.69 16.74,4.23 -4.05,0.9 -8.01,2.25 -12.06,4.05 -6.3,2.88 -12.06,6.93 -17.19,11.61 2.52,-2.79 4.95,-5.85 7.11,-9.18 m -34.74,35.1 c -0.63,-2.25 -1.17,-4.5 -1.62,-6.66 8.64,-2.79 16.65,-7.47 23.76,-13.77 -1.89,1.98 -3.69,4.14 -5.4,6.39 -3.42,4.41 -6.12,9.54 -8.19,15.21 -2.79,-0.54 -5.67,-0.9 -8.55,-1.17 m 22.77,-305.64 c -6.12,1.44 -10.62,3.24 -15.03,7.83 -3.51,3.6 -6.75,7.47 -10.08,11.16 -12.78,14.31 9.36,34.2 22.14,19.89 3.42,-3.69 6.84,-7.38 10.08,-11.16 4.23,-4.95 5.4,-9.54 6.12,-15.84 0.9,-7.02 -3.78,-12.24 -10.26,-12.24 -0.9,0 -1.89,0.09 -2.97,0.36 m 15.3,21.06 c -3.51,3.24 -4.86,8.46 -7.02,12.69 -1.98,4.05 -4.5,8.19 -3.51,12.78 0.36,1.71 1.89,3.24 3.6,3.69 11.34,2.79 26.37,-13.95 22.41,-24.84 -1.53,-4.23 -5.31,-6.84 -9.18,-6.84 -2.16,0 -4.41,0.81 -6.3,2.52 M 1403.1,2593.7 c -1.62,0.36 -3.15,1.98 -3.51,3.69 -2.34,11.52 15.03,25.83 25.65,21.42 6.48,-2.61 9,-10.26 3.78,-15.57 -3.33,-3.42 -8.64,-4.5 -12.96,-6.57 -3.24,-1.53 -6.66,-3.33 -10.35,-3.33 -0.81,0 -1.71,0.18 -2.61,0.36"
         clip-rule="evenodd"
         id="path11272" />
    </clipPath>
    <clipPath
       clipPathUnits="userSpaceOnUse"
       id="clipPath11286">
      <path
         d="m 1068.84,2126.06 c -15.03,7.47 -25.38,19.71 -30.6,34.47 -1.08,2.97 -1.89,5.94 -2.52,9 -0.9,4.5 -1.35,9.18 -1.44,13.95 0,0.36 0,0.72 0,1.08 0,3.15 0.27,6.3 0.63,9.45 4.41,35.28 45.72,58.41 70.2,63.54 3.96,0.81 7.83,1.62 11.52,2.34 -1.62,5.4 -2.43,10.89 -2.43,16.47 -0.27,19.35 7.92,39.33 18.54,56.34 -1.89,-2.16 -4.32,-3.96 -7.2,-5.31 -9.18,-4.32 -19.62,-3.51 -29.34,-1.98 -9.9,1.62 -22.32,4.68 -29.88,11.7 -3.24,2.97 -5.4,6.66 -6.3,10.53 -5.22,10.44 -0.27,22.86 10.26,27.9 3.69,1.71 7.74,2.43 11.88,2.34 13.77,2.25 30.15,-3.6 40.77,-10.71 l 2.52,-1.8 c 2.25,-1.44 4.32,-3.06 6.12,-4.86 1.98,-1.98 3.33,-4.05 4.32,-6.21 2.7,-5.13 2.7,-10.98 0.45,-16.2 4.68,7.02 9.9,13.77 15.75,19.98 -0.36,3.06 -0.72,6.03 -1.08,8.82 1.98,-1.26 3.96,-2.61 5.76,-4.05 8.19,7.74 17.28,14.31 27.63,18.72 26.01,11.07 53.91,3.33 73.71,-18.45 10.8,-11.88 14.85,-27.9 14.85,-43.92 0,-8.91 -1.17,-17.73 -3.06,-25.83 2.16,-1.8 4.41,-3.51 6.66,-5.13 2.52,18.81 26.1,33.84 38.88,45.27 8.91,7.92 17.28,16.83 23.58,26.91 0.9,1.44 1.71,2.88 2.52,4.32 -6.84,10.53 3.15,22.95 13.68,22.77 5.4,7.11 14.22,10.71 23.67,4.86 1.53,-0.99 2.88,-2.07 3.96,-3.24 -0.45,3.96 -1.35,7.92 -1.62,11.97 -0.09,0.9 0.09,1.98 0.18,3.06 2.25,-2.61 4.41,-5.4 6.39,-8.37 0.31,-0.46 0.61,-0.93 0.9,-1.39 v -219.5 c -2.09,-0.54 -4.16,-0.98 -6.21,-1.32 -2.61,-3.51 -4.68,-7.29 -5.76,-11.7 -2.52,-9.72 -4.23,-18.63 -11.16,-26.28 -0.81,-0.9 -1.8,-1.62 -2.88,-2.16 -3.69,10.62 -5.31,22.14 -4.95,32.4 0.09,2.97 0.45,5.94 1.08,8.82 -0.45,0.18 -0.99,0.27 -1.44,0.45 -8.46,-12.78 -19.35,-23.31 -28.71,-29.7 -0.54,-0.45 -1.17,-0.81 -1.71,-1.17 -33.66,-21.69 -57.15,-32.49 -83.34,-23.49 -11.7,3.96 -21.87,11.52 -30.24,20.52 -3.24,3.42 -6.03,7.38 -8.37,11.79 -14.22,-21.51 -42.66,-31.68 -69.03,-34.92 -7.23,-0.92 -14.59,-1.47 -21.92,-1.47 -15.67,0 -31.24,2.52 -45.22,9.39 m 319.77,-6.93 c -0.43,3.16 -0.38,6.06 0.09,8.74 v -9.31 c -0.03,0.19 -0.06,0.38 -0.09,0.57 m -349.38,221.22 c -9.9,6.39 -7.83,28.8 2.7,33.3 6.48,2.79 13.68,-0.9 13.77,-8.28 0.09,-4.77 -2.88,-9.36 -4.5,-13.77 -1.53,-4.23 -2.79,-8.91 -6.93,-11.34 -0.72,-0.45 -1.53,-0.63 -2.43,-0.63 -0.9,0 -1.89,0.27 -2.61,0.72"
         clip-rule="evenodd"
         id="path11284" />
    </clipPath>
    <clipPath
       clipPathUnits="userSpaceOnUse"
       id="clipPath6598">
      <path
         d="m 3786.34,3495.07 c -29.8,6.88 -61,9.29 -89.39,20.65 -59.85,23.94 -144.54,-12.3 -161.55,-25.49 -30.95,-24.01 -47.22,-51.39 -67.22,-85.08 -20.18,-34 -27.12,-74.15 -30.58,-113.53 -5.11,-58.23 -3.11,-118.44 18.39,-172.8 16.74,-42.3 44.51,-79.22 65.45,-119.6 11.95,-23.06 21.88,-47.59 38.61,-67.46 37.03,-44 98.95,-56.36 156.14,-62.5 32.64,-3.5 65.41,-5.87 98.23,-7.11 20.78,-0.78 41.89,-1.07 62.03,4.18 53.91,14.05 89.86,64.12 116.61,112.99 22.2,40.56 41.37,82.77 57.31,126.17 23.35,63.64 39.87,131.82 30.57,198.97 -9.3,67.16 -48.56,133.17 -110.97,159.67 -30.51,12.96 -64.2,15.87 -97.24,18.62 -20.26,1.69 -40.5,3.38 -60.75,5.06 -9.92,0.83 -15.95,5.02 -25.64,7.26"
         id="path6596" />
    </clipPath>
    <clipPath
       clipPathUnits="userSpaceOnUse"
       id="clipPath6630">
      <path
         d="m 3534.4,3184.06 c -33.58,34.38 -86.2,45.64 -133.45,36.84 -47.24,-8.81 -89.58,-35.35 -125.52,-67.25 -15.01,-13.33 -29.19,-27.74 -40.87,-44.06 -44.48,-62.18 -48.06,-144.68 -39.24,-220.63 7.29,-62.84 24.28,-129.01 71.35,-171.29 13.2,-11.85 28.29,-21.36 43.73,-30.09 69.38,-39.21 147.18,-63.42 226.56,-70.52 16.94,-1.51 42.23,-2.53 58.85,1.11 20.73,4.54 46.24,9.47 64.84,19.69 45.91,25.22 69.98,32.82 112.3,63.67 42.33,30.86 74.61,90.98 84.52,142.41 7.7,39.98 12.46,83.77 1.93,123.1 -5.22,19.51 -10.9,39.13 -20.81,56.72 -23.24,41.29 -68.8,67.52 -115.86,72.95 -24.76,2.85 -49.92,0.34 -73.93,-6.16 -11.66,-3.16 -23.05,-7.27 -34.1,-12.17 -7.18,-3.18 -20.48,-14.2 -28.47,-10.11 -10.28,5.25 -14.2,48.51 -18.4,60 -7.51,20.5 -18.08,40.07 -33.43,55.79"
         id="path6628" />
    </clipPath>
    <clipPath
       clipPathUnits="userSpaceOnUse"
       id="clipPath6664">
      <path
         d="m 3528.23,3216.48 c -33.59,34.38 -86.21,45.63 -133.45,36.83 -47.25,-8.79 -89.58,-35.34 -125.52,-67.25 -15.02,-13.32 -29.19,-27.73 -40.87,-44.05 -44.49,-62.18 -48.06,-144.68 -39.25,-220.62 7.3,-62.85 24.29,-129.02 71.36,-171.3 13.19,-11.85 28.29,-21.36 43.73,-30.09 69.38,-39.2 147.18,-63.42 226.55,-70.52 16.95,-1.51 42.24,-2.53 58.86,1.11 20.72,4.55 46.24,9.47 64.84,19.68 45.9,25.22 69.98,32.83 112.3,63.68 42.33,30.86 74.61,90.98 84.52,142.41 7.7,39.98 12.45,83.77 1.93,123.09 -5.23,19.51 -10.91,39.13 -20.81,56.73 -23.25,41.29 -68.8,67.52 -115.86,72.95 -24.77,2.85 -49.92,0.34 -73.94,-6.17 -11.66,-3.16 -23.06,-7.27 -34.09,-12.16 -7.18,-3.19 -20.48,-14.19 -28.47,-10.12 -10.28,5.25 -14.21,48.52 -18.41,60 -7.51,20.51 -18.07,40.08 -33.42,55.8"
         id="path6662" />
    </clipPath>
  </defs>
  <g
     inkscape:label="Ebene 1"
     inkscape:groupmode="layer"
     id="layer1">
    <g
       id="g18315"
       transform="matrix(0.08491655,0,0,-0.08491655,-262.96652,310.87301)">
      <path
         d="m 3794.59,3460.35 c -3.93,20.27 -8.94,38.77 -5.71,59.56 2.74,17.65 9.34,33.9 18.9,48.97 9.43,14.87 21.05,28.62 33.88,40.67 10.39,9.74 26.73,27.66 42.27,24.39 3,-0.63 5.46,-3.98 5.34,-7.01 -0.54,-13.93 -17.43,-24.26 -26.7,-33 -11.3,-10.66 -22.34,-21.84 -31.26,-34.59 -19.92,-28.52 -28.08,-64.08 -31.6,-98.3 -0.27,-2.68 -4.51,-3.81 -5.12,-0.69"
         style="fill:#582a18;fill-opacity:1;fill-rule:nonzero;stroke:none"
         id="path6588" />
      <path
         d="m 3786.34,3495.07 c -29.8,6.88 -61,9.29 -89.39,20.65 -59.85,23.94 -144.54,-12.3 -161.55,-25.49 -30.95,-24.01 -47.22,-51.39 -67.22,-85.08 -20.18,-34 -27.12,-74.15 -30.58,-113.53 -5.11,-58.23 -3.11,-118.44 18.39,-172.8 16.74,-42.3 44.51,-79.22 65.45,-119.6 11.95,-23.06 21.88,-47.59 38.61,-67.46 37.03,-44 98.95,-56.36 156.14,-62.5 32.64,-3.5 65.41,-5.87 98.23,-7.11 20.78,-0.78 41.89,-1.07 62.03,4.18 53.91,14.05 89.86,64.12 116.61,112.99 22.2,40.56 41.37,82.77 57.31,126.17 23.35,63.64 39.87,131.82 30.57,198.97 -9.3,67.16 -48.56,133.17 -110.97,159.67 -30.51,12.96 -64.2,15.87 -97.24,18.62 -20.26,1.69 -40.5,3.38 -60.75,5.06 -9.92,0.83 -15.95,5.02 -25.64,7.26"
         style="fill:#77b82c;fill-opacity:1;fill-rule:nonzero;stroke:none"
         id="path6590" />
      <g
         id="g6592">
        <g
           id="g6594"
           clip-path="url(#clipPath6598)">
          <path
             d="m 3515.98,3227.38 c -22.71,17.58 -51.34,26.87 -80.51,28.53 0.35,11.94 1.09,23.86 2.13,35.71 3.46,39.38 10.4,79.53 30.58,113.53 20,33.69 36.27,61.07 67.22,85.08 12.96,10.05 65.21,33.48 115.82,33.48 15.82,0 31.48,-2.29 45.73,-7.99 28.39,-11.36 59.59,-13.77 89.39,-20.65 5.17,-1.19 9.3,-2.95 13.54,-4.44 -3.67,-2.37 -8.38,-3.28 -13.33,-3.28 -5.48,0 -11.26,1.11 -16.29,2.63 0,0 -10.47,1.98 -27.39,1.98 -28.84,0 -76.44,-5.73 -122.96,-36.76 -5.46,10 -14.01,18.81 -24.8,24.42 -7.59,3.95 -15.15,5.68 -22.53,5.68 -35.9,0 -67.63,-41.04 -78.23,-68.15 -7.45,-19.03 -7.42,-41.1 1.12,-59.79 6.12,-13.39 16.03,-24.21 28.12,-33.13 -13.22,-43.76 -9.71,-79.74 -7.61,-96.85"
             style="fill:#8ac825;fill-opacity:1;fill-rule:nonzero;stroke:none"
             id="path6600" />
          <path
             d="m 4083.58,3265.43 c -0.01,13.03 -0.84,26.05 -2.64,39.03 -3.23,23.33 -10.07,46.51 -20.25,67.95 -19.11,40.29 -49.99,74.42 -90.72,91.72 -24.4,10.36 -50.83,14.3 -77.34,16.87 7.42,-6.75 17.19,-9.64 27.8,-9.64 1.35,0 2.72,0.05 4.09,0.14 l 0.84,-0.21 0.6,-0.21 c 0.23,-0.25 1.22,-0.81 3.63,-1.88 l 1.01,-0.43 c 0.89,-0.98 1.83,-2.11 2.67,-3.14 -0.48,0.5 -0.74,0.75 -0.79,0.75 -0.17,0 1.95,-2.71 6.36,-8.14 0.95,-1.64 1.93,-3.6 1.97,-3.67 0.61,-1.11 3.46,-5.87 3.41,-5.88 -0.02,0 -0.46,0.7 -1.61,2.57 -1.21,1.97 -1.63,2.67 -1.64,2.67 -0.01,0 1.26,-2.24 1.59,-3.53 0.97,-3.78 1.98,-7.53 2.91,-11.32 l 0.49,-3.8 0.09,-1.53 c 0.13,-2.59 0.19,-5.18 0.19,-7.77 -0.01,-3.27 -0.14,-6.53 -0.36,-9.79 -0.09,-1.5 -0.77,-5.92 -0.7,-5.92 0.03,0 0.1,0.31 0.25,1.07 -0.17,-0.94 -0.32,-1.67 -0.35,-1.84 -0.49,-2.57 -1.04,-5.14 -1.65,-7.69 -1.05,-4.49 -2.27,-8.94 -3.62,-13.35 -1.35,-4.42 -2.82,-8.8 -4.44,-13.14 -0.43,-1.19 -1.68,-3.6 -2.31,-5.49 -4.12,-8.73 -8.19,-17.45 -12.62,-26 -0.81,3.14 -1.66,6.27 -2.56,9.38 -1.59,5.45 -3.31,10.87 -5.24,16.21 l -0.41,1.1 c -1.32,2.5 -3.88,8.64 -4.1,9.09 -2.97,6.19 -6.02,12.27 -9.65,18.12 -0.31,0.51 -1.38,2.43 -2.46,4.24 -1.02,1.23 -2.03,2.45 -3.1,3.64 -4.44,4.99 -9.24,9.66 -14.29,14.03 -1.1,0.95 -2.95,2.51 -3.96,3.38 -3.91,2.96 -7.87,5.86 -11.62,9.04 -20.08,17.03 -39.06,34.28 -53.77,56.07 0.87,-0.13 1.77,-0.24 2.7,-0.32 20.25,-1.68 40.49,-3.37 60.75,-5.06 33.04,-2.75 66.73,-5.66 97.24,-18.62 62.41,-26.5 101.67,-92.51 110.97,-159.67 1.8,-12.98 2.63,-26 2.64,-39.03 v 0 m -190.24,140.06 c 0,0 -0.01,0 -0.02,0 0.93,-1.17 1.68,-2.11 2.33,-2.92 -0.97,1.57 -1.91,2.92 -2.31,2.92 m 46.84,-131.39 c 0.67,1.78 0.94,2.48 0.94,2.48 0,0 -0.39,-1.07 -0.94,-2.48 m -9.99,195.11 -2.26,1.41 1.23,-0.37 1.03,-1.04 m -1.28,1.29 -1.44,0.49 -0.11,0.09 0.84,0.01 0.71,-0.59 m -0.75,0.63 -0.93,0.12 -0.01,0.18 0.94,-0.3 m -2.3,0.29 -0.82,0.11 c 1.35,0.1 2.71,0.23 4.07,0.42 -1.57,-0.22 -2.61,-0.39 -3.25,-0.53"
             style="fill:#6cae2f;fill-opacity:1;fill-rule:nonzero;stroke:none"
             id="path6602" />
          <path
             d="m 3702.72,3131.7 c 3.82,15.08 3.77,29.87 0.53,45.88 -1.16,5.74 -2.31,11.39 -3.52,17.01 11.12,2.19 22.16,4.77 33.09,7.82 8.16,2.28 16.25,4.82 24.24,7.62 4.28,1.49 8.53,3.07 12.75,4.71 1.51,0.58 4.36,2.19 5.97,2.46 1.26,0.96 4.52,1.93 5.97,2.6 4.14,1.91 8.24,3.88 12.31,5.92 8.12,4.08 16.1,8.44 23.91,13.08 6.82,4.04 13.51,8.29 20.05,12.75 3.73,2.54 7.41,5.14 11.05,7.82 l 0.17,0.12 1.24,1.03 c 13.46,11.01 26.13,23 37.76,35.94 2.59,2.9 5.14,5.84 7.64,8.83 l 1.94,2.38 c 4.68,6.54 9.28,13.11 13.51,19.97 3.27,5.3 6.26,10.71 9.11,16.19 2.19,-8.51 4.06,-17.11 5.73,-25.74 1.59,-8.22 3,-16.46 4.28,-24.73 0.33,-2.02 0.4,-6.79 1.22,-8.48 1.64,-13.77 2.86,-27.58 3.56,-41.43 0.77,-15.16 1.52,-31.19 1.15,-47.09 -4.65,-3.02 -9.37,-5.94 -14.14,-8.77 -8.54,-5.06 -17.25,-9.82 -26.11,-14.27 -4.44,-2.24 -8.92,-4.39 -13.43,-6.47 -1.59,-0.73 -5.14,-1.79 -6.52,-2.84 -1.75,-0.29 -4.87,-2.05 -6.52,-2.69 -4.61,-1.79 -9.25,-3.51 -13.91,-5.14 -8.73,-3.06 -17.56,-5.83 -26.47,-8.31 -19.09,-5.34 -38.5,-9.35 -58.07,-12.4 -22.76,-2.55 -45.62,-3.73 -68.49,-3.77 m 73.02,85.46 c -1.99,-0.59 -9.33,-4 -9.25,-4 0.03,0 0.8,0.34 2.71,1.21 2.15,0.91 4.29,1.82 6.44,2.72 l 0.1,0.07 m 0.39,0.09 h -0.03 0.03"
             style="fill:#71b22e;fill-opacity:1;fill-rule:nonzero;stroke:none"
             id="path6604" />
          <path
             d="m 3936.38,3196.36 c 0.37,15.9 -0.38,31.93 -1.15,47.09 -0.7,13.85 -1.92,27.66 -3.56,41.43 -0.82,1.69 -0.89,6.46 -1.22,8.48 -1.28,8.27 -2.69,16.51 -4.28,24.73 -1.67,8.63 -3.54,17.23 -5.73,25.74 4.43,8.55 8.5,17.27 12.62,26 0.63,1.89 1.88,4.3 2.31,5.49 1.62,4.34 3.09,8.72 4.44,13.14 1.35,4.41 2.57,8.86 3.62,13.35 0.61,2.55 1.16,5.12 1.65,7.69 0.03,0.17 0.18,0.9 0.35,1.84 -0.15,-0.76 -0.22,-1.07 -0.25,-1.07 -0.07,0 0.61,4.42 0.7,5.92 0.22,3.26 0.35,6.52 0.36,9.79 0,2.59 -0.06,5.18 -0.19,7.77 l -0.09,1.53 -0.49,3.8 c -0.93,3.79 -1.94,7.54 -2.91,11.32 -0.33,1.29 -1.6,3.53 -1.59,3.53 0.01,0 0.43,-0.7 1.64,-2.67 1.15,-1.87 1.59,-2.57 1.61,-2.57 0.05,0.01 -2.8,4.77 -3.41,5.88 -0.04,0.07 -1.02,2.03 -1.97,3.67 -4.41,5.43 -6.53,8.14 -6.36,8.14 0.05,0 0.31,-0.25 0.79,-0.75 -0.84,1.03 -1.78,2.16 -2.67,3.14 l -1.01,0.43 c -2.41,1.07 -3.4,1.63 -3.63,1.88 l -0.6,0.21 -0.84,0.21 c -1.37,-0.09 -2.74,-0.14 -4.09,-0.14 -10.61,0 -20.38,2.89 -27.8,9.64 26.51,-2.57 52.94,-6.51 77.34,-16.87 40.73,-17.3 71.61,-51.43 90.72,-91.72 -0.46,-2.3 -0.96,-4.59 -1.5,-6.88 -1.15,-4.9 -2.49,-9.76 -3.95,-14.57 -1.48,-4.83 -3.09,-9.61 -4.85,-14.34 -0.48,-1.31 -1.84,-3.94 -2.53,-6 -7.39,-15.65 -14.59,-31.26 -23.71,-46.05 -4.62,-7.5 -9.63,-14.66 -14.75,-21.81 l -2.12,-2.58 c -2.73,-3.27 -5.51,-6.49 -8.35,-9.65 -12.69,-14.12 -26.51,-27.21 -41.2,-39.23 l -1.36,-1.12 -0.18,-0.14 c -3.97,-2.92 -7.99,-5.76 -12.07,-8.54 -2.56,-1.74 -5.14,-3.46 -7.74,-5.14 m 4.74,80.22 c 0,0 -0.27,-0.7 -0.94,-2.48 0.55,1.41 0.94,2.48 0.94,2.48 m -13.19,194.04 2.26,-1.41 -1.03,1.04 -1.23,0.37 m 0.27,0.47 -0.84,-0.01 0.11,-0.09 1.44,-0.49 -0.71,0.59 m -0.98,0.34 0.01,-0.18 0.93,-0.12 -0.94,0.3 m 1.89,0.52 c -1.36,-0.19 -2.72,-0.32 -4.07,-0.42 l 0.82,-0.11 c 0.64,0.14 1.68,0.31 3.25,0.53"
             style="fill:#65a930;fill-opacity:1;fill-rule:nonzero;stroke:none"
             id="path6606" />
          <path
             d="m 3866.04,3159.6 c -0.09,0 7.93,3.72 10.09,4.37 l -0.1,-0.08 c -2.34,-0.99 -4.69,-1.98 -7.03,-2.96 -2.09,-0.96 -2.93,-1.33 -2.96,-1.33 m -313.96,23.12 c -1.45,2.81 -2.98,5.59 -4.58,8.31 1.36,-0.13 2.73,-0.26 4.09,-0.39 0.11,-2.65 0.27,-5.3 0.49,-7.92"
             style="fill:#71b22e;fill-opacity:1;fill-rule:nonzero;stroke:none"
             id="path6608" />
          <path
             d="m 4055.63,3226.12 c 0.73,1.95 1.03,2.71 1.03,2.71 0.01,0 -0.43,-1.17 -1.03,-2.71"
             style="fill:#65a930;fill-opacity:1;fill-rule:nonzero;stroke:none"
             id="path6610" />
          <path
             d="m 3852.88,3000.76 c -5.13,19.08 -10.78,38.22 -20.46,55.42 -23.25,41.29 -68.8,67.52 -115.86,72.95 -4.74,0.54 -9.49,0.89 -14.24,1.05 0.14,0.51 0.27,1.02 0.4,1.52 22.87,0.04 45.73,1.22 68.49,3.77 19.57,3.05 38.98,7.06 58.07,12.4 8.91,2.48 17.74,5.25 26.47,8.31 4.66,1.63 9.3,3.35 13.91,5.14 1.65,0.64 4.77,2.4 6.52,2.69 1.38,1.05 4.93,2.11 6.52,2.84 4.51,2.08 8.99,4.23 13.43,6.47 8.86,4.45 17.57,9.21 26.11,14.27 4.77,2.83 9.49,5.75 14.14,8.77 -0.27,-11.77 -1.15,-23.47 -3.08,-34.71 -0.48,-2.19 -1.28,-6 -1.5,-7.28 -0.61,-3.59 -1.27,-7.17 -1.97,-10.75 -1.22,-6.19 -2.58,-12.37 -4.09,-18.5 -2.92,-11.79 -6.42,-23.46 -10.51,-34.9 -1.23,-3.44 -2.55,-6.84 -3.84,-10.26 l -0.18,-0.47 c -1.84,-4.11 -3.71,-8.22 -5.7,-12.26 -2.94,-5.97 -15.52,-36.17 -27.6,-63.85 -5.73,-0.77 -11.47,-1.42 -17.22,-1.96 -2.6,-0.24 -5.21,-0.46 -7.81,-0.66 m 23.25,163.21 c -2.16,-0.65 -10.18,-4.37 -10.09,-4.37 0.03,0 0.87,0.37 2.96,1.33 2.34,0.98 4.69,1.97 7.03,2.96 l 0.1,0.08 m 0.43,0.1 -0.03,-0.01 0.03,0.01"
             style="fill:#69ac2f;fill-opacity:1;fill-rule:nonzero;stroke:none"
             id="path6612" />
          <path
             d="m 3877.91,3003.38 c 12.08,27.68 24.66,57.88 27.6,63.85 1.99,4.04 3.86,8.15 5.7,12.26 l 0.18,0.47 c 1.29,3.42 2.61,6.82 3.84,10.26 4.09,11.44 7.59,23.11 10.51,34.9 1.51,6.13 2.87,12.31 4.09,18.5 0.7,3.58 1.36,7.16 1.97,10.75 0.22,1.28 1.02,5.09 1.5,7.28 1.93,11.24 2.81,22.94 3.08,34.71 2.6,1.68 5.18,3.4 7.74,5.14 4.08,2.78 8.1,5.62 12.07,8.54 l 0.18,0.14 1.36,1.12 c 14.69,12.02 28.51,25.11 41.2,39.23 2.84,3.16 5.62,6.38 8.35,9.65 l 2.12,2.58 c 5.12,7.15 10.13,14.31 14.75,21.81 9.12,14.79 16.32,30.4 23.71,46.05 0.69,2.06 2.05,4.69 2.53,6 1.76,4.73 3.37,9.51 4.85,14.34 1.46,4.81 2.8,9.67 3.95,14.57 0.54,2.29 1.04,4.58 1.5,6.88 10.18,-21.44 17.02,-44.62 20.25,-67.95 1.8,-12.98 2.63,-26 2.64,-39.03 0.02,-54.32 -14.37,-108.61 -33.21,-159.94 -5.23,-14.23 -10.8,-28.32 -16.71,-42.27 -11.34,-8.06 -23.14,-15.46 -35.3,-22.21 l -1.54,-0.86 -0.21,-0.1 c -4.42,-2.17 -8.88,-4.25 -13.37,-6.26 -7.9,-3.52 -15.92,-6.79 -24.02,-9.81 -9.29,-3.46 -18.72,-6.59 -28.23,-9.4 -4.77,-1.41 -9.55,-2.73 -14.36,-3.97 -1.7,-0.44 -5.39,-0.85 -6.93,-1.64 -0.02,0 -0.04,0 -0.05,0 -1.79,0 -5.12,-1.16 -6.83,-1.49 -4.86,-0.94 -9.73,-1.8 -14.61,-2.58 -3.43,-0.55 -6.86,-1.06 -10.3,-1.52 m 178.75,225.45 c 0,0 -0.3,-0.76 -1.03,-2.71 0.6,1.54 1.04,2.71 1.03,2.71 m -157.72,-222.4 c -0.15,0 8.46,2.25 10.7,2.51 l -0.11,-0.06 c -2.49,-0.55 -4.97,-1.11 -7.45,-1.67 -2.19,-0.56 -3.09,-0.78 -3.14,-0.78"
             style="fill:#60a331;fill-opacity:1;fill-rule:nonzero;stroke:none"
             id="path6614" />
          <path
             d="m 3581.98,3100 c -0.67,0.15 -1.31,0.37 -1.92,0.68 -2.21,1.13 -4.13,4.02 -5.82,7.97 2.36,-3.04 4.97,-5.92 7.74,-8.65"
             style="fill:#69ac2f;fill-opacity:1;fill-rule:nonzero;stroke:none"
             id="path6616" />
          <path
             d="m 3860.08,2964.38 c -0.22,0.89 -0.45,1.77 -0.68,2.66 -0.38,1.41 -0.76,2.81 -1.14,4.22 -0.95,9.57 -2.57,19 -5.03,28.19 -0.12,0.44 -0.24,0.87 -0.35,1.31 2.6,0.2 5.21,0.42 7.81,0.66 5.75,0.54 11.49,1.19 17.22,1.96 -6.67,-15.26 -13.17,-29.76 -17.83,-39"
             style="fill:#64a730;fill-opacity:1;fill-rule:nonzero;stroke:none"
             id="path6618" />
          <path
             d="m 3860.88,2863.31 c 2.75,17.48 4.61,35.42 4.61,53.17 0.01,16.29 -1.55,32.42 -5.41,47.9 4.66,9.24 11.16,23.74 17.83,39 3.44,0.46 6.87,0.97 10.3,1.52 4.88,0.78 9.75,1.64 14.61,2.58 1.71,0.33 5.04,1.49 6.83,1.49 0.01,0 0.03,0 0.05,0 1.54,0.79 5.23,1.2 6.93,1.64 4.81,1.24 9.59,2.56 14.36,3.97 9.51,2.81 18.94,5.94 28.23,9.4 8.1,3.02 16.12,6.29 24.02,9.81 4.49,2.01 8.95,4.09 13.37,6.26 l 0.21,0.1 1.54,0.86 c 12.16,6.75 23.96,14.15 35.3,22.21 -12.12,-28.62 -25.68,-56.64 -40.6,-83.9 -26.75,-48.87 -62.7,-98.94 -116.61,-112.99 -5.13,-1.34 -10.33,-2.32 -15.57,-3.02 m 48.76,145.63 c -2.24,-0.26 -10.85,-2.51 -10.7,-2.51 0.05,0 0.95,0.22 3.14,0.78 2.48,0.56 4.96,1.12 7.45,1.67 l 0.11,0.06"
             style="fill:#5a9e32;fill-opacity:1;fill-rule:nonzero;stroke:none"
             id="path6620" />
        </g>
      </g>
      <path
         d="m 3534.4,3184.06 c -33.58,34.38 -86.2,45.64 -133.45,36.84 -47.24,-8.81 -89.58,-35.35 -125.52,-67.25 -15.01,-13.33 -29.19,-27.74 -40.87,-44.06 -44.48,-62.18 -48.06,-144.68 -39.24,-220.63 7.29,-62.84 24.28,-129.01 71.35,-171.29 13.2,-11.85 28.29,-21.36 43.73,-30.09 69.38,-39.21 147.18,-63.42 226.56,-70.52 16.94,-1.51 42.23,-2.53 58.85,1.11 20.73,4.54 46.24,9.47 64.84,19.69 45.91,25.22 69.98,32.82 112.3,63.67 42.33,30.86 74.61,90.98 84.52,142.41 7.7,39.98 12.46,83.77 1.93,123.1 -5.22,19.51 -10.9,39.13 -20.81,56.72 -23.24,41.29 -68.8,67.52 -115.86,72.95 -24.76,2.85 -49.92,0.34 -73.93,-6.16 -11.66,-3.16 -23.05,-7.27 -34.1,-12.17 -7.18,-3.18 -20.48,-14.2 -28.47,-10.11 -10.28,5.25 -14.2,48.51 -18.4,60 -7.51,20.5 -18.08,40.07 -33.43,55.79"
         style="fill:#91c723;fill-opacity:1;fill-rule:nonzero;stroke:none"
         id="path6622" />
      <g
         id="g6624">
        <g
           id="g6626"
           clip-path="url(#clipPath6630)">
          <path
             d="m 3619.18,2623.38 c 16.89,12 34.02,25.98 45.21,43.62 2.48,3.91 4.73,7.97 6.69,12.16 35.75,18.65 58.78,27.87 95.7,54.79 42.33,30.86 74.61,90.98 84.52,142.41 5.9,30.64 10.07,63.51 6.96,94.9 0.38,-1.41 0.76,-2.81 1.14,-4.22 4.36,-16.29 6.1,-33.34 6.09,-50.56 -0.01,-24.38 -3.51,-49.11 -8.02,-72.54 -9.91,-51.43 -42.19,-111.55 -84.52,-142.41 -42.32,-30.85 -66.39,-38.45 -112.3,-63.67 -11.99,-6.59 -26.87,-10.98 -41.47,-14.48"
             style="fill:#7db72a;fill-opacity:1;fill-rule:nonzero;stroke:none"
             id="path6632" />
          <path
             d="m 3415.9,2641.55 c -36.61,11.7 -72.04,27.12 -105.5,46.03 -15.44,8.73 -30.53,18.24 -43.73,30.09 -41.76,37.51 -59.84,93.83 -68.49,149.94 10.35,-44.76 28.63,-87.26 62.32,-117.52 13.19,-11.85 28.29,-21.36 43.73,-30.09 5.04,-2.84 10.12,-5.61 15.24,-8.3 v 0 c 28.26,-14.82 57.78,-27.22 88.14,-37.05 0.01,-5.03 0.47,-10.07 1.4,-15.02 2.34,-6.01 4.66,-12.03 6.89,-18.08"
             style="fill:#a6d344;fill-opacity:1;fill-rule:nonzero;stroke:none"
             id="path6634" />
        </g>
      </g>
      <path
         d="m 3615.78,3187.6 c -21.42,0 -42.84,1.09 -64.19,3.04 -0.65,15.98 0.52,32.39 1.29,48.08 1.09,22.01 3.07,43.83 6.81,65.36 30.3,-13.66 64.11,-22.95 96.63,-28.79 8.74,-1.57 17.55,-2.92 26.4,-4.03 3.78,-22.69 9.24,-45.19 15.27,-67.08 -1.37,4.97 -2.75,9.93 -4.13,14.89 2.23,-8.2 4.11,-16.31 5.87,-24.48 -6.68,-1.31 -13.39,-2.49 -20.12,-3.54 -21.2,-2.37 -42.51,-3.45 -63.83,-3.45 m 106.08,239.56 c -12.79,0 -25.59,0.66 -38.31,1.89 -16.77,1.62 -34.13,4.38 -49.96,9.99 0.05,0.03 0.09,0.06 0.13,0.09 8.05,5.75 17.21,12.04 26.24,15.69 9.06,3.64 18.91,5.96 28.27,8.52 2.79,0.76 6.14,1.15 9.76,1.15 17.17,0 40.67,-8.65 42.01,-26.74 0.26,-3.43 0.24,-6.8 -0.06,-10.14 -6.02,-0.3 -12.05,-0.45 -18.08,-0.45"
         style="fill:#8ac825;fill-opacity:1;fill-rule:nonzero;stroke:none"
         id="path6636" />
      <path
         d="m 3701.53,3131.7 c -31.18,0 -62.38,2.11 -93.36,5.76 -14.4,2.15 -28.68,4.75 -42.9,7.6 -1.28,6.68 -2.44,12.4 -3.62,15.62 -2.75,7.52 -5.91,14.92 -9.57,22.04 -0.22,2.62 -0.38,5.27 -0.49,7.92 21.35,-1.95 42.77,-3.04 64.19,-3.04 21.32,0 42.63,1.08 63.83,3.45 6.73,1.05 13.44,2.23 20.12,3.54 1.21,-5.62 2.36,-11.27 3.52,-17.01 3.24,-16.01 3.29,-30.8 -0.53,-45.88 -0.4,0 -0.79,0 -1.19,0"
         style="fill:#83c428;fill-opacity:1;fill-rule:nonzero;stroke:none"
         id="path6638" />
      <path
         d="m 3584.06,3099.79 c -0.72,0 -1.41,0.07 -2.08,0.21 -2.77,2.73 -5.38,5.61 -7.74,8.65 -3.96,9.27 -6.67,24.39 -8.97,36.41 14.22,-2.85 28.5,-5.45 42.9,-7.6 30.98,-3.65 62.18,-5.76 93.36,-5.76 0.4,0 0.79,0 1.19,0 -0.13,-0.5 -0.26,-1.01 -0.4,-1.52 -2.1,0.07 -4.2,0.11 -6.3,0.11 -18.01,0 -36,-2.61 -53.4,-7.33 -11.66,-3.16 -23.06,-7.27 -34.09,-12.16 -6.08,-2.7 -16.56,-11.01 -24.47,-11.01"
         style="fill:#7ebf29;fill-opacity:1;fill-rule:nonzero;stroke:none"
         id="path6640" />
      <path
         d="m 3738.46,3267.69 c -18.63,0 -37.28,1.26 -55.74,3.57 -2.63,15.81 -4.44,31.71 -5.06,47.58 0.16,5.34 0.5,10.66 1.16,15.98 0.14,1.08 1.17,6.13 1.54,8.68 0.14,0.37 0.28,0.74 0.43,1.1 1.17,3.03 2.63,5.9 3.94,8.86 0,0 0.01,0 0.01,0.01 3.56,4.86 7.19,9.51 11.18,14.01 0.16,0.13 0.33,0.27 0.52,0.43 2.39,1.99 4.8,4.04 7.12,6.12 4.43,3.98 8.45,8.42 12.57,12.71 0.69,0.74 1.38,1.48 2.09,2.22 9.12,8.37 16.59,16.16 19.91,28.49 0.91,3.37 1.51,6.75 1.81,10.16 3.49,0.17 6.98,0.39 10.46,0.67 13.92,1.09 27.34,3.83 40.69,3.83 8.61,0 17.18,-1.13 25.84,-4.59 35.35,-14.08 58.56,-56.38 54.91,-90.2 -4.38,-40.58 -42.64,-61.15 -84.07,-66.52 -16.33,-2.12 -32.81,-3.11 -49.31,-3.11 m -178.77,36.39 c -7.52,3.39 -14.82,7.05 -21.83,11 -5,2.81 -9.78,5.85 -14.27,9.15 7.21,23.83 19.37,49.97 39.42,76.61 17.78,23.62 37.24,41.25 56.9,54.36 0.04,-0.07 0.08,-0.14 0.11,-0.2 2.28,-4.19 4.08,-8.7 6.15,-13.05 l 0.33,-0.16 c 2.32,-0.99 4.69,-1.9 7.09,-2.75 -29.69,-21.25 -51.11,-52.99 -62.32,-87.56 -5.06,-15.61 -8.8,-31.43 -11.58,-47.4"
         style="fill:#90c740;fill-opacity:1;fill-rule:nonzero;stroke:none"
         id="path6642" />
      <path
         d="m 3523.59,3324.23 c -12.09,8.92 -22,19.74 -28.12,33.13 -8.54,18.69 -8.57,40.76 -1.12,59.79 10.6,27.11 42.33,68.15 78.23,68.15 7.38,0 14.94,-1.73 22.53,-5.68 10.79,-5.61 19.34,-14.42 24.8,-24.42 -19.66,-13.11 -39.12,-30.74 -56.9,-54.36 -20.05,-26.64 -32.21,-52.78 -39.42,-76.61"
         style="fill:#a1d446;fill-opacity:1;fill-rule:nonzero;stroke:none"
         id="path6644" />
      <path
         d="m 3682.72,3271.26 c -8.85,1.11 -17.66,2.46 -26.4,4.03 -32.52,5.84 -66.33,15.13 -96.63,28.79 2.78,15.97 6.52,31.79 11.58,47.4 11.21,34.57 32.63,66.31 62.32,87.56 15.83,-5.61 33.19,-8.37 49.96,-9.99 12.72,-1.23 25.52,-1.89 38.31,-1.89 6.03,0 12.06,0.15 18.08,0.45 -0.3,-3.41 -0.9,-6.79 -1.81,-10.16 -3.32,-12.33 -10.79,-20.12 -19.91,-28.49 -0.71,-0.74 -1.4,-1.48 -2.09,-2.22 -4.12,-4.29 -8.14,-8.73 -12.57,-12.71 -2.32,-2.08 -4.73,-4.13 -7.12,-6.12 -0.19,-0.16 -0.36,-0.3 -0.52,-0.43 -3.99,-4.5 -7.62,-9.15 -11.18,-14.01 0,-0.01 -0.01,-0.01 -0.01,-0.01 -1.31,-2.96 -2.77,-5.83 -3.94,-8.86 -0.15,-0.36 -0.29,-0.73 -0.43,-1.1 -0.37,-2.55 -1.4,-7.6 -1.54,-8.68 -0.66,-5.32 -1,-10.64 -1.16,-15.98 0.62,-15.87 2.43,-31.77 5.06,-47.58"
         style="fill:#a1d446;fill-opacity:1;fill-rule:nonzero;stroke:none"
         id="path6646" />
      <path
         d="m 3604.52,3402.16 c -10.37,-24.5 -27.87,-44.73 -36.48,-70.32 -4.08,-12.16 -7.12,-24.05 -8.04,-36.86 -1.03,-14.27 0.12,-27.64 -3.68,-41.41 -3.09,-11.21 -18.18,-15.69 -26.41,-6.97 -6.23,6.6 -10.02,11.95 -12.24,21.04 -1.99,8.16 -2.63,16.97 -2.21,25.37 0.87,17.37 5.73,34.72 12.81,50.53 12.12,27.05 36.45,58.45 64.26,70.6 8.35,3.64 15.49,-3.7 11.99,-11.98"
         style="fill:#ffffff;fill-opacity:1;fill-rule:nonzero;stroke:none"
         id="path6648" />
      <path
         d="m 3641.79,3463.26 c 0.79,-0.76 2.61,-3.27 3.24,-4.17 1.82,-3.13 2.73,-6.5 2.74,-10.12 -0.01,-3.61 -0.92,-6.98 -2.74,-10.1 l -0.11,-0.24 c -1.79,-3.02 -4.19,-5.42 -7.21,-7.21 -3.14,-1.81 -6.52,-2.73 -10.15,-2.74 -5.33,0.24 -10.37,2.04 -14.22,5.89 -1.96,1.82 -3.34,3.97 -4.15,6.47 -1.26,2.39 -1.83,4.97 -1.73,7.74 0,7.29 3.91,13.51 9.96,17.35 2.83,1.81 4.68,2.12 7.65,2.52 1.78,0.48 3.56,0.48 5.33,0 0.91,-0.1 1.83,-0.23 2.74,-0.37 -1.76,0.24 -3.51,0.47 -5.26,0.7 5.25,0.06 10.17,-2.09 13.91,-5.72"
         style="fill:#ffffff;fill-opacity:1;fill-rule:nonzero;stroke:none"
         id="path6650" />
      <path
         d="m 3528.23,3216.48 c -33.59,34.38 -86.21,45.63 -133.45,36.83 -47.25,-8.79 -89.58,-35.34 -125.52,-67.25 -15.02,-13.32 -29.19,-27.73 -40.87,-44.05 -44.49,-62.18 -48.06,-144.68 -39.25,-220.62 7.3,-62.85 24.29,-129.02 71.36,-171.3 13.19,-11.85 28.29,-21.36 43.73,-30.09 69.38,-39.2 147.18,-63.42 226.55,-70.52 16.95,-1.51 42.24,-2.53 58.86,1.11 20.72,4.55 46.24,9.47 64.84,19.68 45.9,25.22 69.98,32.83 112.3,63.68 42.33,30.86 74.61,90.98 84.52,142.41 7.7,39.98 12.45,83.77 1.93,123.09 -5.23,19.51 -10.91,39.13 -20.81,56.73 -23.25,41.29 -68.8,67.52 -115.86,72.95 -24.77,2.85 -49.92,0.34 -73.94,-6.17 -11.66,-3.16 -23.06,-7.27 -34.09,-12.16 -7.18,-3.19 -20.48,-14.19 -28.47,-10.12 -10.28,5.25 -14.21,48.52 -18.41,60 -7.51,20.51 -18.07,40.08 -33.42,55.8"
         style="fill:#f9fceb;fill-opacity:1;fill-rule:nonzero;stroke:none"
         id="path6652" />
      <path
         d="m 3518.01,2889.9 0.34,-0.2 -0.34,0.2 m -74.6,37.24 c 5.48,-6.53 16.17,-17.85 19.06,-27.8 6.15,-21.11 30.42,-36.04 46.81,-23.28 4.65,3.63 21.08,14.19 22.25,14.29 5.39,0.48 10.66,1.28 15.75,2.87 19.31,6.04 35.3,18.71 43.78,34.81 9.59,18.22 -1.07,52.24 -7.6,71.35 -3.19,9.35 1.71,41.34 -0.38,53.78 -1.51,8.99 -12.89,15.33 -22.34,16.55 -9.41,1.22 -27.82,-7.07 -32.27,-14.09 -4.84,-7.62 -19.92,-18.53 -27.28,-24.59 -6.4,-5.27 -13.88,-9.34 -21.13,-13.69 -16.57,-9.96 -32.47,-21.03 -41.18,-37.17 -9.5,-17.59 -8.89,-37.03 4.53,-53.03"
         style="fill:#edf3a9;fill-opacity:1;fill-rule:nonzero;stroke:none"
         id="path6654" />
      <path
         d="m 3511.52,2871.34 0.13,0.28 -0.13,-0.28"
         style="fill:#ee2c21;fill-opacity:1;fill-rule:nonzero;stroke:none"
         id="path6656" />
      <g
         id="g6658">
        <g
           id="g6660"
           clip-path="url(#clipPath6664)">
          <path
             d="m 3559.35,3106.48 c -16.48,23.85 -31.66,47.78 -53.66,67.17 -20.84,18.35 -44.93,30.52 -71.66,36.66 -54.19,12.46 -110.48,-14.2 -148.65,-56.3 -43.63,-48.14 -59.58,-115.42 -62.24,-178.94 -2.92,-69.65 2.43,-143.56 44.12,-201.88 22.63,-31.67 50.88,-60.58 78.32,-88.08 13.61,-13.65 28.85,-26.08 41.44,-40.68 13.17,-15.28 28.35,-28.71 39.64,-45.5 4.8,-7.12 -1.42,-19.38 -10.49,-18.29 -39.62,4.75 -74.54,31.5 -102.3,58.56 -28.22,27.52 -55.59,56.85 -80.09,87.76 -26.68,33.66 -46.12,70.38 -55.42,112.58 -8.86,40.22 -11.49,82.39 -10.73,123.51 1.47,78.87 20.03,158.52 70.67,220.71 45.52,55.91 117.45,92.67 190.35,82.67 39.48,-5.41 75.22,-24.36 104.35,-51.29 28.18,-26.03 51.57,-62.15 54.27,-101.1 1.1,-16 -20.19,-18.75 -27.92,-7.56"
             style="fill:#eef6b5;fill-opacity:1;fill-rule:nonzero;stroke:none"
             id="path6666" />
          <path
             d="m 3560.65,3108.22 c 8.04,15.77 24.38,28.69 39.2,38.16 15.84,10.12 35.71,15.05 54.12,17.74 38.25,5.57 75.57,0.06 110.58,-16.33 31.86,-14.92 59.57,-39.98 77.91,-69.96 21.35,-34.88 27.61,-76.53 29.9,-116.68 2.6,-45.65 -7.24,-86.7 -26.37,-127.91 -16.12,-34.71 -36.46,-67.91 -63.4,-95.33 -50.91,-51.81 -121.67,-81.68 -192.65,-92.76 -47.7,-7.45 -95.82,-7.78 -143.85,-3.66 -25.14,2.15 -50.18,5.4 -75.15,9 -25.3,3.65 -50.97,5.34 -68.64,26.05 -6.3,7.38 -5.76,18.37 3.06,23.69 19.26,11.63 38.43,9.55 59.89,6.25 18.6,-2.86 37.22,-5.5 55.94,-7.58 38.32,-4.27 76.97,-6.51 115.51,-4.44 62.34,3.34 124.9,20.15 176.51,56.27 24.47,17.12 44.86,39.5 60.75,64.69 18.42,29.21 35.11,62.18 41.54,96.33 6.26,33.25 2.51,72.18 -6.37,104.7 -7.44,27.19 -22.66,50.32 -44.62,67.25 -24.8,19.1 -54.71,28.1 -86.51,27.91 -17.26,-0.1 -33.44,-3.7 -50.02,-8.18 -8.97,-2.42 -18.4,-3.28 -27.2,-6.16 -8.85,-2.9 -16.56,-6.1 -25.79,-7.71 -10.98,-1.91 -19.61,8.3 -14.34,18.66"
             style="fill:#e5f193;fill-opacity:1;fill-rule:nonzero;stroke:none"
             id="path6668" />
        </g>
      </g>
      <path
         d="m 3495.6,2961.82 c -8.12,-5.86 -19.44,-4.03 -25.3,4.09 -5.86,8.12 -4.03,19.45 4.09,25.3 8.11,5.86 38.84,5.68 38.84,5.68 0,0 -9.51,-29.21 -17.63,-35.07"
         style="fill:#703818;fill-opacity:1;fill-rule:nonzero;stroke:none"
         id="path6670" />
      <path
         d="m 3494.52,2969.73 c -2.96,-2.88 -7.7,-2.83 -10.59,0.12 -2.88,2.96 -2.83,7.69 0.13,10.58 2.96,2.89 15.5,4.69 15.5,4.69 0,0 -2.1,-12.5 -5.04,-15.39"
         style="fill:#9a481d;fill-opacity:1;fill-rule:nonzero;stroke:none"
         id="path6672" />
      <path
         d="m 3487.31,2967.9 c -1.8,-1.3 -4.32,-0.89 -5.62,0.91 -1.31,1.8 -0.9,4.32 0.91,5.62 1.8,1.31 4.32,0.9 5.62,-0.9 1.31,-1.81 0.9,-4.33 -0.91,-5.63"
         style="fill:#ffffff;fill-opacity:1;fill-rule:nonzero;stroke:none"
         id="path6674" />
      <path
         d="m 3566.96,2953.98 c 0.51,-10 -7.19,-18.52 -17.19,-19.02 -10,-0.51 -18.52,7.18 -19.02,17.18 -0.51,10 16.33,35.69 16.33,35.69 0,0 19.37,-23.86 19.88,-33.85"
         style="fill:#703818;fill-opacity:1;fill-rule:nonzero;stroke:none"
         id="path6676" />
      <path
         d="m 3559.72,2957.36 c 0.82,-4.05 -1.8,-8 -5.85,-8.82 -4.05,-0.81 -8,1.81 -8.82,5.85 -0.82,4.06 4.49,15.57 4.49,15.57 0,0 9.36,-8.55 10.18,-12.6"
         style="fill:#9a481d;fill-opacity:1;fill-rule:nonzero;stroke:none"
         id="path6678" />
      <path
         d="m 3557.35,2950.32 c 0.11,-2.22 -1.6,-4.11 -3.82,-4.23 -2.23,-0.11 -4.12,1.6 -4.23,3.82 -0.12,2.22 1.59,4.12 3.82,4.23 2.22,0.11 4.11,-1.6 4.23,-3.82"
         style="fill:#ffffff;fill-opacity:1;fill-rule:nonzero;stroke:none"
         id="path6680" />
      <path
         d="m 3502.94,2912.3 c -1.43,0 -2.76,0.75 -3.09,2.51 -2.59,13.77 2.22,28.33 6.09,41.5 4.36,14.8 9.85,29.1 16.32,43.11 3.07,6.65 6.58,13.1 8.76,20.12 2.2,7.05 3.18,14.43 5.57,21.44 3.22,9.49 9.35,20.5 20.42,20.5 0.54,0 1.08,-0.03 1.65,-0.08 2.18,-0.21 4.43,-2.22 3.55,-4.68 -3.95,-11.01 -9.68,-20.28 -12.45,-31.91 -2.89,-12.12 -7.68,-22.68 -12.81,-33.98 -5.75,-12.65 -10.72,-25.74 -15.29,-38.86 -4.38,-12.59 -7.13,-27.23 -15.26,-38.02 -0.79,-1.03 -2.16,-1.65 -3.46,-1.65"
         style="fill:#f9fadc;fill-opacity:1;fill-rule:nonzero;stroke:none"
         id="path6682" />
      <path
         d="m 3490.46,2751.1 c -4.28,0 -8.54,0.49 -12.73,1.66 -9.13,2.56 -15.12,10.96 -15.42,20.25 -0.21,6.57 1.32,13.03 3.96,19.19 4.74,1.67 10.27,2.77 13.91,3.67 6.8,1.68 13.15,2.62 20.09,2.62 0.41,0 0.82,-0.01 1.24,-0.01 20.53,-0.34 40.46,-6.84 60.76,-9.47 5.97,-0.77 11.96,-1.15 17.95,-1.15 61.3,0 121.36,39.61 141.22,98.82 23.46,69.95 -29.07,146.37 -86.02,182.62 -1.28,0.82 -2.63,1.18 -3.94,1.18 -5.67,0 -10.67,-6.77 -7.2,-12.32 23.14,-36.9 56.64,-64.86 66.84,-109.09 9.28,-40.34 -11.41,-77.4 -45.92,-98.15 -14.6,-8.78 -30.97,-14.24 -47.84,-16.63 -4.41,-0.62 -8.77,-0.89 -13.08,-0.89 -15.68,0 -30.87,3.56 -46.46,6.67 -7.88,1.58 -15.8,2.94 -23.73,3.7 6.11,4.23 12.42,8.12 18.76,11.57 18.04,9.8 36.96,16.53 57.01,20.46 3.94,0.77 7.87,1.65 11.82,2.34 4.76,0.84 9.6,1.44 14.41,2.04 -1,0.01 8.39,1.48 10.62,1.98 4.44,0.99 8.83,2.16 13.17,3.51 0.71,0.23 2.52,0.88 4.31,1.52 2.06,1.03 5.59,2.7 6.61,3.28 1.7,0.96 3.31,2.02 4.92,3.08 1.26,1.33 3.29,2.63 4.4,3.73 0.77,0.77 1.91,2.28 2.98,3.49 1.01,1.74 2.06,3.5 3.16,5.08 0.2,0.67 0.39,1.35 0.57,2.03 -0.43,2.59 0.26,10.18 0.21,11.67 -0.02,1.03 -0.46,3.42 -0.6,4.12 0.09,-0.4 0.3,-1.47 0.74,-3.57 0.53,-2.51 0.78,-3.52 0.84,-3.52 0.12,0 -0.48,3.86 -1.12,7.72 -0.35,2.14 -0.71,4.28 -0.97,5.77 0.1,-0.32 0.19,-0.64 0.29,-0.98 -0.53,1.8 -0.61,3.93 -0.93,5.79 -0.79,4.49 -1.71,8.96 -2.83,13.38 -0.95,3.74 -1.98,7.49 -3.08,11.19 -0.33,1.09 -0.76,2.2 -1.13,3.31 -1.5,2.66 -3.9,7.69 -4.33,8.45 -0.08,0.13 -0.19,0.32 -0.33,0.53 -0.57,0.65 -1.1,1.27 -1.36,1.56 -13.56,14.78 -30.32,28.71 -35.7,48.62 -1.77,6.57 -4.64,12.82 -6.29,19.38 -3.2,12.78 2.05,23.47 14.01,28.51 2.11,0.89 4.31,1.23 6.53,1.23 2.71,0 5.44,-0.5 8.05,-1.15 1.01,-0.25 4.87,-1.47 5.96,-1.93 1.22,0.12 5.59,0.13 7.02,0.27 1.9,0.19 3.78,0.29 5.65,0.29 4.69,0 9.3,-0.62 13.98,-1.99 18.55,-5.42 36.44,-13.35 51.74,-25.16 37.91,-29.3 59.63,-78.42 60.88,-125.98 1.33,-50.83 -26.78,-94.65 -68.05,-122.2 -31.04,-20.73 -69.45,-29.29 -106.63,-29.29 -6.3,0 -12.57,0.24 -18.76,0.72 -8.52,0.65 -16.83,1.75 -25.33,1.75 -1.48,0 -2.97,-0.04 -4.47,-0.11 -1.89,-0.09 -3.77,-0.27 -5.65,-0.39 -0.22,-0.01 -0.42,-0.02 -0.61,-0.03 -0.14,-0.04 -0.28,-0.08 -0.44,-0.12 -4.4,-1.11 -8.92,-1.74 -13.33,-2.85 -15.95,-4.02 -33.36,-11.77 -50.33,-11.77 m 176.46,156.37 c 0.04,-0.17 0.1,-0.3 0.19,-0.39 -0.07,0.07 -0.14,0.21 -0.19,0.39 m 1.32,6.39 c -0.19,0 -1.44,-3.96 -1.38,-5.87 0.2,0.76 0.39,1.53 0.6,2.29 0.7,2.63 0.87,3.58 0.78,3.58 m -8.96,47.32 c 0.04,-0.05 0.08,-0.07 0.12,-0.07 -0.03,0 -0.07,0.02 -0.12,0.07 m 7.16,-37.51 c -0.02,0.14 -0.03,0.2 -0.03,0.2 0,0 0.01,-0.07 0.03,-0.2 m -0.51,6.4 c -1.37,4.68 -1.64,6.33 -1.49,6.33 0.17,0 0.9,-2.16 1.15,-4.39 0,0.01 0,0.01 0,0.01 0.01,0 0.14,-0.76 0.34,-1.95"
         style="fill:#fbfdf4;fill-opacity:1;fill-rule:nonzero;stroke:none"
         id="path6684" />
      <path
         d="m 3368.06,2759.23 c -13.81,0 -27.52,5.22 -37.35,15.51 -10.43,10.9 -13.61,24.07 -16.82,38.09 -0.8,3.52 -1.62,7.07 -2.54,10.56 -0.32,1.22 -1.31,3.56 -1.72,4.65 -1.54,2.81 -3.21,5.55 -4.96,8.23 -0.85,1.29 -3.53,4.6 -3.43,4.6 0.02,0 0.14,-0.12 0.41,-0.42 -5.17,5.96 -10.51,11.72 -16.05,17.36 -24.38,24.79 -48.19,49.53 -63.09,80.63 -0.14,12.27 0.12,24.51 0.63,36.63 1.76,42.1 9.36,85.86 27,124.6 30.07,36.69 71.76,56.96 118.12,68.04 17.02,4.07 38.86,8.08 60.26,8.08 30.9,0 60.89,-8.34 74.17,-36.86 3.09,-6.63 3.63,-14.42 1.45,-21.12 -7.34,2.16 -14.99,3.42 -22.59,4.07 -3.18,0.27 -6.39,0.39 -9.61,0.39 -15.99,0 -32.34,-3.09 -47.55,-7.12 -31.8,-8.42 -70.25,-24.16 -91.9,-49.96 -22.98,-27.4 -33.07,-67.21 -27.08,-102.41 6.1,-35.78 33.69,-59.8 59.04,-82.99 11.38,-10.43 23.22,-20.95 30.45,-34.84 3.33,-6.39 5.14,-13.52 5.9,-20.68 0.52,-4.85 2.87,-12.74 2.22,-17.15 -1.06,-7.27 4.12,-13.11 10.18,-13.11 2.33,0 4.78,0.86 7.07,2.82 -5.32,-12.32 -14.06,-23.85 -25.25,-30.39 -8.25,-4.83 -17.63,-7.21 -26.96,-7.21"
         style="fill:#fbfdf2;fill-opacity:1;fill-rule:nonzero;stroke:none"
         id="path6686" />
      <path
         d="m 3222.51,2938.44 c -2.93,6.13 -5.52,12.51 -7.7,19.18 -14.68,44.93 1.72,95.72 28.34,132.92 2.25,3.15 4.58,6.19 6.99,9.13 -17.64,-38.74 -25.24,-82.5 -27,-124.6 -0.51,-12.12 -0.77,-24.36 -0.63,-36.63"
         style="fill:#f3f8c9;fill-opacity:1;fill-rule:nonzero;stroke:none"
         id="path6688" />
      <path
         d="m 3450.3,2785.37 c -7.9,0 -15.39,6.37 -12.58,15.82 2.66,8.98 4.5,17.03 11.31,24.08 6.78,7.03 16.3,12.3 25.54,15.2 8.98,2.82 18.05,3.91 27.15,3.91 4.12,0 8.24,-0.22 12.37,-0.61 -9.12,-6.32 -17.79,-13.41 -25.47,-20.98 -8.43,-8.29 -17.36,-18.91 -22.35,-30.59 -2.77,-0.98 -5.27,-2.15 -6.96,-3.58 -2.65,-2.24 -5.86,-3.25 -9.01,-3.25"
         style="fill:#f4f8c9;fill-opacity:1;fill-rule:nonzero;stroke:none"
         id="path6690" />
      <path
         d="m 3580.22,2787.86 c -5.99,0 -11.98,0.38 -17.95,1.15 -20.3,2.63 -40.23,9.13 -60.76,9.47 -0.42,0 -0.83,0.01 -1.24,0.01 -6.94,0 -13.29,-0.94 -20.09,-2.62 -3.64,-0.9 -9.17,-2 -13.91,-3.67 4.99,11.68 13.92,22.3 22.35,30.59 7.68,7.57 16.35,14.66 25.47,20.98 7.93,-0.76 15.85,-2.12 23.73,-3.7 15.59,-3.11 30.78,-6.67 46.46,-6.67 4.31,0 8.67,0.27 13.08,0.89 16.87,2.39 33.24,7.85 47.84,16.63 34.51,20.75 55.2,57.81 45.92,98.15 -10.2,44.23 -43.7,72.19 -66.84,109.09 -3.47,5.55 1.53,12.32 7.2,12.32 1.31,0 2.66,-0.36 3.94,-1.18 56.95,-36.25 109.48,-112.67 86.02,-182.62 -19.86,-59.21 -79.92,-98.82 -141.22,-98.82"
         style="fill:#f5f9cd;fill-opacity:1;fill-rule:nonzero;stroke:none"
         id="path6692" />
      <path
         d="m 3420.27,2796.83 c 1.79,4.15 3.19,8.4 4.17,12.57 6.54,27.96 -2.01,56.62 -16.33,80.77 -18.76,31.66 -47.41,55.87 -71.77,82.98 -1.2,1.84 -2.55,3.61 -3.73,5.47 -1.98,3.13 -3.51,6.65 -5.55,9.72 l -0.69,1.97 c -0.7,2.33 -0.93,5.37 -1.56,7.99 0.05,0.86 0.09,1.73 0.1,2.59 0.4,1.55 0.66,3.17 1.09,4.69 0.4,1.46 4.11,9.71 3.9,11.32 0.53,1.12 1.06,2.24 1.61,3.35 2.08,4.21 4.28,8.37 6.72,12.39 0.94,1.54 2.09,3.02 2.98,4.58 2.32,2.4 4.5,4.9 6.99,7.16 l 1.73,1.5 c 0.33,0.23 0.65,0.46 0.96,0.69 14.96,9.52 29.83,19.09 45.81,26.84 2.77,1.34 5.57,2.58 8.36,3.86 3.66,1.48 7.3,3.02 10.99,4.41 8.4,3.18 16.95,6.02 25.63,8.33 15.52,4.14 30.71,9.34 46.39,12.99 8.5,1.97 13.79,7.78 16.07,14.81 1.38,-0.4 2.75,-0.83 4.1,-1.3 10.1,-3.5 16.57,-8.57 24.37,-15.54 5.72,-5.11 1.93,-16.92 -5.96,-16.92 -0.33,0 -0.67,0.02 -1.02,0.06 -8.43,1.06 -16.72,1.58 -24.87,1.58 -28.92,0 -56.3,-6.59 -83.53,-19.42 -16.35,-7.7 -35.38,-16.34 -47.01,-30.69 -10.37,-12.79 -14.91,-31.67 -16.13,-47.77 -2.92,-38.7 33.64,-60.42 55.72,-86.75 12.81,-15.27 23.61,-31.99 27.19,-51.95 1.76,-9.9 2.36,-19.86 -0.1,-29.73 -2.67,-10.7 -8.66,-15.5 -16.46,-22.4 -0.05,-0.05 -0.11,-0.1 -0.17,-0.15 m -91.42,186.42 -1.01,2.89 c 0.72,-1.44 1.3,-2.75 1.01,-2.89 m -4.25,10.59 c 0,0 0,0.3 0.03,1.01 0,-0.61 -0.02,-1.01 -0.03,-1.01 m 2.42,16.86 c -0.04,0 0.43,1.07 1.88,4.09 0.29,0.6 0.57,1.21 0.86,1.81 -0.48,-1.51 -2.66,-5.9 -2.74,-5.9 m 20.28,33.5 c -0.05,0 0.71,0.53 2.96,1.96 l -0.33,-0.28 c -1.28,-0.89 -2.57,-1.68 -2.63,-1.68 m 2.96,1.96 2.28,1.98 c -0.03,-0.28 -0.75,-0.91 -1.65,-1.57 -0.03,-0.02 -0.06,-0.04 -0.09,-0.06 -0.19,-0.12 -0.37,-0.23 -0.54,-0.35"
         style="fill:#f4f8c9;fill-opacity:1;fill-rule:nonzero;stroke:none"
         id="path6694" />
      <path
         d="m 3413.2,2794.01 c -6.06,0 -11.24,5.84 -10.18,13.11 0.65,4.41 -1.7,12.3 -2.22,17.15 -0.76,7.16 -2.57,14.29 -5.9,20.68 -7.23,13.89 -19.07,24.41 -30.45,34.84 -25.35,23.19 -52.94,47.21 -59.04,82.99 -5.99,35.2 4.1,75.01 27.08,102.41 21.65,25.8 60.1,41.54 91.9,49.96 15.21,4.03 31.56,7.12 47.55,7.12 3.22,0 6.43,-0.12 9.61,-0.39 7.6,-0.65 15.25,-1.91 22.59,-4.07 -2.28,-7.03 -7.57,-12.84 -16.07,-14.81 -15.68,-3.65 -30.87,-8.85 -46.39,-12.99 -8.68,-2.31 -17.23,-5.15 -25.63,-8.33 -3.69,-1.39 -7.33,-2.93 -10.99,-4.41 -2.79,-1.28 -5.59,-2.52 -8.36,-3.86 -15.98,-7.75 -30.85,-17.32 -45.81,-26.84 0.9,0.66 1.62,1.29 1.65,1.57 l -2.28,-1.98 c -2.25,-1.43 -3.01,-1.96 -2.96,-1.96 0.06,0 1.35,0.79 2.63,1.68 l -1.73,-1.5 c -2.49,-2.26 -4.67,-4.76 -6.99,-7.16 -0.89,-1.56 -2.04,-3.04 -2.98,-4.58 -2.44,-4.02 -4.64,-8.18 -6.72,-12.39 -0.55,-1.11 -1.08,-2.23 -1.61,-3.35 0.21,-1.61 -3.5,-9.86 -3.9,-11.32 -0.43,-1.52 -0.69,-3.14 -1.09,-4.69 -0.01,-0.86 -0.05,-1.73 -0.1,-2.59 0.63,-2.62 0.86,-5.66 1.56,-7.99 l 0.69,-1.97 c 2.04,-3.07 3.57,-6.59 5.55,-9.72 1.18,-1.86 2.53,-3.63 3.73,-5.47 24.36,-27.11 53.01,-51.32 71.77,-82.98 14.32,-24.15 22.87,-52.81 16.33,-80.77 -0.98,-4.17 -2.38,-8.42 -4.17,-12.57 -2.29,-1.96 -4.74,-2.82 -7.07,-2.82 m -85.36,192.13 1.01,-2.89 c 0.29,0.14 -0.29,1.45 -1.01,2.89 m -3.21,8.71 c -0.03,-0.71 -0.03,-1.01 -0.03,-1.01 0.01,0 0.03,0.4 0.03,1.01 m 5.13,21.75 c -0.29,-0.6 -0.57,-1.21 -0.86,-1.81 -1.45,-3.02 -1.92,-4.09 -1.88,-4.09 0.08,0 2.26,4.39 2.74,5.9 m 20.17,29.28 0.33,0.28 c 0.17,0.12 0.35,0.23 0.54,0.35 0.03,0.02 0.06,0.04 0.09,0.06 -0.31,-0.23 -0.63,-0.46 -0.96,-0.69"
         style="fill:#f5f9cc;fill-opacity:1;fill-rule:nonzero;stroke:none"
         id="path6696" />
      <path
         d="m 3319.34,2772.72 c -19.33,15.91 -35.98,34.02 -48.79,55.68 -7.65,12.92 -29.16,51.34 -11.74,64.02 16.19,11.8 29.67,-31.24 34.12,-40.16 11.4,-22.87 24.75,-44.94 42.22,-63.73 9.97,-10.72 -4.84,-24.83 -15.81,-15.81"
         style="fill:#ffffff;fill-opacity:1;fill-rule:nonzero;stroke:none"
         id="path6698" />
      <path
         d="m 3573.7,3096.73 c 3.95,15.2 10.71,29.04 15.88,43.83 5.36,15.26 8.68,31.19 10.3,47.27 1.63,16.06 1.44,32.43 -1.07,48.39 -2.2,14.04 -9.61,28.87 -5.74,43.02 0.88,3.24 4.88,5 7.81,3.18 14.17,-8.84 16.65,-28.81 19.03,-44.17 2.77,-17.91 3.39,-36.04 1.43,-54.07 -3.53,-32.3 -14.67,-71.89 -42.22,-91.62 -2.74,-1.96 -6.18,1.27 -5.42,4.17"
         style="fill:#703818;fill-opacity:1;fill-rule:nonzero;stroke:none"
         id="path6700" />
    </g>
  </g>
</svg>
