<?xml version="1.0" encoding="UTF-8" standalone="no"?>
<!-- Created with Inkscape (http://www.inkscape.org/) -->

<svg
   width="340"
   height="340"
   viewBox="0 0 89.958331 89.958333"
   version="1.1"
   id="svg76533"
   inkscape:version="1.2.2 (732a01da63, 2022-12-09)"
   sodipodi:docname="fruit_11.svg"
   xmlns:inkscape="http://www.inkscape.org/namespaces/inkscape"
   xmlns:sodipodi="http://sodipodi.sourceforge.net/DTD/sodipodi-0.dtd"
   xmlns="http://www.w3.org/2000/svg"
   xmlns:svg="http://www.w3.org/2000/svg">
  <sodipodi:namedview
     id="namedview76535"
     pagecolor="#ffffff"
     bordercolor="#000000"
     borderopacity="0.25"
     inkscape:showpageshadow="2"
     inkscape:pageopacity="0.0"
     inkscape:pagecheckerboard="0"
     inkscape:deskcolor="#d1d1d1"
     inkscape:document-units="mm"
     showgrid="false"
     inkscape:zoom="1.4912879"
     inkscape:cx="272.2479"
     inkscape:cy="267.88926"
     inkscape:window-width="1346"
     inkscape:window-height="1040"
     inkscape:window-x="84"
     inkscape:window-y="16"
     inkscape:window-maximized="0"
     inkscape:current-layer="layer1" />
  <defs
     id="defs76530">
    <clipPath
       clipPathUnits="userSpaceOnUse"
       id="clipPath20">
      <path
         d="m 2578.7,4156.57 c 3.86,-0.95 18.76,-22.43 20.55,-25.98 13.7,-27.05 23.93,-47.07 7.03,-72.24 -9.69,-14.46 -38.87,-19.4 -56.29,-19.7 -160.57,-2.77 -242.89,-63.69 -270.19,-161.84 -10.82,-38.92 -26.73,-135.1 17.24,-229.61 10.14,-21.81 24.97,-41.3 41.17,-59.06 60,-65.76 155.63,-84.12 244.54,-88.77 65.92,-3.44 117.82,4.52 186.78,53.77 37.5,26.78 77.4,72.71 92.88,129.47 21.36,78.35 37.99,170.28 -40.81,274.42 -65.03,85.92 -106.66,39.75 -98.51,87.24 6.9,40.24 47.8,56.96 85.84,71.78 -6.46,3 -10.05,3.46 -16.91,5.37 -6.41,1.78 -13.05,3.08 -19.7,2.63 -10.91,-0.73 -5.36,0.73 -14.98,-4.49 -0.23,20.41 -3.53,38.7 -8.28,58.56 -21.08,-14.68 -55.55,-46.15 -56.3,-43.13 -5.98,23.97 -18.98,46.14 -36.97,63.06 -3.46,-15.19 -6.76,-32.3 -10.24,-47.5 -1.76,-7.71 -7.08,-19.14 -8.28,-17.46 -7.38,10.46 -16.3,20.39 -27.99,25.62 -11.69,5.22 -34.45,-1.19 -30.58,-2.14"
         id="path18" />
    </clipPath>
    <clipPath
       clipPathUnits="userSpaceOnUse"
       id="clipPath66">
      <path
         d="m 2183.42,4196.03 c -4.32,-1.07 -20.97,-25.09 -22.98,-29.06 -15.32,-30.24 -26.75,-52.63 -7.87,-80.78 10.85,-16.16 43.48,-21.69 62.95,-22.03 179.55,-3.09 271.61,-71.21 302.13,-180.96 12.11,-43.53 29.9,-151.07 -19.27,-256.77 -11.33,-24.38 -27.92,-46.17 -46.04,-66.04 -67.09,-73.53 -174.03,-94.07 -273.44,-99.26 -73.72,-3.85 -131.76,5.06 -208.87,60.13 -41.93,29.95 -86.55,81.3 -103.86,144.78 -23.89,87.61 -42.48,190.41 45.64,306.85 72.71,96.09 119.27,44.46 110.15,97.56 -7.72,45 -53.45,63.69 -95.99,80.26 7.22,3.37 11.23,3.88 18.91,6.01 7.17,1.99 14.6,3.45 22.03,2.94 12.2,-0.82 5.99,0.82 16.75,-5.02 0.25,22.82 3.95,43.28 9.27,65.48 23.56,-16.41 62.1,-51.6 62.95,-48.23 6.68,26.81 21.21,51.6 41.33,70.52 3.88,-16.99 7.56,-36.12 11.45,-53.11 1.97,-8.63 7.93,-21.41 9.26,-19.52 8.26,11.68 18.23,22.79 31.3,28.63 13.07,5.84 38.52,-1.32 34.2,-2.38"
         id="path64" />
    </clipPath>
    <clipPath
       clipPathUnits="userSpaceOnUse"
       id="clipPath80">
      <path
         d="m 2476.92,3532.09 c 41.57,58.08 99.46,104.34 165.27,132.08 74.88,31.57 139.95,63.9 217.95,86.73 25.58,7.49 68.63,24.35 80.79,0.64 6.62,-12.92 -5.55,-42.41 -10.07,-56.21 -40.93,-124.85 -152.83,-223.67 -281.78,-248.85 -54.02,-10.54 -109.56,-8.96 -164.56,-7.34 -26.65,0.78 -61.2,8.41 -63.94,34.93 23.44,22.41 37.47,31.66 56.34,58.02"
         id="path78" />
    </clipPath>
    <clipPath
       clipPathUnits="userSpaceOnUse"
       id="clipPath92">
      <path
         d="m 2263.81,3573.12 c -33.26,-30.23 -90.52,-38.83 -134.99,-32.35 -44.48,6.48 -85.46,29.89 -117.61,61.3 -76.18,74.45 -86.08,207.64 -45.19,305.98 15.53,37.34 42.85,73.47 81.45,88.54 27.09,10.57 65.71,25.61 90.63,6.06 13.37,-10.49 13.56,-27.62 11.09,-44.44 -2.47,-16.82 -7.37,-33.1 -16.17,-47.64 -22.97,-37.94 -9.4,-52.61 -8.68,-66.23 1.49,-28.34 12.17,-48.38 20.64,-75.48 3,-0.06 -2.53,42.27 5.01,55.85 14.97,26.95 20.17,24.86 23.96,39.94 4.93,19.56 1.97,23.16 7.91,42.44 5.21,16.88 23.8,26.66 29.93,43.24 3.24,8.77 3.2,50.18 9.14,57.41 6.22,7.58 17.11,8.98 26.9,9.66 47.96,3.35 103.67,-17 144.77,-41.93 37.79,-22.93 62.62,-65.36 74.88,-107.83 12.26,-42.47 26.01,-66.41 4.99,-155.75 -23.96,-101.84 -38.94,-111.82 -95.85,-143.77 -34.05,-19.12 -99.83,-20.96 -112.81,5"
         id="path90" />
    </clipPath>
    <clipPath
       clipPathUnits="userSpaceOnUse"
       id="clipPath1218">
      <path
         d="m 2183.42,4196.03 c -4.32,-1.07 -20.97,-25.09 -22.98,-29.06 -15.32,-30.24 -26.75,-52.63 -7.87,-80.78 10.85,-16.16 43.48,-21.69 62.95,-22.03 179.55,-3.09 271.61,-71.21 302.13,-180.96 12.11,-43.53 29.9,-151.07 -19.27,-256.77 -11.33,-24.38 -27.92,-46.17 -46.04,-66.04 -67.09,-73.53 -174.03,-94.07 -273.44,-99.26 -73.72,-3.85 -131.76,5.06 -208.87,60.13 -41.93,29.95 -86.55,81.3 -103.86,144.78 -23.89,87.61 -42.48,190.41 45.64,306.85 72.71,96.09 119.27,44.46 110.15,97.56 -7.72,45 -53.45,63.69 -95.99,80.26 7.22,3.37 11.23,3.88 18.91,6.01 7.17,1.99 14.6,3.45 22.03,2.94 12.2,-0.82 5.99,0.82 16.75,-5.02 0.25,22.82 3.95,43.28 9.27,65.48 23.56,-16.41 62.1,-51.6 62.95,-48.23 6.68,26.81 21.21,51.6 41.33,70.52 3.88,-16.99 7.56,-36.12 11.45,-53.11 1.97,-8.63 7.93,-21.41 9.26,-19.52 8.26,11.68 18.23,22.79 31.3,28.63 13.07,5.84 38.52,-1.32 34.2,-2.38"
         id="path1216" />
    </clipPath>
    <clipPath
       clipPathUnits="userSpaceOnUse"
       id="clipPath1242">
      <path
         d="m 2578.7,4156.57 c 3.86,-0.95 18.76,-22.43 20.55,-25.98 13.7,-27.05 23.93,-47.07 7.03,-72.24 -9.69,-14.46 -38.87,-19.4 -56.29,-19.7 -160.57,-2.77 -242.89,-63.69 -270.19,-161.84 -10.82,-38.92 -26.73,-135.1 17.24,-229.61 10.14,-21.81 24.97,-41.3 41.17,-59.06 60,-65.76 155.63,-84.12 244.54,-88.77 65.92,-3.44 117.82,4.52 186.78,53.77 37.5,26.78 77.4,72.71 92.88,129.47 21.36,78.35 37.99,170.28 -40.81,274.42 -65.03,85.92 -106.66,39.75 -98.51,87.24 6.9,40.24 47.8,56.96 85.84,71.78 -6.46,3 -10.05,3.46 -16.91,5.37 -6.41,1.78 -13.05,3.08 -19.7,2.63 -10.91,-0.73 -5.36,0.73 -14.98,-4.49 -0.23,20.41 -3.53,38.7 -8.28,58.56 -21.08,-14.68 -55.55,-46.15 -56.3,-43.13 -5.98,23.97 -18.98,46.14 -36.97,63.06 -3.46,-15.19 -6.76,-32.3 -10.24,-47.5 -1.76,-7.71 -7.08,-19.14 -8.28,-17.46 -7.38,10.46 -16.3,20.39 -27.99,25.62 -11.69,5.22 -34.45,-1.19 -30.58,-2.14"
         id="path1240" />
    </clipPath>
    <clipPath
       clipPathUnits="userSpaceOnUse"
       id="clipPath1570">
      <path
         d="m 4309.88,2179.31 c 7.03,30.16 48.75,103.94 71.81,124.6 29.32,26.27 64.18,46.23 88.91,76.87 6.2,7.69 11.24,16.49 18.87,22.77 11.98,9.88 29.87,11.93 43.78,5.01 16.63,-8.28 25.48,-26.61 39.4,-38.92 18.34,-16.22 43.81,-20.8 66.97,-28.77 20.22,-6.95 39.4,-16.9 56.73,-29.42 13.12,-9.47 25.16,-20.4 36.27,-32.15 48.21,-50.99 78.76,-118.27 85.93,-188.08 7.16,-69.8 -9.02,-141.73 -44.94,-202.01 -11.19,-18.79 -24.41,-36.64 -41.21,-50.63 -36.95,-30.77 -92.23,-68.16 -179.83,-51.27 -47.21,9.11 -120.1,31 -155.3,63.75 -92.89,86.4 -117.98,196.92 -87.39,328.25"
         id="path1568" />
    </clipPath>
    <clipPath
       clipPathUnits="userSpaceOnUse"
       id="clipPath1618">
      <path
         d="m 4157.57,1943.63 c 0,0 -15.44,-92.59 16.27,-161.93 23.63,-51.69 103.66,-128.17 170.58,-137.74 66.92,-9.58 145.31,-16.27 215.24,37.39 69.93,53.65 140.91,229.43 105.47,256.24 -35.45,26.79 -507.56,6.04 -507.56,6.04"
         id="path1616" />
    </clipPath>
    <clipPath
       clipPathUnits="userSpaceOnUse"
       id="clipPath1660">
      <path
         d="m 4421.57,1970.37 c 1.83,24.18 3.68,48.36 5.51,72.55 0.11,1.37 0.14,2.89 -1.25,3.88 -1.16,0.82 -3.03,1.03 -4.78,1.18 -45.19,3.91 -94.21,-7.03 -128.15,-28.6 -4.75,-3.01 -9.58,-6.89 -8.66,-11 0.59,-2.63 3.43,-4.69 6.22,-6.53 25.5,-16.92 57.04,-29.94 79.62,-48.55 7.42,-6.12 29.67,-27.33 46.52,-18.42 9.05,4.79 4.47,28.96 4.97,35.49"
         id="path1658" />
    </clipPath>
    <clipPath
       clipPathUnits="userSpaceOnUse"
       id="clipPath1670">
      <path
         d="m 4357.59,1949.55 c -28.33,16.08 -56.66,32.15 -84.99,48.22 -1.61,0.92 -3.45,1.89 -5.56,1.84 -1.77,-0.04 -3.27,-0.8 -4.6,-1.54 -34.58,-19.21 -53.53,-49.59 -49.57,-79.41 0.56,-4.18 2.11,-8.92 7.74,-11.06 3.59,-1.37 7.99,-1.3 12.09,-1.13 37.48,1.61 74.18,8.54 111.81,7.67 12.38,-0.28 52.96,-2.95 53.18,10.72 0.12,7.37 -32.43,20.34 -40.1,24.69"
         id="path1668" />
    </clipPath>
    <clipPath
       clipPathUnits="userSpaceOnUse"
       id="clipPath1680">
      <path
         d="m 4331.05,1902.97 c -36.6,-1.58 -73.2,-3.18 -109.81,-4.76 -2.08,-0.09 -4.37,-0.24 -5.63,-1.27 -1.08,-0.86 -1.11,-2.1 -1.08,-3.26 0.87,-30.01 24.61,-60.82 62.07,-80.54 5.24,-2.76 11.78,-5.46 17.83,-4.39 3.86,0.68 6.52,2.78 8.88,4.82 21.62,18.64 36.47,40.77 61.07,57.69 8.09,5.57 36.64,22.56 20.73,32.55 -8.54,5.37 -44.17,-0.41 -54.06,-0.84"
         id="path1678" />
    </clipPath>
    <clipPath
       clipPathUnits="userSpaceOnUse"
       id="clipPath1690">
      <path
         d="m 4512.2,1912.85 c 35.57,0.51 71.13,1.03 106.7,1.54 2.02,0.02 4.24,0.12 5.37,1.13 0.95,0.85 0.85,2.13 0.69,3.32 -4.03,30.87 -27.82,66.13 -66.48,87.53 -5.42,2.99 -12.14,7.22 -17.92,6.31 -3.69,-0.6 -11.74,-7.94 -13.84,-9.96 -19.11,-18.49 -28.21,-39.63 -50.43,-56.27 -7.3,-5.47 -33.38,-22.07 -16.78,-32.82 8.91,-5.78 43.07,-0.92 52.69,-0.78"
         id="path1688" />
    </clipPath>
    <clipPath
       clipPathUnits="userSpaceOnUse"
       id="clipPath1700">
      <path
         d="m 4488.62,1868.88 c 27.88,-16.41 55.76,-32.82 83.63,-49.22 1.59,-0.93 3.4,-1.93 5.52,-1.9 1.77,0.02 3.29,0.76 4.65,1.49 35.12,18.78 54.96,48.9 51.84,78.76 -0.43,4.18 -1.85,8.94 -7.42,11.15 -3.55,1.41 -7.95,1.4 -12.06,1.27 -37.53,-1.15 -74.44,-7.65 -112.06,-6.33 -12.37,0.44 -52.89,3.6 -53.5,-10.07 -0.32,-7.35 31.87,-20.72 39.4,-25.15"
         id="path1698" />
    </clipPath>
    <clipPath
       clipPathUnits="userSpaceOnUse"
       id="clipPath1710">
      <path
         d="m 4423.68,1846.03 c -3.78,-24.53 -7.56,-49.05 -11.33,-73.57 -0.22,-1.4 -0.37,-2.94 0.92,-3.91 1.09,-0.81 2.92,-0.99 4.63,-1.11 44.38,-3.08 93.74,8.96 129.05,31.45 4.95,3.15 10.03,7.17 9.46,11.31 -0.37,2.65 -3.02,4.68 -5.64,6.51 -23.84,16.63 -53.98,29.2 -74.81,47.62 -6.85,6.05 -27.13,27.11 -44.5,17.75 -9.35,-5.04 -6.77,-29.41 -7.78,-36.05"
         id="path1708" />
    </clipPath>
    <clipPath
       clipPathUnits="userSpaceOnUse"
       id="clipPath1720">
      <path
         d="m 4525.92,2020.82 c -3.64,8.5 -79.96,28.66 -83.31,24.23 -3.35,-4.43 -17.29,-101.65 -14.51,-106.19 4.33,-7.06 8.59,-16.38 26.39,-3.3 17.8,13.08 75.54,75.69 71.43,85.26"
         id="path1718" />
    </clipPath>
    <clipPath
       clipPathUnits="userSpaceOnUse"
       id="clipPath1730">
      <path
         d="m 4400.21,1768.44 c 6.16,2.04 21.7,109.23 16.61,111.95 -5.1,2.71 -17.03,15.31 -27.75,0.75 -10.74,-14.57 -27.08,-21.87 -43.68,-38.22 -16.6,-16.34 -41.75,-38.91 -36.12,-45.52 5.64,-6.62 78.8,-32.98 90.94,-28.96"
         id="path1728" />
    </clipPath>
    <clipPath
       clipPathUnits="userSpaceOnUse"
       id="clipPath2990">
      <path
         d="M 0,0 H 4943 V 4359 H 0 Z"
         id="path2988" />
    </clipPath>
    <clipPath
       clipPathUnits="userSpaceOnUse"
       id="clipPath2996">
      <path
         d="m 1789.25,4062.13 c -34.41,62.46 -116.1,64.33 -174.43,44.37 -32.95,-11.27 -64.45,-27.01 -95.21,-43.2 -9.21,-4.85 -19.39,-10.14 -29.27,-16.21 2.09,3.32 4.22,6.61 6.41,9.86 14.47,21.43 32.03,40.57 50.55,58.55 19.69,19.1 40.32,37.14 61.16,54.95 10.4,8.89 20.72,17.8 32.26,25.17 5.35,3.41 4.88,4.6 10.2,8.06 5.98,3.89 11.58,10.29 23.16,19.95 5.48,4.57 24.4,11.95 18.01,16.08 -11.84,7.65 -53.39,0.41 -66.29,-3.3 -16.22,-4.68 -32.47,-11.88 -46.85,-20.65 -27.62,-16.84 -53.52,-38.63 -76.92,-60.91 -12.24,-11.65 -24.01,-23.95 -34.99,-36.9 -4.15,30.69 -11.46,60.52 -22.64,89.51 -11.88,30.78 -27.48,60.13 -46.91,86.85 -9.34,12.86 -19.76,24.89 -31.08,36.04 -5.33,5.25 -10.85,10.31 -16.89,14.73 -6.79,4.96 -16.61,8.2 -22.75,13.56 -2.44,2.13 -5.9,-1.23 -3.59,-3.58 4.83,-4.87 7.88,-13.58 11.5,-19.45 3.8,-6.15 7.83,-12.09 11.91,-18.06 8.6,-12.6 16.53,-25.66 24.25,-38.82 15.49,-26.41 28.02,-54.18 37.67,-83.24 7.6,-22.88 13.39,-46.69 16.91,-70.66 -8.22,13.05 -17.59,25.38 -28.16,36.94 -18.82,20.59 -41.2,37.8 -66.24,49.93 -25.13,12.17 -113.11,22.86 -122.12,11.28 -4.76,-6.12 32.59,-13.11 40.54,-16.73 22.7,-10.35 39.26,-25.66 59.19,-40.95 18.26,-14.01 35.75,-30.13 49.93,-48.33 9.32,-11.95 17.6,-25.18 24.49,-38.95 -13.67,0.38 -26.98,-0.38 -37.31,-0.6 -38.71,-0.8 -78.15,-2.82 -115.45,-14.04 -30.04,-9.04 -58.89,-29.57 -79.93,-53.36 -8.81,-9.97 -29.05,-44.67 -25.74,-59.2 1.57,-6.86 40.58,25.84 45.09,29.16 9.34,6.9 19.62,12.77 29.96,18.02 21.46,10.88 45.98,17.14 69.85,19.47 29.5,2.89 58.97,1.73 88.55,1.08 6.21,-0.13 12.39,-0.29 18.58,-0.5 -16.17,-12.01 -27.27,-25.96 -39.08,-40.82 -11.53,-14.51 -18.46,-26.14 -23.92,-43.98 -4.38,-14.31 -4.37,-30.68 -2.44,-55.77 0.95,-12.41 3.47,-25.47 10.93,-15.45 4,5.37 16.36,25.89 19.83,31.59 3.55,5.85 7.9,11.4 11.76,17.09 7.28,10.72 16.14,20.99 25.27,30.17 12.82,12.91 40.33,30.81 55.1,40.18 5.39,-3.03 30.3,-17.27 39.24,-13.51 13.86,5.83 25.84,9.88 37.8,18.84 11.17,8.36 23.48,15.3 35.76,21.88 25.16,13.49 50.83,26.91 77.64,36.77 25.98,9.56 51.95,15.61 79.63,15.98 25.02,0.33 51.73,-3.61 76.05,-9.07 9.97,-2.23 14.08,1.01 9.03,10.18"
         id="path2994" />
    </clipPath>
    <clipPath
       clipPathUnits="userSpaceOnUse"
       id="clipPath3588">
      <path
         d="m 4815.73,3659.38 c -15.14,-0.79 -22.26,-10.01 -33.52,-19.42 -11.81,-9.87 -24.35,-18.87 -36.23,-28.66 -24.69,-20.34 -46.41,-41.75 -66.22,-66.87 -20.59,-26.11 -39.28,-52.84 -52.83,-83.33 -15.19,-34.18 -39.28,-84.28 -5.46,-114.61 15.99,-14.35 39.16,-16.53 57.93,-5.55 19.63,11.48 26.31,34.92 32.96,55.11 9.9,30.04 20.9,59.84 31.75,89.55 10.94,29.91 23.97,59.77 38.2,88.23 6.73,13.46 10.51,32.34 18.96,44.8 8.64,12.72 10.83,22.43 19.34,35.57 2.7,4.2 -0.04,5.43 -4.88,5.18"
         id="path3586" />
    </clipPath>
    <clipPath
       clipPathUnits="userSpaceOnUse"
       id="clipPath3600">
      <path
         d="m 4664.45,3672.4 c 5.86,-19.04 -2.82,-50.57 -10.09,-68.2 -9.47,-22.97 -31.02,-38.52 -37.89,-62.09 -5.75,-19.73 14.85,-44.69 36.12,-36.13 33.14,13.35 51.32,52.97 57.41,86.95 3.09,17.24 -1.87,22.01 -6.94,38.85 -4.68,15.53 -17.95,38.35 -26.3,51.04 -6.9,10.49 -16.32,2.62 -12.31,-10.42"
         id="path3598" />
    </clipPath>
    <clipPath
       clipPathUnits="userSpaceOnUse"
       id="clipPath3612">
      <path
         d="m 4473.26,3672.16 c 5.73,-16.48 5.16,-37.02 3.21,-53.53 -1.96,-16.62 2.32,-42.56 6.18,-58.77 8.96,-37.64 11.75,-75.58 48.52,-95.64 21.28,-11.62 55.95,-2.67 60.58,24.65 4.95,29.17 -4.94,50.25 -21.41,73.85 -11.68,16.72 -24.25,32.84 -36.61,49.06 -15.47,20.31 -31.53,55.38 -56.73,64.12 -2.13,0.74 -4.49,-1.61 -3.74,-3.74"
         id="path3610" />
    </clipPath>
    <clipPath
       clipPathUnits="userSpaceOnUse"
       id="clipPath3624">
      <path
         d="m 4942.8,3467.83 c -2.69,9.38 -79.84,-0.38 -89.49,-2.04 -20.47,-3.52 -39.63,-8.28 -58.94,-16.08 -38.08,-15.35 -78.7,-36.32 -107.44,-65.94 -45.16,-46.55 32.76,-110.45 71.74,-55.36 20.33,28.73 37.64,52.79 68.01,72.21 14.33,9.16 29.48,18.36 45.37,24.47 7.17,2.76 72.29,37.33 70.75,42.74"
         id="path3622" />
    </clipPath>
    <clipPath
       clipPathUnits="userSpaceOnUse"
       id="clipPath3692">
      <path
         d="m 4361.45,2921.91 -0.06,-0.11 -0.08,0.18 0.14,-0.07 m 149.36,139.44 -0.51,0.12 0.51,2.1 v -2.22 m 84.76,-523.35 0.63,2.5 c 1.27,-0.93 2.52,-1.87 3.71,-2.86 -1.47,0.09 -2.91,0.21 -4.34,0.36 m -156.97,480.01 -0.26,1.19 0.93,0.1 -0.67,-1.29 m -10.16,-225.36 -0.61,-2.07 -0.41,2.15 1.02,-0.08 m 71.06,109.07 -0.01,0.06 0.02,0.01 -0.01,-0.07 m 254.65,-54.18 0.04,1.31 0.38,-1.01 -0.42,-0.3 m -42.52,-132.38 0.54,-1.19 -0.67,-0.03 0.13,1.22 m 152.87,140.63 c 3.96,11.66 8.52,19.64 13.96,27.73 5.18,7.7 2.01,40.59 2.09,44.63 0.18,8.08 -0.7,15.75 -2.9,22.29 -1.88,5.6 -11.11,28.64 -13,35.96 -2.79,10.86 -10.77,12.98 -14.34,3.18 -3.14,-4.25 -5.96,-10.67 -8.76,-16.34 2.19,5.15 4.71,10.01 7.54,14.95 5.78,10.14 -8.2,43.17 -9.19,47.42 -1.98,8.49 -5.45,16.15 -10.64,22.08 -4.43,5.07 -24.96,25.34 -29.87,32.21 -1.8,2.51 -3.92,4.32 -6.14,5.48 -2.91,11.62 -8.01,23.44 -8.57,25.88 -1.93,8.51 -5.64,16.1 -11.42,21.87 -4.95,4.94 -27.95,24.55 -33.37,31.29 -8.04,9.98 -22.99,8.39 -26.71,-3.55 -6.39,-8.5 -10.39,-21.39 -15.9,-29.96 -1.9,-2.97 -3.32,-5.68 -4.47,-8.31 -7.61,8.68 -17.34,19.78 -20.32,24.57 -6.76,10.88 -21.8,11.1 -26.93,-0.3 -7.36,-7.67 -12.9,-19.98 -19.39,-27.83 -4.57,-5.52 -7.33,-10.29 -8.8,-15.42 -5.24,11.09 -11.98,25.38 -13.5,31.03 -3.46,12.79 -20.14,18.87 -30.15,10.27 -11.1,-4.26 -21.9,-13.54 -32.09,-18.3 -8.33,-3.89 -13.66,-7.72 -17.33,-12.96 -0.17,0.92 -0.37,1.93 -0.65,3.13 -3.09,12.75 -50.84,40.12 -63.08,34.19 -13.18,-1.62 -26.38,-8.03 -38.55,-10.31 -19.99,-3.75 -25.95,-9.88 -31.17,-27.34 -4.13,-13.85 -14.14,-33.84 -8.19,-48.91 0.5,-1.26 1.14,-2.42 1.85,-3.55 -5.73,-3.26 -11.36,-6.7 -16.67,-8.86 -16.16,-6.57 -21.29,-13.75 -26.55,-32.63 -4.16,-14.98 -13.4,-37.14 -9.61,-52.05 0.35,-1.33 0.82,-2.54 1.36,-3.69 -3.29,-0.11 -6.49,-2.47 -8.6,-7.42 -6.2,-7.21 -11.53,-19.74 -17.1,-27.29 -9.16,-12.38 -10.98,-21.63 -10.35,-43.11 0.49,-17.04 -0.77,-43.31 4.92,-57.55 2.76,-6.93 7.03,-9.48 10.74,-14.1 2.96,-3.7 5.61,-8.19 8.06,-13.04 -4.06,-7.72 -4.91,-16.54 -4.3,-30.01 0.81,-17.66 -1.25,-44.87 7.97,-59.62 4.49,-7.18 11.4,-9.82 17.42,-14.61 5.58,-4.44 10.51,-9.95 14.98,-15.92 -4.37,-6 -5.04,-12.67 -3.82,-22.65 1.64,-13.37 0.14,-34.18 11.95,-44.85 1.14,-1.03 2.42,-1.89 3.76,-2.68 -0.11,-0.88 -0.1,-1.81 0.05,-2.78 -1.25,-6.76 0.15,-15.46 -0.56,-22.01 -1.17,-10.77 1.25,-16.01 10.02,-25.48 6.96,-7.52 16.36,-20.24 25.63,-23.59 3.13,-1.13 5.9,-0.89 8.71,-0.66 1.25,0.11 2.51,0.21 3.81,0.19 2.63,-0.03 5.32,-0.37 8.04,-0.92 0.13,-2.24 1.12,-4.71 3.17,-7.41 2.95,-3.86 18.13,-21.02 20.78,-25.6 3.95,-6.8 20,-14.24 29,-13.12 5.71,-0.65 11.24,-0.56 16.65,-0.48 4.3,0.08 8.51,0.15 12.66,-0.16 2.97,-0.22 5.52,-0.3 7.72,-0.25 1.06,-2.13 3.33,-3.94 7.02,-5.29 4.47,-1.64 26.12,-7.88 30.7,-10.22 6.79,-3.47 24.4,-1.65 31.62,3.53 9.46,3.97 17.25,9.56 25.7,13.5 3.79,1.77 6.7,3.31 8.92,4.78 7.48,-3.74 16.99,-8.49 19.67,-10.47 6.14,-4.52 23.8,-5.58 31.77,-1.64 9.98,2.4 18.57,6.65 27.55,9.17 14.73,4.14 17.68,7.32 16.75,14.77 -0.3,2.41 -0.15,5.34 -0.45,8.31 2.81,-0.84 5.63,-1.77 8.51,-2.8 10.22,-3.67 32.45,15.9 35.58,17.64 6.26,3.48 11.33,8.24 14.41,14.33 2.08,4.09 8.46,19.44 13.01,28.76 6.66,-3.35 15.62,-0.02 20.8,5.62 8.89,9.67 18.36,15.79 29.48,21.76 10.56,5.69 9.26,36.91 9.97,40.61 1.43,7.41 0.87,14.73 -2.27,21.37 l -1.15,2.26 c 4.78,-1.41 10.08,4.31 12.9,11.94 5.31,14.32 11.42,24.11 18.71,34.04 6.93,9.44 2.68,49.81 2.8,54.77 0.23,9.91 -0.95,19.33 -3.89,27.36 -2.52,6.87 -14.89,35.14 -17.41,44.12 l -0.03,0.08 c 3.93,0.65 7.84,4.17 9.48,8.97"
         id="path3690" />
    </clipPath>
    <clipPath
       clipPathUnits="userSpaceOnUse"
       id="clipPath3778">
      <path
         d="m 4792,3172.41 c -9.67,11.34 -16.54,21.87 -30.17,27.84 -17.85,7.83 -34.37,8.44 -51.82,16.24 -25.08,11.22 -64.73,1.67 -72.67,-27.17 -6.95,-25.21 13.28,-57.39 41.69,-54.72 42,3.95 118.77,-29.05 151.63,-58.86 4.03,-3.66 1.54,49.5 -38.66,96.67"
         id="path3776" />
    </clipPath>
    <clipPath
       clipPathUnits="userSpaceOnUse"
       id="clipPath3788">
      <path
         d="m 4878.07,3577.7 c -22.24,-0.14 -40.3,-19.29 -58.97,-29.65 -21.05,-11.69 -39.62,-27.99 -58.25,-43.3 -18.13,-14.89 -34.17,-32.62 -49.68,-50.19 -17.69,-20.01 -37.25,-40.84 -50.83,-63.88 -29.11,-49.37 43.51,-89.4 75.6,-44.19 12.89,18.18 22.01,39.39 33.07,58.76 11.08,19.41 23.21,38.01 35.33,56.77 11.47,17.74 19.01,35.5 31.73,52.21 13.63,17.9 34.62,32 45.63,51.04 5.34,9.25 7.17,12.5 -3.63,12.43"
         id="path3786" />
    </clipPath>
    <clipPath
       clipPathUnits="userSpaceOnUse"
       id="clipPath3800">
      <path
         d="m 4333.04,3442.48 c 5.95,-10.68 19.03,-14.85 29.22,-20.88 13.64,-8.08 27.59,-16.66 40.11,-26.37 25.94,-20.15 46.16,-46.04 60.11,-75.62 23.63,-50.05 101.6,10.48 58.76,45.34 -30.3,24.66 -61.74,45.89 -97.51,61.8 -22.13,9.84 -66.98,32.14 -90.3,17.22 l -0.39,-1.49"
         id="path3798" />
    </clipPath>
    <clipPath
       clipPathUnits="userSpaceOnUse"
       id="clipPath3810">
      <path
         d="m 4353.22,3350.72 c 21.61,-21.71 49.72,-26.08 76.52,-38.88 15.99,-7.64 27.73,-18.15 38.57,-32.13 10.38,-13.39 19.19,-29.19 34.9,-36.58 14.12,-6.64 37.98,4.9 30.35,23.33 -12.16,29.38 -51.89,57.55 -80.59,71.12 -30.16,14.25 -63.67,20.77 -96.83,20.2 -3.56,-0.06 -5.48,-4.49 -2.92,-7.06"
         id="path3808" />
    </clipPath>
    <clipPath
       clipPathUnits="userSpaceOnUse"
       id="clipPath3820">
      <path
         d="m 4614.64,3701.22 c -9.87,-17.14 -13.44,-38.34 -20.48,-56.87 -7.79,-20.52 -15.06,-40.98 -22.01,-61.81 -7.08,-21.22 -15.34,-41.7 -19.66,-63.77 -5.15,-26.27 -2.95,-46.09 8.64,-69.99 8.68,-17.92 32.43,-17.08 45.42,-5.85 39.79,34.36 36.11,90.02 40.71,138.3 3.5,36.66 3.44,109.36 -23.09,139.48 -4.83,5.5 -6.08,-13.5 -9.53,-19.49"
         id="path3818" />
    </clipPath>
    <clipPath
       clipPathUnits="userSpaceOnUse"
       id="clipPath3830">
      <path
         d="m 4842.39,3359.29 c -30.59,6.87 -59.09,-10.11 -84.47,-25.59 -27.84,-16.98 -61.33,-36.88 -69.11,-70.83 -10.37,-45.34 59.52,-56.16 63.59,-8.61 0.62,7.33 14.81,18.14 19.89,23.24 9.03,9.08 18.48,17.72 28.38,25.84 17.32,14.24 35.34,25.84 45.61,46.37 1.79,3.57 0.45,8.61 -3.89,9.58"
         id="path3828" />
    </clipPath>
    <clipPath
       clipPathUnits="userSpaceOnUse"
       id="clipPath3844">
      <path
         d="m 4315.75,3585.03 c 11.43,-6.32 25.27,-12.16 35.08,-20.39 9.29,-7.78 17.24,-15.64 27.35,-22.45 20.53,-13.83 40.61,-28.17 59.89,-43.73 19.13,-15.43 37.96,-31.37 56.67,-47.31 17.3,-14.73 33.07,-36.54 53.99,-45.64 26.94,-11.72 53.76,2.09 56.32,32.31 2.86,33.84 -24.91,57.04 -50.02,74.66 -24.11,16.91 -49.92,31.87 -76.01,45.5 -25.39,13.27 -52.52,25.82 -80.49,32.48 -25.29,6.04 -57.35,3.1 -82.41,-2.65 -1.28,-0.29 -1.5,-2.17 -0.37,-2.78"
         id="path3842" />
    </clipPath>
    <clipPath
       clipPathUnits="userSpaceOnUse"
       id="clipPath3856">
      <path
         d="m 4671.3,3579.38 c -5.42,-8.44 -9.12,-8.04 -13.65,-16.9 -4.47,-8.76 -8.46,-17.7 -13.24,-26.32 -8.93,-16.09 -20.04,-30.04 -31.26,-44.55 -23.64,-30.56 -37.71,-63.95 -47.39,-101.27 -12,-46.19 58.69,-65.7 71.45,-19.71 5.95,21.44 2.22,42.54 4.88,64.23 2.06,16.78 6.75,33.5 11.17,49.77 4.57,16.8 11.18,32.3 17.03,48.64 3.08,8.62 7.75,19.14 7.89,28.43 0.1,6.71 -3.22,9.69 -4.04,16.91 -0.17,1.46 -1.97,2.13 -2.84,0.77"
         id="path3854" />
    </clipPath>
    <clipPath
       clipPathUnits="userSpaceOnUse"
       id="clipPath3868">
      <path
         d="m 4362.46,3489.65 c 13.81,-7.64 27.43,-18.95 40.93,-27.49 14.2,-8.98 29.61,-18.89 41.82,-30.57 23.59,-22.59 40.58,-45.16 46.38,-77.34 10.48,-58.39 109.55,-31.69 88.92,24.52 -15.72,42.84 -55.82,72.48 -96.18,91.19 -18.11,8.4 -36.64,16.94 -55.96,22.11 -23.81,6.38 -40.4,5.21 -64.16,4.07 -3.31,-0.16 -4.91,-4.74 -1.75,-6.49"
         id="path3866" />
    </clipPath>
    <clipPath
       clipPathUnits="userSpaceOnUse"
       id="clipPath3884">
      <path
         d="m 4853.86,3269.85 c 16.9,14.49 -59.61,0.44 -75.02,-4.64 -18.14,-5.98 -48.27,-20.49 -65.22,-29.55 -32.25,-17.24 -27.32,-67.03 5.39,-80.19 32.64,-13.13 72.35,16.85 60.88,53.23 0.05,-4 0.09,-8.01 0.14,-12.01 -0.91,-2.5 -0.7,-2.66 0.62,-0.47 l 4.05,4.29 c 5.58,5.67 25.21,30.51 32.04,34.54 12.65,7.46 31.7,30.16 37.12,34.8"
         id="path3882" />
    </clipPath>
    <clipPath
       clipPathUnits="userSpaceOnUse"
       id="clipPath3894">
      <path
         d="m 4714.28,3375.22 c -7.69,-6.47 -17.41,-11.08 -25.22,-17.71 -8.24,-6.97 -15.36,-16.3 -21.75,-24.99 -14.35,-19.5 -22.21,-40.25 -24.04,-64.39 -3.85,-50.6 78.19,-51.53 79.48,0 0.42,16.72 5.56,32.08 10.22,48.03 4.51,15.41 2.85,29.94 4.94,45.31 1.9,13.95 -12.16,23.39 -23.63,13.75"
         id="path3892" />
    </clipPath>
    <clipPath
       clipPathUnits="userSpaceOnUse"
       id="clipPath3904">
      <path
         d="m 4639.74,3394.98 c -25.61,-8.03 -42.92,-15.6 -62.19,-35.68 -19.57,-20.42 -32.58,-44.93 -40.75,-71.83 -14.12,-46.49 63.82,-66.01 71.44,-19.69 3.4,20.68 8.19,41.24 15.06,61.04 6.5,18.72 13.55,40.66 22.57,58.17 2.07,4.01 -1.37,9.47 -6.13,7.99"
         id="path3902" />
    </clipPath>
    <clipPath
       clipPathUnits="userSpaceOnUse"
       id="clipPath3916">
      <path
         d="m 4504.51,3356.9 c -3.53,-10.95 -0.19,-22.64 0.74,-33.76 0.99,-11.9 -0.7,-22.25 -4.72,-33.48 -7.57,-21.1 10.32,-43.25 30.65,-45.99 22.49,-3.05 40.74,13.95 41.75,36.2 1.36,29.73 -14.36,90.39 -54.32,87.76 -6.72,-0.44 -12.02,-4.27 -14.1,-10.73"
         id="path3914" />
    </clipPath>
    <clipPath
       clipPathUnits="userSpaceOnUse"
       id="clipPath3928">
      <path
         d="m 4614.12,3334.81 c 6.52,-12.53 -3.49,-25.03 -4.91,-39.02 -1.55,-15.4 -9.63,-28.14 -10.08,-43.77 -0.81,-28.8 41.17,-49.88 60.9,-25.22 18.94,23.65 17.83,51.94 5.7,78.89 -10.01,22.22 -25.93,34.5 -44.5,48.98 -10.35,8.07 -19.17,4.53 -12.53,-8.25 l 5.42,-11.61"
         id="path3926" />
    </clipPath>
    <clipPath
       clipPathUnits="userSpaceOnUse"
       id="clipPath3942">
      <path
         d="m 4684.01,3271.95 c -20.12,-17.17 -36.06,-34.11 -43.04,-60.39 -5.3,-20 8.14,-40.06 28.53,-42.81 18.97,-2.57 40.45,12.77 38.86,33.69 -2.23,29.41 17.99,58.26 34.92,79.79 5.8,7.38 4.07,11.41 -7.2,13.65 0,0 -36.33,-10.48 -52.07,-23.93"
         id="path3940" />
    </clipPath>
    <clipPath
       clipPathUnits="userSpaceOnUse"
       id="clipPath3954">
      <path
         d="m 4435.48,3243.56 c 56.46,-17.01 49.21,-67.78 65.96,-62.36 34.79,11.27 39.74,60.47 4.78,75.22 -3.12,1.81 -6.49,2.72 -10.1,2.74 -5.98,0.96 -7.08,1.04 -3.31,0.25 -2.15,0.51 -4.3,1.28 -6.41,1.92 -6.54,1.98 -13.74,4.16 -20.63,4.01 -7.12,-0.15 -15.38,-1.89 -22.25,-3.75 -6.32,-1.71 -9.92,-6.39 -15.7,-8.53 -4.01,-1.48 -5.43,-7.19 -1.25,-9.54 l 8.91,0.04"
         id="path3952" />
    </clipPath>
    <clipPath
       clipPathUnits="userSpaceOnUse"
       id="clipPath3966">
      <path
         d="m 4559.37,3304.95 c -10.9,-6.16 -18.45,-13.51 -26.52,-23.13 -6.64,-7.91 -12.17,-19.82 -16.44,-24.95 -21.39,-25.7 -11.93,-66.93 24.41,-71.82 35.02,-4.7 58.54,32.77 42.37,63.22 -2.16,4.05 -2.35,2.23 -1.93,0.41 0.49,-2.05 1.76,-4.09 1.94,2.16 0.13,4.56 -0.27,9.39 -0.3,13.98 -0.05,8.88 0.43,17.56 0.37,26.42 -0.11,12.14 -13.38,19.65 -23.9,13.71"
         id="path3964" />
    </clipPath>
    <clipPath
       clipPathUnits="userSpaceOnUse"
       id="clipPath3978">
      <path
         d="m 4474.71,3157.68 c 17.19,1.79 31.41,-2.13 48.14,-3.61 22.71,-2.02 31.47,28.11 17.68,42.7 -17.59,18.61 -46.63,12.53 -68.79,5.94 -18.39,-5.47 -56.61,-25.92 -61.39,-46.54 -0.61,-2.6 4.72,-1.62 10.12,-0.63 3.91,0.71 7.86,1.42 9.63,0.78 0,0 30.12,-0.15 44.61,1.36"
         id="path3976" />
    </clipPath>
    <clipPath
       clipPathUnits="userSpaceOnUse"
       id="clipPath3990">
      <path
         d="m 4576.2,3167.6 c 2.75,2.23 5.04,4.88 6.9,7.94 1.3,3.01 2.57,6.03 3.8,9.07 6.26,15.32 -9.5,32.73 -24.56,32.25 -22.8,-0.74 -36.75,-21.41 -38.4,-42.86 -1.42,-18.24 18.86,-44.99 32.19,-57.27 6.62,-6.1 3.81,4.37 8.63,12.07 0,0 10.83,37.5 11.44,38.8"
         id="path3988" />
    </clipPath>
    <clipPath
       clipPathUnits="userSpaceOnUse"
       id="clipPath4000">
      <path
         d="m 4586.93,3289.32 c -5.9,-8.49 -2.93,-19.55 -2.62,-29.02 0.39,-12.06 -3.16,-22.66 -4.81,-34.36 -2.93,-20.8 6.22,-40.73 29.2,-43.85 21.15,-2.85 39.21,13.26 39.8,34.51 0.63,22.92 -10.92,45.13 -26.03,61.71 -6.21,6.82 -26.77,23.61 -35.54,11.01"
         id="path3998" />
    </clipPath>
    <clipPath
       clipPathUnits="userSpaceOnUse"
       id="clipPath4012">
      <path
         d="m 4690.52,3130.81 c -0.13,10.94 -4.96,22 -10.71,31.08 -12.97,20.49 -31.6,32.3 -52.37,43.76 -16.67,9.19 -37.58,2.53 -45.05,-15.19 -7.7,-18.26 2.57,-36.57 20.57,-42.85 13.46,-4.7 27.85,-9.45 39.99,-17.01 5.25,-3.27 9.31,-7.52 13.68,-11.87 3.65,-3.63 29.18,-20.07 30.96,-22.88 2.73,-4.28 3.04,25.31 2.93,34.96"
         id="path4010" />
    </clipPath>
    <clipPath
       clipPathUnits="userSpaceOnUse"
       id="clipPath4026">
      <path
         d="m 4091.92,2780.2 c 22.23,15.36 616.01,-109.52 616.01,-109.52 0,0 -133.28,-252.17 -381.52,-189.53 -241.14,60.85 -253.17,286.14 -234.49,299.05"
         id="path4024" />
    </clipPath>
    <clipPath
       clipPathUnits="userSpaceOnUse"
       id="clipPath11262">
      <path
         d="m 4376.07,2472.47 c 14.13,11.52 26.28,27.09 36.54,39.15 6.3,7.47 12.24,15.21 17.73,23.13 -1.26,1.53 -2.25,2.7 -2.79,3.42 -1.44,1.89 -2.43,3.69 -2.88,5.4 -0.18,0.63 -0.27,1.26 -0.27,1.98 -2.7,0.54 -5.49,0.81 -8.1,0.9 -1.35,0.09 -2.7,0 -3.96,-0.18 -2.79,-0.18 -5.49,-0.45 -8.55,0.63 -9.27,3.42 -18.63,16.11 -25.65,23.58 -7.38,8.01 -10.26,13.05 -10.26,20.88 0,1.44 0.09,2.97 0.27,4.68 0.18,1.62 0.18,3.42 0.18,5.22 0,3.24 -0.18,6.66 -0.18,9.99 0,2.34 0.18,4.68 0.54,6.75 -0.18,0.99 -0.18,1.89 -0.09,2.79 -0.9,0.54 -1.8,1.17 -2.7,1.89 -0.36,0.18 -0.63,0.54 -0.99,0.81 -11.79,10.62 -10.35,31.5 -11.97,44.82 -1.26,9.99 -0.63,16.65 3.87,22.68 -1.08,1.44 -2.16,2.79 -3.33,4.14 -3.6,4.41 -7.47,8.37 -11.7,11.79 -6.03,4.77 -12.87,7.38 -17.37,14.58 -9.27,14.76 -7.2,41.94 -8.01,59.58 -0.18,4.77 -0.27,8.91 0,12.6 0.36,7.02 1.62,12.51 4.32,17.55 -0.09,0.09 -0.18,0.27 -0.27,0.36 0,0.09 0,0.09 0,0.18 -2.43,4.59 -4.95,8.82 -7.83,12.42 -3.69,4.59 -7.92,7.11 -10.71,14.04 -5.67,14.31 -4.41,40.59 -4.95,57.6 -0.09,2.7 -0.09,5.22 -0.09,7.56 0,16.29 2.52,24.66 10.44,35.55 5.58,7.56 10.89,20.07 17.1,27.27 1.53,3.69 3.78,5.94 6.12,6.93 0.09,0 0.09,0 0.09,0 0.09,0.09 0.27,0.09 0.36,0.09 0.09,0.09 0.27,0.09 0.36,0.18 h 0.09 c 0.18,0 0.36,0.09 0.45,0.09 0.36,0.09 0.72,0.09 1.17,0.18 -0.54,1.08 -0.99,2.34 -1.35,3.69 -0.63,2.34 -0.9,4.86 -0.9,7.47 -0.09,14.13 6.93,31.86 10.53,44.55 5.22,18.9 10.35,26.01 26.55,32.58 9.81,4.05 20.7,12.42 31.32,15.93 10.08,7.74 24.57,0.63 26.19,-12.33 1.17,-8.64 10.98,-38.07 12.6,-45 0.18,-0.72 0.36,-1.62 0.54,-2.61 3.24,6.57 8.82,11.52 18.63,16.83 10.8,5.94 21.51,16.38 33.48,21.87 9.9,9.72 29.7,5.58 35.64,-6.75 4.05,-8.28 24.93,-35.19 29.07,-41.67 0.54,-0.81 0.99,-1.62 1.44,-2.52 2.34,5.76 6.84,11.07 14.31,17.46 9.9,8.46 18.72,21.42 29.88,29.79 8.1,11.88 30.15,12.96 39.51,2.52 6.3,-7.02 35.1,-27.72 41.13,-32.94 1.62,-1.35 2.97,-2.79 4.23,-4.32 0.63,1.17 1.35,2.34 2.16,3.6 5.49,8.55 9.54,21.42 15.93,29.97 3.69,11.88 18.63,13.5 26.64,3.51 4.41,-5.58 20.7,-19.71 29.16,-27.36 -2.61,11.97 -1.44,19.62 4.23,30.33 4.41,8.28 7.38,20.88 12.6,29.07 2.7,11.7 15.57,12.78 22.86,2.52 4.86,-6.84 25.38,-27.09 29.79,-32.22 5.22,-5.85 8.73,-13.59 10.71,-22.05 0.99,-4.23 14.94,-37.26 9.18,-47.43 -2.97,-5.13 -5.58,-10.17 -7.92,-15.57 2.97,5.76 5.85,12.6 9.09,17.01 3.6,9.81 11.61,7.65 14.4,-3.24 1.89,-7.29 11.07,-30.33 12.96,-35.91 2.25,-6.57 3.06,-14.22 2.88,-22.32 -0.09,-4.05 3.15,-36.9 -2.07,-44.64 -5.4,-8.1 -9.99,-16.02 -13.95,-27.72 -1.62,-4.77 -5.49,-8.37 -9.45,-9 2.52,-9 14.85,-37.26 17.37,-44.19 2.79,-7.47 3.96,-16.29 3.96,-25.47 0,-0.63 0,-1.26 0,-1.89 0,-0.09 0,-0.18 0,-0.27 0,-0.09 0,-0.18 0,-0.27 0.09,-6.93 3.96,-45 -2.79,-54.18 -7.29,-9.99 -13.41,-19.71 -18.72,-34.02 -2.07,-5.49 -5.4,-10.08 -8.91,-11.61 -1.35,-0.63 -2.7,-0.72 -4.05,-0.36 0.54,-0.9 0.9,-1.71 1.17,-2.25 1.98,-4.14 2.88,-8.55 2.97,-13.14 0.09,-2.7 -0.18,-5.49 -0.72,-8.28 -0.72,-3.69 0.63,-34.92 -9.99,-40.59 -11.07,-5.94 -20.52,-12.06 -29.43,-21.78 -5.22,-5.58 -14.13,-8.91 -20.79,-5.58 -0.36,-0.72 -0.72,-1.53 -1.08,-2.25 -4.41,-9.45 -9.99,-22.77 -11.97,-26.55 -3.06,-6.03 -8.1,-10.8 -14.4,-14.31 -3.15,-1.71 -25.38,-21.33 -35.55,-17.64 -1.62,0.54 -3.24,1.17 -4.77,1.62 -1.26,0.45 -2.52,0.81 -3.69,1.17 0.09,-1.08 0.09,-2.07 0.09,-3.15 0.09,-1.8 0.09,-3.6 0.27,-5.13 0.09,-0.9 0.18,-1.8 0.18,-2.61 -0.09,-5.67 -4.05,-8.55 -16.92,-12.15 -9,-2.52 -17.55,-6.75 -27.54,-9.18 -7.92,-3.96 -25.65,-2.88 -31.77,1.62 -0.9,0.63 -2.43,1.53 -4.32,2.61 -1.89,0.99 -4.14,2.16 -6.48,3.42 -2.88,1.44 -6.03,2.97 -8.91,4.41 -1.35,-0.9 -2.97,-1.8 -4.86,-2.79 -0.09,0 -0.09,-0.09 -0.09,-0.09 -0.27,-0.09 -0.45,-0.18 -0.63,-0.27 -0.18,-0.09 -0.45,-0.27 -0.63,-0.36 -0.18,-0.09 -0.36,-0.18 -0.54,-0.18 -0.27,-0.18 -0.54,-0.27 -0.81,-0.45 -0.09,0 -0.18,-0.09 -0.27,-0.18 -0.36,-0.09 -0.72,-0.27 -1.08,-0.45 -8.37,-3.87 -16.2,-9.54 -25.65,-13.5 -7.2,-5.13 -24.84,-6.93 -31.59,-3.51 -4.59,2.34 -26.28,8.55 -30.78,10.26 -0.27,0.09 -0.54,0.18 -0.72,0.27 -0.18,0.09 -0.36,0.18 -0.54,0.27 h -0.09 c -0.54,0.27 -1.08,0.45 -1.53,0.72 -33.66,-14.31 -71.73,-23.4 -114.03,-23.4 -9.27,0 -18.72,0.45 -28.35,1.35 m 220.05,67.59 c -0.18,-0.63 -0.36,-1.26 -0.54,-1.89 v -0.18 c 1.44,-0.09 2.88,-0.27 4.32,-0.36 -1.17,0.99 -2.43,1.98 -3.69,2.88 l -0.09,-0.45 m 115.38,173.88 h 0.18 c 0.18,0 0.27,0 0.45,0 l -0.45,1.08 c -0.09,-0.36 -0.09,-0.72 -0.18,-1.08 m -283.68,76.68 c 0.18,0.72 0.36,1.35 0.54,1.98 -0.27,0 -0.63,0.09 -0.9,0.09 0.09,-0.63 0.27,-1.35 0.36,-2.07 m 326.34,56.97 c 0.18,0.09 0.27,0.18 0.36,0.27 -0.09,0.27 -0.18,0.54 -0.27,0.81 -0.09,-0.36 -0.09,-0.72 -0.09,-1.08 m -392.76,74.25 c 0,0 0,0 0.09,0.09 -0.09,0 -0.09,0 -0.18,0 0.09,0 0.09,-0.09 0.09,-0.09 m 198.18,135.72 -0.36,-0.27 0.36,0.27 m 105.84,2.97 -0.27,-0.36 0.27,0.36 m -94.23,1.71 -2.61,1.17 -2.61,1.98 -1.17,1.35 -2.16,0.9 -0.27,-0.18 -1.62,-0.9 c -1.08,-0.63 -2.16,-1.44 -3.51,-1.44 -1.62,0.09 -2.97,0.9 -3.51,2.52 -0.72,2.34 0.63,5.49 2.25,7.38 l -0.45,0.81 c -0.81,1.35 -1.8,3.33 -2.16,4.95 -0.36,1.35 -0.99,3.33 -0.54,4.68 1.44,3.96 6.48,1.26 8.46,-0.27 l 1.53,-1.26 c 1.08,2.25 2.34,4.5 4.05,6.21 0.9,0.9 2.07,0.72 2.79,-0.27 1.17,-1.53 1.8,-4.32 1.8,-7.2 3.87,0.18 7.56,-0.99 9.36,-4.5 1.44,-2.79 -1.71,-5.85 -3.78,-7.2 -0.99,-0.63 -2.25,-1.35 -3.42,-1.98 0.18,-1.26 0.27,-2.7 0.81,-3.87 0.63,-1.62 -0.9,-3.15 -2.34,-3.15 -0.27,0 -0.63,0.09 -0.9,0.27 m 86.4,5.94 c -1.26,1.98 -1.26,5.31 -0.54,7.65 l -0.63,0.54 c -1.08,1.08 -2.52,2.61 -3.33,4.05 -0.72,1.17 -1.8,2.7 -1.8,4.23 -0.18,4.14 4.59,3.33 6.66,2.52 l 1.62,-0.72 c 0.09,2.43 0.36,5.04 1.17,7.2 0.45,1.17 1.44,1.44 2.34,0.72 1.35,-1.08 2.79,-3.51 3.69,-6.21 2.97,1.44 6.21,1.53 8.82,-1.17 1.98,-2.16 0.45,-6.03 -0.72,-8.01 -0.63,-0.99 -1.35,-1.98 -2.07,-2.97 0.54,-1.17 1.08,-2.43 1.8,-3.42 1.35,-1.53 -0.09,-4.14 -1.62,-3.78 l -2.43,0.27 -2.61,0.99 -1.35,0.9 -1.98,0.09 -0.18,-0.27 -0.99,-1.35 c -0.63,-0.99 -1.26,-2.07 -2.34,-2.52 -0.36,-0.09 -0.72,-0.18 -1.08,-0.18 -0.9,0 -1.71,0.45 -2.43,1.44 m -220.5,4.32 -0.45,-0.18 0.45,0.18 m 307.35,5.13 -0.09,-0.36 0.09,0.36 m -303.3,3.6 -0.18,-0.09 0.18,0.09 m 301.14,6.48 v -0.09 0.09"
         clip-rule="evenodd"
         id="path11260" />
    </clipPath>
    <clipPath
       clipPathUnits="userSpaceOnUse"
       id="clipPath8914">
      <path
         d="m 1766.87,2182.21 c -21.07,7.14 -44.26,4.75 -65.78,-0.92 -28.15,-7.41 -57.67,-23.53 -65.43,-51.59 -4.85,-17.54 -4.32,-40.73 4.79,-56.48 6.01,-10.37 13.96,-19.82 24.11,-26.2 22.84,-14.34 47.5,-9.31 84.2,3.74 22.94,8.16 59.8,35.74 59.54,70.28 -0.22,28.63 -15.41,52.34 -41.43,61.17"
         id="path8912" />
    </clipPath>
    <clipPath
       clipPathUnits="userSpaceOnUse"
       id="clipPath8990">
      <path
         d="m 1644.03,2118.99 c -21.07,7.15 -44.26,4.76 -65.77,-0.91 -28.15,-7.42 -57.68,-23.54 -65.44,-51.6 -4.85,-17.54 -4.31,-40.72 4.8,-56.47 6,-10.38 13.96,-19.82 24.11,-26.2 22.84,-14.35 47.5,-9.31 84.19,3.74 22.95,8.15 59.81,35.74 59.54,70.28 -0.21,28.63 -15.4,52.35 -41.43,61.16"
         id="path8988" />
    </clipPath>
    <clipPath
       clipPathUnits="userSpaceOnUse"
       id="clipPath9068">
      <path
         d="m 1369.12,2043.15 c -7.56,21.58 -24.19,38.84 -42.41,52.66 -23.84,18.1 -55.59,31.78 -83.21,20.28 -17.27,-7.17 -35.7,-22.3 -42.68,-39.65 -4.6,-11.43 -7.2,-23.85 -5.93,-36.11 2.85,-27.58 22.55,-44.34 56.35,-65.79 21.14,-13.4 66.83,-25.76 94.62,-3.67 23.03,18.31 32.6,45.62 23.26,72.28"
         id="path9066" />
    </clipPath>
    <clipPath
       clipPathUnits="userSpaceOnUse"
       id="clipPath9128">
      <path
         d="m 1771.39,2536.83 c -22.44,4.44 -45.75,-1.12 -66.91,-9.8 -27.68,-11.35 -55.59,-31.76 -59.72,-61.39 -2.57,-18.53 1.09,-42.09 12.51,-56.91 7.51,-9.76 16.89,-18.31 28.09,-23.44 25.21,-11.54 49.65,-3.08 85.29,15.15 22.28,11.41 56.12,44.49 51.2,79.65 -4.08,29.14 -22.75,51.26 -50.46,56.74"
         id="path9126" />
    </clipPath>
    <clipPath
       clipPathUnits="userSpaceOnUse"
       id="clipPath9170">
      <path
         d="m 1848.35,2430.37 c -21.66,7.34 -45.5,4.88 -67.61,-0.94 -28.94,-7.62 -59.29,-24.19 -67.26,-53.03 -4.98,-18.03 -4.44,-41.86 4.93,-58.06 6.17,-10.65 14.35,-20.37 24.78,-26.92 23.48,-14.75 48.82,-9.56 86.54,3.84 23.58,8.38 61.47,36.74 61.2,72.24 -0.22,29.42 -15.83,53.8 -42.58,62.87"
         id="path9168" />
    </clipPath>
    <clipPath
       clipPathUnits="userSpaceOnUse"
       id="clipPath9242">
      <path
         d="m 1826.38,2296.44 c -21.07,7.15 -44.26,4.76 -65.78,-0.91 -28.14,-7.42 -57.67,-23.54 -65.43,-51.6 -4.85,-17.53 -4.32,-40.72 4.79,-56.47 6.01,-10.37 13.97,-19.82 24.12,-26.2 22.83,-14.34 47.49,-9.31 84.19,3.74 22.94,8.15 59.81,35.75 59.54,70.29 -0.21,28.62 -15.4,52.33 -41.43,61.15"
         id="path9240" />
    </clipPath>
    <clipPath
       clipPathUnits="userSpaceOnUse"
       id="clipPath9322">
      <path
         d="m 1724.94,2459.06 c -21.66,7.34 -45.49,4.89 -67.61,-0.94 -28.93,-7.63 -59.28,-24.19 -67.25,-53.03 -4.99,-18.03 -4.44,-41.86 4.93,-58.05 6.17,-10.66 14.34,-20.37 24.78,-26.93 23.48,-14.74 48.82,-9.56 86.54,3.84 23.58,8.38 61.47,36.74 61.2,72.25 -0.23,29.42 -15.84,53.79 -42.59,62.86"
         id="path9320" />
    </clipPath>
    <clipPath
       clipPathUnits="userSpaceOnUse"
       id="clipPath9356">
      <path
         d="m 1336.39,2575.09 c -2.26,-22.76 5.52,-45.43 16.19,-65.65 13.96,-26.47 36.96,-52.29 66.85,-53.54 18.69,-0.78 41.78,5.13 55.44,17.92 8.99,8.42 16.6,18.58 20.63,30.22 9.06,26.2 -1.71,49.72 -23.29,83.44 -13.49,21.07 -49.68,51.57 -84.2,43.29 -28.61,-6.86 -48.83,-27.57 -51.62,-55.68"
         id="path9354" />
    </clipPath>
    <clipPath
       clipPathUnits="userSpaceOnUse"
       id="clipPath9388">
      <path
         d="m 1396.13,2512.31 c -19.71,-11.58 -33.44,-31.23 -43.49,-51.77 -13.14,-26.88 -20.45,-60.68 -3.84,-85.57 10.38,-15.55 28.78,-30.72 47.15,-34.21 12.11,-2.31 24.8,-2.46 36.58,1.14 26.5,8.13 39.15,30.69 53.67,68 9.07,23.32 12.38,70.53 -14.66,93.54 -22.41,19.06 -51.06,23.19 -75.41,8.87"
         id="path9386" />
    </clipPath>
    <clipPath
       clipPathUnits="userSpaceOnUse"
       id="clipPath9412">
      <path
         d="m 1209.01,2517.09 c -4.09,-22.5 1.84,-45.72 10.84,-66.74 11.79,-27.5 32.63,-55.09 62.33,-58.75 18.56,-2.28 42.06,1.75 56.7,13.39 9.64,7.67 18.04,17.18 22.99,28.46 11.15,25.39 2.31,49.7 -16.49,85.05 -11.75,22.09 -45.36,55.41 -80.43,49.94 -29.07,-4.54 -50.9,-23.56 -55.94,-51.35"
         id="path9410" />
    </clipPath>
    <clipPath
       clipPathUnits="userSpaceOnUse"
       id="clipPath9496">
      <path
         d="m 1102.54,2404.53 c 7.15,-21.72 23.45,-39.3 41.4,-53.46 23.49,-18.54 54.98,-32.82 82.82,-21.85 17.4,6.85 36.12,21.62 43.41,38.84 4.81,11.34 7.66,23.72 6.62,35.99 -2.33,27.62 -21.71,44.76 -55.1,66.84 -20.88,13.8 -66.32,27.03 -94.53,5.46 -23.37,-17.86 -33.46,-45 -24.62,-71.82"
         id="path9494" />
    </clipPath>
    <clipPath
       clipPathUnits="userSpaceOnUse"
       id="clipPath9574">
      <path
         d="m 1317.75,2424.96 c -22.14,-5.74 -40.72,-20.87 -56.01,-37.88 -20.01,-22.25 -36.3,-52.74 -27.14,-81.23 5.72,-17.81 19.26,-37.44 35.97,-45.84 11.01,-5.52 23.17,-9.16 35.49,-8.91 27.71,0.55 46.06,18.78 70.24,50.69 15.12,19.94 31.24,64.43 11.54,93.97 -16.33,24.48 -42.75,36.29 -70.09,29.2"
         id="path9572" />
    </clipPath>
    <clipPath
       clipPathUnits="userSpaceOnUse"
       id="clipPath9598">
      <path
         d="m 1751.33,2327.18 c -20.65,9.83 -44.61,10.17 -67.25,6.97 -29.63,-4.19 -61.71,-17.1 -73,-44.8 -7.06,-17.32 -9.3,-41.06 -1.89,-58.23 4.88,-11.32 11.87,-21.91 21.46,-29.64 21.6,-17.39 47.37,-15.21 86.4,-6.3 24.4,5.57 65.34,29.3 69.22,64.59 3.23,29.24 -9.43,55.28 -34.94,67.41"
         id="path9596" />
    </clipPath>
    <clipPath
       clipPathUnits="userSpaceOnUse"
       id="clipPath9644">
      <path
         d="m 1647.02,2229.73 c -22.83,1.41 -45.2,-7.21 -65,-18.63 -25.93,-14.94 -50.87,-38.88 -51.01,-68.8 -0.09,-18.71 6.69,-41.57 19.97,-54.73 8.75,-8.67 19.18,-15.9 30.97,-19.49 26.52,-8.08 49.62,3.56 82.51,26.38 20.56,14.27 49.69,51.57 40.12,85.76 -7.92,28.33 -29.38,47.77 -57.56,49.51"
         id="path9642" />
    </clipPath>
    <clipPath
       clipPathUnits="userSpaceOnUse"
       id="clipPath9712">
      <path
         d="m 1507.16,2157.63 c -22.82,1.41 -45.18,-7.21 -65,-18.63 -25.92,-14.94 -50.87,-38.88 -51,-68.8 -0.09,-18.71 6.69,-41.57 19.97,-54.73 8.75,-8.67 19.19,-15.9 30.97,-19.49 26.52,-8.08 49.62,3.56 82.51,26.38 20.56,14.28 49.69,51.57 40.13,85.76 -7.93,28.33 -29.38,47.77 -57.58,49.51"
         id="path9710" />
    </clipPath>
    <clipPath
       clipPathUnits="userSpaceOnUse"
       id="clipPath9790">
      <path
         d="m 1476.73,2249.22 c -22.76,2.2 -45.41,-5.64 -65.61,-16.36 -26.42,-14.04 -52.18,-37.1 -53.36,-67 -0.73,-18.68 5.25,-41.77 18.06,-55.38 8.45,-8.98 18.63,-16.56 30.28,-20.56 26.23,-8.99 49.72,1.85 83.38,23.52 21.04,13.54 51.45,49.81 43.07,84.31 -6.94,28.59 -27.7,48.75 -55.82,51.47"
         id="path9788" />
    </clipPath>
    <clipPath
       clipPathUnits="userSpaceOnUse"
       id="clipPath9814">
      <path
         d="m 1441.2,2108.72 c -7.57,21.58 -24.2,38.84 -42.42,52.66 -23.83,18.09 -55.58,31.78 -83.2,20.28 -17.28,-7.18 -35.71,-22.3 -42.69,-39.65 -4.59,-11.43 -7.19,-23.86 -5.92,-36.11 2.85,-27.58 22.55,-44.35 56.35,-65.78 21.14,-13.41 66.82,-25.77 94.61,-3.68 23.03,18.31 32.61,45.62 23.27,72.28"
         id="path9812" />
    </clipPath>
    <clipPath
       clipPathUnits="userSpaceOnUse"
       id="clipPath9894">
      <path
         d="m 1010.57,2279.72 c 14.59,-17.61 36.17,-28.02 58.05,-34.66 28.64,-8.69 63.16,-10.5 85.08,9.87 13.7,12.73 25.74,33.31 26.26,52.01 0.33,12.31 -1.53,24.87 -6.98,35.92 -12.25,24.86 -36.55,33.75 -75.69,42.12 -24.48,5.24 -71.61,0.97 -90,-29.4 -15.243,-25.16 -14.743,-54.11 3.28,-75.86"
         id="path9892" />
    </clipPath>
    <clipPath
       clipPathUnits="userSpaceOnUse"
       id="clipPath9942">
      <path
         d="m 931.305,2207.69 c 14.582,-17.62 36.172,-28.03 58.054,-34.67 28.631,-8.68 63.161,-10.5 85.071,9.87 13.7,12.74 25.74,33.32 26.26,52.01 0.34,12.31 -1.53,24.87 -6.98,35.92 -12.25,24.87 -36.54,33.76 -75.69,42.13 -24.469,5.23 -71.602,0.96 -89.997,-29.41 -15.242,-25.16 -14.738,-54.1 3.282,-75.85"
         id="path9940" />
    </clipPath>
    <clipPath
       clipPathUnits="userSpaceOnUse"
       id="clipPath10020">
      <path
         d="m 880.613,2019.86 c 20.5,-10.13 44.453,-10.85 67.145,-8 29.687,3.75 61.952,16.16 73.662,43.7 7.32,17.2 9.93,40.91 2.78,58.19 -4.7,11.39 -11.53,22.09 -21.01,29.96 -21.323,17.72 -47.127,15.93 -86.288,7.62 -24.48,-5.2 -65.781,-28.3 -70.199,-63.54 -3.668,-29.19 8.594,-55.41 33.91,-67.93"
         id="path10018" />
    </clipPath>
    <clipPath
       clipPathUnits="userSpaceOnUse"
       id="clipPath10084">
      <path
         d="m 966.59,2092.41 c 20.5,-10.14 44.45,-10.85 67.14,-8 29.69,3.74 61.96,16.16 73.67,43.7 7.32,17.2 9.93,40.9 2.78,58.18 -4.71,11.39 -11.53,22.09 -21.01,29.96 -21.32,17.72 -47.13,15.93 -86.29,7.63 -24.482,-5.2 -65.782,-28.31 -70.2,-63.54 -3.668,-29.19 8.593,-55.41 33.91,-67.93"
         id="path10082" />
    </clipPath>
    <clipPath
       clipPathUnits="userSpaceOnUse"
       id="clipPath10150">
      <path
         d="m 1076.83,1957.79 c 22.27,5.22 41.21,19.89 56.9,36.53 20.54,21.76 37.55,51.86 29.08,80.56 -5.3,17.94 -18.35,37.88 -34.86,46.68 -10.87,5.79 -22.95,9.72 -35.27,9.77 -27.72,0.11 -46.5,-17.68 -71.44,-49 -15.59,-19.57 -32.775,-63.67 -13.78,-93.67 15.73,-24.85 41.87,-37.3 69.37,-30.87"
         id="path10148" />
    </clipPath>
    <clipPath
       clipPathUnits="userSpaceOnUse"
       id="clipPath10232">
      <path
         d="m 1227.62,1999.91 c 18.68,13.2 30.71,33.93 39.01,55.24 10.85,27.88 15.31,62.16 -3.32,85.58 -11.65,14.63 -31.25,28.21 -49.85,30.16 -12.26,1.28 -24.92,0.38 -36.35,-4.2 -25.73,-10.31 -36.46,-33.86 -47.8,-72.25 -7.09,-24 -6.45,-71.32 22.42,-91.99 23.92,-17.12 52.82,-18.84 75.89,-2.54"
         id="path10230" />
    </clipPath>
    <clipPath
       clipPathUnits="userSpaceOnUse"
       id="clipPath11274">
      <path
         d="m 1388.7,2118.56 v 9.31 c 3.89,22.3 36.45,29.03 54.45,36.26 9.45,3.78 18.9,8.28 27.36,14.13 -2.61,4.14 -4.86,8.46 -6.75,12.87 -3.24,7.56 -4.68,16.29 -4.59,25.2 0,0.81 0,1.53 0,2.25 -6.48,-7.38 -13.41,-13.59 -19.71,-17.91 -0.54,-0.45 -1.17,-0.81 -1.71,-1.17 -18.75,-12.05 -34.39,-20.8 -49.05,-24.6 v 219.5 c 2.67,-4.29 4.56,-8.84 5.94,-13.55 3.6,15.48 17.01,31.23 24.3,42.84 6.39,10.08 12.06,20.88 15.39,32.4 1.71,5.85 2.61,11.88 4.32,17.73 0.54,1.98 1.17,4.05 2.16,5.94 0.72,7.11 4.23,13.77 9.99,16.92 -2.88,9.54 -4.14,19.89 -4.14,30.15 0,0.72 0,1.44 0,2.07 -7.29,4.05 -12.78,10.8 -17.55,17.46 -5.76,8.19 -12.33,19.17 -12.69,29.43 -0.18,4.41 0.9,8.46 2.97,11.88 3.78,11.07 16.2,16.29 27.09,12.33 3.87,-1.35 7.2,-3.78 10.08,-6.75 1.17,-0.9 2.34,-1.89 3.51,-2.88 3.51,7.38 7.92,14.31 13.41,20.52 18.81,21.15 47.34,26.01 74.52,14.85 20.7,-8.55 32.94,-29.97 38.7,-50.85 4.14,5.94 8.82,11.43 14.31,16.2 21.24,18.63 50.13,19.89 75.69,5.4 24.57,-13.95 33.12,-46.62 33.3,-71.82 0,-5.58 -0.36,-10.71 -1.08,-15.3 -0.09,-0.72 -0.27,-1.35 -0.36,-2.07 -6.75,-36.45 -14.31,-60.21 -34.74,-73.71 11.88,-22.5 30.33,-40.23 43.74,-53.01 -2.25,-0.27 -4.41,-0.45 -6.57,-0.54 2.88,-1.08 5.4,-2.61 7.47,-4.68 9.9,-6.21 12.24,-19.44 5.94,-29.16 -2.25,-3.51 -5.4,-6.21 -8.91,-8.28 -9.36,-8.19 -23.85,-11.88 -35.91,-12.33 -3.69,-11.88 -9.18,-22.59 -14.58,-30.24 -0.45,-0.63 -0.81,-1.17 -1.26,-1.71 -10.62,-13.95 -20.07,-25.29 -29.7,-33.66 4.59,-9 7.11,-19.17 7.2,-30.06 1.98,0 3.87,-0.09 5.76,-0.18 5.49,-0.36 10.71,-1.35 15.57,-2.97 0.81,3.06 2.34,6.03 4.59,8.73 6.48,7.83 16.29,11.43 25.74,14.13 9.63,2.7 22.23,5.13 32.04,2.07 4.23,-1.35 7.65,-3.78 10.17,-6.93 9.18,-7.29 9.81,-20.7 2.43,-29.61 -2.61,-3.15 -6.03,-5.49 -9.81,-7.2 -11.52,-7.83 -28.8,-9.45 -41.49,-7.47 -0.99,0.18 -1.98,0.36 -2.97,0.63 -2.7,0.36 -5.22,0.9 -7.65,1.8 -2.52,0.9 -4.68,2.16 -6.3,3.69 -6.3,0.99 -12.69,1.8 -18.81,1.53 -0.45,0 -0.9,-0.09 -1.26,-0.09 3.96,-7.02 7.92,-13.41 11.43,-19.08 -9.9,1.26 -18.63,4.32 -26.82,10.08 -13.05,-22.95 -41.04,-38.34 -60.3,-43.38 -0.63,-0.09 -1.35,-0.27 -1.98,-0.45 -5.31,-1.26 -10.44,-2.34 -15.3,-3.24 -2.88,-3.96 -5.13,-8.1 -6.21,-13.05 -2.16,-9.72 -3.51,-18.72 -10.17,-26.64 -0.81,-0.9 -1.8,-1.71 -2.88,-2.25 -4.05,10.44 -6.12,21.96 -6.03,32.22 0,2.16 0.18,4.32 0.45,6.39 -7.65,-0.45 -14.58,-0.09 -21.06,1.17 -2.52,-3.06 -5.22,-6.03 -7.92,-8.91 -0.18,-0.54 -0.36,-1.17 -0.54,-1.71 -1.35,-3.87 -3.78,-7.2 -6.75,-10.08 -7.56,-10.62 -21.78,-17.73 -33.93,-20.61 -0.81,-0.36 -1.62,-0.72 -2.43,-1.08 -12.87,-5.4 -27.18,-8.01 -41.04,-9 -0.9,-0.09 -1.8,-0.09 -2.79,-0.09 -12.78,0 -24.16,6.48 -26.28,20.22 m 286.56,269.13 c 2.25,-3.42 4.05,-6.93 5.4,-10.71 5.22,1.98 11.07,3.69 16.74,4.23 -4.05,0.9 -8.01,2.25 -12.06,4.05 -6.3,2.88 -12.06,6.93 -17.19,11.61 2.52,-2.79 4.95,-5.85 7.11,-9.18 m -34.74,35.1 c -0.63,-2.25 -1.17,-4.5 -1.62,-6.66 8.64,-2.79 16.65,-7.47 23.76,-13.77 -1.89,1.98 -3.69,4.14 -5.4,6.39 -3.42,4.41 -6.12,9.54 -8.19,15.21 -2.79,-0.54 -5.67,-0.9 -8.55,-1.17 m 22.77,-305.64 c -6.12,1.44 -10.62,3.24 -15.03,7.83 -3.51,3.6 -6.75,7.47 -10.08,11.16 -12.78,14.31 9.36,34.2 22.14,19.89 3.42,-3.69 6.84,-7.38 10.08,-11.16 4.23,-4.95 5.4,-9.54 6.12,-15.84 0.9,-7.02 -3.78,-12.24 -10.26,-12.24 -0.9,0 -1.89,0.09 -2.97,0.36 m 15.3,21.06 c -3.51,3.24 -4.86,8.46 -7.02,12.69 -1.98,4.05 -4.5,8.19 -3.51,12.78 0.36,1.71 1.89,3.24 3.6,3.69 11.34,2.79 26.37,-13.95 22.41,-24.84 -1.53,-4.23 -5.31,-6.84 -9.18,-6.84 -2.16,0 -4.41,0.81 -6.3,2.52 M 1403.1,2593.7 c -1.62,0.36 -3.15,1.98 -3.51,3.69 -2.34,11.52 15.03,25.83 25.65,21.42 6.48,-2.61 9,-10.26 3.78,-15.57 -3.33,-3.42 -8.64,-4.5 -12.96,-6.57 -3.24,-1.53 -6.66,-3.33 -10.35,-3.33 -0.81,0 -1.71,0.18 -2.61,0.36"
         clip-rule="evenodd"
         id="path11272" />
    </clipPath>
    <clipPath
       clipPathUnits="userSpaceOnUse"
       id="clipPath11286">
      <path
         d="m 1068.84,2126.06 c -15.03,7.47 -25.38,19.71 -30.6,34.47 -1.08,2.97 -1.89,5.94 -2.52,9 -0.9,4.5 -1.35,9.18 -1.44,13.95 0,0.36 0,0.72 0,1.08 0,3.15 0.27,6.3 0.63,9.45 4.41,35.28 45.72,58.41 70.2,63.54 3.96,0.81 7.83,1.62 11.52,2.34 -1.62,5.4 -2.43,10.89 -2.43,16.47 -0.27,19.35 7.92,39.33 18.54,56.34 -1.89,-2.16 -4.32,-3.96 -7.2,-5.31 -9.18,-4.32 -19.62,-3.51 -29.34,-1.98 -9.9,1.62 -22.32,4.68 -29.88,11.7 -3.24,2.97 -5.4,6.66 -6.3,10.53 -5.22,10.44 -0.27,22.86 10.26,27.9 3.69,1.71 7.74,2.43 11.88,2.34 13.77,2.25 30.15,-3.6 40.77,-10.71 l 2.52,-1.8 c 2.25,-1.44 4.32,-3.06 6.12,-4.86 1.98,-1.98 3.33,-4.05 4.32,-6.21 2.7,-5.13 2.7,-10.98 0.45,-16.2 4.68,7.02 9.9,13.77 15.75,19.98 -0.36,3.06 -0.72,6.03 -1.08,8.82 1.98,-1.26 3.96,-2.61 5.76,-4.05 8.19,7.74 17.28,14.31 27.63,18.72 26.01,11.07 53.91,3.33 73.71,-18.45 10.8,-11.88 14.85,-27.9 14.85,-43.92 0,-8.91 -1.17,-17.73 -3.06,-25.83 2.16,-1.8 4.41,-3.51 6.66,-5.13 2.52,18.81 26.1,33.84 38.88,45.27 8.91,7.92 17.28,16.83 23.58,26.91 0.9,1.44 1.71,2.88 2.52,4.32 -6.84,10.53 3.15,22.95 13.68,22.77 5.4,7.11 14.22,10.71 23.67,4.86 1.53,-0.99 2.88,-2.07 3.96,-3.24 -0.45,3.96 -1.35,7.92 -1.62,11.97 -0.09,0.9 0.09,1.98 0.18,3.06 2.25,-2.61 4.41,-5.4 6.39,-8.37 0.31,-0.46 0.61,-0.93 0.9,-1.39 v -219.5 c -2.09,-0.54 -4.16,-0.98 -6.21,-1.32 -2.61,-3.51 -4.68,-7.29 -5.76,-11.7 -2.52,-9.72 -4.23,-18.63 -11.16,-26.28 -0.81,-0.9 -1.8,-1.62 -2.88,-2.16 -3.69,10.62 -5.31,22.14 -4.95,32.4 0.09,2.97 0.45,5.94 1.08,8.82 -0.45,0.18 -0.99,0.27 -1.44,0.45 -8.46,-12.78 -19.35,-23.31 -28.71,-29.7 -0.54,-0.45 -1.17,-0.81 -1.71,-1.17 -33.66,-21.69 -57.15,-32.49 -83.34,-23.49 -11.7,3.96 -21.87,11.52 -30.24,20.52 -3.24,3.42 -6.03,7.38 -8.37,11.79 -14.22,-21.51 -42.66,-31.68 -69.03,-34.92 -7.23,-0.92 -14.59,-1.47 -21.92,-1.47 -15.67,0 -31.24,2.52 -45.22,9.39 m 319.77,-6.93 c -0.43,3.16 -0.38,6.06 0.09,8.74 v -9.31 c -0.03,0.19 -0.06,0.38 -0.09,0.57 m -349.38,221.22 c -9.9,6.39 -7.83,28.8 2.7,33.3 6.48,2.79 13.68,-0.9 13.77,-8.28 0.09,-4.77 -2.88,-9.36 -4.5,-13.77 -1.53,-4.23 -2.79,-8.91 -6.93,-11.34 -0.72,-0.45 -1.53,-0.63 -2.43,-0.63 -0.9,0 -1.89,0.27 -2.61,0.72"
         clip-rule="evenodd"
         id="path11284" />
    </clipPath>
    <clipPath
       clipPathUnits="userSpaceOnUse"
       id="clipPath6598">
      <path
         d="m 3786.34,3495.07 c -29.8,6.88 -61,9.29 -89.39,20.65 -59.85,23.94 -144.54,-12.3 -161.55,-25.49 -30.95,-24.01 -47.22,-51.39 -67.22,-85.08 -20.18,-34 -27.12,-74.15 -30.58,-113.53 -5.11,-58.23 -3.11,-118.44 18.39,-172.8 16.74,-42.3 44.51,-79.22 65.45,-119.6 11.95,-23.06 21.88,-47.59 38.61,-67.46 37.03,-44 98.95,-56.36 156.14,-62.5 32.64,-3.5 65.41,-5.87 98.23,-7.11 20.78,-0.78 41.89,-1.07 62.03,4.18 53.91,14.05 89.86,64.12 116.61,112.99 22.2,40.56 41.37,82.77 57.31,126.17 23.35,63.64 39.87,131.82 30.57,198.97 -9.3,67.16 -48.56,133.17 -110.97,159.67 -30.51,12.96 -64.2,15.87 -97.24,18.62 -20.26,1.69 -40.5,3.38 -60.75,5.06 -9.92,0.83 -15.95,5.02 -25.64,7.26"
         id="path6596" />
    </clipPath>
    <clipPath
       clipPathUnits="userSpaceOnUse"
       id="clipPath6630">
      <path
         d="m 3534.4,3184.06 c -33.58,34.38 -86.2,45.64 -133.45,36.84 -47.24,-8.81 -89.58,-35.35 -125.52,-67.25 -15.01,-13.33 -29.19,-27.74 -40.87,-44.06 -44.48,-62.18 -48.06,-144.68 -39.24,-220.63 7.29,-62.84 24.28,-129.01 71.35,-171.29 13.2,-11.85 28.29,-21.36 43.73,-30.09 69.38,-39.21 147.18,-63.42 226.56,-70.52 16.94,-1.51 42.23,-2.53 58.85,1.11 20.73,4.54 46.24,9.47 64.84,19.69 45.91,25.22 69.98,32.82 112.3,63.67 42.33,30.86 74.61,90.98 84.52,142.41 7.7,39.98 12.46,83.77 1.93,123.1 -5.22,19.51 -10.9,39.13 -20.81,56.72 -23.24,41.29 -68.8,67.52 -115.86,72.95 -24.76,2.85 -49.92,0.34 -73.93,-6.16 -11.66,-3.16 -23.05,-7.27 -34.1,-12.17 -7.18,-3.18 -20.48,-14.2 -28.47,-10.11 -10.28,5.25 -14.2,48.51 -18.4,60 -7.51,20.5 -18.08,40.07 -33.43,55.79"
         id="path6628" />
    </clipPath>
    <clipPath
       clipPathUnits="userSpaceOnUse"
       id="clipPath6664">
      <path
         d="m 3528.23,3216.48 c -33.59,34.38 -86.21,45.63 -133.45,36.83 -47.25,-8.79 -89.58,-35.34 -125.52,-67.25 -15.02,-13.32 -29.19,-27.73 -40.87,-44.05 -44.49,-62.18 -48.06,-144.68 -39.25,-220.62 7.3,-62.85 24.29,-129.02 71.36,-171.3 13.19,-11.85 28.29,-21.36 43.73,-30.09 69.38,-39.2 147.18,-63.42 226.55,-70.52 16.95,-1.51 42.24,-2.53 58.86,1.11 20.72,4.55 46.24,9.47 64.84,19.68 45.9,25.22 69.98,32.83 112.3,63.68 42.33,30.86 74.61,90.98 84.52,142.41 7.7,39.98 12.45,83.77 1.93,123.09 -5.23,19.51 -10.91,39.13 -20.81,56.73 -23.25,41.29 -68.8,67.52 -115.86,72.95 -24.77,2.85 -49.92,0.34 -73.94,-6.17 -11.66,-3.16 -23.06,-7.27 -34.09,-12.16 -7.18,-3.19 -20.48,-14.19 -28.47,-10.12 -10.28,5.25 -14.21,48.52 -18.41,60 -7.51,20.51 -18.07,40.08 -33.42,55.8"
         id="path6662" />
    </clipPath>
    <clipPath
       clipPathUnits="userSpaceOnUse"
       id="clipPath2990-2">
      <path
         d="M 0,0 H 4943 V 4359 H 0 Z"
         id="path2988-2" />
    </clipPath>
    <clipPath
       clipPathUnits="userSpaceOnUse"
       id="clipPath2996-3">
      <path
         d="m 1789.25,4062.13 c -34.41,62.46 -116.1,64.33 -174.43,44.37 -32.95,-11.27 -64.45,-27.01 -95.21,-43.2 -9.21,-4.85 -19.39,-10.14 -29.27,-16.21 2.09,3.32 4.22,6.61 6.41,9.86 14.47,21.43 32.03,40.57 50.55,58.55 19.69,19.1 40.32,37.14 61.16,54.95 10.4,8.89 20.72,17.8 32.26,25.17 5.35,3.41 4.88,4.6 10.2,8.06 5.98,3.89 11.58,10.29 23.16,19.95 5.48,4.57 24.4,11.95 18.01,16.08 -11.84,7.65 -53.39,0.41 -66.29,-3.3 -16.22,-4.68 -32.47,-11.88 -46.85,-20.65 -27.62,-16.84 -53.52,-38.63 -76.92,-60.91 -12.24,-11.65 -24.01,-23.95 -34.99,-36.9 -4.15,30.69 -11.46,60.52 -22.64,89.51 -11.88,30.78 -27.48,60.13 -46.91,86.85 -9.34,12.86 -19.76,24.89 -31.08,36.04 -5.33,5.25 -10.85,10.31 -16.89,14.73 -6.79,4.96 -16.61,8.2 -22.75,13.56 -2.44,2.13 -5.9,-1.23 -3.59,-3.58 4.83,-4.87 7.88,-13.58 11.5,-19.45 3.8,-6.15 7.83,-12.09 11.91,-18.06 8.6,-12.6 16.53,-25.66 24.25,-38.82 15.49,-26.41 28.02,-54.18 37.67,-83.24 7.6,-22.88 13.39,-46.69 16.91,-70.66 -8.22,13.05 -17.59,25.38 -28.16,36.94 -18.82,20.59 -41.2,37.8 -66.24,49.93 -25.13,12.17 -113.11,22.86 -122.12,11.28 -4.76,-6.12 32.59,-13.11 40.54,-16.73 22.7,-10.35 39.26,-25.66 59.19,-40.95 18.26,-14.01 35.75,-30.13 49.93,-48.33 9.32,-11.95 17.6,-25.18 24.49,-38.95 -13.67,0.38 -26.98,-0.38 -37.31,-0.6 -38.71,-0.8 -78.15,-2.82 -115.45,-14.04 -30.04,-9.04 -58.89,-29.57 -79.93,-53.36 -8.81,-9.97 -29.05,-44.67 -25.74,-59.2 1.57,-6.86 40.58,25.84 45.09,29.16 9.34,6.9 19.62,12.77 29.96,18.02 21.46,10.88 45.98,17.14 69.85,19.47 29.5,2.89 58.97,1.73 88.55,1.08 6.21,-0.13 12.39,-0.29 18.58,-0.5 -16.17,-12.01 -27.27,-25.96 -39.08,-40.82 -11.53,-14.51 -18.46,-26.14 -23.92,-43.98 -4.38,-14.31 -4.37,-30.68 -2.44,-55.77 0.95,-12.41 3.47,-25.47 10.93,-15.45 4,5.37 16.36,25.89 19.83,31.59 3.55,5.85 7.9,11.4 11.76,17.09 7.28,10.72 16.14,20.99 25.27,30.17 12.82,12.91 40.33,30.81 55.1,40.18 5.39,-3.03 30.3,-17.27 39.24,-13.51 13.86,5.83 25.84,9.88 37.8,18.84 11.17,8.36 23.48,15.3 35.76,21.88 25.16,13.49 50.83,26.91 77.64,36.77 25.98,9.56 51.95,15.61 79.63,15.98 25.02,0.33 51.73,-3.61 76.05,-9.07 9.97,-2.23 14.08,1.01 9.03,10.18"
         id="path2994-7" />
    </clipPath>
    <clipPath
       clipPathUnits="userSpaceOnUse"
       id="clipPath2402">
      <path
         d="m 4246.45,312.859 c -38.01,-22.918 -60.66,-66.058 -67.29,-109.949 -9.93,-65.699 14.03,-135.6209 62.18,-181.41 5.66,-5.3789 11.75,-10.5195 18.93,-13.57812 6.69,-2.85157 14.01,-3.78125 21.23,-4.64063 17.54,-2.07031 35.22,-3.921875 52.81,-2.410156 36.06,3.097656 70,20.488306 96.71,44.890606 26.71,24.4102 46.61,55.5273 61.79,88.3673 13.06,28.273 22.85,61 11.89,90.16 -10.87,28.922 -40.18,47.461 -70.18,54.883 -19.02,4.699 -36.56,8.258 -53.85,17.988 -12.13,6.809 -23.08,15.731 -35.68,21.711 -30.91,14.668 -69.44,11.539 -98.54,-6.012"
         id="path2400" />
    </clipPath>
    <clipPath
       clipPathUnits="userSpaceOnUse"
       id="clipPath2434">
      <path
         d="m 4536.87,217.73 c -9.98,-16.808 -9.88,-37.73 -7.05,-57.078 6.82,-46.621 28.76,-91.6911 64.53,-122.3512 35.77,-30.64846 85.79,-45.51955 131.69,-34.87111 18.1,4.19922 35.59,12.37891 48.81,25.47261 15.87,15.7071 37.74,36.5274 45.4,57.5196 14.68,40.2581 14.32,83.3281 9.82,125.9491 -5.2,49.289 -39.35,98.348 -92.17,101.461 -47.76,2.809 -80.86,-22.352 -120.49,-43.16 -26.84,-14.09 -64.17,-25.352 -80.54,-52.942"
         id="path2432" />
    </clipPath>
    <clipPath
       clipPathUnits="userSpaceOnUse"
       id="clipPath2500">
      <path
         d="m 4671.59,697.012 c -51.45,22.789 -105.4,46.07 -161.58,42.758 -19.01,-1.129 -37.7,-5.309 -56.26,-9.641 -32.9,-7.688 -66.39,-16.227 -94.6,-34.848 -20.05,-13.23 -36.67,-31.101 -51.43,-50.07 -35.8,-45.981 -61.86,-99.539 -75.95,-156.09 -5.49,-22.07 -9.24,-44.742 -17.94,-65.75 -10.83,-26.129 -29.31,-49.051 -52.58,-65.16 3.98,-3.102 9.38,-2.16 14.8,-1.211 2.89,0.5 5.79,1 8.49,0.891 91.05,-3.789 182.98,16.25 264.2,57.589 22.27,11.329 43.86,24.309 62.67,40.762 33.76,29.52 57.18,68.867 79.16,107.957 15.88,28.242 31.32,56.731 46.31,85.449 8.7,16.684 19.21,36.711 34.71,47.364"
         id="path2498" />
    </clipPath>
    <clipPath
       clipPathUnits="userSpaceOnUse"
       id="clipPath2516">
      <path
         d="m 4671.59,697.012 c -51.45,22.789 -105.4,46.07 -161.58,42.758 -19.01,-1.129 -37.7,-5.309 -56.26,-9.641 -32.9,-7.688 -66.39,-16.227 -94.6,-34.848 -20.05,-13.23 -36.67,-31.101 -51.43,-50.07 -35.8,-45.981 -61.86,-99.539 -75.95,-156.09 -5.49,-22.07 -9.24,-44.742 -17.94,-65.75 -10.83,-26.129 -29.31,-49.051 -52.58,-65.16 3.98,-3.102 9.38,-2.16 14.8,-1.211 2.89,0.5 5.79,1 8.49,0.891 91.05,-3.789 182.98,16.25 264.2,57.589 22.27,11.329 43.86,24.309 62.67,40.762 33.76,29.52 57.18,68.867 79.16,107.957 15.88,28.242 31.32,56.731 46.31,85.449 8.7,16.684 19.21,36.711 34.71,47.364"
         id="path2514" />
    </clipPath>
    <clipPath
       clipPathUnits="userSpaceOnUse"
       id="clipPath3062">
      <path
         d="m 283.617,3201.89 c -21.199,20.06 -48.32,27.46 -75.965,34.28 -47.73,11.79 -109.2145,23.6 -158.277,64.07 -17.8867,14.76 -27.7227,15.56 -25.3477,-11.19 3.6993,-41.71 0.8047,-88.01 23.8438,-124.81 19.5352,-31.21 51.918,-54.44 87.7419,-63.03 42.117,-10.11 87.11,-2.51 125.133,17.63 9.988,5.29 19.473,13.09 22.602,24.48 l 0.437,1.88 c 0.125,-0.95 0.207,-1.92 0.188,-2.9 -0.09,-4.83 6.894,-6.84 9.215,-2.5 11.984,22.44 9.183,44.34 -9.571,62.09"
         id="path3060" />
    </clipPath>
    <clipPath
       clipPathUnits="userSpaceOnUse"
       id="clipPath3078">
      <path
         d="m 597.66,3355.2 c -24.945,51.58 -77.387,81.71 -111.605,126.33 -3.352,8.2 -9.95,13.86 -19.309,12.59 -8.094,-1.09 -15.918,-8.52 -15.266,-17.29 2.047,-27.59 3.774,-56.5 -0.71,-83.92 -4.571,-27.98 -12.696,-55.05 -20.344,-82.3 -13.113,-46.66 -27.817,-118.01 12.504,-156.19 45.351,-42.96 105.281,17.83 131.14,54.1 14.332,20.11 28.825,43.84 34.352,68.11 6.18,27.15 1.226,53.78 -10.762,78.57"
         id="path3076" />
    </clipPath>
    <clipPath
       clipPathUnits="userSpaceOnUse"
       id="clipPath3096">
      <path
         d="m 813.527,3336.54 c -60.64,11.56 -120.785,-6.57 -169.328,-43.69 -22.246,-17.01 -41.281,-36.44 -58.484,-58.51 -16.738,-21.48 -33.922,-48.14 -34.867,-76.08 -0.16,-4.85 3.457,-8.11 7.578,-8.85 0.39,-1.93 0.976,-3.85 1.812,-5.75 5.328,-12.13 20.684,-22.28 34.403,-16.89 24.683,9.7 51.16,12.67 76.254,20.97 23.593,7.8 45.941,19.3 65.804,34.22 40.067,30.11 70.692,69.37 93.379,113.91 7.469,14.68 2.031,37.14 -16.551,40.67"
         id="path3094" />
    </clipPath>
    <clipPath
       clipPathUnits="userSpaceOnUse"
       id="clipPath3110">
      <path
         d="m 909.918,3114.53 c -12.047,20.77 -29.891,38.57 -50.676,52.55 -36.094,24.28 -85.703,36.84 -126.582,19.91 -30.043,-12.44 -50.476,-38.44 -65.566,-65.07 -20.723,-36.58 -34.219,-77.83 -29.086,-118.7 5.133,-40.86 31.465,-80.94 72.98,-97.52 34.032,-13.58 74.289,-10.08 108.246,3.66 36.153,14.61 83.325,43.97 97.34,79.34 15.676,39.55 15.035,88.42 -6.656,125.83"
         id="path3108" />
    </clipPath>
    <clipPath
       clipPathUnits="userSpaceOnUse"
       id="clipPath3194">
      <path
         d="m 829.813,3071.36 c -1.84,7.52 4.515,24.39 11.886,27.52 15.614,6.63 21.942,-8.62 22.977,-11.54 1.715,-4.84 3.535,-10.46 2.054,-16.19 -0.125,-0.5 -2.621,-20 -11.144,-21.19 -19.207,-2.69 -24.121,14.66 -25.773,21.4 m 50.519,-40.44 c 7.07,6.52 10.086,14.33 9.32,23.08 1.485,3.54 1.821,7.73 1.352,12.34 -1.328,13.05 -2.953,28.4 -11.957,41.79 -7.399,11 -22.328,21.94 -38.125,22.65 -19.844,0.89 -28.442,-12.44 -35.25,-22.98 -7.805,-12.1 -11.652,-25.28 -4.949,-41.18 5.336,-12.66 16.543,-31.11 33.504,-39.33 18.211,-8.82 36.523,-5.21 46.105,3.63"
         id="path3192" />
    </clipPath>
    <clipPath
       clipPathUnits="userSpaceOnUse"
       id="clipPath3212">
      <path
         d="m 208.484,3248.36 c -14.652,-21.33 -23.703,-46.28 -27.656,-71.85 -6.863,-44.42 4.016,-94.77 39.598,-122.22 26.148,-20.17 61.039,-24.89 94.066,-24.53 45.36,0.48 91.91,9.75 129.391,35.31 37.476,25.56 64.324,69.48 61.137,114.73 -2.614,37.08 -24.809,70.89 -54.04,93.87 -31.113,24.46 -81.761,51.1 -122.816,45.3 -45.902,-6.47 -93.293,-32.17 -119.68,-70.61"
         id="path3210" />
    </clipPath>
    <clipPath
       clipPathUnits="userSpaceOnUse"
       id="clipPath3280">
      <path
         d="m 339.027,3262.22 c -7.316,-4.32 -29.257,-6.72 -36.586,-2.86 -15.539,8.18 -2.066,18.75 0.61,20.64 4.426,3.15 9.668,6.69 16.762,7.98 0.617,0.11 23.429,6.26 29.234,0.81 13.082,-12.26 -3.461,-22.7 -10.02,-26.57 M 357,3313.7 c -10.91,2.28 -21.105,1.22 -30.352,-2.85 -4.679,-0.4 -9.484,-1.86 -14.316,-4.05 -13.691,-6.2 -29.746,-13.53 -39.766,-25.21 -8.222,-9.59 -12.429,-24.4 -4.89,-35.67 9.472,-14.16 28.695,-14.75 43.906,-15.22 17.445,-0.53 34.004,2.12 47.996,13.21 11.133,8.82 25.578,24.08 25.703,39.2 0.133,16.23 -13.5,27.5 -28.281,30.59"
         id="path3278" />
    </clipPath>
    <clipPath
       clipPathUnits="userSpaceOnUse"
       id="clipPath3298">
      <path
         d="m 40.4961,3028.27 c -4.3516,-22.47 -2.8828,-45.9 2.9453,-68.04 10.1172,-38.45 36.7188,-75.45 75.2736,-85.15 28.332,-7.13 58.293,1.38 84.953,13.32 36.617,16.41 71.102,40.37 92.473,74.34 21.375,33.96 27.636,79.06 9.074,114.63 -15.215,29.16 -45.156,48.74 -76.981,57.06 -33.875,8.86 -84.351,12.57 -115.601,-6.63 -34.9494,-21.46 -64.3088,-59.04 -72.1369,-99.53"
         id="path3296" />
    </clipPath>
    <clipPath
       clipPathUnits="userSpaceOnUse"
       id="clipPath3378">
      <path
         d="m 141.484,3085.61 c -4.41,-6.08 -21.363,-15.78 -28.668,-15.24 -15.4879,1.14 -8.293,14.47 -6.793,16.96 2.477,4.11 5.481,8.84 10.778,12.39 0.457,0.3 16.793,13.35 23.422,10.98 14.941,-5.33 5.211,-19.64 1.261,-25.09 m -3.605,48.1 c -9.656,-2.01 -17.547,-6.46 -23.606,-13.03 -3.664,-1.98 -7.043,-4.86 -10.187,-8.34 -8.9102,-9.87 -19.3438,-21.48 -23.3438,-34.49 -3.2891,-10.68 -1.4688,-24.18 8.625,-30.66 12.6838,-8.13 28.4848,-1.82 40.9848,3.17 14.336,5.72 26.828,13.72 34.261,27.65 5.914,11.1 12.242,28.57 7.008,40.87 -5.621,13.21 -20.66,17.54 -33.742,14.83"
         id="path3376" />
    </clipPath>
    <clipPath
       clipPathUnits="userSpaceOnUse"
       id="clipPath3396">
      <path
         d="m 527.344,3263.13 c -24.309,-8.89 -46.145,-23.96 -64.196,-42.51 -31.347,-32.2 -51.679,-79.53 -38.609,-122.53 9.609,-31.6 35.301,-55.67 62.414,-74.53 37.235,-25.91 80.543,-45.35 125.899,-46.26 45.355,-0.9 92.683,19.31 116.328,58.03 19.375,31.73 20.898,72.14 10.41,107.81 -11.168,37.97 -36.988,89.04 -73.793,108.12 -41.152,21.34 -94.668,27.89 -138.453,11.87"
         id="path3394" />
    </clipPath>
    <clipPath
       clipPathUnits="userSpaceOnUse"
       id="clipPath3470">
      <path
         d="m 563.883,3177.41 c -8.465,-0.73 -26.063,8.05 -28.504,15.81 -5.168,16.45 12.34,20.49 15.676,21.09 5.508,0.99 11.902,1.96 17.968,-0.35 0.524,-0.19 21.512,-5.53 21.684,-14.15 0.391,-19.43 -19.242,-21.76 -26.824,-22.4 m 50.933,44.13 c -6.183,7.97 -14.324,12.1 -23.988,12.62 -3.676,2 -8.219,2.95 -13.316,3.16 -14.449,0.59 -31.438,1.24 -47.278,-5.72 -13.004,-5.72 -26.964,-18.91 -29.839,-34.46 -3.614,-19.54 9.82,-30.02 20.441,-38.31 12.18,-9.51 26.082,-15.27 44.359,-10.95 14.539,3.43 36.211,11.83 47.457,27.43 12.063,16.75 10.551,35.44 2.164,46.23"
         id="path3468" />
    </clipPath>
    <clipPath
       clipPathUnits="userSpaceOnUse"
       id="clipPath3488">
      <path
         d="m 279.043,2870.19 c 12.383,-21.11 30.695,-39.19 52.016,-53.38 37.015,-24.64 87.851,-37.32 129.671,-20.01 30.739,12.72 51.602,39.21 66.989,66.34 21.136,37.27 34.863,79.28 29.508,120.85 -5.352,41.57 -32.414,82.32 -74.973,99.1 -34.875,13.76 -76.098,10.11 -110.836,-3.93 -36.984,-14.94 -85.227,-44.91 -99.496,-80.93 -15.957,-40.28 -15.192,-90.01 7.121,-128.04"
         id="path3486" />
    </clipPath>
    <clipPath
       clipPathUnits="userSpaceOnUse"
       id="clipPath3572">
      <path
         d="m 360.965,2914.28 c 1.906,-7.65 -4.567,-24.83 -12.102,-28.03 -15.972,-6.78 -22.496,8.73 -23.562,11.7 -1.766,4.91 -3.641,10.64 -2.145,16.47 0.133,0.5 2.645,20.35 11.367,21.59 19.661,2.77 24.739,-14.88 26.442,-21.73 m -51.824,41.06 c -7.227,-6.65 -10.301,-14.61 -9.493,-23.51 -1.515,-3.6 -1.851,-7.88 -1.359,-12.56 1.395,-13.29 3.098,-28.89 12.352,-42.51 7.597,-11.17 22.914,-22.29 39.093,-22.98 20.317,-0.86 29.098,12.72 36.039,23.47 7.969,12.32 11.879,25.74 4.973,41.91 -5.492,12.87 -17.012,31.63 -34.402,39.96 -18.668,8.94 -37.418,5.23 -47.203,-3.78"
         id="path3570" />
    </clipPath>
    <clipPath
       clipPathUnits="userSpaceOnUse"
       id="clipPath6268">
      <path
         d="m 3223.76,269.762 c 74.1,-83.199 196.44,-108.571 306.96,-94.532 42.97,5.461 86.18,16.5 122.3,40.391 23.64,15.641 43.49,36.25 63.13,56.692 27.67,28.816 55.85,58.328 72.84,94.496 15.11,32.121 20.6,67.992 21.72,103.472 3.01,95.66 -26.2,193.219 -86.96,267.168 -60.74,73.961 -153.7,122.293 -249.4,122.703 -117.43,0.489 -227.79,-70.402 -294.51,-167.043 -43.59,-63.117 -71.33,-139.589 -64.92,-216.019 4.78,-57.059 28.38,-111.61 62.28,-157.738 17.19,-23.383 27.28,-27.922 46.56,-49.59"
         id="path6266" />
    </clipPath>
    <clipPath
       clipPathUnits="userSpaceOnUse"
       id="clipPath6408">
      <path
         d="m 3495.31,526.391 c 0,0 -64.03,-97.512 -62.79,-192.25 0.93,-70.621 53.52,-197.731 124.78,-242.2113 71.27,-44.4609 157.03,-91.39845 263.46,-65.5078 106.41,25.8789 275.34,190.0781 248.49,238.3401 -26.83,48.269 -573.94,261.629 -573.94,261.629"
         id="path6406" />
    </clipPath>
    <clipPath
       clipPathUnits="userSpaceOnUse"
       id="clipPath6450">
      <path
         d="m 3808.83,424.289 c 14.23,26.563 28.46,53.121 42.7,79.68 0.81,1.523 1.6,3.242 0.52,5.043 -0.92,1.527 -2.94,2.707 -4.85,3.75 -49.4,27.117 -110.62,39.297 -160.03,31.82 -6.92,-1.051 -14.35,-3.043 -15.37,-8.16 -0.65,-3.281 1.54,-7.051 3.79,-10.563 20.51,-32.019 49.82,-62.66 66.14,-95.148 5.37,-10.68 20.01,-45.961 43.64,-44.27 12.7,0.891 19.61,30.668 23.46,37.848"
         id="path6448" />
    </clipPath>
    <clipPath
       clipPathUnits="userSpaceOnUse"
       id="clipPath6460">
      <path
         d="m 3725.67,432.719 c -24.14,32.492 -48.28,64.98 -72.41,97.472 -1.38,1.86 -2.98,3.879 -5.41,4.891 -2.05,0.848 -4.13,0.727 -6.01,0.547 -48.94,-4.477 -85.74,-29.5 -96.19,-65.379 -1.48,-5.031 -2.08,-11.211 3.23,-16.469 3.4,-3.359 8.43,-5.48 13.18,-7.34 43.41,-17 88.62,-27.519 130.96,-47.402 13.93,-6.539 58.72,-29.937 65.83,-14.5 3.82,8.301 -26.66,39.402 -33.18,48.18"
         id="path6458" />
    </clipPath>
    <clipPath
       clipPathUnits="userSpaceOnUse"
       id="clipPath6470">
      <path
         d="m 3672.1,393.09 c -42.4,16.57 -84.8,33.14 -127.2,49.711 -2.42,0.941 -5.1,1.918 -7.05,1.39 -1.65,-0.441 -2.32,-1.839 -2.86,-3.171 -14.08,-34.551 -2.55,-81.489 30.13,-122.7 4.58,-5.781 10.66,-12.148 18.06,-13.961 4.73,-1.148 8.82,-0.097 12.54,1.032 33.9,10.339 61.9,28.039 98.36,34.929 11.98,2.262 52.97,7.25 39.91,26.59 -7.02,10.403 -50.42,21.699 -61.89,26.18"
         id="path6468" />
    </clipPath>
    <clipPath
       clipPathUnits="userSpaceOnUse"
       id="clipPath6480">
      <path
         d="m 3882.99,313.41 c 40.7,-17.281 81.38,-34.539 122.07,-51.808 2.31,-0.993 4.89,-1.993 6.67,-1.411 1.51,0.481 2.04,1.989 2.46,3.418 10.91,37.11 1.56,89.141 -31.65,132.883 -4.65,6.129 -10.17,14.297 -17.2,16.16 -4.5,1.18 -17.33,-3.132 -20.73,-4.382 -31,-11.418 -51.97,-30.891 -85.57,-38.649 -11.05,-2.551 -49.02,-8.332 -35.56,-28.879 7.25,-11.051 48.52,-22.66 59.51,-27.332"
         id="path6478" />
    </clipPath>
    <clipPath
       clipPathUnits="userSpaceOnUse"
       id="clipPath6490">
      <path
         d="m 3834.11,275.25 c 23.46,-32.641 46.92,-65.281 70.38,-97.93 1.33,-1.851 2.9,-3.879 5.31,-4.918 2.03,-0.871 4.13,-0.793 6.03,-0.64 49.37,3.718 87.03,28.008 98.48,63.5 1.6,4.968 2.37,11.109 -2.85,16.41 -3.33,3.391 -8.33,5.57 -13.07,7.488 -43.25,17.539 -88.46,28.68 -130.56,49.059 -13.84,6.703 -58.32,30.633 -65.87,15.39 -4.07,-8.179 25.82,-39.539 32.15,-48.359"
         id="path6488" />
    </clipPath>
    <clipPath
       clipPathUnits="userSpaceOnUse"
       id="clipPath6500">
      <path
         d="m 3748.82,281.879 c -16.6,-25.977 -33.2,-51.969 -49.8,-77.949 -0.95,-1.489 -1.9,-3.16 -0.91,-4.91 0.83,-1.469 2.82,-2.59 4.71,-3.59 48.89,-25.758 111.05,-36.867 162.48,-29.008 7.2,1.09 15,3.109 16.43,8.109 0.91,3.188 -1.08,6.828 -3.14,10.219 -18.76,30.871 -46.71,60.289 -61.14,91.68 -4.75,10.32 -17.24,44.429 -41.68,42.519 -13.16,-1.027 -22.47,-30.039 -26.95,-37.07"
         id="path6498" />
    </clipPath>
    <clipPath
       clipPathUnits="userSpaceOnUse"
       id="clipPath6510">
      <path
         d="m 3952.79,429.262 c 0.12,11.48 -76.52,72.707 -82.55,69.347 -6.04,-3.359 -70.69,-106.867 -69.8,-113.418 1.38,-10.211 1.56,-22.941 28.35,-17.011 26.8,5.941 123.86,48.14 124,61.082"
         id="path6508" />
    </clipPath>
    <clipPath
       clipPathUnits="userSpaceOnUse"
       id="clipPath6520">
      <path
         d="m 3683.21,205.449 c 8.02,-0.769 79.49,113.27 75.07,118.922 -4.44,5.649 -11.68,25.961 -31.19,14.789 -19.5,-11.168 -41.75,-11.269 -68.82,-21.519 -27.07,-10.262 -67,-23.289 -63.91,-33.629 3.09,-10.352 73.03,-77.039 88.85,-78.563"
         id="path6518" />
    </clipPath>
    <clipPath
       clipPathUnits="userSpaceOnUse"
       id="clipPath8132">
      <path
         d="m 908.262,3628.22 c -4.43,73.16 -16.211,113.98 -18.297,189.64 -1.996,72.53 -41.793,166.53 -88.25,224.94 -38.551,48.46 -93.938,83.86 -151.535,105.38 -42.246,15.79 -86.989,24.47 -129.981,17.79 -24.371,6.66 -48.926,5.54 -68.695,-15.13 -15.305,-15.98 -23.348,-40.47 -32.34,-60.3 -10.973,-24.2 -21.418,-48.79 -29.691,-74.06 -14.141,-43.16 -21.825,-89.6 -16.539,-134.98 5.312,-45.59 20.593,-88.18 50.152,-123.78 29.144,-35.11 75.293,-71.82 117.426,-86.85 48.468,-17.3 103.105,-35.13 152.539,-49.92 14.125,-8.86 132.472,-22.67 180.187,-38.28 27.45,-8.99 36.555,20.22 35.024,45.55"
         id="path8130" />
    </clipPath>
    <clipPath
       clipPathUnits="userSpaceOnUse"
       id="clipPath8142">
      <path
         d="m 121.809,3589.6 c 51.304,24.58 77.211,44.99 131,68.62 51.554,22.65 107.5,78.75 135.91,129.24 23.57,41.9 32.816,92.07 31.445,139.78 -1.004,34.99 -7.851,69.69 -25.226,98.65 -2.34,19.47 -10.329,36.8 -30.969,44.97 -15.973,6.32 -35.934,4.94 -52.813,5.61 -20.609,0.82 -41.343,1.13 -61.929,-0.31 -35.176,-2.46 -70.817,-10.53 -101.883,-27.59 -31.239,-17.15 -57.3792,-40.6 -74.3323,-72.26 -16.7187,-31.23 -29.6133,-75.14 -28.1015,-109.83 1.7382,-39.91 4.9023,-84.41 8.7265,-124.28 -2.2344,-12.75 22.4492,-101.87 25.1758,-140.74 1.5664,-22.37 25.2385,-20.37 42.9965,-11.86"
         id="path8140" />
    </clipPath>
    <clipPath
       clipPathUnits="userSpaceOnUse"
       id="clipPath8154">
      <path
         d="m 695.824,3809.54 c -21.793,-15.41 -47.633,-25.88 -74.371,-31.64 -46.43,-9.99 -99.89,-3.89 -130.375,27.16 -22.398,22.82 -28.922,55.05 -30.027,85.95 -1.524,42.44 6.148,86.7 31.367,123.79 25.215,37.09 70.219,65.72 117.977,66.39 39.14,0.55 75.707,-17.48 101.195,-42.94 27.137,-27.12 57.43,-72.31 53.172,-111.15 -4.762,-43.43 -29.68,-89.8 -68.938,-117.56"
         id="path8152" />
    </clipPath>
    <clipPath
       clipPathUnits="userSpaceOnUse"
       id="clipPath8228">
      <path
         d="m 676.238,3890.92 c 7.52,-4.24 0.192,-23.75 0.071,-24.28 -1.446,-6 -5.977,-10.7 -10.012,-14.68 -2.434,-2.41 -16.047,-14.64 -27.609,-2.62 -5.458,5.66 -3.114,24.07 2.378,30.57 4.918,5.82 18.239,20.58 35.172,11.01 m -9.047,29.4 c -20.234,-1.65 -40.078,-15.17 -51.453,-25.28 -14.293,-12.72 -17.187,-26.7 -15.773,-41.08 1.23,-12.53 2.781,-28.38 22.109,-34.76 15.387,-5.09 35.043,-0.09 47.555,7.7 15.234,9.48 24.406,23.52 32.172,35.49 2.738,4.22 4.508,8.34 4.851,12.26 5.078,8.06 6.098,16.61 2.61,25.41 -4.723,11.91 -20.356,22.03 -42.071,20.26"
         id="path8226" />
    </clipPath>
    <clipPath
       clipPathUnits="userSpaceOnUse"
       id="clipPath8246">
      <path
         d="m 325.004,3756.36 c -26.676,1.02 -53.555,8.42 -78.281,20.1 -42.942,20.3 -81.668,57.66 -86.993,100.84 -3.91,31.74 10.512,61.28 28.418,86.49 24.594,34.62 57.598,65.09 100.172,79.21 42.571,14.12 95.707,9.48 134.028,-19.03 31.406,-23.36 49.488,-59.91 54.234,-95.62 5.059,-38.03 1.625,-92.32 -25.367,-120.57 -30.188,-31.59 -78.164,-53.25 -126.211,-51.42"
         id="path8244" />
    </clipPath>
    <clipPath
       clipPathUnits="userSpaceOnUse"
       id="clipPath8324">
      <path
         d="m 358.941,3832.88 c 3.383,-7.94 -14.293,-18.98 -14.707,-19.31 -4.796,-3.89 -11.254,-4.87 -16.879,-5.58 -3.402,-0.43 -21.644,-1.86 -23.519,14.71 -0.883,7.81 12.168,21 20.48,22.82 7.446,1.63 26.993,5.25 34.625,-12.64 m 10.688,28.84 c -17.07,10.99 -41.039,12.33 -56.227,11.21 -19.078,-1.41 -29.875,-10.74 -37.496,-23.01 -6.644,-10.71 -15.043,-24.23 -3.582,-41.05 9.125,-13.4 27.77,-21.38 42.434,-22.8 17.863,-1.73 33.683,3.83 47.125,8.61 4.742,1.69 8.648,3.89 11.308,6.79 8.938,3.31 14.938,9.48 17.52,18.58 3.492,12.33 -2.762,29.88 -21.082,41.67"
         id="path8322" />
    </clipPath>
    <clipPath
       clipPathUnits="userSpaceOnUse"
       id="clipPath8344">
      <path
         d="m 528.848,3962.87 c -25.09,-9.12 -52.774,-12.4 -80.086,-10.89 -47.414,2.61 -97.375,22.61 -118.582,60.6 -15.586,27.92 -13.375,60.72 -6.289,90.82 9.73,41.34 28.812,82.01 62.922,111.13 34.101,29.13 85.07,44.86 131.312,32.91 37.898,-9.81 68.418,-36.84 86.285,-68.13 19.016,-33.31 36.309,-84.9 21.949,-121.24 -16.046,-40.63 -52.316,-78.78 -97.511,-95.2"
         id="path8342" />
    </clipPath>
    <clipPath
       clipPathUnits="userSpaceOnUse"
       id="clipPath8428">
      <path
         d="m 531.434,4046.54 c 6.129,-6.09 -6.086,-22.97 -6.34,-23.43 -2.977,-5.41 -8.59,-8.75 -13.531,-11.53 -2.989,-1.68 -19.348,-9.89 -27.325,4.75 -3.765,6.91 3.352,24.05 10.36,28.86 6.285,4.32 23.023,15.04 36.836,1.35 m -0.969,30.74 c -19.957,3.75 -42.664,-4.06 -56.305,-10.82 -17.144,-8.49 -23.625,-21.2 -26.055,-35.44 -2.121,-12.42 -4.8,-28.12 12.153,-39.38 13.5,-8.96 33.785,-9.33 47.906,-5.12 17.191,5.14 29.75,16.25 40.395,25.75 3.754,3.35 6.546,6.86 7.914,10.54 7.031,6.44 10.265,14.42 9.222,23.82 -1.41,12.74 -13.816,26.63 -35.23,30.65"
         id="path8426" />
    </clipPath>
    <clipPath
       clipPathUnits="userSpaceOnUse"
       id="clipPath1266">
      <path
         d="m 2404.94,2715.99 c 168.61,49.15 369.45,14.73 481.79,-126.67 54.58,-68.7 81.3,-114.74 90.95,-203.77 12.01,-110.86 12.01,-183.7 -45.06,-281.89 -18.88,-32.48 -83.89,-84.88 -114.53,-105.07 -54.99,-36.21 -122.67,-42.85 -187.51,-43.65 -73.73,-0.92 -147.54,4.47 -220.45,16.1 -60.81,9.69 -122.07,24.14 -175.49,56.25 -107.54,64.65 -202.8,245.38 -162.99,376.98 48.05,158.82 185.63,268.67 333.29,311.72"
         id="path1264" />
    </clipPath>
    <clipPath
       clipPathUnits="userSpaceOnUse"
       id="clipPath1396">
      <path
         d="m 2800.63,2237.45 c 15.83,-162.91 -105.17,-321.21 -260.62,-372.43 -155.45,-51.22 -322,-33 -452.28,66.07 -41.84,31.82 -90.75,96.54 -115.15,143.1 -20.9,39.87 -30.71,84.48 -40.29,128.47 293.42,10.32 574.92,24.47 868.34,34.79"
         id="path1394" />
    </clipPath>
    <clipPath
       clipPathUnits="userSpaceOnUse"
       id="clipPath1458">
      <path
         d="m 2051.62,2125.93 c -0.08,0 -0.17,0 -0.26,0.01 -2.05,0.12 -3.45,1.96 -3.39,3.91 0.07,2.46 2.13,3.82 4.1,4.85 1.5,0.76 3.07,0.91 4.72,0.91 0.06,0 0.11,0 0.17,0 1.87,-0.01 3.17,-2.56 1.94,-4.04 -1.86,-2.23 -4.07,-5.64 -7.28,-5.64"
         id="path1456" />
    </clipPath>
    <clipPath
       clipPathUnits="userSpaceOnUse"
       id="clipPath11170">
      <path
         d="m 483.559,1784.15 c -12.633,-33.07 -18.864,-69.31 -13.973,-104.63 1.863,-13.47 8.715,-29.92 6.133,-43.63 -3.235,-17.15 -14.121,-29.58 -11.727,-48.47 3.164,-24.9 37.434,-42.79 55.387,-19.28 8.461,11.08 16.988,22.1 25.547,33.1 20.437,13.53 42.949,25.02 61.992,37.82 32.914,22.11 64.062,51.36 78.52,89.15 12.011,31.4 10.304,63.91 5.332,96.57 -4.731,31.08 -11.504,62.24 -2.219,93.1 7.258,24.13 -21.91,35.49 -39.641,26.98 -70.305,-33.71 -136.738,-85.83 -165.351,-160.71"
         id="path11168" />
    </clipPath>
    <clipPath
       clipPathUnits="userSpaceOnUse"
       id="clipPath11184">
      <path
         d="m 240.027,1663.12 c -28.214,-10.5 -52.464,-29.76 -73.129,-51.66 -68.2847,-72.35 -99.9566,-176.1 -89.8824,-275.07 10.0742,-98.99 60.1914,-192.22 132.9644,-260.06 25.879,-24.12 54.852,-45.41 87.407,-59.27 49.082,-20.888 103.633,-23.939 156.906,-26.708 74.727,-3.891 153.148,-7.071 220.5,25.528 65.469,31.68 112.277,94.58 136.168,163.27 23.891,68.69 42.586,161.3 37.699,233.87 -5.586,82.9 -18.652,145.6 -75.117,206.57 -31.234,33.71 -97.316,61.73 -143.227,64.76 -45.8,3 -66.773,-19.38 -105.39,-33.58 -44.895,-16.51 -91.953,-4.95 -139.567,6.62 -48.437,11.77 -97.449,23.53 -145.332,5.73"
         id="path11182" />
    </clipPath>
  </defs>
  <g
     inkscape:label="Ebene 1"
     inkscape:groupmode="layer"
     id="layer1">
    <g
       id="g14603"
       transform="matrix(0.09000004,0,0,-0.09000004,0.72342664,176.99141)">
      <path
         d="m 483.559,1784.15 c -12.633,-33.07 -18.864,-69.31 -13.973,-104.63 1.863,-13.47 8.715,-29.92 6.133,-43.63 -3.235,-17.15 -14.121,-29.58 -11.727,-48.47 3.164,-24.9 37.434,-42.79 55.387,-19.28 8.461,11.08 16.988,22.1 25.547,33.1 20.437,13.53 42.949,25.02 61.992,37.82 32.914,22.11 64.062,51.36 78.52,89.15 12.011,31.4 10.304,63.91 5.332,96.57 -4.731,31.08 -11.504,62.24 -2.219,93.1 7.258,24.13 -21.91,35.49 -39.641,26.98 -70.305,-33.71 -136.738,-85.83 -165.351,-160.71"
         style="fill:#2b612c;fill-opacity:1;fill-rule:nonzero;stroke:none"
         id="path11162" />
      <g
         id="g11164">
        <g
           id="g11166"
           clip-path="url(#clipPath11170)">
          <path
             d="m 476.293,1642.54 c 0,0.31 -0.008,0.61 -0.012,0.92 4.789,7.62 9.762,15.25 14.742,23.03 2.739,4.28 5.477,8.55 8.219,12.83 -0.387,-1.85 -0.711,-3.7 -0.957,-5.54 -0.398,-2.97 2.649,-5.3 5.473,-5.3 0.887,0 1.75,0.23 2.476,0.74 13.407,9.37 19.645,22.02 28.598,35.75 12.656,19.41 25.566,38.63 38.352,57.95 23.058,34.85 43.507,69.52 59.101,108.33 0.746,1.85 -0.969,3.26 -2.64,3.26 -0.645,0 -1.286,-0.22 -1.774,-0.69 -3.031,-2.97 -5.992,-5.97 -8.891,-9 5.325,8.17 10.633,16.35 15.899,24.56 11.152,17.41 23.906,38.23 38.883,56.21 8.922,-3.27 15.91,-10.31 15.926,-20.36 0.003,-2.3 -0.356,-4.75 -1.137,-7.35 -3.375,-11.21 -4.629,-22.46 -4.629,-33.73 -0.004,-19.76 3.836,-39.58 6.848,-59.37 2.214,-14.55 3.781,-29.06 3.777,-43.46 -0.004,-17.93 -2.445,-35.69 -9.109,-53.11 -6.766,-17.68 -17.188,-33.5 -29.735,-47.59 -8.875,1.93 -17.433,3.2 -25.387,3.73 -2.828,0.18 -5.562,0.27 -8.211,0.27 -40.25,0 -60.945,-20.53 -97.179,-33.85 -15.961,-5.87 -32.199,-8.19 -48.633,-8.23"
             style="fill:#2b5324;fill-opacity:1;fill-rule:nonzero;stroke:none"
             id="path11172" />
        </g>
      </g>
      <path
         d="m 464.242,1603.3 c 16.375,40.55 24.895,74.72 12.387,118.42 -9.32,32.58 -35.059,79.56 -73.93,79.71 -11.078,0.03 -16.5,-9.95 -15.023,-19.73 4.012,-26.56 29.554,-51.58 40.965,-75.95 12.773,-27.27 23.906,-67.57 18.281,-97.67 -2.152,-11.53 13.023,-15.41 17.32,-4.78"
         style="fill:#351514;fill-opacity:1;fill-rule:nonzero;stroke:none"
         id="path11174" />
      <path
         d="m 240.027,1663.12 c -28.214,-10.5 -52.464,-29.76 -73.129,-51.66 -68.2847,-72.35 -99.9566,-176.1 -89.8824,-275.07 10.0742,-98.99 60.1914,-192.22 132.9644,-260.06 25.879,-24.12 54.852,-45.41 87.407,-59.27 49.082,-20.888 103.633,-23.939 156.906,-26.708 74.727,-3.891 153.148,-7.071 220.5,25.528 65.469,31.68 112.277,94.58 136.168,163.27 23.891,68.69 42.586,161.3 37.699,233.87 -5.586,82.9 -18.652,145.6 -75.117,206.57 -31.234,33.71 -97.316,61.73 -143.227,64.76 -45.8,3 -66.773,-19.38 -105.39,-33.58 -44.895,-16.51 -91.953,-4.95 -139.567,6.62 -48.437,11.77 -97.449,23.53 -145.332,5.73"
         style="fill:#f57c1b;fill-opacity:1;fill-rule:nonzero;stroke:none"
         id="path11176" />
      <g
         id="g11178">
        <g
           id="g11180"
           clip-path="url(#clipPath11184)">
          <path
             d="m 636.426,1208.59 c -20.153,9.02 -35.403,21.57 -40.508,34.51 -5.039,12.77 -19.855,20.2 -33.813,20.2 -5.8,0 -11.453,-1.29 -16.195,-4 -50.176,-28.79 -119.543,-46.82 -187.347,-46.82 -50.309,-0.01 -99.758,9.93 -139.887,32.76 -10.09,21.53 -18.465,43.57 -25.004,65.39 -22.301,74.4 -25.774,157.51 1.371,231.25 4.656,12.66 10.707,25.05 18.102,36.57 -7.86,-37.03 -3.973,-76.75 14.918,-113.67 11.656,-22.8 26.5,-42.06 43.683,-58.03 0.348,-5.85 0.965,-11.69 1.809,-17.49 -3.211,-39.34 1.293,-78.47 26.66,-111.45 21.68,-28.2 54.773,-46.3 89.027,-46.3 13.352,0 26.879,2.75 39.977,8.72 43.754,19.96 64.176,63.88 68.234,109.36 16.899,2.81 33.555,6.9 49.668,12.2 2.949,0.97 6.09,1.42 9.293,1.42 16.027,0 33.633,-11.42 36.418,-27.38 5.91,-33.86 31.762,-56.79 62.398,-69.08 -5.578,-19.68 -12.121,-39.11 -18.804,-58.16"
             style="fill:#f46c17;fill-opacity:1;fill-rule:nonzero;stroke:none"
             id="path11186" />
          <path
             d="m 344.051,1107.96 c -8.047,0 -16.035,0.2 -23.938,0.62 -42.711,35.71 -77.078,84.7 -101.437,136.66 40.129,-22.83 89.578,-32.77 139.887,-32.76 67.804,0 137.171,18.03 187.347,46.82 4.742,2.71 10.395,4 16.195,4 13.958,0 28.774,-7.43 33.813,-20.2 5.105,-12.94 20.355,-25.49 40.508,-34.51 -3.469,-9.89 -6.977,-19.67 -10.406,-29.33 -2.637,-7.43 -3.485,-15.1 -2.856,-22.64 -0.828,1.12 -1.559,2.26 -2.187,3.42 -5.086,9.37 -16.379,14.3 -27.34,14.3 -6.61,0 -13.094,-1.8 -18.028,-5.48 -48.457,-36.24 -143.316,-60.9 -231.558,-60.9"
             style="fill:#f35f19;fill-opacity:1;fill-rule:nonzero;stroke:none"
             id="path11188" />
          <path
             d="m 531.023,1003.86 c -3.054,4.28 -6.789,7.89 -11.207,10.83 -8.289,7.2 -17.046,11.72 -26.726,16.45 -21.879,10.71 -44.27,19.48 -67.461,26.87 -37.266,11.84 -72.969,23.79 -103.703,49.07 -0.606,0.5 -1.207,1 -1.813,1.5 7.903,-0.42 15.891,-0.62 23.938,-0.62 88.242,0 183.101,24.66 231.558,60.9 4.934,3.68 11.418,5.48 18.028,5.48 10.961,0 22.254,-4.93 27.34,-14.3 0.628,-1.16 1.359,-2.3 2.187,-3.42 2.274,-27.29 23.836,-53.03 49.883,-60.19 3.183,-0.88 6.34,-1.51 9.457,-1.92 -21.004,-29.32 -45.063,-56.57 -78.481,-71.93 -23.777,-10.93 -48.328,-15.02 -73,-18.72"
             style="fill:#f2551a;fill-opacity:1;fill-rule:nonzero;stroke:none"
             id="path11190" />
          <path
             d="m 794.117,1274.86 c 5.137,25.36 8.637,50.91 9.793,76.63 38.801,58.23 -8.765,151.9 -49.922,195.81 -4.652,4.97 -9.718,9.92 -15.129,14.64 -6.425,7.35 -13.285,14.31 -20.554,20.8 -16.032,14.32 -52.367,40.65 -82.668,45.33 -13.395,5.74 -27.262,10.36 -41.106,13.93 -15.152,3.91 -30.363,5.61 -45.847,5.61 -3.364,0 -6.746,-0.08 -10.141,-0.24 -7.527,-0.34 -14.523,-1.13 -21.207,-1.13 -2.152,0 -4.273,0.08 -6.371,0.29 4.676,1.13 9.332,2.54 13.961,4.24 36.234,13.32 56.929,33.85 97.179,33.85 2.649,0 5.383,-0.09 8.211,-0.27 45.911,-3.03 111.993,-31.05 143.227,-64.76 56.465,-60.97 69.531,-123.67 75.117,-206.57 0.528,-7.8 0.778,-15.82 0.781,-24.03 0.012,-25.26 -2.339,-52.2 -6.394,-79.22 -1.899,-1.37 -3.77,-2.92 -5.598,-4.64 -12.953,-12.25 -27.594,-22.41 -43.332,-30.27"
             style="fill:#f78d1d;fill-opacity:1;fill-rule:nonzero;stroke:none"
             id="path11192" />
          <path
             d="m 784.375,1233.55 c 3.656,13.7 6.945,27.48 9.742,41.31 15.738,7.86 30.379,18.02 43.332,30.27 1.828,1.72 3.699,3.27 5.598,4.64 -1.692,-11.27 -3.68,-22.57 -5.91,-33.76 -2.707,0.5 -5.414,0.76 -8.086,0.76 -13.371,0 -25.797,-6.51 -32.422,-21.9 -3.449,-8.02 -7.578,-15.1 -12.254,-21.32"
             style="fill:#f6841c;fill-opacity:1;fill-rule:nonzero;stroke:none"
             id="path11194" />
          <path
             d="m 755.02,1141.13 c 0.3,0.77 0.585,1.55 0.863,2.33 10.472,29.67 20.39,59.72 28.492,90.09 4.676,6.22 8.805,13.3 12.254,21.32 6.625,15.39 19.051,21.9 32.422,21.9 2.672,0 5.379,-0.26 8.086,-0.76 -4.227,-21.16 -9.336,-41.96 -15.004,-61.62 -12.207,-1.06 -22.949,-8.05 -27.242,-22.7 -7.153,-24.4 -21.86,-40.63 -39.871,-50.56"
             style="fill:#f57b1c;fill-opacity:1;fill-rule:nonzero;stroke:none"
             id="path11196" />
          <path
             d="m 540.645,988.16 c -1.493,3.039 -3.403,5.891 -5.719,8.449 -0.442,1.043 -0.918,2.172 -1.442,3.401 -0.765,1.34 -1.586,2.63 -2.461,3.85 24.672,3.7 49.223,7.79 73,18.72 33.418,15.36 57.477,42.61 78.481,71.93 2.832,-0.36 5.633,-0.54 8.391,-0.54 28.914,0 53.453,19.58 64.125,47.16 18.011,9.93 32.718,26.16 39.871,50.56 4.293,14.65 15.035,21.64 27.242,22.7 -3.535,-12.26 -7.285,-24.06 -11.172,-35.24 -23.891,-68.69 -70.699,-131.59 -136.168,-163.27 -41.648,-20.161 -87.527,-26.63 -134.148,-27.72"
             style="fill:#f4741a;fill-opacity:1;fill-rule:nonzero;stroke:none"
             id="path11198" />
          <path
             d="m 213.145,1578.45 c 7.207,33.96 24.3,65.65 48.746,90.83 10.48,2.07 21.004,2.95 31.55,2.95 17.071,0 34.211,-2.31 51.332,-5.64 -0.035,-0.06 -0.074,-0.12 -0.109,-0.17 -3.316,-3.2 -6.871,-6.11 -10.664,-8.72 -8.02,-4.94 -18.457,-7.38 -27.332,-10.31 -17.949,-5.92 -32.965,-13.3 -48.965,-23.46 -18.043,-11.47 -32.957,-27.41 -44.558,-45.48"
             style="fill:#f36118;fill-opacity:1;fill-rule:nonzero;stroke:none"
             id="path11200" />
          <path
             d="m 218.676,1245.24 c -19.594,11.15 -36.957,25.38 -51.117,43.03 -33.411,41.65 -66.43,105.77 -82.7035,167.8 13.5781,57.85 41.2895,112.21 82.0425,155.39 20.665,21.9 44.915,41.16 73.129,51.66 7.266,2.7 14.551,4.72 21.864,6.16 -24.446,-25.18 -41.539,-56.87 -48.746,-90.83 -7.395,-11.52 -13.446,-23.91 -18.102,-36.57 -27.145,-73.74 -23.672,-156.85 -1.371,-231.25 6.539,-21.82 14.914,-43.86 25.004,-65.39"
             style="fill:#f2571a;fill-opacity:1;fill-rule:nonzero;stroke:none"
             id="path11202" />
          <path
             d="m 320.113,1108.58 c -58.668,3.12 -112.078,18.11 -143.75,49.04 -24.918,24.32 -55.437,59.24 -81.6716,96.87 -8.8125,26.55 -14.8359,54 -17.6758,81.9 -1.2187,11.98 -1.8281,24.04 -1.832,36.1 -0.0117,28.1 3.25,56.23 9.6719,83.58 16.2735,-62.03 49.2925,-126.15 82.7035,-167.8 14.16,-17.65 31.523,-31.88 51.117,-43.03 24.359,-51.96 58.726,-100.95 101.437,-136.66"
             style="fill:#f14c1c;fill-opacity:1;fill-rule:nonzero;stroke:none"
             id="path11204" />
          <path
             d="m 467.469,989.68 c -4.403,0.222 -8.801,0.441 -13.176,0.672 -53.273,2.769 -107.824,5.82 -156.906,26.708 -32.555,13.86 -61.528,35.15 -87.407,59.27 -52.261,48.72 -92.835,110.52 -115.2886,178.16 26.2346,-37.63 56.7536,-72.55 81.6716,-96.87 31.672,-30.93 85.082,-45.92 143.75,-49.04 0.606,-0.5 1.207,-1 1.813,-1.5 30.734,-25.28 66.437,-37.23 103.703,-49.07 23.191,-7.39 45.582,-16.16 67.461,-26.87 9.68,-4.73 18.437,-9.25 26.726,-16.45 4.418,-2.94 8.153,-6.55 11.207,-10.83 -17.605,-2.63 -35.265,-5.071 -52.753,-9.649 -4.008,-1.051 -7.61,-2.59 -10.801,-4.531"
             style="fill:#f0451d;fill-opacity:1;fill-rule:nonzero;stroke:none"
             id="path11206" />
          <path
             d="m 525.191,987.98 c -19.261,0 -38.582,0.762 -57.722,1.7 3.191,1.941 6.793,3.48 10.801,4.531 17.488,4.578 35.148,7.019 52.753,9.649 0.875,-1.22 1.696,-2.51 2.461,-3.85 0.524,-1.229 1,-2.358 1.442,-3.401 2.316,-2.558 4.226,-5.41 5.719,-8.449 -5.149,-0.121 -10.297,-0.18 -15.454,-0.18"
             style="fill:#f25c19;fill-opacity:1;fill-rule:nonzero;stroke:none"
             id="path11208" />
          <path
             d="m 574.484,1174.55 c 38.645,57.29 39.754,132.94 33.293,199.62 -7.043,72.67 -29.351,142.27 -64.703,206.06 -32.219,58.15 -77.074,110.22 -128.66,152.05 -51.961,42.12 -118.836,83.06 -186.133,92.55 -11.847,1.67 -24.922,-1.55 -32.574,-11.48 -22.465,-29.15 4.973,-50.68 30.941,-61.82 30.739,-13.18 61.207,-25.47 90.137,-42.49 55.664,-32.74 105.301,-76.19 143.672,-128.19 41.07,-55.67 68.758,-120.19 82.473,-187.97 14.281,-70.59 2.113,-140.2 8.773,-210.87 0.961,-10.21 16.11,-17.35 22.781,-7.46"
             style="fill:#f79728;fill-opacity:1;fill-rule:nonzero;stroke:none"
             id="path11210" />
        </g>
      </g>
      <path
         d="m 443.633,1345.11 c -63.59,0 -126.082,19.09 -171.887,61.64 -0.148,2.47 -0.25,4.93 -0.297,7.4 -1.004,50.63 17.227,106.14 63.746,132.33 16.914,9.53 32.481,13.72 46.715,13.72 77.27,0 115.313,-123.62 116.293,-190.21 0.098,-6.78 -0.144,-13.61 -0.75,-20.4 -17.789,-2.95 -35.851,-4.48 -53.82,-4.48"
         style="fill:#f6811b;fill-opacity:1;fill-rule:nonzero;stroke:none"
         id="path11212" />
      <path
         d="m 389.242,1231.51 c -34.254,0 -67.347,18.1 -89.027,46.3 -25.367,32.98 -29.871,72.11 -26.66,111.45 -0.844,5.8 -1.461,11.64 -1.809,17.49 45.805,-42.55 108.297,-61.64 171.887,-61.64 17.969,0 36.031,1.53 53.82,4.48 -4.058,-45.48 -24.48,-89.4 -68.234,-109.36 -13.098,-5.97 -26.625,-8.72 -39.977,-8.72"
         style="fill:#f47418;fill-opacity:1;fill-rule:nonzero;stroke:none"
         id="path11214" />
      <path
         d="m 713.973,1255.87 c -6.551,0 -13.125,0.37 -19.696,1.11 -13.121,1.48 -26.488,4.74 -39.047,9.77 12.481,44.06 20.11,89.36 13.614,134.42 -5.133,35.62 -19.996,64.78 -39.676,94.3 -19.289,28.92 -49.113,69.34 -37.422,106.06 6.352,19.95 19.399,27.26 34.981,27.26 2.894,0 5.871,-0.25 8.91,-0.72 19.218,-8.24 37.461,-18.81 53.281,-31.98 3.168,-2.63 6.227,-5.37 9.187,-8.19 -6.441,2.59 -13.07,4.52 -19.808,5.59 -1.891,0.3 -3.809,0.44 -5.731,0.44 -17.343,0 -34.703,-11.99 -29.152,-31.66 0.777,-2.77 2.336,-5.4 4.402,-7.58 5.325,-9.92 10.575,-26.47 15.051,-36.81 7.289,-16.84 12.824,-33.57 17.586,-51.33 10.016,-37.34 4.938,-85.47 25.652,-118.17 11.571,-18.26 28.633,-26.67 45.942,-26.67 7.933,0 15.914,1.77 23.449,5.16 -0.949,-21.06 -3.254,-41.97 -7.508,-62.6 -17.379,-5.51 -35.605,-8.4 -54.015,-8.4"
         style="fill:#f6811b;fill-opacity:1;fill-rule:nonzero;stroke:none"
         id="path11216" />
      <path
         d="m 699.641,1195.09 c -22.485,-0.01 -44.875,5.29 -63.215,13.5 6.683,19.05 13.226,38.48 18.804,58.16 12.559,-5.03 25.926,-8.29 39.047,-9.77 6.571,-0.74 13.145,-1.11 19.696,-1.11 18.41,0 36.636,2.89 54.015,8.4 -2.453,-11.88 -5.547,-23.66 -9.406,-35.32 -2.641,-7.99 -5.687,-15.84 -9.066,-23.56 -15.5,-7.22 -32.715,-10.3 -49.875,-10.3"
         style="fill:#f47418;fill-opacity:1;fill-rule:nonzero;stroke:none"
         id="path11218" />
      <path
         d="m 700.578,1128.23 c -33.508,-0.01 -65.473,12.19 -77.414,28.39 -0.629,7.54 0.219,15.21 2.856,22.64 3.429,9.66 6.937,19.44 10.406,29.33 18.34,-8.21 40.73,-13.51 63.215,-13.5 17.16,0 34.375,3.08 49.875,10.3 -11.797,-27 -27.598,-52.5 -43.934,-77.07 -1.668,-0.06 -3.344,-0.09 -5.004,-0.09"
         style="fill:#f36817;fill-opacity:1;fill-rule:nonzero;stroke:none"
         id="path11220" />
      <path
         d="m 682.504,1094.51 c -3.117,0.41 -6.274,1.04 -9.457,1.92 -26.047,7.16 -47.609,32.9 -49.883,60.19 11.941,-16.2 43.906,-28.4 77.414,-28.39 1.66,0 3.336,0.03 5.004,0.09 -4.379,-6.59 -8.793,-13.11 -13.18,-19.57 -3.238,-4.77 -6.531,-9.53 -9.898,-14.24"
         style="fill:#f35e19;fill-opacity:1;fill-rule:nonzero;stroke:none"
         id="path11222" />
      <path
         d="m 767.988,1264.27 c 4.254,20.63 6.559,41.54 7.508,62.6 9.91,4.46 19.035,11.73 26.238,21.51 0.754,1.02 1.481,2.06 2.176,3.11 -1.156,-25.72 -4.656,-51.27 -9.793,-76.63 -8.422,-4.2 -17.164,-7.74 -26.129,-10.59"
         style="fill:#f7911e;fill-opacity:1;fill-rule:nonzero;stroke:none"
         id="path11224" />
      <path
         d="m 749.516,1205.39 c 3.379,7.72 6.425,15.57 9.066,23.56 3.859,11.66 6.953,23.44 9.406,35.32 8.965,2.85 17.707,6.39 26.129,10.59 -2.797,-13.83 -6.086,-27.61 -9.742,-41.31 -9.645,-12.83 -21.633,-22 -34.859,-28.16"
         style="fill:#f6891d;fill-opacity:1;fill-rule:nonzero;stroke:none"
         id="path11226" />
      <path
         d="m 705.582,1128.32 c 16.336,24.57 32.137,50.07 43.934,77.07 13.226,6.16 25.214,15.33 34.859,28.16 -8.102,-30.37 -18.02,-60.42 -28.492,-90.09 -0.278,-0.78 -0.563,-1.56 -0.863,-2.33 -15,-8.28 -32.297,-12.18 -49.438,-12.81"
         style="fill:#f6811c;fill-opacity:1;fill-rule:nonzero;stroke:none"
         id="path11228" />
      <path
         d="m 690.895,1093.97 c -2.758,0 -5.559,0.18 -8.391,0.54 3.367,4.71 6.66,9.47 9.898,14.24 4.387,6.46 8.801,12.98 13.18,19.57 17.141,0.63 34.438,4.53 49.438,12.81 -10.672,-27.58 -35.211,-47.16 -64.125,-47.16"
         style="fill:#f57b1d;fill-opacity:1;fill-rule:nonzero;stroke:none"
         id="path11230" />
      <path
         d="m 738.859,1561.94 c -12.117,10.57 -25.953,20.01 -40.754,25.96 -2.96,2.82 -6.019,5.56 -9.187,8.19 -15.82,13.17 -34.063,23.74 -53.281,31.98 30.301,-4.68 66.636,-31.01 82.668,-45.33 7.269,-6.49 14.129,-13.45 20.554,-20.8"
         style="fill:#f7911e;fill-opacity:1;fill-rule:nonzero;stroke:none"
         id="path11232" />
      <path
         d="m 803.91,1351.49 c 1.477,32.73 -0.851,65.73 -8.445,98.92 -9.344,40.84 -28.945,79.87 -56.606,111.53 5.411,-4.72 10.477,-9.67 15.129,-14.64 41.157,-43.91 88.723,-137.58 49.922,-195.81"
         style="fill:#f89d35;fill-opacity:1;fill-rule:nonzero;stroke:none"
         id="path11234" />
      <path
         d="m 752.047,1321.71 c -17.309,0 -34.371,8.41 -45.942,26.67 -20.714,32.7 -15.636,80.83 -25.652,118.17 -4.762,17.76 -10.297,34.49 -17.586,51.33 -4.476,10.34 -9.726,26.89 -15.051,36.81 -2.066,2.18 -3.625,4.81 -4.402,7.58 -5.551,19.67 11.809,31.66 29.152,31.66 1.922,0 3.84,-0.14 5.731,-0.44 6.738,-1.07 13.367,-3 19.808,-5.59 56.161,-53.59 74.907,-139.35 77.504,-213.94 0.547,-15.74 0.59,-31.45 -0.113,-47.09 -7.535,-3.39 -15.516,-5.16 -23.449,-5.16"
         style="fill:#f79432;fill-opacity:1;fill-rule:nonzero;stroke:none"
         id="path11236" />
      <path
         d="m 775.496,1326.87 c 0.703,15.64 0.66,31.35 0.113,47.09 -2.597,74.59 -21.343,160.35 -77.504,213.94 14.801,-5.95 28.637,-15.39 40.754,-25.96 27.661,-31.66 47.262,-70.69 56.606,-111.53 7.594,-33.19 9.922,-66.19 8.445,-98.92 -0.695,-1.05 -1.422,-2.09 -2.176,-3.11 -7.203,-9.78 -16.328,-17.05 -26.238,-21.51"
         style="fill:#f8a035;fill-opacity:1;fill-rule:nonzero;stroke:none"
         id="path11238" />
      <path
         d="m 499.242,1679.32 c 6.969,33.14 35.778,67.7 52.946,95.87 19.835,32.57 40.734,62.37 66.792,89.63 -19.312,-29.64 -38.89,-59.09 -57.843,-88.97 -20.477,-32.28 -41.25,-64.36 -61.895,-96.53"
         style="fill:#317432;fill-opacity:1;fill-rule:nonzero;stroke:none"
         id="path11240" />
      <path
         d="m 503.758,1668.48 c -2.824,0 -5.871,2.33 -5.473,5.3 0.246,1.84 0.57,3.69 0.957,5.54 20.645,32.17 41.418,64.25 61.895,96.53 18.953,29.88 38.531,59.33 57.843,88.97 2.899,3.03 5.86,6.03 8.891,9 0.488,0.47 1.129,0.69 1.774,0.69 1.671,0 3.386,-1.41 2.64,-3.26 -15.594,-38.81 -36.043,-73.48 -59.101,-108.33 -12.786,-19.32 -25.696,-38.54 -38.352,-57.95 -8.953,-13.73 -15.191,-26.38 -28.598,-35.75 -0.726,-0.51 -1.589,-0.74 -2.476,-0.74"
         style="fill:#306d2f;fill-opacity:1;fill-rule:nonzero;stroke:none"
         id="path11242" />
    </g>
  </g>
</svg>
